<svg xmlns="http://www.w3.org/2000/svg" xmlns:xlink="http://www.w3.org/1999/xlink" contentStyleType="text/css" height="1079px" preserveAspectRatio="none" style="width:2186px;height:1079px;background:#FFFFFF;" version="1.1" viewBox="0 0 2186 1079" width="2186px" zoomAndPan="magnify"><defs/><g><rect fill="#FFFFFF" height="884.7598" style="stroke:#181818;stroke-width:1.0;" width="10" x="17.7793" y="93.6211"/><rect fill="#FFFFFF" height="219.0371" style="stroke:#181818;stroke-width:1.0;" width="10" x="330.3726" y="116.9121"/><rect fill="#FFFFFF" height="48.582" style="stroke:#181818;stroke-width:1.0;" width="10" x="330.3726" y="367.2402"/><rect fill="#FFFFFF" height="531.2676" style="stroke:#181818;stroke-width:1.0;" width="10" x="330.3726" y="447.1133"/><rect fill="#FFFFFF" height="156.4551" style="stroke:#181818;stroke-width:1.0;" width="10" x="607.5923" y="148.2031"/><rect fill="#FFFFFF" height="468.6855" style="stroke:#181818;stroke-width:1.0;" width="10" x="607.5923" y="478.4043"/><rect fill="#FFFFFF" height="93.873" style="stroke:#181818;stroke-width:1.0;" width="10" x="762.3125" y="179.4941"/><rect fill="#FFFFFF" height="406.1035" style="stroke:#181818;stroke-width:1.0;" width="10" x="910.0293" y="509.6953"/><rect fill="#FFFFFF" height="93.5332" style="stroke:#181818;stroke-width:1.0;" width="10" x="1115" y="540.9863"/><rect fill="#FFFFFF" height="93.5332" style="stroke:#181818;stroke-width:1.0;" width="10" x="1115" y="790.9746"/><rect fill="#FFFFFF" height="31.291" style="stroke:#181818;stroke-width:1.0;" width="10" x="1258.4375" y="665.8105"/><rect fill="#FFFFFF" height="31.291" style="stroke:#181818;stroke-width:1.0;" width="10" x="1395.2612" y="210.7852"/><rect fill="#FFFFFF" height="31.291" style="stroke:#181818;stroke-width:1.0;" width="10" x="1563.2124" y="728.3926"/><line style="stroke:#181818;stroke-width:0.5;stroke-dasharray:5.0,5.0;" x1="22" x2="22" y1="83.6211" y2="996.3809"/><line style="stroke:#181818;stroke-width:0.5;stroke-dasharray:5.0,5.0;" x1="334.6865" x2="334.6865" y1="83.6211" y2="996.3809"/><line style="stroke:#181818;stroke-width:0.5;stroke-dasharray:5.0,5.0;" x1="612.5615" x2="612.5615" y1="83.6211" y2="996.3809"/><line style="stroke:#181818;stroke-width:0.5;stroke-dasharray:5.0,5.0;" x1="766.623" x2="766.623" y1="83.6211" y2="996.3809"/><line style="stroke:#181818;stroke-width:0.5;stroke-dasharray:5.0,5.0;" x1="915.002" x2="915.002" y1="83.6211" y2="996.3809"/><line style="stroke:#181818;stroke-width:0.5;stroke-dasharray:5.0,5.0;" x1="1119.5796" x2="1119.5796" y1="83.6211" y2="996.3809"/><line style="stroke:#181818;stroke-width:0.5;stroke-dasharray:5.0,5.0;" x1="1263.4204" x2="1263.4204" y1="83.6211" y2="996.3809"/><line style="stroke:#181818;stroke-width:0.5;stroke-dasharray:5.0,5.0;" x1="1399.4546" x2="1399.4546" y1="83.6211" y2="996.3809"/><line style="stroke:#181818;stroke-width:0.5;stroke-dasharray:5.0,5.0;" x1="1568.0679" x2="1568.0679" y1="83.6211" y2="996.3809"/><line style="stroke:#181818;stroke-width:0.5;stroke-dasharray:5.0,5.0;" x1="1727.3569" x2="1727.3569" y1="840.0957" y2="996.3809"/><line style="stroke:#181818;stroke-width:0.5;stroke-dasharray:5.0,5.0;" x1="1847.6255" x2="1847.6255" y1="83.6211" y2="996.3809"/><line style="stroke:#181818;stroke-width:0.5;stroke-dasharray:5.0,5.0;" x1="1958.3491" x2="1958.3491" y1="590.1074" y2="996.3809"/><line style="stroke:#181818;stroke-width:0.5;stroke-dasharray:5.0,5.0;" x1="2100.1694" x2="2100.1694" y1="83.6211" y2="996.3809"/><text fill="#000000" font-family="sans-serif" font-size="14" lengthAdjust="spacing" textLength="29.5586" x="5" y="80.1074">User</text><ellipse cx="22.7793" cy="13.5" fill="#E3E3E3" rx="8" ry="8" style="stroke:#181818;stroke-width:0.5;"/><path d="M22.7793,21.5 L22.7793,48.5 M9.7793,29.5 L35.7793,29.5 M22.7793,48.5 L9.7793,63.5 M22.7793,48.5 L35.7793,63.5 " fill="none" style="stroke:#181818;stroke-width:0.5;"/><text fill="#000000" font-family="sans-serif" font-size="14" lengthAdjust="spacing" textLength="29.5586" x="5" y="1010.4883">User</text><ellipse cx="22.7793" cy="1022.502" fill="#E3E3E3" rx="8" ry="8" style="stroke:#181818;stroke-width:0.5;"/><path d="M22.7793,1030.502 L22.7793,1057.502 M9.7793,1038.502 L35.7793,1038.502 M22.7793,1057.502 L9.7793,1072.502 M22.7793,1057.502 L35.7793,1072.502 " fill="none" style="stroke:#181818;stroke-width:0.5;"/><rect fill="#E3E3E3" height="32.6211" rx="2.5" ry="2.5" style="stroke:#181818;stroke-width:0.5;" width="121.3721" x="274.6865" y="50"/><text fill="#000000" font-family="sans-serif" font-size="14" lengthAdjust="spacing" textLength="107.3721" x="281.6865" y="72.1074">:AdvertisementUI</text><rect fill="#E3E3E3" height="32.6211" rx="2.5" ry="2.5" style="stroke:#181818;stroke-width:0.5;" width="121.3721" x="274.6865" y="995.3809"/><text fill="#000000" font-family="sans-serif" font-size="14" lengthAdjust="spacing" textLength="107.3721" x="281.6865" y="1017.4883">:AdvertisementUI</text><rect fill="#E3E3E3" height="32.6211" rx="2.5" ry="2.5" style="stroke:#181818;stroke-width:0.5;" width="168.0615" x="528.5615" y="50"/><text fill="#000000" font-family="sans-serif" font-size="14" lengthAdjust="spacing" textLength="154.0615" x="535.5615" y="72.1074">:AdvertisementController</text><rect fill="#E3E3E3" height="32.6211" rx="2.5" ry="2.5" style="stroke:#181818;stroke-width:0.5;" width="168.0615" x="528.5615" y="995.3809"/><text fill="#000000" font-family="sans-serif" font-size="14" lengthAdjust="spacing" textLength="154.0615" x="535.5615" y="1017.4883">:AdvertisementController</text><rect fill="#E3E3E3" height="32.6211" rx="2.5" ry="2.5" style="stroke:#181818;stroke-width:0.5;" width="121.3789" x="706.623" y="50"/><text fill="#000000" font-family="sans-serif" font-size="14" lengthAdjust="spacing" textLength="107.3789" x="713.623" y="72.1074">:CategoryService</text><rect fill="#E3E3E3" height="32.6211" rx="2.5" ry="2.5" style="stroke:#181818;stroke-width:0.5;" width="121.3789" x="706.623" y="995.3809"/><text fill="#000000" font-family="sans-serif" font-size="14" lengthAdjust="spacing" textLength="107.3789" x="713.623" y="1017.4883">:CategoryService</text><rect fill="#E3E3E3" height="32.6211" rx="2.5" ry="2.5" style="stroke:#181818;stroke-width:0.5;" width="154.0547" x="838.002" y="50"/><text fill="#000000" font-family="sans-serif" font-size="14" lengthAdjust="spacing" textLength="140.0547" x="845.002" y="72.1074">:AdvertisementService</text><rect fill="#E3E3E3" height="32.6211" rx="2.5" ry="2.5" style="stroke:#181818;stroke-width:0.5;" width="154.0547" x="838.002" y="995.3809"/><text fill="#000000" font-family="sans-serif" font-size="14" lengthAdjust="spacing" textLength="140.0547" x="845.002" y="1017.4883">:AdvertisementService</text><rect fill="#E3E3E3" height="32.6211" rx="2.5" ry="2.5" style="stroke:#181818;stroke-width:0.5;" width="154.8408" x="1042.5796" y="50"/><text fill="#000000" font-family="sans-serif" font-size="14" lengthAdjust="spacing" textLength="140.8408" x="1049.5796" y="72.1074">:AdvertisementMapper</text><rect fill="#E3E3E3" height="32.6211" rx="2.5" ry="2.5" style="stroke:#181818;stroke-width:0.5;" width="154.8408" x="1042.5796" y="995.3809"/><text fill="#000000" font-family="sans-serif" font-size="14" lengthAdjust="spacing" textLength="140.8408" x="1049.5796" y="1017.4883">:AdvertisementMapper</text><rect fill="#E3E3E3" height="32.6211" rx="2.5" ry="2.5" style="stroke:#181818;stroke-width:0.5;" width="112.0342" x="1207.4204" y="50"/><text fill="#000000" font-family="sans-serif" font-size="14" lengthAdjust="spacing" textLength="98.0342" x="1214.4204" y="72.1074">:ItemRepository</text><rect fill="#E3E3E3" height="32.6211" rx="2.5" ry="2.5" style="stroke:#181818;stroke-width:0.5;" width="112.0342" x="1207.4204" y="995.3809"/><text fill="#000000" font-family="sans-serif" font-size="14" lengthAdjust="spacing" textLength="98.0342" x="1214.4204" y="1017.4883">:ItemRepository</text><rect fill="#E3E3E3" height="32.6211" rx="2.5" ry="2.5" style="stroke:#181818;stroke-width:0.5;" width="141.6133" x="1329.4546" y="50"/><text fill="#000000" font-family="sans-serif" font-size="14" lengthAdjust="spacing" textLength="127.6133" x="1336.4546" y="72.1074">:CategoryRepository</text><rect fill="#E3E3E3" height="32.6211" rx="2.5" ry="2.5" style="stroke:#181818;stroke-width:0.5;" width="141.6133" x="1329.4546" y="995.3809"/><text fill="#000000" font-family="sans-serif" font-size="14" lengthAdjust="spacing" textLength="127.6133" x="1336.4546" y="1017.4883">:CategoryRepository</text><rect fill="#E3E3E3" height="32.6211" rx="2.5" ry="2.5" style="stroke:#181818;stroke-width:0.5;" width="174.2891" x="1481.0679" y="50"/><text fill="#000000" font-family="sans-serif" font-size="14" lengthAdjust="spacing" textLength="160.2891" x="1488.0679" y="72.1074">:AdvertisementRepository</text><rect fill="#E3E3E3" height="32.6211" rx="2.5" ry="2.5" style="stroke:#181818;stroke-width:0.5;" width="174.2891" x="1481.0679" y="995.3809"/><text fill="#000000" font-family="sans-serif" font-size="14" lengthAdjust="spacing" textLength="160.2891" x="1488.0679" y="1017.4883">:AdvertisementRepository</text><rect fill="#E3E3E3" height="51.2422" rx="2.5" ry="2.5" style="stroke:#181818;stroke-width:0.5;" width="125.2686" x="1665.3569" y="995.3809"/><text fill="#000000" font-family="sans-serif" font-size="14" lengthAdjust="spacing" textLength="93.4063" x="1681.2881" y="1017.4883">updatedAdDto:</text><text fill="#000000" font-family="sans-serif" font-size="14" lengthAdjust="spacing" textLength="111.2686" x="1672.3569" y="1036.1094">AdvertisementDto</text><rect fill="#E3E3E3" height="51.2422" rx="2.5" ry="2.5" style="stroke:#181818;stroke-width:0.5;" width="95.7236" x="1800.6255" y="31.3789"/><text fill="#000000" font-family="sans-serif" font-size="14" lengthAdjust="spacing" textLength="81.7236" x="1807.6255" y="53.4863">updatedItem:</text><text fill="#000000" font-family="sans-serif" font-size="14" lengthAdjust="spacing" textLength="27.2275" x="1834.8735" y="72.1074">Item</text><rect fill="#E3E3E3" height="51.2422" rx="2.5" ry="2.5" style="stroke:#181818;stroke-width:0.5;" width="95.7236" x="1800.6255" y="995.3809"/><text fill="#000000" font-family="sans-serif" font-size="14" lengthAdjust="spacing" textLength="81.7236" x="1807.6255" y="1017.4883">updatedItem:</text><text fill="#000000" font-family="sans-serif" font-size="14" lengthAdjust="spacing" textLength="27.2275" x="1834.8735" y="1036.1094">Item</text><rect fill="#E3E3E3" height="51.2422" rx="2.5" ry="2.5" style="stroke:#181818;stroke-width:0.5;" width="105.8203" x="1906.3491" y="995.3809"/><text fill="#000000" font-family="sans-serif" font-size="14" lengthAdjust="spacing" textLength="91.8203" x="1913.3491" y="1017.4883">advertisement:</text><text fill="#000000" font-family="sans-serif" font-size="14" lengthAdjust="spacing" textLength="89.4824" x="1914.5181" y="1036.1094">Advertisement</text><rect fill="#E3E3E3" height="51.2422" rx="2.5" ry="2.5" style="stroke:#181818;stroke-width:0.5;" width="157.9785" x="2022.1694" y="31.3789"/><text fill="#000000" font-family="sans-serif" font-size="14" lengthAdjust="spacing" textLength="143.9785" x="2029.1694" y="53.4863">updatedAdvertisement:</text><text fill="#000000" font-family="sans-serif" font-size="14" lengthAdjust="spacing" textLength="89.4824" x="2056.4175" y="72.1074">Advertisement</text><rect fill="#E3E3E3" height="51.2422" rx="2.5" ry="2.5" style="stroke:#181818;stroke-width:0.5;" width="157.9785" x="2022.1694" y="995.3809"/><text fill="#000000" font-family="sans-serif" font-size="14" lengthAdjust="spacing" textLength="143.9785" x="2029.1694" y="1017.4883">updatedAdvertisement:</text><text fill="#000000" font-family="sans-serif" font-size="14" lengthAdjust="spacing" textLength="89.4824" x="2056.4175" y="1036.1094">Advertisement</text><rect fill="#FFFFFF" height="884.7598" style="stroke:#181818;stroke-width:1.0;" width="10" x="17.7793" y="93.6211"/><rect fill="#FFFFFF" height="219.0371" style="stroke:#181818;stroke-width:1.0;" width="10" x="330.3726" y="116.9121"/><rect fill="#FFFFFF" height="48.582" style="stroke:#181818;stroke-width:1.0;" width="10" x="330.3726" y="367.2402"/><rect fill="#FFFFFF" height="531.2676" style="stroke:#181818;stroke-width:1.0;" width="10" x="330.3726" y="447.1133"/><rect fill="#FFFFFF" height="156.4551" style="stroke:#181818;stroke-width:1.0;" width="10" x="607.5923" y="148.2031"/><rect fill="#FFFFFF" height="468.6855" style="stroke:#181818;stroke-width:1.0;" width="10" x="607.5923" y="478.4043"/><rect fill="#FFFFFF" height="93.873" style="stroke:#181818;stroke-width:1.0;" width="10" x="762.3125" y="179.4941"/><rect fill="#FFFFFF" height="406.1035" style="stroke:#181818;stroke-width:1.0;" width="10" x="910.0293" y="509.6953"/><rect fill="#FFFFFF" height="93.5332" style="stroke:#181818;stroke-width:1.0;" width="10" x="1115" y="540.9863"/><rect fill="#FFFFFF" height="93.5332" style="stroke:#181818;stroke-width:1.0;" width="10" x="1115" y="790.9746"/><rect fill="#FFFFFF" height="31.291" style="stroke:#181818;stroke-width:1.0;" width="10" x="1258.4375" y="665.8105"/><rect fill="#FFFFFF" height="31.291" style="stroke:#181818;stroke-width:1.0;" width="10" x="1395.2612" y="210.7852"/><rect fill="#FFFFFF" height="31.291" style="stroke:#181818;stroke-width:1.0;" width="10" x="1563.2124" y="728.3926"/><polygon fill="#181818" points="318.3726,112.9121,328.3726,116.9121,318.3726,120.9121,322.3726,116.9121" style="stroke:#181818;stroke-width:1.0;"/><line style="stroke:#181818;stroke-width:1.0;" x1="27.7793" x2="324.3726" y1="116.9121" y2="116.9121"/><text fill="#000000" font-family="sans-serif" font-size="13" font-weight="bold" lengthAdjust="spacing" textLength="7.23" x="34.7793" y="111.6494">1</text><text fill="#000000" font-family="sans-serif" font-size="13" lengthAdjust="spacing" textLength="211.0215" x="46.0093" y="111.6494">requests to update an advertisement</text><polygon fill="#181818" points="595.5923,144.2031,605.5923,148.2031,595.5923,152.2031,599.5923,148.2031" style="stroke:#181818;stroke-width:1.0;"/><line style="stroke:#181818;stroke-width:1.0;" x1="340.3726" x2="601.5923" y1="148.2031" y2="148.2031"/><text fill="#000000" font-family="sans-serif" font-size="13" font-weight="bold" lengthAdjust="spacing" textLength="7.23" x="347.3726" y="142.9404">2</text><text fill="#000000" font-family="sans-serif" font-size="13" lengthAdjust="spacing" textLength="89.5972" x="358.6025" y="142.9404">getCategories()</text><polygon fill="#181818" points="750.3125,175.4941,760.3125,179.4941,750.3125,183.4941,754.3125,179.4941" style="stroke:#181818;stroke-width:1.0;"/><line style="stroke:#181818;stroke-width:1.0;" x1="617.5923" x2="756.3125" y1="179.4941" y2="179.4941"/><text fill="#000000" font-family="sans-serif" font-size="13" font-weight="bold" lengthAdjust="spacing" textLength="7.23" x="624.5923" y="174.2314">3</text><text fill="#000000" font-family="sans-serif" font-size="13" lengthAdjust="spacing" textLength="104.0444" x="635.8223" y="174.2314">getAllCategories()</text><polygon fill="#181818" points="1383.2612,206.7852,1393.2612,210.7852,1383.2612,214.7852,1387.2612,210.7852" style="stroke:#181818;stroke-width:1.0;"/><line style="stroke:#181818;stroke-width:1.0;" x1="772.3125" x2="1389.2612" y1="210.7852" y2="210.7852"/><text fill="#000000" font-family="sans-serif" font-size="13" font-weight="bold" lengthAdjust="spacing" textLength="7.23" x="779.3125" y="205.5225">4</text><text fill="#000000" font-family="sans-serif" font-size="13" lengthAdjust="spacing" textLength="44.0654" x="790.5425" y="205.5225">findAll()</text><polygon fill="#181818" points="783.3125,238.0762,773.3125,242.0762,783.3125,246.0762,779.3125,242.0762" style="stroke:#181818;stroke-width:1.0;"/><line style="stroke:#181818;stroke-width:1.0;stroke-dasharray:2.0,2.0;" x1="777.3125" x2="1399.2612" y1="242.0762" y2="242.0762"/><text fill="#000000" font-family="sans-serif" font-size="13" font-weight="bold" lengthAdjust="spacing" textLength="7.23" x="789.3125" y="236.8135">5</text><text fill="#000000" font-family="sans-serif" font-size="13" lengthAdjust="spacing" textLength="70.0908" x="800.5425" y="236.8135">categoryList</text><polygon fill="#181818" points="628.5923,269.3672,618.5923,273.3672,628.5923,277.3672,624.5923,273.3672" style="stroke:#181818;stroke-width:1.0;"/><line style="stroke:#181818;stroke-width:1.0;stroke-dasharray:2.0,2.0;" x1="622.5923" x2="766.3125" y1="273.3672" y2="273.3672"/><text fill="#000000" font-family="sans-serif" font-size="13" font-weight="bold" lengthAdjust="spacing" textLength="7.23" x="634.5923" y="268.1045">6</text><text fill="#000000" font-family="sans-serif" font-size="13" lengthAdjust="spacing" textLength="70.0908" x="645.8223" y="268.1045">categoryList</text><polygon fill="#181818" points="351.3726,300.6582,341.3726,304.6582,351.3726,308.6582,347.3726,304.6582" style="stroke:#181818;stroke-width:1.0;"/><line style="stroke:#181818;stroke-width:1.0;stroke-dasharray:2.0,2.0;" x1="345.3726" x2="611.5923" y1="304.6582" y2="304.6582"/><text fill="#000000" font-family="sans-serif" font-size="13" font-weight="bold" lengthAdjust="spacing" textLength="7.23" x="357.3726" y="299.3955">7</text><text fill="#000000" font-family="sans-serif" font-size="13" lengthAdjust="spacing" textLength="70.0908" x="368.6025" y="299.3955">categoryList</text><polygon fill="#181818" points="38.7793,331.9492,28.7793,335.9492,38.7793,339.9492,34.7793,335.9492" style="stroke:#181818;stroke-width:1.0;"/><line style="stroke:#181818;stroke-width:1.0;stroke-dasharray:2.0,2.0;" x1="32.7793" x2="334.3726" y1="335.9492" y2="335.9492"/><text fill="#000000" font-family="sans-serif" font-size="13" font-weight="bold" lengthAdjust="spacing" textLength="7.23" x="44.7793" y="330.6865">8</text><text fill="#000000" font-family="sans-serif" font-size="13" lengthAdjust="spacing" textLength="252.9097" x="56.0093" y="330.6865">shows categories list and asks to select one</text><polygon fill="#181818" points="318.3726,363.2402,328.3726,367.2402,318.3726,371.2402,322.3726,367.2402" style="stroke:#181818;stroke-width:1.0;"/><line style="stroke:#181818;stroke-width:1.0;" x1="27.7793" x2="324.3726" y1="367.2402" y2="367.2402"/><text fill="#000000" font-family="sans-serif" font-size="13" font-weight="bold" lengthAdjust="spacing" textLength="7.23" x="34.7793" y="361.9775">9</text><text fill="#000000" font-family="sans-serif" font-size="13" lengthAdjust="spacing" textLength="104.7744" x="46.0093" y="361.9775">selects a category</text><polygon fill="#181818" points="38.7793,411.8223,28.7793,415.8223,38.7793,419.8223,34.7793,415.8223" style="stroke:#181818;stroke-width:1.0;"/><line style="stroke:#181818;stroke-width:1.0;stroke-dasharray:2.0,2.0;" x1="32.7793" x2="334.3726" y1="415.8223" y2="415.8223"/><text fill="#000000" font-family="sans-serif" font-size="13" font-weight="bold" lengthAdjust="spacing" textLength="14.46" x="44.7793" y="401.9141">10</text><text fill="#000000" font-family="sans-serif" font-size="13" lengthAdjust="spacing" textLength="164.0361" x="63.2393" y="393.2686">requests advertisement data</text><text fill="#000000" font-family="sans-serif" font-size="13" lengthAdjust="spacing" textLength="260.1333" x="63.2393" y="410.5596">(designation, finalDate, address, item values)</text><polygon fill="#181818" points="318.3726,443.1133,328.3726,447.1133,318.3726,451.1133,322.3726,447.1133" style="stroke:#181818;stroke-width:1.0;"/><line style="stroke:#181818;stroke-width:1.0;" x1="27.7793" x2="324.3726" y1="447.1133" y2="447.1133"/><text fill="#000000" font-family="sans-serif" font-size="13" font-weight="bold" lengthAdjust="spacing" textLength="14.46" x="34.7793" y="441.8506">11</text><text fill="#000000" font-family="sans-serif" font-size="13" lengthAdjust="spacing" textLength="226.1797" x="53.2393" y="441.8506">types requested data and clicks Submit</text><polygon fill="#181818" points="595.5923,474.4043,605.5923,478.4043,595.5923,482.4043,599.5923,478.4043" style="stroke:#181818;stroke-width:1.0;"/><line style="stroke:#181818;stroke-width:1.0;" x1="340.3726" x2="601.5923" y1="478.4043" y2="478.4043"/><text fill="#000000" font-family="sans-serif" font-size="13" font-weight="bold" lengthAdjust="spacing" textLength="14.46" x="347.3726" y="473.1416">12</text><text fill="#000000" font-family="sans-serif" font-size="13" lengthAdjust="spacing" textLength="229.7598" x="365.8325" y="473.1416">createAdvertisement(advertisementDto)</text><polygon fill="#181818" points="898.0293,505.6953,908.0293,509.6953,898.0293,513.6953,902.0293,509.6953" style="stroke:#181818;stroke-width:1.0;"/><line style="stroke:#181818;stroke-width:1.0;" x1="617.5923" x2="904.0293" y1="509.6953" y2="509.6953"/><text fill="#000000" font-family="sans-serif" font-size="13" font-weight="bold" lengthAdjust="spacing" textLength="14.46" x="624.5923" y="504.4326">13</text><text fill="#000000" font-family="sans-serif" font-size="13" lengthAdjust="spacing" textLength="229.7598" x="643.0522" y="504.4326">createAdvertisement(advertisementDto)</text><polygon fill="#181818" points="1103,536.9863,1113,540.9863,1103,544.9863,1107,540.9863" style="stroke:#181818;stroke-width:1.0;"/><line style="stroke:#181818;stroke-width:1.0;" x1="920.0293" x2="1109" y1="540.9863" y2="540.9863"/><text fill="#000000" font-family="sans-serif" font-size="13" font-weight="bold" lengthAdjust="spacing" textLength="14.46" x="927.0293" y="535.7236">14</text><text fill="#000000" font-family="sans-serif" font-size="13" lengthAdjust="spacing" textLength="153.8926" x="945.4893" y="535.7236">toEntity(advertisementDto)</text><line style="stroke:#181818;stroke-width:1.0;" x1="1904.3491" x2="1894.3491" y1="572.2773" y2="568.2773"/><line style="stroke:#181818;stroke-width:1.0;" x1="1904.3491" x2="1894.3491" y1="572.2773" y2="576.2773"/><line style="stroke:#181818;stroke-width:1.0;stroke-dasharray:2.0,2.0;" x1="1125" x2="1905.3491" y1="572.2773" y2="572.2773"/><text fill="#000000" font-family="sans-serif" font-size="13" font-weight="bold" lengthAdjust="spacing" textLength="14.46" x="1132" y="567.0146">15</text><text fill="#000000" font-family="sans-serif" font-size="13" lengthAdjust="spacing" textLength="44.7891" x="1150.46" y="567.0146">create()</text><rect fill="#E3E3E3" height="51.2422" rx="2.5" ry="2.5" style="stroke:#181818;stroke-width:0.5;" width="105.8203" x="1906.3491" y="548.9863"/><text fill="#000000" font-family="sans-serif" font-size="14" lengthAdjust="spacing" textLength="91.8203" x="1913.3491" y="571.0938">advertisement:</text><text fill="#000000" font-family="sans-serif" font-size="14" lengthAdjust="spacing" textLength="89.4824" x="1914.5181" y="589.7148">Advertisement</text><polygon fill="#181818" points="931.0293,630.5195,921.0293,634.5195,931.0293,638.5195,927.0293,634.5195" style="stroke:#181818;stroke-width:1.0;"/><line style="stroke:#181818;stroke-width:1.0;stroke-dasharray:2.0,2.0;" x1="925.0293" x2="1119" y1="634.5195" y2="634.5195"/><text fill="#000000" font-family="sans-serif" font-size="13" font-weight="bold" lengthAdjust="spacing" textLength="14.46" x="937.0293" y="629.2568">16</text><text fill="#000000" font-family="sans-serif" font-size="13" lengthAdjust="spacing" textLength="81.6499" x="955.4893" y="629.2568">advertisement</text><polygon fill="#181818" points="1246.4375,661.8105,1256.4375,665.8105,1246.4375,669.8105,1250.4375,665.8105" style="stroke:#181818;stroke-width:1.0;"/><line style="stroke:#181818;stroke-width:1.0;" x1="920.0293" x2="1252.4375" y1="665.8105" y2="665.8105"/><text fill="#000000" font-family="sans-serif" font-size="13" font-weight="bold" lengthAdjust="spacing" textLength="14.46" x="927.0293" y="660.5479">17</text><text fill="#000000" font-family="sans-serif" font-size="13" lengthAdjust="spacing" textLength="145.939" x="945.4893" y="660.5479">save(advertisement.item)</text><polygon fill="#181818" points="931.0293,693.1016,921.0293,697.1016,931.0293,701.1016,927.0293,697.1016" style="stroke:#181818;stroke-width:1.0;"/><line style="stroke:#181818;stroke-width:1.0;stroke-dasharray:2.0,2.0;" x1="925.0293" x2="1262.4375" y1="697.1016" y2="697.1016"/><text fill="#000000" font-family="sans-serif" font-size="13" font-weight="bold" lengthAdjust="spacing" textLength="14.46" x="937.0293" y="691.8389">18</text><text fill="#000000" font-family="sans-serif" font-size="13" lengthAdjust="spacing" textLength="59.9727" x="955.4893" y="691.8389">savedItem</text><polygon fill="#181818" points="1551.2124,724.3926,1561.2124,728.3926,1551.2124,732.3926,1555.2124,728.3926" style="stroke:#181818;stroke-width:1.0;"/><line style="stroke:#181818;stroke-width:1.0;" x1="920.0293" x2="1557.2124" y1="728.3926" y2="728.3926"/><text fill="#000000" font-family="sans-serif" font-size="13" font-weight="bold" lengthAdjust="spacing" textLength="14.46" x="927.0293" y="723.1299">19</text><text fill="#000000" font-family="sans-serif" font-size="13" lengthAdjust="spacing" textLength="117.7681" x="945.4893" y="723.1299">save(advertisement)</text><polygon fill="#181818" points="931.0293,755.6836,921.0293,759.6836,931.0293,763.6836,927.0293,759.6836" style="stroke:#181818;stroke-width:1.0;"/><line style="stroke:#181818;stroke-width:1.0;stroke-dasharray:2.0,2.0;" x1="925.0293" x2="1567.2124" y1="759.6836" y2="759.6836"/><text fill="#000000" font-family="sans-serif" font-size="13" font-weight="bold" lengthAdjust="spacing" textLength="14.46" x="937.0293" y="754.4209">20</text><text fill="#000000" font-family="sans-serif" font-size="13" lengthAdjust="spacing" textLength="117.7808" x="955.4893" y="754.4209">savedAdvertisement</text><polygon fill="#181818" points="1103,786.9746,1113,790.9746,1103,794.9746,1107,790.9746" style="stroke:#181818;stroke-width:1.0;"/><line style="stroke:#181818;stroke-width:1.0;" x1="920.0293" x2="1109" y1="790.9746" y2="790.9746"/><text fill="#000000" font-family="sans-serif" font-size="13" font-weight="bold" lengthAdjust="spacing" textLength="14.46" x="927.0293" y="785.7119">21</text><text fill="#000000" font-family="sans-serif" font-size="13" lengthAdjust="spacing" textLength="157.5107" x="945.4893" y="785.7119">toDto(savedAdvertisement)</text><line style="stroke:#181818;stroke-width:1.0;" x1="1663.3569" x2="1653.3569" y1="822.2656" y2="818.2656"/><line style="stroke:#181818;stroke-width:1.0;" x1="1663.3569" x2="1653.3569" y1="822.2656" y2="826.2656"/><line style="stroke:#181818;stroke-width:1.0;stroke-dasharray:2.0,2.0;" x1="1125" x2="1664.3569" y1="822.2656" y2="822.2656"/><text fill="#000000" font-family="sans-serif" font-size="13" font-weight="bold" lengthAdjust="spacing" textLength="14.46" x="1132" y="817.0029">22</text><text fill="#000000" font-family="sans-serif" font-size="13" lengthAdjust="spacing" textLength="44.7891" x="1150.46" y="817.0029">create()</text><rect fill="#E3E3E3" height="51.2422" rx="2.5" ry="2.5" style="stroke:#181818;stroke-width:0.5;" width="125.2686" x="1665.3569" y="798.9746"/><text fill="#000000" font-family="sans-serif" font-size="14" lengthAdjust="spacing" textLength="93.4063" x="1681.2881" y="821.082">updatedAdDto:</text><text fill="#000000" font-family="sans-serif" font-size="14" lengthAdjust="spacing" textLength="111.2686" x="1672.3569" y="839.7031">AdvertisementDto</text><polygon fill="#181818" points="931.0293,880.5078,921.0293,884.5078,931.0293,888.5078,927.0293,884.5078" style="stroke:#181818;stroke-width:1.0;"/><line style="stroke:#181818;stroke-width:1.0;stroke-dasharray:2.0,2.0;" x1="925.0293" x2="1119" y1="884.5078" y2="884.5078"/><text fill="#000000" font-family="sans-serif" font-size="13" font-weight="bold" lengthAdjust="spacing" textLength="14.46" x="937.0293" y="879.2451">23</text><text fill="#000000" font-family="sans-serif" font-size="13" lengthAdjust="spacing" textLength="78.0317" x="955.4893" y="879.2451">savedAdDTO</text><polygon fill="#181818" points="628.5923,911.7988,618.5923,915.7988,628.5923,919.7988,624.5923,915.7988" style="stroke:#181818;stroke-width:1.0;"/><line style="stroke:#181818;stroke-width:1.0;stroke-dasharray:2.0,2.0;" x1="622.5923" x2="914.0293" y1="915.7988" y2="915.7988"/><text fill="#000000" font-family="sans-serif" font-size="13" font-weight="bold" lengthAdjust="spacing" textLength="14.46" x="634.5923" y="910.5361">24</text><text fill="#000000" font-family="sans-serif" font-size="13" lengthAdjust="spacing" textLength="78.0317" x="653.0522" y="910.5361">savedAdDTO</text><polygon fill="#181818" points="351.3726,943.0898,341.3726,947.0898,351.3726,951.0898,347.3726,947.0898" style="stroke:#181818;stroke-width:1.0;"/><line style="stroke:#181818;stroke-width:1.0;stroke-dasharray:2.0,2.0;" x1="345.3726" x2="611.5923" y1="947.0898" y2="947.0898"/><text fill="#000000" font-family="sans-serif" font-size="13" font-weight="bold" lengthAdjust="spacing" textLength="14.46" x="357.3726" y="941.8271">25</text><text fill="#000000" font-family="sans-serif" font-size="13" lengthAdjust="spacing" textLength="133.6499" x="375.8325" y="941.8271">success(savedAdDTO)</text><polygon fill="#181818" points="33.7793,974.3809,23.7793,978.3809,33.7793,982.3809,29.7793,978.3809" style="stroke:#181818;stroke-width:1.0;"/><line style="stroke:#181818;stroke-width:1.0;stroke-dasharray:2.0,2.0;" x1="27.7793" x2="334.3726" y1="978.3809" y2="978.3809"/><text fill="#000000" font-family="sans-serif" font-size="13" font-weight="bold" lengthAdjust="spacing" textLength="14.46" x="39.7793" y="973.1182">26</text><text fill="#000000" font-family="sans-serif" font-size="13" lengthAdjust="spacing" textLength="155.3589" x="58.2393" y="973.1182">displays operation success</text><!--SRC=[hPRRRk8m48RlUGgBAwZQVG0kLeg0YqX5HHpsgX9odMbguTZPsA7As-yu2KcS4w1kRZZD_ysC_NkCFdCPquH6959IiQz4HK1Cai94Lx_4b9rf27kJ2I09C4DbA9e1-ei6wflBa7nIeM4oeQbHCeq-8C7tpAY4J8yQaYcXcXptwzq4TOOp7bDfo7JX1HV0pneYaERe5s7-MD1IIPCe8Khcyh1xROKlgO5G9TaUaWjdK8HvXnDc_-ClrsFmfiHRLOenoOR6SLaBAZRUTjjfqZSGxI1MckDwP7ceVrXlJhlrzcsWzbQuBRydsYca9S5YSeKhIUC0CmHUi39gyIuT07vrLQuERxqwsmdAx4lLXXj8cyHsXX8_KD8juN6xyWxhrGa1rbhyWhB2KnE2Ztr7NdwZVSW2lVet1MqqCOeK2GYLn2ak5zKSlw3a9DzohBEG588fDuM3dishe4gPEx3wsZwvqX9gqnKWJuXUbijhMDM9oD4DP9d1xZBYFxaCaD-YTiYv9qZFKw5UEfMpqfIlN9kEDe0kVxpiUcq7mIrext8KgtpTy5vK4-FiajrXgxIMMU0GKz_wIi2T8G8Xw9S0NNVEBQH1uF0ZIiAanRtwnd5V4Qu9hSeQDrjTIkLRnwe43Kp9kvm5e7aegU5AFjiTfsA5l6UC3XBG-fbmF9daGWL2vdULQh8O6oxJGb1aigqpmHaslqy_8dxlMM49uE_EoPtHreXvw0JLC_XXkfEXESlRtcpaA38MCzokZLfBmqrs8qixKta7z1socevxRfCzFLMDzPpSZiHTaEuu6pX3TL4tkg-k9MjYUW6tyr_MNIEzrvTQNoCrkzE8JPNVBMDDrFJRMpZOmlZE3TP-HVPNxZsm3tSsqF0W-ctMJVF_B6Wl-n_Pi2pE_cVukGVhOJA0TP5tt0mwPGnduwpcpH-z80AkOq4pJHJ-rSkdxvNQDsER7r7_3m00]--></g></svg>