<svg xmlns="http://www.w3.org/2000/svg" xmlns:xlink="http://www.w3.org/1999/xlink" contentStyleType="text/css" height="1096px" preserveAspectRatio="none" style="width:1249px;height:1096px;background:#FFFFFF;" version="1.1" viewBox="0 0 1249 1096" width="1249px" zoomAndPan="magnify"><defs/><g><!--class User--><g id="elem_User"><rect codeLine="6" fill="#F1F1F1" height="159.7266" id="User" rx="2.5" ry="2.5" style="stroke:#181818;stroke-width:0.5;" width="149.7373" x="7" y="7"/><ellipse cx="62.8394" cy="23" fill="#ADD1B2" rx="11" ry="11" style="stroke:#181818;stroke-width:1.0;"/><path d="M65.605,18.875 Q65.7612,18.6563 65.9487,18.5469 Q66.1362,18.4375 66.355,18.4375 Q66.73,18.4375 66.9644,18.7031 Q67.1987,18.9531 67.1987,19.5625 L67.1987,21.0156 Q67.1987,21.625 66.9644,21.8906 Q66.73,22.1563 66.355,22.1563 Q66.0112,22.1563 65.8081,21.9531 Q65.605,21.7656 65.4956,21.25 Q65.4487,20.8906 65.2612,20.7031 Q64.9331,20.3281 64.3237,20.1094 Q63.7144,19.8906 63.0894,19.8906 Q62.3237,19.8906 61.6831,20.2188 Q61.0581,20.5469 60.5581,21.2969 Q60.0737,22.0469 60.0737,23.0781 L60.0737,24.1719 Q60.0737,25.4063 60.9644,26.2344 Q61.855,27.0469 63.4487,27.0469 Q64.3862,27.0469 65.0425,26.7969 Q65.4331,26.6406 65.855,26.2031 Q66.1206,25.9375 66.2612,25.8594 Q66.4175,25.7813 66.6206,25.7813 Q66.9487,25.7813 67.1987,26.0469 Q67.4644,26.2969 67.4644,26.6406 Q67.4644,26.9844 67.1206,27.3906 Q66.6206,27.9688 65.8237,28.2969 Q64.7456,28.75 63.4487,28.75 Q61.9331,28.75 60.73,28.125 Q59.7456,27.625 59.0581,26.5625 Q58.3706,25.4844 58.3706,24.2031 L58.3706,23.0469 Q58.3706,21.7188 58.98,20.5781 Q59.605,19.4219 60.6987,18.8125 Q61.7925,18.1875 63.0269,18.1875 Q63.7612,18.1875 64.4019,18.3594 Q65.0581,18.5156 65.605,18.875 Z " fill="#000000"/><text fill="#000000" font-family="sans-serif" font-size="14" lengthAdjust="spacing" textLength="29.5586" x="83.3394" y="28.7969">User</text><line style="stroke:#181818;stroke-width:0.5;" x1="8" x2="155.7373" y1="39" y2="39"/><text fill="#000000" font-family="sans-serif" font-size="14" lengthAdjust="spacing" textLength="84.0342" x="13" y="58.1074">-name: String</text><text fill="#000000" font-family="sans-serif" font-size="14" lengthAdjust="spacing" textLength="133.8271" x="13" y="76.7285">-emailAddress: String</text><text fill="#000000" font-family="sans-serif" font-size="14" lengthAdjust="spacing" textLength="137.7373" x="13" y="95.3496">-phoneNumber: String</text><text fill="#000000" font-family="sans-serif" font-size="14" lengthAdjust="spacing" textLength="108.9307" x="13" y="113.9707">-password: String</text><text fill="#000000" font-family="sans-serif" font-size="14" lengthAdjust="spacing" textLength="72.3584" x="13" y="132.5918">-role: String</text><line style="stroke:#181818;stroke-width:0.5;" x1="8" x2="155.7373" y1="140.1055" y2="140.1055"/><text fill="#000000" font-family="sans-serif" font-size="14" lengthAdjust="spacing" textLength="58.7275" x="13" y="159.2129">+User(...)</text></g><!--class Item--><g id="elem_Item"><rect codeLine="15" fill="#F1F1F1" height="122.4844" id="Item" rx="2.5" ry="2.5" style="stroke:#181818;stroke-width:0.5;" width="132.627" x="517.5" y="879"/><ellipse cx="565.9497" cy="895" fill="#ADD1B2" rx="11" ry="11" style="stroke:#181818;stroke-width:1.0;"/><path d="M568.7153,890.875 Q568.8716,890.6563 569.0591,890.5469 Q569.2466,890.4375 569.4653,890.4375 Q569.8403,890.4375 570.0747,890.7031 Q570.3091,890.9531 570.3091,891.5625 L570.3091,893.0156 Q570.3091,893.625 570.0747,893.8906 Q569.8403,894.1563 569.4653,894.1563 Q569.1216,894.1563 568.9185,893.9531 Q568.7153,893.7656 568.606,893.25 Q568.5591,892.8906 568.3716,892.7031 Q568.0435,892.3281 567.4341,892.1094 Q566.8247,891.8906 566.1997,891.8906 Q565.4341,891.8906 564.7935,892.2188 Q564.1685,892.5469 563.6685,893.2969 Q563.1841,894.0469 563.1841,895.0781 L563.1841,896.1719 Q563.1841,897.4063 564.0747,898.2344 Q564.9653,899.0469 566.5591,899.0469 Q567.4966,899.0469 568.1528,898.7969 Q568.5435,898.6406 568.9653,898.2031 Q569.231,897.9375 569.3716,897.8594 Q569.5278,897.7813 569.731,897.7813 Q570.0591,897.7813 570.3091,898.0469 Q570.5747,898.2969 570.5747,898.6406 Q570.5747,898.9844 570.231,899.3906 Q569.731,899.9688 568.9341,900.2969 Q567.856,900.75 566.5591,900.75 Q565.0435,900.75 563.8403,900.125 Q562.856,899.625 562.1685,898.5625 Q561.481,897.4844 561.481,896.2031 L561.481,895.0469 Q561.481,893.7188 562.0903,892.5781 Q562.7153,891.4219 563.8091,890.8125 Q564.9028,890.1875 566.1372,890.1875 Q566.8716,890.1875 567.5122,890.3594 Q568.1685,890.5156 568.7153,890.875 Z " fill="#000000"/><text fill="#000000" font-family="sans-serif" font-size="14" lengthAdjust="spacing" textLength="27.2275" x="586.4497" y="900.7969">Item</text><line style="stroke:#181818;stroke-width:0.5;" x1="518.5" x2="649.127" y1="911" y2="911"/><text fill="#000000" font-family="sans-serif" font-size="14" lengthAdjust="spacing" textLength="120.627" x="523.5" y="930.1074">-designation: String</text><text fill="#000000" font-family="sans-serif" font-size="14" lengthAdjust="spacing" textLength="105.0547" x="523.5" y="948.7285">-condition: String</text><text fill="#000000" font-family="sans-serif" font-size="14" lengthAdjust="spacing" textLength="42.793" x="523.5" y="967.3496">-image</text><line style="stroke:#181818;stroke-width:0.5;" x1="518.5" x2="649.127" y1="974.8633" y2="974.8633"/><text fill="#000000" font-family="sans-serif" font-size="14" lengthAdjust="spacing" textLength="56.3965" x="523.5" y="993.9707">+Item(...)</text></g><!--class ItemDto--><g id="elem_ItemDto"><rect codeLine="22" fill="#F1F1F1" height="141.1055" id="ItemDto" rx="2.5" ry="2.5" style="stroke:#181818;stroke-width:0.5;" width="152.0547" x="1090" y="659"/><ellipse cx="1137.2705" cy="675" fill="#ADD1B2" rx="11" ry="11" style="stroke:#181818;stroke-width:1.0;"/><path d="M1140.0361,670.875 Q1140.1924,670.6563 1140.3799,670.5469 Q1140.5674,670.4375 1140.7861,670.4375 Q1141.1611,670.4375 1141.3955,670.7031 Q1141.6299,670.9531 1141.6299,671.5625 L1141.6299,673.0156 Q1141.6299,673.625 1141.3955,673.8906 Q1141.1611,674.1563 1140.7861,674.1563 Q1140.4424,674.1563 1140.2393,673.9531 Q1140.0361,673.7656 1139.9268,673.25 Q1139.8799,672.8906 1139.6924,672.7031 Q1139.3643,672.3281 1138.7549,672.1094 Q1138.1455,671.8906 1137.5205,671.8906 Q1136.7549,671.8906 1136.1143,672.2188 Q1135.4893,672.5469 1134.9893,673.2969 Q1134.5049,674.0469 1134.5049,675.0781 L1134.5049,676.1719 Q1134.5049,677.4063 1135.3955,678.2344 Q1136.2861,679.0469 1137.8799,679.0469 Q1138.8174,679.0469 1139.4736,678.7969 Q1139.8643,678.6406 1140.2861,678.2031 Q1140.5518,677.9375 1140.6924,677.8594 Q1140.8486,677.7813 1141.0518,677.7813 Q1141.3799,677.7813 1141.6299,678.0469 Q1141.8955,678.2969 1141.8955,678.6406 Q1141.8955,678.9844 1141.5518,679.3906 Q1141.0518,679.9688 1140.2549,680.2969 Q1139.1768,680.75 1137.8799,680.75 Q1136.3643,680.75 1135.1611,680.125 Q1134.1768,679.625 1133.4893,678.5625 Q1132.8018,677.4844 1132.8018,676.2031 L1132.8018,675.0469 Q1132.8018,673.7188 1133.4111,672.5781 Q1134.0361,671.4219 1135.1299,670.8125 Q1136.2236,670.1875 1137.458,670.1875 Q1138.1924,670.1875 1138.833,670.3594 Q1139.4893,670.5156 1140.0361,670.875 Z " fill="#000000"/><text fill="#000000" font-family="sans-serif" font-size="14" lengthAdjust="spacing" textLength="49.0137" x="1157.7705" y="680.7969">ItemDto</text><line style="stroke:#181818;stroke-width:0.5;" x1="1091" x2="1241.0547" y1="691" y2="691"/><text fill="#000000" font-family="sans-serif" font-size="14" lengthAdjust="spacing" textLength="120.627" x="1096" y="710.1074">-designation: String</text><text fill="#000000" font-family="sans-serif" font-size="14" lengthAdjust="spacing" textLength="140.0547" x="1096" y="728.7285">-categoryName: String</text><text fill="#000000" font-family="sans-serif" font-size="14" lengthAdjust="spacing" textLength="105.0547" x="1096" y="747.3496">-condition: String</text><text fill="#000000" font-family="sans-serif" font-size="14" lengthAdjust="spacing" textLength="42.793" x="1096" y="765.9707">-image</text><line style="stroke:#181818;stroke-width:0.5;" x1="1091" x2="1241.0547" y1="773.4844" y2="773.4844"/><text fill="#000000" font-family="sans-serif" font-size="14" lengthAdjust="spacing" textLength="78.1826" x="1096" y="792.5918">+ItemDto(...)</text></g><!--class Category--><g id="elem_Category"><rect codeLine="30" fill="#F1F1F1" height="103.8633" id="Category" rx="2.5" ry="2.5" style="stroke:#181818;stroke-width:0.5;" width="132.627" x="546.5" y="677.5"/><ellipse cx="581.2191" cy="693.5" fill="#ADD1B2" rx="11" ry="11" style="stroke:#181818;stroke-width:1.0;"/><path d="M583.9848,689.375 Q584.141,689.1563 584.3285,689.0469 Q584.516,688.9375 584.7348,688.9375 Q585.1098,688.9375 585.3441,689.2031 Q585.5785,689.4531 585.5785,690.0625 L585.5785,691.5156 Q585.5785,692.125 585.3441,692.3906 Q585.1098,692.6563 584.7348,692.6563 Q584.391,692.6563 584.1879,692.4531 Q583.9848,692.2656 583.8754,691.75 Q583.8285,691.3906 583.641,691.2031 Q583.3129,690.8281 582.7035,690.6094 Q582.0941,690.3906 581.4691,690.3906 Q580.7035,690.3906 580.0629,690.7188 Q579.4379,691.0469 578.9379,691.7969 Q578.4535,692.5469 578.4535,693.5781 L578.4535,694.6719 Q578.4535,695.9063 579.3441,696.7344 Q580.2348,697.5469 581.8285,697.5469 Q582.766,697.5469 583.4223,697.2969 Q583.8129,697.1406 584.2348,696.7031 Q584.5004,696.4375 584.641,696.3594 Q584.7973,696.2813 585.0004,696.2813 Q585.3285,696.2813 585.5785,696.5469 Q585.8441,696.7969 585.8441,697.1406 Q585.8441,697.4844 585.5004,697.8906 Q585.0004,698.4688 584.2035,698.7969 Q583.1254,699.25 581.8285,699.25 Q580.3129,699.25 579.1098,698.625 Q578.1254,698.125 577.4379,697.0625 Q576.7504,695.9844 576.7504,694.7031 L576.7504,693.5469 Q576.7504,692.2188 577.3598,691.0781 Q577.9848,689.9219 579.0785,689.3125 Q580.1723,688.6875 581.4066,688.6875 Q582.141,688.6875 582.7816,688.8594 Q583.4379,689.0156 583.9848,689.375 Z " fill="#000000"/><text fill="#000000" font-family="sans-serif" font-size="14" lengthAdjust="spacing" textLength="56.8066" x="599.6012" y="699.2969">Category</text><line style="stroke:#181818;stroke-width:0.5;" x1="547.5" x2="678.127" y1="709.5" y2="709.5"/><text fill="#000000" font-family="sans-serif" font-size="14" lengthAdjust="spacing" textLength="59.9102" x="552.5" y="728.6074">-id: String</text><text fill="#000000" font-family="sans-serif" font-size="14" lengthAdjust="spacing" textLength="120.627" x="552.5" y="747.2285">-designation: String</text><line style="stroke:#181818;stroke-width:0.5;" x1="547.5" x2="678.127" y1="754.7422" y2="754.7422"/><text fill="#000000" font-family="sans-serif" font-size="14" lengthAdjust="spacing" textLength="85.9756" x="552.5" y="773.8496">+Category(...)</text></g><!--class AdvertisementDto--><g id="elem_AdvertisementDto"><rect codeLine="36" fill="#F1F1F1" height="122.4844" id="AdvertisementDto" rx="2.5" ry="2.5" style="stroke:#181818;stroke-width:0.5;" width="152.4375" x="1090" y="392"/><ellipse cx="1109.126" cy="408" fill="#ADD1B2" rx="11" ry="11" style="stroke:#181818;stroke-width:1.0;"/><path d="M1111.8917,403.875 Q1112.0479,403.6563 1112.2354,403.5469 Q1112.4229,403.4375 1112.6417,403.4375 Q1113.0167,403.4375 1113.251,403.7031 Q1113.4854,403.9531 1113.4854,404.5625 L1113.4854,406.0156 Q1113.4854,406.625 1113.251,406.8906 Q1113.0167,407.1563 1112.6417,407.1563 Q1112.2979,407.1563 1112.0948,406.9531 Q1111.8917,406.7656 1111.7823,406.25 Q1111.7354,405.8906 1111.5479,405.7031 Q1111.2198,405.3281 1110.6104,405.1094 Q1110.001,404.8906 1109.376,404.8906 Q1108.6104,404.8906 1107.9698,405.2188 Q1107.3448,405.5469 1106.8448,406.2969 Q1106.3604,407.0469 1106.3604,408.0781 L1106.3604,409.1719 Q1106.3604,410.4063 1107.251,411.2344 Q1108.1417,412.0469 1109.7354,412.0469 Q1110.6729,412.0469 1111.3292,411.7969 Q1111.7198,411.6406 1112.1417,411.2031 Q1112.4073,410.9375 1112.5479,410.8594 Q1112.7042,410.7813 1112.9073,410.7813 Q1113.2354,410.7813 1113.4854,411.0469 Q1113.751,411.2969 1113.751,411.6406 Q1113.751,411.9844 1113.4073,412.3906 Q1112.9073,412.9688 1112.1104,413.2969 Q1111.0323,413.75 1109.7354,413.75 Q1108.2198,413.75 1107.0167,413.125 Q1106.0323,412.625 1105.3448,411.5625 Q1104.6573,410.4844 1104.6573,409.2031 L1104.6573,408.0469 Q1104.6573,406.7188 1105.2667,405.5781 Q1105.8917,404.4219 1106.9854,403.8125 Q1108.0792,403.1875 1109.3135,403.1875 Q1110.0479,403.1875 1110.6885,403.3594 Q1111.3448,403.5156 1111.8917,403.875 Z " fill="#000000"/><text fill="#000000" font-family="sans-serif" font-size="14" lengthAdjust="spacing" textLength="111.2686" x="1124.0429" y="413.7969">AdvertisementDto</text><line style="stroke:#181818;stroke-width:0.5;" x1="1091" x2="1241.4375" y1="424" y2="424"/><text fill="#000000" font-family="sans-serif" font-size="14" lengthAdjust="spacing" textLength="120.627" x="1096" y="443.1074">-designation: String</text><text fill="#000000" font-family="sans-serif" font-size="14" lengthAdjust="spacing" textLength="98.8203" x="1096" y="461.7285">-address: String</text><text fill="#000000" font-family="sans-serif" font-size="14" lengthAdjust="spacing" textLength="109.6895" x="1096" y="480.3496">-itemDto: ItemDto</text><line style="stroke:#181818;stroke-width:0.5;" x1="1091" x2="1241.4375" y1="487.8633" y2="487.8633"/><text fill="#000000" font-family="sans-serif" font-size="14" lengthAdjust="spacing" textLength="140.4375" x="1096" y="506.9707">+AdvertisementDto(...)</text></g><!--class Advertisement--><g id="elem_Advertisement"><rect codeLine="43" fill="#F1F1F1" height="141.1055" id="Advertisement" rx="2.5" ry="2.5" style="stroke:#181818;stroke-width:0.5;" width="132.627" x="795.5" y="659"/><ellipse cx="815.515" cy="675" fill="#ADD1B2" rx="11" ry="11" style="stroke:#181818;stroke-width:1.0;"/><path d="M818.2807,670.875 Q818.4369,670.6563 818.6244,670.5469 Q818.8119,670.4375 819.0307,670.4375 Q819.4057,670.4375 819.64,670.7031 Q819.8744,670.9531 819.8744,671.5625 L819.8744,673.0156 Q819.8744,673.625 819.64,673.8906 Q819.4057,674.1563 819.0307,674.1563 Q818.6869,674.1563 818.4838,673.9531 Q818.2807,673.7656 818.1713,673.25 Q818.1244,672.8906 817.9369,672.7031 Q817.6088,672.3281 816.9994,672.1094 Q816.39,671.8906 815.765,671.8906 Q814.9994,671.8906 814.3588,672.2188 Q813.7338,672.5469 813.2338,673.2969 Q812.7494,674.0469 812.7494,675.0781 L812.7494,676.1719 Q812.7494,677.4063 813.64,678.2344 Q814.5307,679.0469 816.1244,679.0469 Q817.0619,679.0469 817.7182,678.7969 Q818.1088,678.6406 818.5307,678.2031 Q818.7963,677.9375 818.9369,677.8594 Q819.0932,677.7813 819.2963,677.7813 Q819.6244,677.7813 819.8744,678.0469 Q820.14,678.2969 820.14,678.6406 Q820.14,678.9844 819.7963,679.3906 Q819.2963,679.9688 818.4994,680.2969 Q817.4213,680.75 816.1244,680.75 Q814.6088,680.75 813.4057,680.125 Q812.4213,679.625 811.7338,678.5625 Q811.0463,677.4844 811.0463,676.2031 L811.0463,675.0469 Q811.0463,673.7188 811.6557,672.5781 Q812.2807,671.4219 813.3744,670.8125 Q814.4682,670.1875 815.7025,670.1875 Q816.4369,670.1875 817.0775,670.3594 Q817.7338,670.5156 818.2807,670.875 Z " fill="#000000"/><text fill="#000000" font-family="sans-serif" font-size="14" lengthAdjust="spacing" textLength="89.4824" x="830.6295" y="680.7969">Advertisement</text><line style="stroke:#181818;stroke-width:0.5;" x1="796.5" x2="927.127" y1="691" y2="691"/><text fill="#000000" font-family="sans-serif" font-size="14" lengthAdjust="spacing" textLength="120.627" x="801.5" y="710.1074">-designation: String</text><text fill="#000000" font-family="sans-serif" font-size="14" lengthAdjust="spacing" textLength="103.4893" x="801.5" y="728.7285">-initialDate: Date</text><text fill="#000000" font-family="sans-serif" font-size="14" lengthAdjust="spacing" textLength="97.2686" x="801.5" y="747.3496">-finalDate: Date</text><text fill="#000000" font-family="sans-serif" font-size="14" lengthAdjust="spacing" textLength="98.8203" x="801.5" y="765.9707">-address: String</text><line style="stroke:#181818;stroke-width:0.5;" x1="796.5" x2="927.127" y1="773.4844" y2="773.4844"/><text fill="#000000" font-family="sans-serif" font-size="14" lengthAdjust="spacing" textLength="118.6514" x="801.5" y="792.5918">+Advertisement(...)</text></g><!--class AdvertisementStatus--><g id="elem_AdvertisementStatus"><rect codeLine="51" fill="#F1F1F1" height="48" id="AdvertisementStatus" rx="2.5" ry="2.5" style="stroke:#181818;stroke-width:0.5;" width="161.1719" x="781.5" y="916"/><ellipse cx="796.5" cy="932" fill="#EB937F" rx="11" ry="11" style="stroke:#181818;stroke-width:1.0;"/><path d="M795.3594,932.7969 L795.3594,935.2969 L799.6875,935.2969 L799.6875,934.375 Q799.6875,933.7656 799.9219,933.5 Q800.1719,933.2344 800.5469,933.2344 Q800.9219,933.2344 801.1563,933.5 Q801.3906,933.7656 801.3906,934.375 L801.3906,937 L793.3906,937 Q792.7656,937 792.5,936.7656 Q792.25,936.5313 792.25,936.1406 Q792.25,935.7656 792.5156,935.5313 Q792.7813,935.2969 793.3906,935.2969 L793.6563,935.2969 L793.6563,928.6406 L793.3906,928.6406 Q792.7656,928.6406 792.5,928.4063 Q792.25,928.1719 792.25,927.7813 Q792.25,927.4063 792.5,927.1719 Q792.7656,926.9375 793.3906,926.9375 L801.0156,926.9375 L801.0156,929.5313 Q801.0156,930.1406 800.7813,930.4063 Q800.5625,930.6563 800.1719,930.6563 Q799.7969,930.6563 799.5625,930.4063 Q799.3281,930.1406 799.3281,929.5313 L799.3281,928.6406 L795.3594,928.6406 L795.3594,931.0938 L796.8438,931.0938 Q796.8438,930.4375 796.9688,930.25 Q797.2344,929.8438 797.7031,929.8438 Q798.0781,929.8438 798.3125,930.1094 Q798.5469,930.3594 798.5469,930.9688 L798.5469,932.9375 Q798.5469,933.4844 798.4219,933.6719 Q798.1563,934.0625 797.7031,934.0625 Q797.2344,934.0625 796.9688,933.6563 Q796.8438,933.4688 796.8438,932.7969 L795.3594,932.7969 Z " fill="#000000"/><text fill="#000000" font-family="sans-serif" font-size="14" lengthAdjust="spacing" textLength="129.1719" x="810.5" y="937.7969">AdvertisementStatus</text><line style="stroke:#181818;stroke-width:0.5;" x1="782.5" x2="941.6719" y1="948" y2="948"/><line style="stroke:#181818;stroke-width:0.5;" x1="782.5" x2="941.6719" y1="956" y2="956"/></g><!--class CategoryRepository--><g id="elem_CategoryRepository"><rect codeLine="54" fill="#F1F1F1" height="66.6211" id="CategoryRepository" rx="2.5" ry="2.5" style="stroke:#181818;stroke-width:0.5;" width="183.6025" x="521" y="419.5"/><ellipse cx="548.5455" cy="435.5" fill="#B4A7E5" rx="11" ry="11" style="stroke:#181818;stroke-width:1.0;"/><path d="M549.4986,432.1406 L549.4986,438.7969 L551.2174,438.7969 Q551.8268,438.7969 552.0924,439.0313 Q552.358,439.2656 552.358,439.6563 Q552.358,440.0313 552.0924,440.2656 Q551.8268,440.5 551.2174,440.5 L546.0768,440.5 Q545.4674,440.5 545.2018,440.2656 Q544.9361,440.0313 544.9361,439.6406 Q544.9361,439.2656 545.2018,439.0313 Q545.4674,438.7969 546.0768,438.7969 L547.7955,438.7969 L547.7955,432.1406 L546.0768,432.1406 Q545.4674,432.1406 545.2018,431.9063 Q544.9361,431.6719 544.9361,431.2813 Q544.9361,430.9063 545.2018,430.6719 Q545.4674,430.4375 546.0768,430.4375 L551.2174,430.4375 Q551.8268,430.4375 552.0924,430.6719 Q552.358,430.9063 552.358,431.2813 Q552.358,431.6719 552.0924,431.9063 Q551.8268,432.1406 551.2174,432.1406 L549.4986,432.1406 Z " fill="#000000"/><text fill="#000000" font-family="sans-serif" font-size="14" font-style="italic" lengthAdjust="spacing" textLength="123.7236" x="565.3334" y="441.2969">CategoryRepository</text><line style="stroke:#181818;stroke-width:0.5;" x1="522" x2="703.6025" y1="451.5" y2="451.5"/><line style="stroke:#181818;stroke-width:0.5;" x1="522" x2="703.6025" y1="459.5" y2="459.5"/><text fill="#000000" font-family="sans-serif" font-size="14" lengthAdjust="spacing" textLength="171.6025" x="527" y="478.6074">+getCategoryById(id: Long)</text></g><!--class AdvertisementRepository--><g id="elem_AdvertisementRepository"><rect codeLine="57" fill="#F1F1F1" height="85.2422" id="AdvertisementRepository" rx="2.5" ry="2.5" style="stroke:#181818;stroke-width:0.5;" width="244.2646" x="740" y="410.5"/><ellipse cx="780.1394" cy="426.5" fill="#B4A7E5" rx="11" ry="11" style="stroke:#181818;stroke-width:1.0;"/><path d="M781.0925,423.1406 L781.0925,429.7969 L782.8112,429.7969 Q783.4206,429.7969 783.6862,430.0313 Q783.9519,430.2656 783.9519,430.6563 Q783.9519,431.0313 783.6862,431.2656 Q783.4206,431.5 782.8112,431.5 L777.6706,431.5 Q777.0612,431.5 776.7956,431.2656 Q776.53,431.0313 776.53,430.6406 Q776.53,430.2656 776.7956,430.0313 Q777.0612,429.7969 777.6706,429.7969 L779.3894,429.7969 L779.3894,423.1406 L777.6706,423.1406 Q777.0612,423.1406 776.7956,422.9063 Q776.53,422.6719 776.53,422.2813 Q776.53,421.9063 776.7956,421.6719 Q777.0612,421.4375 777.6706,421.4375 L782.8112,421.4375 Q783.4206,421.4375 783.6862,421.6719 Q783.9519,421.9063 783.9519,422.2813 Q783.9519,422.6719 783.6862,422.9063 Q783.4206,423.1406 782.8112,423.1406 L781.0925,423.1406 Z " fill="#000000"/><text fill="#000000" font-family="sans-serif" font-size="14" font-style="italic" lengthAdjust="spacing" textLength="156.3994" x="799.7259" y="432.2969">AdvertisementRepository</text><line style="stroke:#181818;stroke-width:0.5;" x1="741" x2="983.2646" y1="442.5" y2="442.5"/><line style="stroke:#181818;stroke-width:0.5;" x1="741" x2="983.2646" y1="450.5" y2="450.5"/><text fill="#000000" font-family="sans-serif" font-size="14" lengthAdjust="spacing" textLength="232.2646" x="746" y="469.6074">+save(advertisement: Advertisement)</text><text fill="#000000" font-family="sans-serif" font-size="14" lengthAdjust="spacing" textLength="117.9063" x="746" y="488.2285">+findById(id: Long)</text></g><!--class ItemRepository--><g id="elem_ItemRepository"><rect codeLine="61" fill="#F1F1F1" height="85.2422" id="ItemRepository" rx="2.5" ry="2.5" style="stroke:#181818;stroke-width:0.5;" width="129.9063" x="415" y="544"/><ellipse cx="431.6928" cy="560" fill="#B4A7E5" rx="11" ry="11" style="stroke:#181818;stroke-width:1.0;"/><path d="M432.6459,556.6406 L432.6459,563.2969 L434.3646,563.2969 Q434.974,563.2969 435.2396,563.5313 Q435.5053,563.7656 435.5053,564.1563 Q435.5053,564.5313 435.2396,564.7656 Q434.974,565 434.3646,565 L429.224,565 Q428.6146,565 428.349,564.7656 Q428.0834,564.5313 428.0834,564.1406 Q428.0834,563.7656 428.349,563.5313 Q428.6146,563.2969 429.224,563.2969 L430.9428,563.2969 L430.9428,556.6406 L429.224,556.6406 Q428.6146,556.6406 428.349,556.4063 Q428.0834,556.1719 428.0834,555.7813 Q428.0834,555.4063 428.349,555.1719 Q428.6146,554.9375 429.224,554.9375 L434.3646,554.9375 Q434.974,554.9375 435.2396,555.1719 Q435.5053,555.4063 435.5053,555.7813 Q435.5053,556.1719 435.2396,556.4063 Q434.974,556.6406 434.3646,556.6406 L432.6459,556.6406 Z " fill="#000000"/><text fill="#000000" font-family="sans-serif" font-size="14" font-style="italic" lengthAdjust="spacing" textLength="94.1445" x="446.0689" y="565.7969">ItemRepository</text><line style="stroke:#181818;stroke-width:0.5;" x1="416" x2="543.9063" y1="576" y2="576"/><line style="stroke:#181818;stroke-width:0.5;" x1="416" x2="543.9063" y1="584" y2="584"/><text fill="#000000" font-family="sans-serif" font-size="14" lengthAdjust="spacing" textLength="108.5273" x="421" y="603.1074">+save(item: Item)</text><text fill="#000000" font-family="sans-serif" font-size="14" lengthAdjust="spacing" textLength="117.9063" x="421" y="621.7285">+findById(id: Long)</text></g><!--class AdvertisementMapper--><g id="elem_AdvertisementMapper"><rect codeLine="66" fill="#F1F1F1" height="85.2422" id="AdvertisementMapper" rx="2.5" ry="2.5" style="stroke:#181818;stroke-width:0.5;" width="367.2021" x="853.5" y="246"/><ellipse cx="964.3755" cy="262" fill="#ADD1B2" rx="11" ry="11" style="stroke:#181818;stroke-width:1.0;"/><path d="M967.1411,257.875 Q967.2974,257.6563 967.4849,257.5469 Q967.6724,257.4375 967.8911,257.4375 Q968.2661,257.4375 968.5005,257.7031 Q968.7349,257.9531 968.7349,258.5625 L968.7349,260.0156 Q968.7349,260.625 968.5005,260.8906 Q968.2661,261.1563 967.8911,261.1563 Q967.5474,261.1563 967.3442,260.9531 Q967.1411,260.7656 967.0317,260.25 Q966.9849,259.8906 966.7974,259.7031 Q966.4692,259.3281 965.8599,259.1094 Q965.2505,258.8906 964.6255,258.8906 Q963.8599,258.8906 963.2192,259.2188 Q962.5942,259.5469 962.0942,260.2969 Q961.6099,261.0469 961.6099,262.0781 L961.6099,263.1719 Q961.6099,264.4063 962.5005,265.2344 Q963.3911,266.0469 964.9849,266.0469 Q965.9224,266.0469 966.5786,265.7969 Q966.9692,265.6406 967.3911,265.2031 Q967.6567,264.9375 967.7974,264.8594 Q967.9536,264.7813 968.1567,264.7813 Q968.4849,264.7813 968.7349,265.0469 Q969.0005,265.2969 969.0005,265.6406 Q969.0005,265.9844 968.6567,266.3906 Q968.1567,266.9688 967.3599,267.2969 Q966.2817,267.75 964.9849,267.75 Q963.4692,267.75 962.2661,267.125 Q961.2817,266.625 960.5942,265.5625 Q959.9067,264.4844 959.9067,263.2031 L959.9067,262.0469 Q959.9067,260.7188 960.5161,259.5781 Q961.1411,258.4219 962.2349,257.8125 Q963.3286,257.1875 964.563,257.1875 Q965.2974,257.1875 965.938,257.3594 Q966.5942,257.5156 967.1411,257.875 Z " fill="#000000"/><text fill="#000000" font-family="sans-serif" font-size="14" lengthAdjust="spacing" textLength="136.9512" x="984.8755" y="267.7969">AdvertisementMapper</text><line style="stroke:#181818;stroke-width:0.5;" x1="854.5" x2="1219.7021" y1="278" y2="278"/><line style="stroke:#181818;stroke-width:0.5;" x1="854.5" x2="1219.7021" y1="286" y2="286"/><text fill="#000000" font-family="sans-serif" font-size="14" lengthAdjust="spacing" textLength="299.9609" x="859.5" y="305.1074">+toEntity(dto: AdvertisementDto): Advertisement</text><text fill="#000000" font-family="sans-serif" font-size="14" lengthAdjust="spacing" textLength="355.2021" x="859.5" y="323.7285">+toDto(advertisement: Advertisement): AdvertisementDto</text></g><!--class AdvertisementService--><g id="elem_AdvertisementService"><rect codeLine="71" fill="#F1F1F1" height="85.2422" id="AdvertisementService" rx="2.5" ry="2.5" style="stroke:#181818;stroke-width:0.5;" width="257.4922" x="523.5" y="246"/><ellipse cx="579.9136" cy="262" fill="#ADD1B2" rx="11" ry="11" style="stroke:#181818;stroke-width:1.0;"/><path d="M582.6792,257.875 Q582.8354,257.6563 583.0229,257.5469 Q583.2104,257.4375 583.4292,257.4375 Q583.8042,257.4375 584.0386,257.7031 Q584.2729,257.9531 584.2729,258.5625 L584.2729,260.0156 Q584.2729,260.625 584.0386,260.8906 Q583.8042,261.1563 583.4292,261.1563 Q583.0854,261.1563 582.8823,260.9531 Q582.6792,260.7656 582.5698,260.25 Q582.5229,259.8906 582.3354,259.7031 Q582.0073,259.3281 581.3979,259.1094 Q580.7886,258.8906 580.1636,258.8906 Q579.3979,258.8906 578.7573,259.2188 Q578.1323,259.5469 577.6323,260.2969 Q577.1479,261.0469 577.1479,262.0781 L577.1479,263.1719 Q577.1479,264.4063 578.0386,265.2344 Q578.9292,266.0469 580.5229,266.0469 Q581.4604,266.0469 582.1167,265.7969 Q582.5073,265.6406 582.9292,265.2031 Q583.1948,264.9375 583.3354,264.8594 Q583.4917,264.7813 583.6948,264.7813 Q584.0229,264.7813 584.2729,265.0469 Q584.5386,265.2969 584.5386,265.6406 Q584.5386,265.9844 584.1948,266.3906 Q583.6948,266.9688 582.8979,267.2969 Q581.8198,267.75 580.5229,267.75 Q579.0073,267.75 577.8042,267.125 Q576.8198,266.625 576.1323,265.5625 Q575.4448,264.4844 575.4448,263.2031 L575.4448,262.0469 Q575.4448,260.7188 576.0542,259.5781 Q576.6792,258.4219 577.7729,257.8125 Q578.8667,257.1875 580.1011,257.1875 Q580.8354,257.1875 581.4761,257.3594 Q582.1323,257.5156 582.6792,257.875 Z " fill="#000000"/><text fill="#000000" font-family="sans-serif" font-size="14" lengthAdjust="spacing" textLength="136.165" x="600.4136" y="267.7969">AdvertisementService</text><line style="stroke:#181818;stroke-width:0.5;" x1="524.5" x2="779.9922" y1="278" y2="278"/><line style="stroke:#181818;stroke-width:0.5;" x1="524.5" x2="779.9922" y1="286" y2="286"/><text fill="#000000" font-family="sans-serif" font-size="14" lengthAdjust="spacing" textLength="245.4922" x="529.5" y="305.1074">+Advertisement(dto: AdvertisementDto)</text><text fill="#000000" font-family="sans-serif" font-size="14" lengthAdjust="spacing" textLength="166.5166" x="529.5" y="323.7285">-validateItem(itemId: Long)</text></g><!--class AdvertisementController--><g id="elem_AdvertisementController"><rect codeLine="76" fill="#F1F1F1" height="85.2422" id="AdvertisementController" rx="2.5" ry="2.5" style="stroke:#181818;stroke-width:0.5;" width="367.9609" x="468" y="44.5"/><ellipse cx="572.6445" cy="60.5" fill="#ADD1B2" rx="11" ry="11" style="stroke:#181818;stroke-width:1.0;"/><path d="M575.4102,56.375 Q575.5664,56.1563 575.7539,56.0469 Q575.9414,55.9375 576.1602,55.9375 Q576.5352,55.9375 576.7695,56.2031 Q577.0039,56.4531 577.0039,57.0625 L577.0039,58.5156 Q577.0039,59.125 576.7695,59.3906 Q576.5352,59.6563 576.1602,59.6563 Q575.8164,59.6563 575.6133,59.4531 Q575.4102,59.2656 575.3008,58.75 Q575.2539,58.3906 575.0664,58.2031 Q574.7383,57.8281 574.1289,57.6094 Q573.5195,57.3906 572.8945,57.3906 Q572.1289,57.3906 571.4883,57.7188 Q570.8633,58.0469 570.3633,58.7969 Q569.8789,59.5469 569.8789,60.5781 L569.8789,61.6719 Q569.8789,62.9063 570.7695,63.7344 Q571.6602,64.5469 573.2539,64.5469 Q574.1914,64.5469 574.8477,64.2969 Q575.2383,64.1406 575.6602,63.7031 Q575.9258,63.4375 576.0664,63.3594 Q576.2227,63.2813 576.4258,63.2813 Q576.7539,63.2813 577.0039,63.5469 Q577.2695,63.7969 577.2695,64.1406 Q577.2695,64.4844 576.9258,64.8906 Q576.4258,65.4688 575.6289,65.7969 Q574.5508,66.25 573.2539,66.25 Q571.7383,66.25 570.5352,65.625 Q569.5508,65.125 568.8633,64.0625 Q568.1758,62.9844 568.1758,61.7031 L568.1758,60.5469 Q568.1758,59.2188 568.7852,58.0781 Q569.4102,56.9219 570.5039,56.3125 Q571.5977,55.6875 572.832,55.6875 Q573.5664,55.6875 574.207,55.8594 Q574.8633,56.0156 575.4102,56.375 Z " fill="#000000"/><text fill="#000000" font-family="sans-serif" font-size="14" lengthAdjust="spacing" textLength="150.1719" x="593.1445" y="66.2969">AdvertisementController</text><line style="stroke:#181818;stroke-width:0.5;" x1="469" x2="834.9609" y1="76.5" y2="76.5"/><line style="stroke:#181818;stroke-width:0.5;" x1="469" x2="834.9609" y1="84.5" y2="84.5"/><text fill="#000000" font-family="sans-serif" font-size="14" lengthAdjust="spacing" textLength="355.9609" x="474" y="103.6074">+AdvertisementController(service: AdvertisementService)</text><text fill="#000000" font-family="sans-serif" font-size="14" lengthAdjust="spacing" textLength="245.4922" x="474" y="122.2285">+Advertisement(dto: AdvertisementDto)</text></g><!--class AdvertisementUI--><g id="elem_AdvertisementUI"><rect codeLine="81" fill="#F1F1F1" height="48" id="AdvertisementUI" rx="2.5" ry="2.5" style="stroke:#181818;stroke-width:0.5;" width="135.4824" x="297.5" y="63"/><ellipse cx="312.5" cy="79" fill="#ADD1B2" rx="11" ry="11" style="stroke:#181818;stroke-width:1.0;"/><path d="M315.2656,74.875 Q315.4219,74.6563 315.6094,74.5469 Q315.7969,74.4375 316.0156,74.4375 Q316.3906,74.4375 316.625,74.7031 Q316.8594,74.9531 316.8594,75.5625 L316.8594,77.0156 Q316.8594,77.625 316.625,77.8906 Q316.3906,78.1563 316.0156,78.1563 Q315.6719,78.1563 315.4688,77.9531 Q315.2656,77.7656 315.1563,77.25 Q315.1094,76.8906 314.9219,76.7031 Q314.5938,76.3281 313.9844,76.1094 Q313.375,75.8906 312.75,75.8906 Q311.9844,75.8906 311.3438,76.2188 Q310.7188,76.5469 310.2188,77.2969 Q309.7344,78.0469 309.7344,79.0781 L309.7344,80.1719 Q309.7344,81.4063 310.625,82.2344 Q311.5156,83.0469 313.1094,83.0469 Q314.0469,83.0469 314.7031,82.7969 Q315.0938,82.6406 315.5156,82.2031 Q315.7813,81.9375 315.9219,81.8594 Q316.0781,81.7813 316.2813,81.7813 Q316.6094,81.7813 316.8594,82.0469 Q317.125,82.2969 317.125,82.6406 Q317.125,82.9844 316.7813,83.3906 Q316.2813,83.9688 315.4844,84.2969 Q314.4063,84.75 313.1094,84.75 Q311.5938,84.75 310.3906,84.125 Q309.4063,83.625 308.7188,82.5625 Q308.0313,81.4844 308.0313,80.2031 L308.0313,79.0469 Q308.0313,77.7188 308.6406,76.5781 Q309.2656,75.4219 310.3594,74.8125 Q311.4531,74.1875 312.6875,74.1875 Q313.4219,74.1875 314.0625,74.3594 Q314.7188,74.5156 315.2656,74.875 Z " fill="#000000"/><text fill="#000000" font-family="sans-serif" font-size="14" lengthAdjust="spacing" textLength="103.4824" x="326.5" y="84.7969">AdvertisementUI</text><line style="stroke:#181818;stroke-width:0.5;" x1="298.5" x2="431.9824" y1="95" y2="95"/><line style="stroke:#181818;stroke-width:0.5;" x1="298.5" x2="431.9824" y1="103" y2="103"/></g><g id="elem_GMN31"><path d="M784.5,1062 L784.5,1089.291 A0,0 0 0 0 784.5,1089.291 L939.1943,1089.291 A0,0 0 0 0 939.1943,1089.291 L939.1943,1072 L929.1943,1062 L866,1062 L862,964.25 L858,1062 L784.5,1062 A0,0 0 0 0 784.5,1062 " fill="#FEFFDD" style="stroke:#181818;stroke-width:0.5;"/><path d="M929.1943,1062 L929.1943,1072 L939.1943,1072 L929.1943,1062 " fill="#FEFFDD" style="stroke:#181818;stroke-width:0.5;"/><text fill="#000000" font-family="sans-serif" font-size="13" lengthAdjust="spacing" textLength="133.6943" x="790.5" y="1081.0283">Active, pending, closed</text></g><!--link AdvertisementUI to AdvertisementController--><g id="link_AdvertisementUI_AdvertisementController"><path codeLine="84" d="M432.74,87 C448.45,87 460.67,87 460.67,87 C460.67,87 457.37,87 461.86,87 " fill="none" id="AdvertisementUI-to-AdvertisementController" style="stroke:#181818;stroke-width:1.0;stroke-dasharray:7.0,7.0;"/><polygon fill="#181818" points="467.86,87,458.86,83,462.86,87,458.86,91,467.86,87" style="stroke:#181818;stroke-width:1.0;"/></g><!--link AdvertisementController to AdvertisementService--><g id="link_AdvertisementController_AdvertisementService"><path codeLine="86" d="M652,129.82 C652,163.87 652,205.7 652,239.73 " fill="none" id="AdvertisementController-to-AdvertisementService" style="stroke:#181818;stroke-width:1.0;stroke-dasharray:7.0,7.0;"/><polygon fill="#181818" points="652,245.73,656,236.73,652,240.73,648,236.73,652,245.73" style="stroke:#181818;stroke-width:1.0;"/><text fill="#000000" font-family="sans-serif" font-size="13" lengthAdjust="spacing" textLength="41.1772" x="653" y="212.0283">service</text></g><!--link AdvertisementService to AdvertisementMapper--><g id="link_AdvertisementService_AdvertisementMapper"><path codeLine="88" d="M780.7,288.5 C784.7,288.5 814.57,288.5 847.31,288.5 " fill="none" id="AdvertisementService-to-AdvertisementMapper" style="stroke:#181818;stroke-width:1.0;stroke-dasharray:7.0,7.0;"/><polygon fill="#181818" points="853.31,288.5,844.31,284.5,848.31,288.5,844.31,292.5,853.31,288.5" style="stroke:#181818;stroke-width:1.0;"/></g><!--link AdvertisementService to AdvertisementRepository--><g id="link_AdvertisementService_AdvertisementRepository"><path codeLine="89" d="M705.81,331.14 C737.28,355.49 772.135,382.4578 803.585,406.7978 " fill="none" id="AdvertisementService-to-AdvertisementRepository" style="stroke:#181818;stroke-width:1.0;stroke-dasharray:7.0,7.0;"/><polygon fill="#181818" points="808.33,410.47,803.6607,401.7983,804.3759,407.4098,798.7644,408.1249,808.33,410.47" style="stroke:#181818;stroke-width:1.0;"/></g><!--link AdvertisementService to CategoryRepository--><g id="link_AdvertisementService_CategoryRepository"><path codeLine="90" d="M641.96,331.35 C635.39,358.71 628.3293,388.1154 622.2593,413.4254 " fill="none" id="AdvertisementService-to-CategoryRepository" style="stroke:#181818;stroke-width:1.0;stroke-dasharray:7.0,7.0;"/><polygon fill="#181818" points="620.86,419.26,626.8486,411.441,622.0261,414.3979,619.0692,409.5753,620.86,419.26" style="stroke:#181818;stroke-width:1.0;"/></g><!--link AdvertisementService to ItemRepository--><g id="link_AdvertisementService_ItemRepository"><path codeLine="91" d="M591.4,331.19 C550.14,359.57 503,392 503,392 C503,392 492.3983,481.172 485.6383,538.032 " fill="none" id="AdvertisementService-to-ItemRepository" style="stroke:#181818;stroke-width:1.0;stroke-dasharray:7.0,7.0;"/><polygon fill="#181818" points="484.93,543.99,489.9645,535.5252,485.5203,539.025,482.0205,534.5807,484.93,543.99" style="stroke:#181818;stroke-width:1.0;"/></g><!--link ItemRepository to Item--><g id="link_ItemRepository_Item"><path codeLine="93" d="M489.62,629.23 C503.89,691.12 529,800 529,800 C529,800 543.1219,835.6911 557.9919,873.2611 " fill="none" id="ItemRepository-to-Item" style="stroke:#181818;stroke-width:1.0;"/><polygon fill="#181818" points="560.2,878.84,560.6071,868.9996,558.3599,874.1909,553.1686,871.9437,560.2,878.84" style="stroke:#181818;stroke-width:1.0;"/><text fill="#000000" font-family="sans-serif" font-size="13" lengthAdjust="spacing" textLength="7.23" x="483.6212" y="651.427">1</text><text fill="#000000" font-family="sans-serif" font-size="13" lengthAdjust="spacing" textLength="19.5127" x="537.4009" y="867.8027">0..*</text></g><!--link CategoryRepository to Category--><g id="link_CategoryRepository_Category"><path codeLine="94" d="M613,486.57 C613,533.72 613,615.44 613,671.3 " fill="none" id="CategoryRepository-to-Category" style="stroke:#181818;stroke-width:1.0;"/><polygon fill="#181818" points="613,677.3,617,668.3,613,672.3,609,668.3,613,677.3" style="stroke:#181818;stroke-width:1.0;"/><text fill="#000000" font-family="sans-serif" font-size="13" lengthAdjust="spacing" textLength="7.23" x="605.4324" y="508.1517">1</text><text fill="#000000" font-family="sans-serif" font-size="13" lengthAdjust="spacing" textLength="19.5127" x="592.7829" y="666.2005">0..*</text></g><!--link AdvertisementRepository to Advertisement--><g id="link_AdvertisementRepository_Advertisement"><path codeLine="95" d="M862,495.69 C862,538.96 862,601.39 862,652.88 " fill="none" id="AdvertisementRepository-to-Advertisement" style="stroke:#181818;stroke-width:1.0;"/><polygon fill="#181818" points="862,658.88,866,649.88,862,653.88,858,649.88,862,658.88" style="stroke:#181818;stroke-width:1.0;"/><text fill="#000000" font-family="sans-serif" font-size="13" lengthAdjust="spacing" textLength="7.23" x="854.4394" y="517.8806">1</text><text fill="#000000" font-family="sans-serif" font-size="13" lengthAdjust="spacing" textLength="19.5127" x="842.066" y="647.7586">0..*</text></g><!--link User to AdvertisementUI--><g id="link_User_AdvertisementUI"><path codeLine="97" d="M157.1,87 C200.65,87 249.07,87 291.3,87 " fill="none" id="User-to-AdvertisementUI" style="stroke:#181818;stroke-width:1.0;"/><polygon fill="#181818" points="297.3,87,288.3,83,292.3,87,288.3,91,297.3,87" style="stroke:#181818;stroke-width:1.0;"/><text fill="#000000" font-family="sans-serif" font-size="13" lengthAdjust="spacing" textLength="104.0571" x="175.25" y="80.0283">reservationAttempts to create</text></g><!--link Advertisement to AdvertisementStatus--><g id="link_Advertisement_AdvertisementStatus"><path codeLine="99" d="M862,800.22 C862,840.23 862,881.9 862,909.67 " fill="none" id="Advertisement-to-AdvertisementStatus" style="stroke:#181818;stroke-width:1.0;"/><polygon fill="#181818" points="862,915.67,866,906.67,862,910.67,858,906.67,862,915.67" style="stroke:#181818;stroke-width:1.0;"/><text fill="#000000" font-family="sans-serif" font-size="13" lengthAdjust="spacing" textLength="7.23" x="854.6851" y="822.0557">1</text><text fill="#000000" font-family="sans-serif" font-size="13" lengthAdjust="spacing" textLength="7.23" x="854.154" y="904.7315">1</text></g><!--link Advertisement to Item--><g id="link_Advertisement_Item"><path codeLine="100" d="M795.41,780.44 C751.56,813.33 699.17,852.63 655.33,885.51 " fill="none" id="Advertisement-to-Item" style="stroke:#181818;stroke-width:1.0;"/><polygon fill="#181818" points="650.53,889.11,660.13,886.91,654.53,886.11,655.33,880.51,650.53,889.11" style="stroke:#181818;stroke-width:1.0;"/><text fill="#000000" font-family="sans-serif" font-size="13" lengthAdjust="spacing" textLength="48.4199" x="724" y="845.0283">contains</text><text fill="#000000" font-family="sans-serif" font-size="13" lengthAdjust="spacing" textLength="7.23" x="780.3407" y="782.3862">1</text><text fill="#000000" font-family="sans-serif" font-size="13" lengthAdjust="spacing" textLength="7.23" x="658.2225" y="879.632">1</text></g><!--link AdvertisementMapper to AdvertisementDto--><g id="link_AdvertisementMapper_AdvertisementDto"><path codeLine="101" d="M1070.22,331.35 C1084.85,349.78 1098.5906,367.0798 1114.5706,387.2198 " fill="none" id="AdvertisementMapper-to-AdvertisementDto" style="stroke:#181818;stroke-width:1.0;stroke-dasharray:7.0,7.0;"/><polygon fill="#181818" points="1118.3,391.92,1115.8394,382.3835,1115.1922,388.0032,1109.5725,387.3559,1118.3,391.92" style="stroke:#181818;stroke-width:1.0;"/></g><!--link AdvertisementMapper to Advertisement--><g id="link_AdvertisementMapper_Advertisement"><path codeLine="102" d="M1030.5,331.2 C1020.38,396.12 1002,514 1002,514 C1002,514 951.6095,591.2056 910.7295,653.8356 " fill="none" id="AdvertisementMapper-to-Advertisement" style="stroke:#181818;stroke-width:1.0;stroke-dasharray:7.0,7.0;"/><polygon fill="#181818" points="907.45,658.86,915.7189,653.5098,910.1829,654.673,909.0197,649.137,907.45,658.86" style="stroke:#181818;stroke-width:1.0;"/></g><!--link AdvertisementDto to ItemDto--><g id="link_AdvertisementDto_ItemDto"><path codeLine="104" d="M1166,514.24 C1166,556.85 1166,608.1 1166,652.71 " fill="none" id="AdvertisementDto-to-ItemDto" style="stroke:#181818;stroke-width:1.0;"/><polygon fill="#181818" points="1166,658.71,1170,649.71,1166,653.71,1162,649.71,1166,658.71" style="stroke:#181818;stroke-width:1.0;"/><text fill="#000000" font-family="sans-serif" font-size="13" lengthAdjust="spacing" textLength="7.23" x="1158.5833" y="536.3208">1</text><text fill="#000000" font-family="sans-serif" font-size="13" lengthAdjust="spacing" textLength="7.23" x="1158.6481" y="647.5711">1</text></g><!--SRC=[bLR1Rjim3BthAuHSbYorqLvz292rEmJOUcZG3r0inXKgIvx4fF2A_ViantPYHVQo70A4V7ny94KfzbseYXbMqehbxwo0BTOIg84ScIea4Di3x1lZ-aEeWkwPj9SUAHHWNG6jjApzZmjVBfcrQqGZTWU4JQxLLlm6Uaz8uw6l5Wpz9DHz4gfO2HdTEh0gMXEKJCWrvmQi3LpLcrRmV2XtO4AFO_xGXWTce-MGVjcadwTfkY1_EaKRXB9NnC6AGZ4KMWLahX8k8dPHkYwsx9ugmlw4-fO43A7Gfdw-RigjkLsY8FrZIzhd5s6JnWGj-zY0SisFO51OA47XRQMnw3p5IN7MIM_JXlnJwM_8BPJh79DFhfYC-k_MlXSgOeqf3IJrUa0Tog5hYmmFreboNg4Gp9xbqFVn1Ifj1PwdiQG5OEVzLc_ut4_dXrQ5vpyJ3794M2mxmfnTWh9XpA85kfhvH1u_Xp5wFwpJf2R9OaFwoQggN_ebHVrTeS1wpltimsal0bCVv4_2P8tNN2Dwjc2EmfNx6PrkN5LxF8vC2ku6rYowRydc7xK_QeNk6f8NzO_uv_OaAukANVoFrhYKrmqXNsYI9FG59ClTfZ1lrjRRI02bwMfCA25Z5QPXKDVfZBR51R6TFumxdPWHR0W-dzZnWEiL7CSEju2GO2jc3pEQhEZiFas_pXemYInuWph3EWGPM-K0Frm1qZoQoIgSf-khWLy7i6ZTWj3SWB_8XZdEp0-ps6KrWMuUnim_FiY42f3jKbzDmw_TJS10ftz8mkIUIsa4kjE8kgHw7wyWHt64Erg1UoLLSUV-WsWBtDtFt4UJlm00]--></g></svg>