<svg xmlns="http://www.w3.org/2000/svg" xmlns:xlink="http://www.w3.org/1999/xlink" contentStyleType="text/css" height="395px" preserveAspectRatio="none" style="width:554px;height:395px;background:#FFFFFF;" version="1.1" viewBox="0 0 554 395" width="554px" zoomAndPan="magnify"><title>System Sequence Diagram (SSD) - Login</title><defs/><g><text fill="#000000" font-family="sans-serif" font-size="14" font-weight="bold" lengthAdjust="spacing" textLength="272.2822" x="147.9707" y="30.1074">System Sequence Diagram (SSD) - Login</text><rect fill="#FFFFFF" height="161.4551" style="stroke:#181818;stroke-width:1.0;" width="10" x="70.7065" y="133.2422"/><rect fill="#FFFFFF" height="31.291" style="stroke:#181818;stroke-width:1.0;" width="10" x="407.7065" y="156.5332"/><rect fill="#FFFFFF" height="75.582" style="stroke:#181818;stroke-width:1.0;" width="10" x="407.7065" y="219.1152"/><line style="stroke:#181818;stroke-width:0.5;stroke-dasharray:5.0,5.0;" x1="75" x2="75" y1="123.2422" y2="312.6973"/><line style="stroke:#181818;stroke-width:0.5;stroke-dasharray:5.0,5.0;" x1="412.4238" x2="412.4238" y1="123.2422" y2="312.6973"/><text fill="#000000" font-family="sans-serif" font-size="14" lengthAdjust="spacing" textLength="135.4131" x="5" y="119.7285">Unauthenticated User</text><ellipse cx="75.7065" cy="53.1211" fill="#E3E3E3" rx="8" ry="8" style="stroke:#181818;stroke-width:0.5;"/><path d="M75.7065,61.1211 L75.7065,88.1211 M62.7065,69.1211 L88.7065,69.1211 M75.7065,88.1211 L62.7065,103.1211 M75.7065,88.1211 L88.7065,103.1211 " fill="none" style="stroke:#181818;stroke-width:0.5;"/><text fill="#000000" font-family="sans-serif" font-size="14" lengthAdjust="spacing" textLength="135.4131" x="5" y="326.8047">Unauthenticated User</text><ellipse cx="75.7065" cy="338.8184" fill="#E3E3E3" rx="8" ry="8" style="stroke:#181818;stroke-width:0.5;"/><path d="M75.7065,346.8184 L75.7065,373.8184 M62.7065,354.8184 L88.7065,354.8184 M75.7065,373.8184 L62.7065,388.8184 M75.7065,373.8184 L88.7065,388.8184 " fill="none" style="stroke:#181818;stroke-width:0.5;"/><rect fill="#E3E3E3" height="32.6211" rx="2.5" ry="2.5" style="stroke:#181818;stroke-width:0.5;" width="64.5654" x="380.4238" y="89.6211"/><text fill="#000000" font-family="sans-serif" font-size="14" lengthAdjust="spacing" textLength="50.5654" x="387.4238" y="111.7285">:System</text><rect fill="#E3E3E3" height="32.6211" rx="2.5" ry="2.5" style="stroke:#181818;stroke-width:0.5;" width="64.5654" x="380.4238" y="311.6973"/><text fill="#000000" font-family="sans-serif" font-size="14" lengthAdjust="spacing" textLength="50.5654" x="387.4238" y="333.8047">:System</text><rect fill="#FFFFFF" height="161.4551" style="stroke:#181818;stroke-width:1.0;" width="10" x="70.7065" y="133.2422"/><rect fill="#FFFFFF" height="31.291" style="stroke:#181818;stroke-width:1.0;" width="10" x="407.7065" y="156.5332"/><rect fill="#FFFFFF" height="75.582" style="stroke:#181818;stroke-width:1.0;" width="10" x="407.7065" y="219.1152"/><polygon fill="#181818" points="395.7065,152.5332,405.7065,156.5332,395.7065,160.5332,399.7065,156.5332" style="stroke:#181818;stroke-width:1.0;"/><line style="stroke:#181818;stroke-width:1.0;" x1="80.7065" x2="401.7065" y1="156.5332" y2="156.5332"/><text fill="#000000" font-family="sans-serif" font-size="13" font-weight="bold" lengthAdjust="spacing" textLength="7.23" x="87.7065" y="151.2705">1</text><text fill="#000000" font-family="sans-serif" font-size="13" lengthAdjust="spacing" textLength="99.0044" x="98.9365" y="151.2705">requests to log in</text><polygon fill="#181818" points="91.7065,183.8242,81.7065,187.8242,91.7065,191.8242,87.7065,187.8242" style="stroke:#181818;stroke-width:1.0;"/><line style="stroke:#181818;stroke-width:1.0;stroke-dasharray:2.0,2.0;" x1="85.7065" x2="411.7065" y1="187.8242" y2="187.8242"/><text fill="#000000" font-family="sans-serif" font-size="13" font-weight="bold" lengthAdjust="spacing" textLength="7.23" x="97.7065" y="182.5615">2</text><text fill="#000000" font-family="sans-serif" font-size="13" lengthAdjust="spacing" textLength="222.5361" x="108.9365" y="182.5615">requests credentials (email, password)</text><polygon fill="#181818" points="395.7065,215.1152,405.7065,219.1152,395.7065,223.1152,399.7065,219.1152" style="stroke:#181818;stroke-width:1.0;"/><line style="stroke:#181818;stroke-width:1.0;" x1="80.7065" x2="401.7065" y1="219.1152" y2="219.1152"/><text fill="#000000" font-family="sans-serif" font-size="13" font-weight="bold" lengthAdjust="spacing" textLength="7.23" x="87.7065" y="213.8525">3</text><text fill="#000000" font-family="sans-serif" font-size="13" lengthAdjust="spacing" textLength="168.3652" x="98.9365" y="213.8525">provides email and password</text><line style="stroke:#181818;stroke-width:1.0;" x1="417.7065" x2="459.7065" y1="250.4063" y2="250.4063"/><line style="stroke:#181818;stroke-width:1.0;" x1="459.7065" x2="459.7065" y1="250.4063" y2="263.4063"/><line style="stroke:#181818;stroke-width:1.0;" x1="418.7065" x2="459.7065" y1="263.4063" y2="263.4063"/><polygon fill="#181818" points="428.7065,259.4063,418.7065,263.4063,428.7065,267.4063,424.7065,263.4063" style="stroke:#181818;stroke-width:1.0;"/><text fill="#000000" font-family="sans-serif" font-size="13" font-weight="bold" lengthAdjust="spacing" textLength="7.23" x="424.7065" y="245.1436">4</text><text fill="#000000" font-family="sans-serif" font-size="13" lengthAdjust="spacing" textLength="111.2871" x="435.9365" y="245.1436">validate credentials</text><polygon fill="#181818" points="86.7065,290.6973,76.7065,294.6973,86.7065,298.6973,82.7065,294.6973" style="stroke:#181818;stroke-width:1.0;"/><line style="stroke:#181818;stroke-width:1.0;stroke-dasharray:2.0,2.0;" x1="80.7065" x2="411.7065" y1="294.6973" y2="294.6973"/><text fill="#000000" font-family="sans-serif" font-size="13" font-weight="bold" lengthAdjust="spacing" textLength="7.23" x="92.7065" y="289.4346">5</text><text fill="#000000" font-family="sans-serif" font-size="13" lengthAdjust="spacing" textLength="291.77" x="103.9365" y="289.4346">authentication successful (e.g., "Login successful")</text><!--SRC=[ZP5DRWCX38NtdCAQLI8bEK0MNMNPtIW7SC4XA0nCiMUYtBuUyYEa_gYiBFpy-JtWIqWZ5XnWo2dRSya3WPI93Byw8zeBUkhb5WaAMS7aOolWCxfy3Sd32IEJCH94fVsDXGRewNEYP0aE0VqYN_NzOGrRUCy-96DmafocuOEArbPoWUwOzF9CIO958GT7fj81SYsCBjL66349TFlxbjgzbvKIPXsyomteMIhOlZqzxJM7kc9Xa0mnUr0dY-ur-cJ1upm6jygeh8PW2xd5gsQ75GqOuaRVZFcQYrjNWACVkTzCZINFmH53fG0czmBzprt3cZ46jsWRUt-aQHuyv0GyMKlCfobgf9tVRQ2htzKqkb-pDLSB_Gi0]--></g></svg>