<svg xmlns="http://www.w3.org/2000/svg" xmlns:xlink="http://www.w3.org/1999/xlink" contentStyleType="text/css" height="683px" preserveAspectRatio="none" style="width:354px;height:683px;background:#FFFFFF;" version="1.1" viewBox="0 0 354 683" width="354px" zoomAndPan="magnify"><defs/><g><!--class TipUI--><g id="elem_TipUI"><rect codeLine="7" fill="#F1F1F1" height="48" id="TipUI" rx="2.5" ry="2.5" style="stroke:#181818;stroke-width:0.5;" width="65.4482" x="30.5" y="134"/><ellipse cx="45.5" cy="150" fill="#ADD1B2" rx="11" ry="11" style="stroke:#181818;stroke-width:1.0;"/><path d="M48.2656,145.875 Q48.4219,145.6563 48.6094,145.5469 Q48.7969,145.4375 49.0156,145.4375 Q49.3906,145.4375 49.625,145.7031 Q49.8594,145.9531 49.8594,146.5625 L49.8594,148.0156 Q49.8594,148.625 49.625,148.8906 Q49.3906,149.1563 49.0156,149.1563 Q48.6719,149.1563 48.4688,148.9531 Q48.2656,148.7656 48.1563,148.25 Q48.1094,147.8906 47.9219,147.7031 Q47.5938,147.3281 46.9844,147.1094 Q46.375,146.8906 45.75,146.8906 Q44.9844,146.8906 44.3438,147.2188 Q43.7188,147.5469 43.2188,148.2969 Q42.7344,149.0469 42.7344,150.0781 L42.7344,151.1719 Q42.7344,152.4063 43.625,153.2344 Q44.5156,154.0469 46.1094,154.0469 Q47.0469,154.0469 47.7031,153.7969 Q48.0938,153.6406 48.5156,153.2031 Q48.7813,152.9375 48.9219,152.8594 Q49.0781,152.7813 49.2813,152.7813 Q49.6094,152.7813 49.8594,153.0469 Q50.125,153.2969 50.125,153.6406 Q50.125,153.9844 49.7813,154.3906 Q49.2813,154.9688 48.4844,155.2969 Q47.4063,155.75 46.1094,155.75 Q44.5938,155.75 43.3906,155.125 Q42.4063,154.625 41.7188,153.5625 Q41.0313,152.4844 41.0313,151.2031 L41.0313,150.0469 Q41.0313,148.7188 41.6406,147.5781 Q42.2656,146.4219 43.3594,145.8125 Q44.4531,145.1875 45.6875,145.1875 Q46.4219,145.1875 47.0625,145.3594 Q47.7188,145.5156 48.2656,145.875 Z " fill="#000000"/><text fill="#000000" font-family="sans-serif" font-size="14" lengthAdjust="spacing" textLength="33.4482" x="59.5" y="155.7969">TipUI</text><line style="stroke:#181818;stroke-width:0.5;" x1="31.5" x2="94.9482" y1="166" y2="166"/><line style="stroke:#181818;stroke-width:0.5;" x1="31.5" x2="94.9482" y1="174" y2="174"/></g><!--class TipController--><g id="elem_TipController"><rect codeLine="10" fill="#F1F1F1" height="66.6211" id="TipController" rx="2.5" ry="2.5" style="stroke:#181818;stroke-width:0.5;" width="112.1377" x="7" y="243"/><ellipse cx="22" cy="259" fill="#ADD1B2" rx="11" ry="11" style="stroke:#181818;stroke-width:1.0;"/><path d="M24.7656,254.875 Q24.9219,254.6563 25.1094,254.5469 Q25.2969,254.4375 25.5156,254.4375 Q25.8906,254.4375 26.125,254.7031 Q26.3594,254.9531 26.3594,255.5625 L26.3594,257.0156 Q26.3594,257.625 26.125,257.8906 Q25.8906,258.1563 25.5156,258.1563 Q25.1719,258.1563 24.9688,257.9531 Q24.7656,257.7656 24.6563,257.25 Q24.6094,256.8906 24.4219,256.7031 Q24.0938,256.3281 23.4844,256.1094 Q22.875,255.8906 22.25,255.8906 Q21.4844,255.8906 20.8438,256.2188 Q20.2188,256.5469 19.7188,257.2969 Q19.2344,258.0469 19.2344,259.0781 L19.2344,260.1719 Q19.2344,261.4063 20.125,262.2344 Q21.0156,263.0469 22.6094,263.0469 Q23.5469,263.0469 24.2031,262.7969 Q24.5938,262.6406 25.0156,262.2031 Q25.2813,261.9375 25.4219,261.8594 Q25.5781,261.7813 25.7813,261.7813 Q26.1094,261.7813 26.3594,262.0469 Q26.625,262.2969 26.625,262.6406 Q26.625,262.9844 26.2813,263.3906 Q25.7813,263.9688 24.9844,264.2969 Q23.9063,264.75 22.6094,264.75 Q21.0938,264.75 19.8906,264.125 Q18.9063,263.625 18.2188,262.5625 Q17.5313,261.4844 17.5313,260.2031 L17.5313,259.0469 Q17.5313,257.7188 18.1406,256.5781 Q18.7656,255.4219 19.8594,254.8125 Q20.9531,254.1875 22.1875,254.1875 Q22.9219,254.1875 23.5625,254.3594 Q24.2188,254.5156 24.7656,254.875 Z " fill="#000000"/><text fill="#000000" font-family="sans-serif" font-size="14" lengthAdjust="spacing" textLength="80.1377" x="36" y="264.7969">TipController</text><line style="stroke:#181818;stroke-width:0.5;" x1="8" x2="118.1377" y1="275" y2="275"/><line style="stroke:#181818;stroke-width:0.5;" x1="8" x2="118.1377" y1="283" y2="283"/><text fill="#000000" font-family="sans-serif" font-size="14" lengthAdjust="spacing" textLength="63.4102" x="13" y="302.1074">+getTips()</text></g><!--class TipService--><g id="elem_TipService"><rect codeLine="14" fill="#F1F1F1" height="66.6211" id="TipService" rx="2.5" ry="2.5" style="stroke:#181818;stroke-width:0.5;" width="98.1309" x="154" y="243"/><ellipse cx="169" cy="259" fill="#ADD1B2" rx="11" ry="11" style="stroke:#181818;stroke-width:1.0;"/><path d="M171.7656,254.875 Q171.9219,254.6563 172.1094,254.5469 Q172.2969,254.4375 172.5156,254.4375 Q172.8906,254.4375 173.125,254.7031 Q173.3594,254.9531 173.3594,255.5625 L173.3594,257.0156 Q173.3594,257.625 173.125,257.8906 Q172.8906,258.1563 172.5156,258.1563 Q172.1719,258.1563 171.9688,257.9531 Q171.7656,257.7656 171.6563,257.25 Q171.6094,256.8906 171.4219,256.7031 Q171.0938,256.3281 170.4844,256.1094 Q169.875,255.8906 169.25,255.8906 Q168.4844,255.8906 167.8438,256.2188 Q167.2188,256.5469 166.7188,257.2969 Q166.2344,258.0469 166.2344,259.0781 L166.2344,260.1719 Q166.2344,261.4063 167.125,262.2344 Q168.0156,263.0469 169.6094,263.0469 Q170.5469,263.0469 171.2031,262.7969 Q171.5938,262.6406 172.0156,262.2031 Q172.2813,261.9375 172.4219,261.8594 Q172.5781,261.7813 172.7813,261.7813 Q173.1094,261.7813 173.3594,262.0469 Q173.625,262.2969 173.625,262.6406 Q173.625,262.9844 173.2813,263.3906 Q172.7813,263.9688 171.9844,264.2969 Q170.9063,264.75 169.6094,264.75 Q168.0938,264.75 166.8906,264.125 Q165.9063,263.625 165.2188,262.5625 Q164.5313,261.4844 164.5313,260.2031 L164.5313,259.0469 Q164.5313,257.7188 165.1406,256.5781 Q165.7656,255.4219 166.8594,254.8125 Q167.9531,254.1875 169.1875,254.1875 Q169.9219,254.1875 170.5625,254.3594 Q171.2188,254.5156 171.7656,254.875 Z " fill="#000000"/><text fill="#000000" font-family="sans-serif" font-size="14" lengthAdjust="spacing" textLength="66.1309" x="183" y="264.7969">TipService</text><line style="stroke:#181818;stroke-width:0.5;" x1="155" x2="251.1309" y1="275" y2="275"/><line style="stroke:#181818;stroke-width:0.5;" x1="155" x2="251.1309" y1="283" y2="283"/><text fill="#000000" font-family="sans-serif" font-size="14" lengthAdjust="spacing" textLength="63.4102" x="160" y="302.1074">+getTips()</text></g><!--class TipRepository--><g id="elem_TipRepository"><rect codeLine="18" fill="#F1F1F1" height="66.6211" id="TipRepository" rx="2.5" ry="2.5" style="stroke:#181818;stroke-width:0.5;" width="118.3652" x="60" y="380"/><ellipse cx="75" cy="396" fill="#B4A7E5" rx="11" ry="11" style="stroke:#181818;stroke-width:1.0;"/><path d="M75.9531,392.6406 L75.9531,399.2969 L77.6719,399.2969 Q78.2813,399.2969 78.5469,399.5313 Q78.8125,399.7656 78.8125,400.1563 Q78.8125,400.5313 78.5469,400.7656 Q78.2813,401 77.6719,401 L72.5313,401 Q71.9219,401 71.6563,400.7656 Q71.3906,400.5313 71.3906,400.1406 Q71.3906,399.7656 71.6563,399.5313 Q71.9219,399.2969 72.5313,399.2969 L74.25,399.2969 L74.25,392.6406 L72.5313,392.6406 Q71.9219,392.6406 71.6563,392.4063 Q71.3906,392.1719 71.3906,391.7813 Q71.3906,391.4063 71.6563,391.1719 Q71.9219,390.9375 72.5313,390.9375 L77.6719,390.9375 Q78.2813,390.9375 78.5469,391.1719 Q78.8125,391.4063 78.8125,391.7813 Q78.8125,392.1719 78.5469,392.4063 Q78.2813,392.6406 77.6719,392.6406 L75.9531,392.6406 Z " fill="#000000"/><text fill="#000000" font-family="sans-serif" font-size="14" font-style="italic" lengthAdjust="spacing" textLength="86.3652" x="89" y="401.7969">TipRepository</text><line style="stroke:#181818;stroke-width:0.5;" x1="61" x2="177.3652" y1="412" y2="412"/><line style="stroke:#181818;stroke-width:0.5;" x1="61" x2="177.3652" y1="420" y2="420"/><text fill="#000000" font-family="sans-serif" font-size="14" lengthAdjust="spacing" textLength="55.6309" x="66" y="439.1074">+findAll()</text></g><!--class AllUsers--><g id="elem_AllUsers"><rect codeLine="22" fill="#F1F1F1" height="48" id="AllUsers" rx="2.5" ry="2.5" style="stroke:#181818;stroke-width:0.5;" width="84.1172" x="21" y="7"/><ellipse cx="36" cy="23" fill="#ADD1B2" rx="11" ry="11" style="stroke:#181818;stroke-width:1.0;"/><path d="M38.7656,18.875 Q38.9219,18.6563 39.1094,18.5469 Q39.2969,18.4375 39.5156,18.4375 Q39.8906,18.4375 40.125,18.7031 Q40.3594,18.9531 40.3594,19.5625 L40.3594,21.0156 Q40.3594,21.625 40.125,21.8906 Q39.8906,22.1563 39.5156,22.1563 Q39.1719,22.1563 38.9688,21.9531 Q38.7656,21.7656 38.6563,21.25 Q38.6094,20.8906 38.4219,20.7031 Q38.0938,20.3281 37.4844,20.1094 Q36.875,19.8906 36.25,19.8906 Q35.4844,19.8906 34.8438,20.2188 Q34.2188,20.5469 33.7188,21.2969 Q33.2344,22.0469 33.2344,23.0781 L33.2344,24.1719 Q33.2344,25.4063 34.125,26.2344 Q35.0156,27.0469 36.6094,27.0469 Q37.5469,27.0469 38.2031,26.7969 Q38.5938,26.6406 39.0156,26.2031 Q39.2813,25.9375 39.4219,25.8594 Q39.5781,25.7813 39.7813,25.7813 Q40.1094,25.7813 40.3594,26.0469 Q40.625,26.2969 40.625,26.6406 Q40.625,26.9844 40.2813,27.3906 Q39.7813,27.9688 38.9844,28.2969 Q37.9063,28.75 36.6094,28.75 Q35.0938,28.75 33.8906,28.125 Q32.9063,27.625 32.2188,26.5625 Q31.5313,25.4844 31.5313,24.2031 L31.5313,23.0469 Q31.5313,21.7188 32.1406,20.5781 Q32.7656,19.4219 33.8594,18.8125 Q34.9531,18.1875 36.1875,18.1875 Q36.9219,18.1875 37.5625,18.3594 Q38.2188,18.5156 38.7656,18.875 Z " fill="#000000"/><text fill="#000000" font-family="sans-serif" font-size="14" lengthAdjust="spacing" textLength="52.1172" x="50" y="28.7969">AllUsers</text><line style="stroke:#181818;stroke-width:0.5;" x1="22" x2="104.1172" y1="39" y2="39"/><line style="stroke:#181818;stroke-width:0.5;" x1="22" x2="104.1172" y1="47" y2="47"/></g><!--class Tip--><g id="elem_Tip"><rect codeLine="25" fill="#F1F1F1" height="141.1055" id="Tip" rx="2.5" ry="2.5" style="stroke:#181818;stroke-width:0.5;" width="128.7168" x="54.5" y="535"/><ellipse cx="104.8843" cy="551" fill="#ADD1B2" rx="11" ry="11" style="stroke:#181818;stroke-width:1.0;"/><path d="M107.6499,546.875 Q107.8062,546.6563 107.9937,546.5469 Q108.1812,546.4375 108.3999,546.4375 Q108.7749,546.4375 109.0093,546.7031 Q109.2437,546.9531 109.2437,547.5625 L109.2437,549.0156 Q109.2437,549.625 109.0093,549.8906 Q108.7749,550.1563 108.3999,550.1563 Q108.0562,550.1563 107.853,549.9531 Q107.6499,549.7656 107.5405,549.25 Q107.4937,548.8906 107.3062,548.7031 Q106.978,548.3281 106.3687,548.1094 Q105.7593,547.8906 105.1343,547.8906 Q104.3687,547.8906 103.728,548.2188 Q103.103,548.5469 102.603,549.2969 Q102.1187,550.0469 102.1187,551.0781 L102.1187,552.1719 Q102.1187,553.4063 103.0093,554.2344 Q103.8999,555.0469 105.4937,555.0469 Q106.4312,555.0469 107.0874,554.7969 Q107.478,554.6406 107.8999,554.2031 Q108.1655,553.9375 108.3062,553.8594 Q108.4624,553.7813 108.6655,553.7813 Q108.9937,553.7813 109.2437,554.0469 Q109.5093,554.2969 109.5093,554.6406 Q109.5093,554.9844 109.1655,555.3906 Q108.6655,555.9688 107.8687,556.2969 Q106.7905,556.75 105.4937,556.75 Q103.978,556.75 102.7749,556.125 Q101.7905,555.625 101.103,554.5625 Q100.4155,553.4844 100.4155,552.2031 L100.4155,551.0469 Q100.4155,549.7188 101.0249,548.5781 Q101.6499,547.4219 102.7437,546.8125 Q103.8374,546.1875 105.0718,546.1875 Q105.8062,546.1875 106.4468,546.3594 Q107.103,546.5156 107.6499,546.875 Z " fill="#000000"/><text fill="#000000" font-family="sans-serif" font-size="14" lengthAdjust="spacing" textLength="19.4482" x="125.3843" y="556.7969">Tip</text><line style="stroke:#181818;stroke-width:0.5;" x1="55.5" x2="182.2168" y1="567" y2="567"/><text fill="#000000" font-family="sans-serif" font-size="14" lengthAdjust="spacing" textLength="59.9102" x="60.5" y="586.1074">-id: String</text><text fill="#000000" font-family="sans-serif" font-size="14" lengthAdjust="spacing" textLength="70.7998" x="60.5" y="604.7285">-title: String</text><text fill="#000000" font-family="sans-serif" font-size="14" lengthAdjust="spacing" textLength="116.7168" x="60.5" y="623.3496">-description: String</text><text fill="#000000" font-family="sans-serif" font-size="14" lengthAdjust="spacing" textLength="85.5928" x="60.5" y="641.9707">-likeCount: int</text><text fill="#000000" font-family="sans-serif" font-size="14" lengthAdjust="spacing" textLength="110.4961" x="60.5" y="660.5918">-favoriteCount: int</text><line style="stroke:#181818;stroke-width:0.5;" x1="55.5" x2="182.2168" y1="668.1055" y2="668.1055"/></g><!--class TipMapper--><g id="elem_TipMapper"><rect codeLine="34" fill="#F1F1F1" height="85.2422" id="TipMapper" rx="2.5" ry="2.5" style="stroke:#181818;stroke-width:0.5;" width="98.917" x="213.5" y="371"/><ellipse cx="228.5" cy="387" fill="#ADD1B2" rx="11" ry="11" style="stroke:#181818;stroke-width:1.0;"/><path d="M231.2656,382.875 Q231.4219,382.6563 231.6094,382.5469 Q231.7969,382.4375 232.0156,382.4375 Q232.3906,382.4375 232.625,382.7031 Q232.8594,382.9531 232.8594,383.5625 L232.8594,385.0156 Q232.8594,385.625 232.625,385.8906 Q232.3906,386.1563 232.0156,386.1563 Q231.6719,386.1563 231.4688,385.9531 Q231.2656,385.7656 231.1563,385.25 Q231.1094,384.8906 230.9219,384.7031 Q230.5938,384.3281 229.9844,384.1094 Q229.375,383.8906 228.75,383.8906 Q227.9844,383.8906 227.3438,384.2188 Q226.7188,384.5469 226.2188,385.2969 Q225.7344,386.0469 225.7344,387.0781 L225.7344,388.1719 Q225.7344,389.4063 226.625,390.2344 Q227.5156,391.0469 229.1094,391.0469 Q230.0469,391.0469 230.7031,390.7969 Q231.0938,390.6406 231.5156,390.2031 Q231.7813,389.9375 231.9219,389.8594 Q232.0781,389.7813 232.2813,389.7813 Q232.6094,389.7813 232.8594,390.0469 Q233.125,390.2969 233.125,390.6406 Q233.125,390.9844 232.7813,391.3906 Q232.2813,391.9688 231.4844,392.2969 Q230.4063,392.75 229.1094,392.75 Q227.5938,392.75 226.3906,392.125 Q225.4063,391.625 224.7188,390.5625 Q224.0313,389.4844 224.0313,388.2031 L224.0313,387.0469 Q224.0313,385.7188 224.6406,384.5781 Q225.2656,383.4219 226.3594,382.8125 Q227.4531,382.1875 228.6875,382.1875 Q229.4219,382.1875 230.0625,382.3594 Q230.7188,382.5156 231.2656,382.875 Z " fill="#000000"/><text fill="#000000" font-family="sans-serif" font-size="14" lengthAdjust="spacing" textLength="66.917" x="242.5" y="392.7969">TipMapper</text><line style="stroke:#181818;stroke-width:0.5;" x1="214.5" x2="311.417" y1="403" y2="403"/><line style="stroke:#181818;stroke-width:0.5;" x1="214.5" x2="311.417" y1="411" y2="411"/><text fill="#000000" font-family="sans-serif" font-size="14" lengthAdjust="spacing" textLength="64.1895" x="219.5" y="430.1074">+toEntity()</text><text fill="#000000" font-family="sans-serif" font-size="14" lengthAdjust="spacing" textLength="58.7275" x="219.5" y="448.7285">+toDTO()</text></g><!--class TipDTO--><g id="elem_TipDTO"><rect codeLine="39" fill="#F1F1F1" height="141.1055" id="TipDTO" rx="2.5" ry="2.5" style="stroke:#181818;stroke-width:0.5;" width="128.7168" x="218.5" y="535"/><ellipse cx="254.9726" cy="551" fill="#ADD1B2" rx="11" ry="11" style="stroke:#181818;stroke-width:1.0;"/><path d="M257.7382,546.875 Q257.8944,546.6563 258.0819,546.5469 Q258.2694,546.4375 258.4882,546.4375 Q258.8632,546.4375 259.0976,546.7031 Q259.3319,546.9531 259.3319,547.5625 L259.3319,549.0156 Q259.3319,549.625 259.0976,549.8906 Q258.8632,550.1563 258.4882,550.1563 Q258.1444,550.1563 257.9413,549.9531 Q257.7382,549.7656 257.6288,549.25 Q257.5819,548.8906 257.3944,548.7031 Q257.0663,548.3281 256.4569,548.1094 Q255.8476,547.8906 255.2226,547.8906 Q254.4569,547.8906 253.8163,548.2188 Q253.1913,548.5469 252.6913,549.2969 Q252.2069,550.0469 252.2069,551.0781 L252.2069,552.1719 Q252.2069,553.4063 253.0976,554.2344 Q253.9882,555.0469 255.5819,555.0469 Q256.5194,555.0469 257.1757,554.7969 Q257.5663,554.6406 257.9882,554.2031 Q258.2538,553.9375 258.3944,553.8594 Q258.5507,553.7813 258.7538,553.7813 Q259.0819,553.7813 259.3319,554.0469 Q259.5976,554.2969 259.5976,554.6406 Q259.5976,554.9844 259.2538,555.3906 Q258.7538,555.9688 257.9569,556.2969 Q256.8788,556.75 255.5819,556.75 Q254.0663,556.75 252.8632,556.125 Q251.8788,555.625 251.1913,554.5625 Q250.5038,553.4844 250.5038,552.2031 L250.5038,551.0469 Q250.5038,549.7188 251.1132,548.5781 Q251.7382,547.4219 252.8319,546.8125 Q253.9257,546.1875 255.1601,546.1875 Q255.8944,546.1875 256.5351,546.3594 Q257.1913,546.5156 257.7382,546.875 Z " fill="#000000"/><text fill="#000000" font-family="sans-serif" font-size="14" lengthAdjust="spacing" textLength="49" x="273.7442" y="556.7969">TipDTO</text><line style="stroke:#181818;stroke-width:0.5;" x1="219.5" x2="346.2168" y1="567" y2="567"/><text fill="#000000" font-family="sans-serif" font-size="14" lengthAdjust="spacing" textLength="59.9102" x="224.5" y="586.1074">-id: String</text><text fill="#000000" font-family="sans-serif" font-size="14" lengthAdjust="spacing" textLength="70.7998" x="224.5" y="604.7285">-title: String</text><text fill="#000000" font-family="sans-serif" font-size="14" lengthAdjust="spacing" textLength="116.7168" x="224.5" y="623.3496">-description: String</text><text fill="#000000" font-family="sans-serif" font-size="14" lengthAdjust="spacing" textLength="85.5928" x="224.5" y="641.9707">-likeCount: int</text><text fill="#000000" font-family="sans-serif" font-size="14" lengthAdjust="spacing" textLength="110.4961" x="224.5" y="660.5918">-favoriteCount: int</text><line style="stroke:#181818;stroke-width:0.5;" x1="219.5" x2="346.2168" y1="668.1055" y2="668.1055"/></g><!--link AllUsers to TipUI--><g id="link_AllUsers_TipUI"><path codeLine="48" d="M63,55.22 C63,77.67 63,105.5 63,127.91 " fill="none" id="AllUsers-to-TipUI" style="stroke:#181818;stroke-width:1.0;stroke-dasharray:7.0,7.0;"/><polygon fill="#181818" points="63,133.91,67,124.91,63,128.91,59,124.91,63,133.91" style="stroke:#181818;stroke-width:1.0;"/><text fill="#000000" font-family="sans-serif" font-size="13" lengthAdjust="spacing" textLength="124.2744" x="64" y="100.0283">requests to list all tips</text></g><!--link TipUI to TipController--><g id="link_TipUI_TipController"><path codeLine="49" d="M63,182.02 C63,199.39 63,217.46 63,236.83 " fill="none" id="TipUI-to-TipController" style="stroke:#181818;stroke-width:1.0;stroke-dasharray:7.0,7.0;"/><polygon fill="#181818" points="63,242.83,67,233.83,63,237.83,59,233.83,63,242.83" style="stroke:#181818;stroke-width:1.0;"/></g><!--link TipController to TipService--><g id="link_TipController_TipService"><path codeLine="50" d="M119.11,276.5 C129.98,276.5 141.16,276.5 147.69,276.5 " fill="none" id="TipController-to-TipService" style="stroke:#181818;stroke-width:1.0;stroke-dasharray:7.0,7.0;"/><polygon fill="#181818" points="153.69,276.5,144.69,272.5,148.69,276.5,144.69,280.5,153.69,276.5" style="stroke:#181818;stroke-width:1.0;"/></g><!--link TipService to TipRepository--><g id="link_TipService_TipRepository"><path codeLine="51" d="M182.67,310.18 C169.56,331.25 155.74,353.4558 142.61,374.5558 " fill="none" id="TipService-to-TipRepository" style="stroke:#181818;stroke-width:1.0;stroke-dasharray:7.0,7.0;"/><polygon fill="#181818" points="139.44,379.65,147.5912,374.122,142.0817,375.4048,140.7989,369.8953,139.44,379.65" style="stroke:#181818;stroke-width:1.0;"/></g><!--link TipService to TipMapper--><g id="link_TipService_TipMapper"><path codeLine="52" d="M217.52,310.18 C225.64,328.44 233.4032,345.8971 242.0832,365.4271 " fill="none" id="TipService-to-TipMapper" style="stroke:#181818;stroke-width:1.0;stroke-dasharray:7.0,7.0;"/><polygon fill="#181818" points="244.52,370.91,244.52,361.0611,242.4893,366.3409,237.2095,364.3102,244.52,370.91" style="stroke:#181818;stroke-width:1.0;"/></g><!--link TipMapper to Tip--><g id="link_TipMapper_Tip"><path codeLine="53" d="M231.4,456.2 C213.93,479.25 195.3937,503.6979 175.3737,530.1179 " fill="none" id="TipMapper-to-Tip" style="stroke:#181818;stroke-width:1.0;stroke-dasharray:7.0,7.0;"/><polygon fill="#181818" points="171.75,534.9,180.3736,530.1426,174.7698,530.9149,173.9975,525.311,171.75,534.9" style="stroke:#181818;stroke-width:1.0;"/></g><!--link TipMapper to TipDTO--><g id="link_TipMapper_TipDTO"><path codeLine="54" d="M267.39,456.2 C269.82,479.25 272.2621,502.5129 275.0421,528.9329 " fill="none" id="TipMapper-to-TipDTO" style="stroke:#181818;stroke-width:1.0;stroke-dasharray:7.0,7.0;"/><polygon fill="#181818" points="275.67,534.9,278.7062,525.5308,275.1468,529.9275,270.7502,526.368,275.67,534.9" style="stroke:#181818;stroke-width:1.0;"/></g><!--link TipRepository to Tip--><g id="link_TipRepository_Tip"><path codeLine="55" d="M119,447.16 C119,471.25 119,498.9 119,528.91 " fill="none" id="TipRepository-to-Tip" style="stroke:#181818;stroke-width:1.0;"/><polygon fill="#181818" points="119,534.91,123,525.91,119,529.91,115,525.91,119,534.91" style="stroke:#181818;stroke-width:1.0;"/><text fill="#000000" font-family="sans-serif" font-size="13" lengthAdjust="spacing" textLength="13.73" x="120" y="501.0283">tip</text><text fill="#000000" font-family="sans-serif" font-size="13" lengthAdjust="spacing" textLength="7.23" x="111.3645" y="468.7577">1</text><text fill="#000000" font-family="sans-serif" font-size="13" lengthAdjust="spacing" textLength="5.0591" x="113.7598" y="523.7917">*</text></g><!--SRC=[nLBBRi8m4BpxArQvzAMWzfe3KaLxu51L8l01Rh99BOpjUXUgjEBVku0B8ULUtpmpjcV7GqlZWevw1K5NIzrYoPr5Y5YnTgr5HKS1lUlQVnhNGgCjzHbh778N48AttMxJuoghYHwPetbRCquhxqhpXN2lbDfJC3TXCOLljUq14-yuUcin2W6oxg155eAkRyw49SQDgV2ooZZ6s6YX1PjXy6JOn-ueReoh7wtjNodR1M6aWPzq90TJ5r3ABAvD01ksEC1gf2gQmCQx0MFD4YT-xRW0CPV0HczyDDmdjlrqNdG8lI3OFpjvjHFRly3J_7MGYo3_uFaAyZo76LfToJrwXOuzxJ1rp7Kq6gSVBwHa7sia9fb0NY46RQsO2wGEYgGzbK6TL-D0fmgeNXlImTENNo0FgQfJlWd_YqYMwhn0sKCcKuqXkytsxIXshkNBVW00]--></g></svg>