<svg xmlns="http://www.w3.org/2000/svg" xmlns:xlink="http://www.w3.org/1999/xlink" contentStyleType="text/css" height="763px" preserveAspectRatio="none" style="width:1090px;height:763px;background:#FFFFFF;" version="1.1" viewBox="0 0 1090 763" width="1090px" zoomAndPan="magnify"><defs/><g><rect fill="#FFFFFF" height="568.9473" style="stroke:#181818;stroke-width:1.0;" width="10" x="29.0586" y="93.6211"/><rect fill="#FFFFFF" height="545.6563" style="stroke:#181818;stroke-width:1.0;" width="10" x="248.4893" y="116.9121"/><rect fill="#FFFFFF" height="483.0742" style="stroke:#181818;stroke-width:1.0;" width="10" x="368.8501" y="148.2031"/><rect fill="#FFFFFF" height="420.4922" style="stroke:#181818;stroke-width:1.0;" width="10" x="489.2109" y="179.4941"/><rect fill="#FFFFFF" height="295.3281" style="stroke:#181818;stroke-width:1.0;" width="10" x="610.3418" y="273.3672"/><rect fill="#FFFFFF" height="31.291" style="stroke:#181818;stroke-width:1.0;" width="10" x="779.459" y="210.7852"/><rect fill="#FFFFFF" height="31.291" style="stroke:#181818;stroke-width:1.0;" width="10" x="870.3726" y="392.2402"/><rect fill="#FFFFFF" height="30" style="stroke:#181818;stroke-width:1.0;" width="10" x="1026.1104" y="304.6582"/><rect fill="none" height="188.7461" style="stroke:#000000;stroke-width:1.5;" width="521.7339" x="562.9385" y="349.6582"/><line style="stroke:#181818;stroke-width:0.5;stroke-dasharray:5.0,5.0;" x1="34" x2="34" y1="83.6211" y2="680.5684"/><line style="stroke:#181818;stroke-width:0.5;stroke-dasharray:5.0,5.0;" x1="252.8203" x2="252.8203" y1="83.6211" y2="680.5684"/><line style="stroke:#181818;stroke-width:0.5;stroke-dasharray:5.0,5.0;" x1="373.8364" x2="373.8364" y1="83.6211" y2="680.5684"/><line style="stroke:#181818;stroke-width:0.5;stroke-dasharray:5.0,5.0;" x1="494.2007" x2="494.2007" y1="83.6211" y2="680.5684"/><line style="stroke:#181818;stroke-width:0.5;stroke-dasharray:5.0,5.0;" x1="614.9385" x2="614.9385" y1="83.6211" y2="680.5684"/><line style="stroke:#181818;stroke-width:0.5;stroke-dasharray:5.0,5.0;" x1="783.8315" x2="783.8315" y1="83.6211" y2="680.5684"/><line style="stroke:#181818;stroke-width:0.5;stroke-dasharray:5.0,5.0;" x1="875.0864" x2="875.0864" y1="83.6211" y2="680.5684"/><line style="stroke:#181818;stroke-width:0.5;stroke-dasharray:5.0,5.0;" x1="943.6587" x2="943.6587" y1="83.6211" y2="680.5684"/><line style="stroke:#181818;stroke-width:0.5;stroke-dasharray:5.0,5.0;" x1="1030.5483" x2="1030.5483" y1="83.6211" y2="680.5684"/><text fill="#000000" font-family="sans-serif" font-size="14" lengthAdjust="spacing" textLength="52.1172" x="5" y="80.1074">AllUsers</text><ellipse cx="34.0586" cy="13.5" fill="#E3E3E3" rx="8" ry="8" style="stroke:#181818;stroke-width:0.5;"/><path d="M34.0586,21.5 L34.0586,48.5 M21.0586,29.5 L47.0586,29.5 M34.0586,48.5 L21.0586,63.5 M34.0586,48.5 L47.0586,63.5 " fill="none" style="stroke:#181818;stroke-width:0.5;"/><text fill="#000000" font-family="sans-serif" font-size="14" lengthAdjust="spacing" textLength="52.1172" x="5" y="694.6758">AllUsers</text><ellipse cx="34.0586" cy="706.6895" fill="#E3E3E3" rx="8" ry="8" style="stroke:#181818;stroke-width:0.5;"/><path d="M34.0586,714.6895 L34.0586,741.6895 M21.0586,722.6895 L47.0586,722.6895 M34.0586,741.6895 L21.0586,756.6895 M34.0586,741.6895 L47.0586,756.6895 " fill="none" style="stroke:#181818;stroke-width:0.5;"/><rect fill="#E3E3E3" height="32.6211" rx="2.5" ry="2.5" style="stroke:#181818;stroke-width:0.5;" width="51.3379" x="227.8203" y="50"/><text fill="#000000" font-family="sans-serif" font-size="14" lengthAdjust="spacing" textLength="37.3379" x="234.8203" y="72.1074">:TipUI</text><rect fill="#E3E3E3" height="32.6211" rx="2.5" ry="2.5" style="stroke:#181818;stroke-width:0.5;" width="51.3379" x="227.8203" y="679.5684"/><text fill="#000000" font-family="sans-serif" font-size="14" lengthAdjust="spacing" textLength="37.3379" x="234.8203" y="701.6758">:TipUI</text><rect fill="#E3E3E3" height="32.6211" rx="2.5" ry="2.5" style="stroke:#181818;stroke-width:0.5;" width="98.0273" x="324.8364" y="50"/><text fill="#000000" font-family="sans-serif" font-size="14" lengthAdjust="spacing" textLength="84.0273" x="331.8364" y="72.1074">:TipController</text><rect fill="#E3E3E3" height="32.6211" rx="2.5" ry="2.5" style="stroke:#181818;stroke-width:0.5;" width="98.0273" x="324.8364" y="679.5684"/><text fill="#000000" font-family="sans-serif" font-size="14" lengthAdjust="spacing" textLength="84.0273" x="331.8364" y="701.6758">:TipController</text><rect fill="#E3E3E3" height="32.6211" rx="2.5" ry="2.5" style="stroke:#181818;stroke-width:0.5;" width="84.0205" x="452.2007" y="50"/><text fill="#000000" font-family="sans-serif" font-size="14" lengthAdjust="spacing" textLength="70.0205" x="459.2007" y="72.1074">:TipService</text><rect fill="#E3E3E3" height="32.6211" rx="2.5" ry="2.5" style="stroke:#181818;stroke-width:0.5;" width="84.0205" x="452.2007" y="679.5684"/><text fill="#000000" font-family="sans-serif" font-size="14" lengthAdjust="spacing" textLength="70.0205" x="459.2007" y="701.6758">:TipService</text><rect fill="#E3E3E3" height="51.2422" rx="2.5" ry="2.5" style="stroke:#181818;stroke-width:0.5;" width="84.8066" x="572.9385" y="31.3789"/><text fill="#000000" font-family="sans-serif" font-size="14" lengthAdjust="spacing" textLength="47.4688" x="591.6074" y="53.4863">mapper</text><text fill="#000000" font-family="sans-serif" font-size="14" lengthAdjust="spacing" textLength="70.8066" x="579.9385" y="72.1074">:TipMapper</text><rect fill="#E3E3E3" height="51.2422" rx="2.5" ry="2.5" style="stroke:#181818;stroke-width:0.5;" width="84.8066" x="572.9385" y="679.5684"/><text fill="#000000" font-family="sans-serif" font-size="14" lengthAdjust="spacing" textLength="47.4688" x="591.6074" y="701.6758">mapper</text><text fill="#000000" font-family="sans-serif" font-size="14" lengthAdjust="spacing" textLength="70.8066" x="579.9385" y="720.2969">:TipMapper</text><rect fill="#E3E3E3" height="32.6211" rx="2.5" ry="2.5" style="stroke:#181818;stroke-width:0.5;" width="111.2549" x="728.8315" y="50"/><text fill="#000000" font-family="sans-serif" font-size="14" lengthAdjust="spacing" textLength="97.2549" x="735.8315" y="72.1074">:TipsRepository</text><rect fill="#E3E3E3" height="32.6211" rx="2.5" ry="2.5" style="stroke:#181818;stroke-width:0.5;" width="111.2549" x="728.8315" y="679.5684"/><text fill="#000000" font-family="sans-serif" font-size="14" lengthAdjust="spacing" textLength="97.2549" x="735.8315" y="701.6758">:TipsRepository</text><rect fill="#E3E3E3" height="32.6211" rx="2.5" ry="2.5" style="stroke:#181818;stroke-width:0.5;" width="50.5723" x="850.0864" y="50"/><text fill="#000000" font-family="sans-serif" font-size="14" lengthAdjust="spacing" textLength="36.5723" x="857.0864" y="72.1074">tipList</text><rect fill="#E3E3E3" height="32.6211" rx="2.5" ry="2.5" style="stroke:#181818;stroke-width:0.5;" width="50.5723" x="850.0864" y="679.5684"/><text fill="#000000" font-family="sans-serif" font-size="14" lengthAdjust="spacing" textLength="36.5723" x="857.0864" y="701.6758">tipList</text><rect fill="#E3E3E3" height="51.2422" rx="2.5" ry="2.5" style="stroke:#181818;stroke-width:0.5;" width="66.8896" x="910.6587" y="31.3789"/><text fill="#000000" font-family="sans-serif" font-size="14" lengthAdjust="spacing" textLength="44.3379" x="921.9346" y="53.4863">tipDTO</text><text fill="#000000" font-family="sans-serif" font-size="14" lengthAdjust="spacing" textLength="52.8896" x="917.6587" y="72.1074">:TipDTO</text><rect fill="#E3E3E3" height="51.2422" rx="2.5" ry="2.5" style="stroke:#181818;stroke-width:0.5;" width="66.8896" x="910.6587" y="679.5684"/><text fill="#000000" font-family="sans-serif" font-size="14" lengthAdjust="spacing" textLength="44.3379" x="921.9346" y="701.6758">tipDTO</text><text fill="#000000" font-family="sans-serif" font-size="14" lengthAdjust="spacing" textLength="52.8896" x="917.6587" y="720.2969">:TipDTO</text><rect fill="#E3E3E3" height="32.6211" rx="2.5" ry="2.5" style="stroke:#181818;stroke-width:0.5;" width="87.124" x="987.5483" y="50"/><text fill="#000000" font-family="sans-serif" font-size="14" lengthAdjust="spacing" textLength="73.124" x="994.5483" y="72.1074">tipsDTOList</text><rect fill="#E3E3E3" height="32.6211" rx="2.5" ry="2.5" style="stroke:#181818;stroke-width:0.5;" width="87.124" x="987.5483" y="679.5684"/><text fill="#000000" font-family="sans-serif" font-size="14" lengthAdjust="spacing" textLength="73.124" x="994.5483" y="701.6758">tipsDTOList</text><rect fill="#FFFFFF" height="568.9473" style="stroke:#181818;stroke-width:1.0;" width="10" x="29.0586" y="93.6211"/><rect fill="#FFFFFF" height="545.6563" style="stroke:#181818;stroke-width:1.0;" width="10" x="248.4893" y="116.9121"/><rect fill="#FFFFFF" height="483.0742" style="stroke:#181818;stroke-width:1.0;" width="10" x="368.8501" y="148.2031"/><rect fill="#FFFFFF" height="420.4922" style="stroke:#181818;stroke-width:1.0;" width="10" x="489.2109" y="179.4941"/><rect fill="#FFFFFF" height="295.3281" style="stroke:#181818;stroke-width:1.0;" width="10" x="610.3418" y="273.3672"/><rect fill="#FFFFFF" height="31.291" style="stroke:#181818;stroke-width:1.0;" width="10" x="779.459" y="210.7852"/><rect fill="#FFFFFF" height="31.291" style="stroke:#181818;stroke-width:1.0;" width="10" x="870.3726" y="392.2402"/><rect fill="#FFFFFF" height="30" style="stroke:#181818;stroke-width:1.0;" width="10" x="1026.1104" y="304.6582"/><polygon fill="#181818" points="236.4893,112.9121,246.4893,116.9121,236.4893,120.9121,240.4893,116.9121" style="stroke:#181818;stroke-width:1.0;"/><line style="stroke:#181818;stroke-width:1.0;" x1="39.0586" x2="242.4893" y1="116.9121" y2="116.9121"/><text fill="#000000" font-family="sans-serif" font-size="13" font-weight="bold" lengthAdjust="spacing" textLength="7.23" x="46.0586" y="111.6494">1</text><text fill="#000000" font-family="sans-serif" font-size="13" lengthAdjust="spacing" textLength="179.2007" x="57.2886" y="111.6494">requests to list all available tips</text><polygon fill="#181818" points="356.8501,144.2031,366.8501,148.2031,356.8501,152.2031,360.8501,148.2031" style="stroke:#181818;stroke-width:1.0;"/><line style="stroke:#181818;stroke-width:1.0;" x1="258.4893" x2="362.8501" y1="148.2031" y2="148.2031"/><text fill="#000000" font-family="sans-serif" font-size="13" font-weight="bold" lengthAdjust="spacing" textLength="7.23" x="265.4893" y="142.9404">2</text><text fill="#000000" font-family="sans-serif" font-size="13" lengthAdjust="spacing" textLength="71.519" x="276.7192" y="142.9404">getTipsList()</text><polygon fill="#181818" points="477.2109,175.4941,487.2109,179.4941,477.2109,183.4941,481.2109,179.4941" style="stroke:#181818;stroke-width:1.0;"/><line style="stroke:#181818;stroke-width:1.0;" x1="378.8501" x2="483.2109" y1="179.4941" y2="179.4941"/><text fill="#000000" font-family="sans-serif" font-size="13" font-weight="bold" lengthAdjust="spacing" textLength="7.23" x="385.8501" y="174.2314">3</text><text fill="#000000" font-family="sans-serif" font-size="13" lengthAdjust="spacing" textLength="71.519" x="397.0801" y="174.2314">getTipsList()</text><polygon fill="#181818" points="767.459,206.7852,777.459,210.7852,767.459,214.7852,771.459,210.7852" style="stroke:#181818;stroke-width:1.0;"/><line style="stroke:#181818;stroke-width:1.0;" x1="499.2109" x2="773.459" y1="210.7852" y2="210.7852"/><text fill="#000000" font-family="sans-serif" font-size="13" font-weight="bold" lengthAdjust="spacing" textLength="7.23" x="506.2109" y="205.5225">4</text><text fill="#000000" font-family="sans-serif" font-size="13" lengthAdjust="spacing" textLength="44.0654" x="517.4409" y="205.5225">findAll()</text><line style="stroke:#181818;stroke-width:1.0;" x1="500.2109" x2="510.2109" y1="242.0762" y2="238.0762"/><line style="stroke:#181818;stroke-width:1.0;" x1="500.2109" x2="510.2109" y1="242.0762" y2="246.0762"/><line style="stroke:#181818;stroke-width:1.0;stroke-dasharray:2.0,2.0;" x1="499.2109" x2="783.459" y1="242.0762" y2="242.0762"/><text fill="#000000" font-family="sans-serif" font-size="13" font-weight="bold" lengthAdjust="spacing" textLength="7.23" x="516.2109" y="236.8135">5</text><text fill="#000000" font-family="sans-serif" font-size="13" lengthAdjust="spacing" textLength="78.0317" x="527.4409" y="236.8135">returns tipList</text><polygon fill="#181818" points="598.3418,269.3672,608.3418,273.3672,598.3418,277.3672,602.3418,273.3672" style="stroke:#181818;stroke-width:1.0;"/><line style="stroke:#181818;stroke-width:1.0;" x1="499.2109" x2="604.3418" y1="273.3672" y2="273.3672"/><text fill="#000000" font-family="sans-serif" font-size="13" font-weight="bold" lengthAdjust="spacing" textLength="7.23" x="506.2109" y="268.1045">6</text><text fill="#000000" font-family="sans-serif" font-size="13" lengthAdjust="spacing" textLength="80.9009" x="517.4409" y="268.1045">toDTO(tipList)</text><polygon fill="#181818" points="1014.1104,300.6582,1024.1104,304.6582,1014.1104,308.6582,1018.1104,304.6582" style="stroke:#181818;stroke-width:1.0;"/><line style="stroke:#181818;stroke-width:1.0;" x1="620.3418" x2="1020.1104" y1="304.6582" y2="304.6582"/><text fill="#000000" font-family="sans-serif" font-size="13" font-weight="bold" lengthAdjust="spacing" textLength="7.23" x="627.3418" y="299.3955">7</text><text fill="#000000" font-family="sans-serif" font-size="13" lengthAdjust="spacing" textLength="44.7891" x="638.5718" y="299.3955">create()</text><path d="M562.9385,349.6582 L635.373,349.6582 L635.373,358.9492 L625.373,368.9492 L562.9385,368.9492 L562.9385,349.6582 " fill="#EEEEEE" style="stroke:#000000;stroke-width:1.5;"/><rect fill="none" height="188.7461" style="stroke:#000000;stroke-width:1.5;" width="521.7339" x="562.9385" y="349.6582"/><text fill="#000000" font-family="sans-serif" font-size="13" font-weight="bold" lengthAdjust="spacing" textLength="27.4346" x="577.9385" y="364.6865">loop</text><text fill="#000000" font-family="sans-serif" font-size="11" font-weight="bold" lengthAdjust="spacing" textLength="129.5615" x="650.373" y="363.5283">[for each tip in TIP_LIST]</text><polygon fill="#181818" points="858.3726,388.2402,868.3726,392.2402,858.3726,396.2402,862.3726,392.2402" style="stroke:#181818;stroke-width:1.0;"/><line style="stroke:#181818;stroke-width:1.0;" x1="620.3418" x2="864.3726" y1="392.2402" y2="392.2402"/><text fill="#000000" font-family="sans-serif" font-size="13" font-weight="bold" lengthAdjust="spacing" textLength="7.23" x="627.3418" y="386.9775">8</text><text fill="#000000" font-family="sans-serif" font-size="13" lengthAdjust="spacing" textLength="29.6182" x="638.5718" y="386.9775">get(i)</text><line style="stroke:#181818;stroke-width:1.0;" x1="621.3418" x2="631.3418" y1="423.5313" y2="419.5313"/><line style="stroke:#181818;stroke-width:1.0;" x1="621.3418" x2="631.3418" y1="423.5313" y2="427.5313"/><line style="stroke:#181818;stroke-width:1.0;stroke-dasharray:2.0,2.0;" x1="620.3418" x2="874.3726" y1="423.5313" y2="423.5313"/><text fill="#000000" font-family="sans-serif" font-size="13" font-weight="bold" lengthAdjust="spacing" textLength="7.23" x="637.3418" y="418.2686">9</text><text fill="#000000" font-family="sans-serif" font-size="13" lengthAdjust="spacing" textLength="13.73" x="648.5718" y="418.2686">tip</text><line style="stroke:#181818;stroke-width:1.0;" x1="620.3418" x2="662.3418" y1="454.8223" y2="454.8223"/><line style="stroke:#181818;stroke-width:1.0;" x1="662.3418" x2="662.3418" y1="454.8223" y2="467.8223"/><line style="stroke:#181818;stroke-width:1.0;" x1="621.3418" x2="662.3418" y1="467.8223" y2="467.8223"/><polygon fill="#181818" points="631.3418,463.8223,621.3418,467.8223,631.3418,471.8223,627.3418,467.8223" style="stroke:#181818;stroke-width:1.0;"/><text fill="#000000" font-family="sans-serif" font-size="13" font-weight="bold" lengthAdjust="spacing" textLength="14.46" x="627.3418" y="449.5596">10</text><text fill="#000000" font-family="sans-serif" font-size="13" lengthAdjust="spacing" textLength="116.6572" x="645.8018" y="449.5596">tipDTO = toDTO(tip)</text><line style="stroke:#181818;stroke-width:1.0;" x1="942.1035" x2="932.1035" y1="499.1133" y2="495.1133"/><line style="stroke:#181818;stroke-width:1.0;" x1="942.1035" x2="932.1035" y1="499.1133" y2="503.1133"/><line style="stroke:#181818;stroke-width:1.0;stroke-dasharray:2.0,2.0;" x1="620.3418" x2="943.1035" y1="499.1133" y2="499.1133"/><text fill="#000000" font-family="sans-serif" font-size="13" font-weight="bold" lengthAdjust="spacing" textLength="14.46" x="627.3418" y="493.8506">11</text><text fill="#000000" font-family="sans-serif" font-size="13" lengthAdjust="spacing" textLength="55.6245" x="645.8018" y="493.8506">create(...)</text><polygon fill="#181818" points="1019.1104,526.4043,1029.1104,530.4043,1019.1104,534.4043,1023.1104,530.4043" style="stroke:#181818;stroke-width:1.0;"/><line style="stroke:#181818;stroke-width:1.0;" x1="620.3418" x2="1025.1104" y1="530.4043" y2="530.4043"/><text fill="#000000" font-family="sans-serif" font-size="13" font-weight="bold" lengthAdjust="spacing" textLength="14.46" x="627.3418" y="525.1416">12</text><text fill="#000000" font-family="sans-serif" font-size="13" lengthAdjust="spacing" textLength="71.519" x="645.8018" y="525.1416">add(tipDTO)</text><polygon fill="#181818" points="510.2109,564.6953,500.2109,568.6953,510.2109,572.6953,506.2109,568.6953" style="stroke:#181818;stroke-width:1.0;"/><line style="stroke:#181818;stroke-width:1.0;stroke-dasharray:2.0,2.0;" x1="504.2109" x2="614.3418" y1="568.6953" y2="568.6953"/><text fill="#000000" font-family="sans-serif" font-size="13" font-weight="bold" lengthAdjust="spacing" textLength="14.46" x="516.2109" y="563.4326">13</text><text fill="#000000" font-family="sans-serif" font-size="13" lengthAdjust="spacing" textLength="67.9009" x="534.6709" y="563.4326">tipsDTOList</text><polygon fill="#181818" points="389.8501,595.9863,379.8501,599.9863,389.8501,603.9863,385.8501,599.9863" style="stroke:#181818;stroke-width:1.0;"/><line style="stroke:#181818;stroke-width:1.0;stroke-dasharray:2.0,2.0;" x1="383.8501" x2="493.2109" y1="599.9863" y2="599.9863"/><text fill="#000000" font-family="sans-serif" font-size="13" font-weight="bold" lengthAdjust="spacing" textLength="14.46" x="395.8501" y="594.7236">14</text><text fill="#000000" font-family="sans-serif" font-size="13" lengthAdjust="spacing" textLength="67.9009" x="414.3101" y="594.7236">tipsDTOList</text><polygon fill="#181818" points="269.4893,627.2773,259.4893,631.2773,269.4893,635.2773,265.4893,631.2773" style="stroke:#181818;stroke-width:1.0;"/><line style="stroke:#181818;stroke-width:1.0;stroke-dasharray:2.0,2.0;" x1="263.4893" x2="372.8501" y1="631.2773" y2="631.2773"/><text fill="#000000" font-family="sans-serif" font-size="13" font-weight="bold" lengthAdjust="spacing" textLength="14.46" x="275.4893" y="626.0146">15</text><text fill="#000000" font-family="sans-serif" font-size="13" lengthAdjust="spacing" textLength="67.9009" x="293.9492" y="626.0146">tipsDTOList</text><polygon fill="#181818" points="45.0586,658.5684,35.0586,662.5684,45.0586,666.5684,41.0586,662.5684" style="stroke:#181818;stroke-width:1.0;"/><line style="stroke:#181818;stroke-width:1.0;stroke-dasharray:2.0,2.0;" x1="39.0586" x2="252.4893" y1="662.5684" y2="662.5684"/><text fill="#000000" font-family="sans-serif" font-size="13" font-weight="bold" lengthAdjust="spacing" textLength="14.46" x="51.0586" y="657.3057">16</text><text fill="#000000" font-family="sans-serif" font-size="13" lengthAdjust="spacing" textLength="67.9009" x="69.5186" y="657.3057">tipsDTOList</text><!--SRC=[ZPJ1RkiW44Nt_WgKLR98Fg3IgrIrNLXArIXskgfKKNkIe6BW0KxLl-y02JQntTOhREuzZEy0veC9HJLjI2E5h8vQDa2iRY4pSKRHweCUeB1V78Y6ob9nu7s1ET9QVZ9n87lA3MGPRQqKRVCE6iULbPhCxZZV6T1cHgWXk-9ncw7NieefAYoPtPHCxV8mcG-dxgMmMd8Esalko-rwA2f0drW5Ne4BlAIAXYe5-bKuvPCVU-7JtMOpLepPWfA6OUrVNbVccxVju-OvLLgcripOg5ZdHJbGF9JFOLaSU6NuvgDX9seXv94HVDo8B6yn17A3MVzlmLWqIC9n6K8v9_H46QVls0h466_gE7cWU5BkE2uf91t0kdzojSuNKH9zFi_usJtUXtwNuwG_OVZ4aodtU3zoBl4XQyz4ZRlXYfEmOjZNYeXPBczZSHfiguMFrHKuCDKm16TZHOQzW4GhiJ_pCs_YVyyR9vay0n3bUeCCvqTUfG4jKydrjDb4tNr9ek5IAhB70uRQevCH9hgTU9r4Lzz54dexPxyqOvGM6RuPNNXC_TO2Z_kXkZuBVvlywpgocBIv8ixwcFXgjLhyj53Q9bhNyq18Lm5HZ_UvEo1_wE7OXWaxhpkdVy2avooSqyk5CMRlMRjZxYu7PoekAIUsdiNTAFrND7m3]--></g></svg>