<svg xmlns="http://www.w3.org/2000/svg" xmlns:xlink="http://www.w3.org/1999/xlink" contentStyleType="text/css" height="704px" preserveAspectRatio="none" style="width:1276px;height:704px;background:#FFFFFF;" version="1.1" viewBox="0 0 1276 704" width="1276px" zoomAndPan="magnify"><defs/><g><rect fill="#FFFFFF" height="509.6074" style="stroke:#181818;stroke-width:1.0;" width="10" x="30.6274" y="93.6211"/><rect fill="#FFFFFF" height="31.291" style="stroke:#181818;stroke-width:1.0;" width="10" x="265.978" y="116.9121"/><rect fill="#FFFFFF" height="423.7344" style="stroke:#181818;stroke-width:1.0;" width="10" x="265.978" y="179.4941"/><rect fill="#FFFFFF" height="343.8613" style="stroke:#181818;stroke-width:1.0;" width="10" x="441.2778" y="210.7852"/><rect fill="#FFFFFF" height="281.2793" style="stroke:#181818;stroke-width:1.0;" width="10" x="616.5776" y="242.0762"/><rect fill="#FFFFFF" height="31.291" style="stroke:#181818;stroke-width:1.0;" width="10" x="758.0737" y="273.3672"/><rect fill="#FFFFFF" height="31.291" style="stroke:#181818;stroke-width:1.0;" width="10" x="758.0737" y="335.9492"/><rect fill="#FFFFFF" height="93.5332" style="stroke:#181818;stroke-width:1.0;" width="10" x="899.9629" y="398.5313"/><line style="stroke:#181818;stroke-width:0.5;stroke-dasharray:5.0,5.0;" x1="35" x2="35" y1="83.6211" y2="621.2285"/><line style="stroke:#181818;stroke-width:0.5;stroke-dasharray:5.0,5.0;" x1="270.6299" x2="270.6299" y1="83.6211" y2="621.2285"/><line style="stroke:#181818;stroke-width:0.5;stroke-dasharray:5.0,5.0;" x1="445.585" x2="445.585" y1="83.6211" y2="621.2285"/><line style="stroke:#181818;stroke-width:0.5;stroke-dasharray:5.0,5.0;" x1="620.8882" x2="620.8882" y1="83.6211" y2="621.2285"/><line style="stroke:#181818;stroke-width:0.5;stroke-dasharray:5.0,5.0;" x1="762.2671" x2="762.2671" y1="83.6211" y2="621.2285"/><line style="stroke:#181818;stroke-width:0.5;stroke-dasharray:5.0,5.0;" x1="904.8804" x2="904.8804" y1="83.6211" y2="621.2285"/><line style="stroke:#181818;stroke-width:0.5;stroke-dasharray:5.0,5.0;" x1="1070.2119" x2="1070.2119" y1="447.6523" y2="621.2285"/><line style="stroke:#181818;stroke-width:0.5;stroke-dasharray:5.0,5.0;" x1="1211.501" x2="1211.501" y1="83.6211" y2="621.2285"/><text fill="#000000" font-family="sans-serif" font-size="14" lengthAdjust="spacing" textLength="55.2549" x="5" y="80.1074">Manager</text><ellipse cx="35.6274" cy="13.5" fill="#E3E3E3" rx="8" ry="8" style="stroke:#181818;stroke-width:0.5;"/><path d="M35.6274,21.5 L35.6274,48.5 M22.6274,29.5 L48.6274,29.5 M35.6274,48.5 L22.6274,63.5 M35.6274,48.5 L48.6274,63.5 " fill="none" style="stroke:#181818;stroke-width:0.5;"/><text fill="#000000" font-family="sans-serif" font-size="14" lengthAdjust="spacing" textLength="55.2549" x="5" y="635.3359">Manager</text><ellipse cx="35.6274" cy="647.3496" fill="#E3E3E3" rx="8" ry="8" style="stroke:#181818;stroke-width:0.5;"/><path d="M35.6274,655.3496 L35.6274,682.3496 M22.6274,663.3496 L48.6274,663.3496 M35.6274,682.3496 L22.6274,697.3496 M35.6274,682.3496 L48.6274,697.3496 " fill="none" style="stroke:#181818;stroke-width:0.5;"/><rect fill="#E3E3E3" height="32.6211" rx="2.5" ry="2.5" style="stroke:#181818;stroke-width:0.5;" width="88.6963" x="226.6299" y="50"/><text fill="#000000" font-family="sans-serif" font-size="14" lengthAdjust="spacing" textLength="74.6963" x="233.6299" y="72.1074">:CategoryUI</text><rect fill="#E3E3E3" height="32.6211" rx="2.5" ry="2.5" style="stroke:#181818;stroke-width:0.5;" width="88.6963" x="226.6299" y="620.2285"/><text fill="#000000" font-family="sans-serif" font-size="14" lengthAdjust="spacing" textLength="74.6963" x="233.6299" y="642.3359">:CategoryUI</text><rect fill="#E3E3E3" height="32.6211" rx="2.5" ry="2.5" style="stroke:#181818;stroke-width:0.5;" width="135.3857" x="378.585" y="50"/><text fill="#000000" font-family="sans-serif" font-size="14" lengthAdjust="spacing" textLength="121.3857" x="385.585" y="72.1074">:CategoryController</text><rect fill="#E3E3E3" height="32.6211" rx="2.5" ry="2.5" style="stroke:#181818;stroke-width:0.5;" width="135.3857" x="378.585" y="620.2285"/><text fill="#000000" font-family="sans-serif" font-size="14" lengthAdjust="spacing" textLength="121.3857" x="385.585" y="642.3359">:CategoryController</text><rect fill="#E3E3E3" height="32.6211" rx="2.5" ry="2.5" style="stroke:#181818;stroke-width:0.5;" width="121.3789" x="560.8882" y="50"/><text fill="#000000" font-family="sans-serif" font-size="14" lengthAdjust="spacing" textLength="107.3789" x="567.8882" y="72.1074">:CategoryService</text><rect fill="#E3E3E3" height="32.6211" rx="2.5" ry="2.5" style="stroke:#181818;stroke-width:0.5;" width="121.3789" x="560.8882" y="620.2285"/><text fill="#000000" font-family="sans-serif" font-size="14" lengthAdjust="spacing" textLength="107.3789" x="567.8882" y="642.3359">:CategoryService</text><rect fill="#E3E3E3" height="32.6211" rx="2.5" ry="2.5" style="stroke:#181818;stroke-width:0.5;" width="141.6133" x="692.2671" y="50"/><text fill="#000000" font-family="sans-serif" font-size="14" lengthAdjust="spacing" textLength="127.6133" x="699.2671" y="72.1074">:CategoryRepository</text><rect fill="#E3E3E3" height="32.6211" rx="2.5" ry="2.5" style="stroke:#181818;stroke-width:0.5;" width="141.6133" x="692.2671" y="620.2285"/><text fill="#000000" font-family="sans-serif" font-size="14" lengthAdjust="spacing" textLength="127.6133" x="699.2671" y="642.3359">:CategoryRepository</text><rect fill="#E3E3E3" height="32.6211" rx="2.5" ry="2.5" style="stroke:#181818;stroke-width:0.5;" width="122.165" x="843.8804" y="50"/><text fill="#000000" font-family="sans-serif" font-size="14" lengthAdjust="spacing" textLength="108.165" x="850.8804" y="72.1074">:CategoryMapper</text><rect fill="#E3E3E3" height="32.6211" rx="2.5" ry="2.5" style="stroke:#181818;stroke-width:0.5;" width="122.165" x="843.8804" y="620.2285"/><text fill="#000000" font-family="sans-serif" font-size="14" lengthAdjust="spacing" textLength="108.165" x="850.8804" y="642.3359">:CategoryMapper</text><rect fill="#E3E3E3" height="51.2422" rx="2.5" ry="2.5" style="stroke:#181818;stroke-width:0.5;" width="146.2891" x="997.2119" y="620.2285"/><text fill="#000000" font-family="sans-serif" font-size="14" lengthAdjust="spacing" textLength="132.2891" x="1004.2119" y="642.3359">deletedCategoryDTO</text><text fill="#000000" font-family="sans-serif" font-size="14" lengthAdjust="spacing" textLength="90.248" x="1025.2324" y="660.957">:CategoryDTO</text><rect fill="#E3E3E3" height="51.2422" rx="2.5" ry="2.5" style="stroke:#181818;stroke-width:0.5;" width="116.7373" x="1153.501" y="31.3789"/><text fill="#000000" font-family="sans-serif" font-size="14" lengthAdjust="spacing" textLength="102.7373" x="1160.501" y="53.4863">deletedCategory</text><text fill="#000000" font-family="sans-serif" font-size="14" lengthAdjust="spacing" textLength="60.6963" x="1181.5215" y="72.1074">:Category</text><rect fill="#E3E3E3" height="51.2422" rx="2.5" ry="2.5" style="stroke:#181818;stroke-width:0.5;" width="116.7373" x="1153.501" y="620.2285"/><text fill="#000000" font-family="sans-serif" font-size="14" lengthAdjust="spacing" textLength="102.7373" x="1160.501" y="642.3359">deletedCategory</text><text fill="#000000" font-family="sans-serif" font-size="14" lengthAdjust="spacing" textLength="60.6963" x="1181.5215" y="660.957">:Category</text><rect fill="#FFFFFF" height="509.6074" style="stroke:#181818;stroke-width:1.0;" width="10" x="30.6274" y="93.6211"/><rect fill="#FFFFFF" height="31.291" style="stroke:#181818;stroke-width:1.0;" width="10" x="265.978" y="116.9121"/><rect fill="#FFFFFF" height="423.7344" style="stroke:#181818;stroke-width:1.0;" width="10" x="265.978" y="179.4941"/><rect fill="#FFFFFF" height="343.8613" style="stroke:#181818;stroke-width:1.0;" width="10" x="441.2778" y="210.7852"/><rect fill="#FFFFFF" height="281.2793" style="stroke:#181818;stroke-width:1.0;" width="10" x="616.5776" y="242.0762"/><rect fill="#FFFFFF" height="31.291" style="stroke:#181818;stroke-width:1.0;" width="10" x="758.0737" y="273.3672"/><rect fill="#FFFFFF" height="31.291" style="stroke:#181818;stroke-width:1.0;" width="10" x="758.0737" y="335.9492"/><rect fill="#FFFFFF" height="93.5332" style="stroke:#181818;stroke-width:1.0;" width="10" x="899.9629" y="398.5313"/><polygon fill="#181818" points="253.978,112.9121,263.978,116.9121,253.978,120.9121,257.978,116.9121" style="stroke:#181818;stroke-width:1.0;"/><line style="stroke:#181818;stroke-width:1.0;" x1="40.6274" x2="259.978" y1="116.9121" y2="116.9121"/><text fill="#000000" font-family="sans-serif" font-size="13" font-weight="bold" lengthAdjust="spacing" textLength="7.23" x="47.6274" y="111.6494">1</text><text fill="#000000" font-family="sans-serif" font-size="13" lengthAdjust="spacing" textLength="133.688" x="58.8574" y="111.6494">asks to delete category</text><polygon fill="#181818" points="51.6274,144.2031,41.6274,148.2031,51.6274,152.2031,47.6274,148.2031" style="stroke:#181818;stroke-width:1.0;"/><line style="stroke:#181818;stroke-width:1.0;stroke-dasharray:2.0,2.0;" x1="45.6274" x2="269.978" y1="148.2031" y2="148.2031"/><text fill="#000000" font-family="sans-serif" font-size="13" font-weight="bold" lengthAdjust="spacing" textLength="7.23" x="57.6274" y="142.9404">2</text><text fill="#000000" font-family="sans-serif" font-size="13" lengthAdjust="spacing" textLength="101.1626" x="68.8574" y="142.9404">reservationAttempts data (id)</text><polygon fill="#181818" points="253.978,175.4941,263.978,179.4941,253.978,183.4941,257.978,179.4941" style="stroke:#181818;stroke-width:1.0;"/><line style="stroke:#181818;stroke-width:1.0;" x1="40.6274" x2="259.978" y1="179.4941" y2="179.4941"/><text fill="#000000" font-family="sans-serif" font-size="13" font-weight="bold" lengthAdjust="spacing" textLength="7.23" x="47.6274" y="174.2314">3</text><text fill="#000000" font-family="sans-serif" font-size="13" lengthAdjust="spacing" textLength="195.1206" x="58.8574" y="174.2314">types requested data and submits</text><polygon fill="#181818" points="429.2778,206.7852,439.2778,210.7852,429.2778,214.7852,433.2778,210.7852" style="stroke:#181818;stroke-width:1.0;"/><line style="stroke:#181818;stroke-width:1.0;" x1="275.978" x2="435.2778" y1="210.7852" y2="210.7852"/><text fill="#000000" font-family="sans-serif" font-size="13" font-weight="bold" lengthAdjust="spacing" textLength="7.23" x="282.978" y="205.5225">4</text><text fill="#000000" font-family="sans-serif" font-size="13" lengthAdjust="spacing" textLength="106.9453" x="294.208" y="205.5225">deleteCategory(id)</text><polygon fill="#181818" points="604.5776,238.0762,614.5776,242.0762,604.5776,246.0762,608.5776,242.0762" style="stroke:#181818;stroke-width:1.0;"/><line style="stroke:#181818;stroke-width:1.0;" x1="451.2778" x2="610.5776" y1="242.0762" y2="242.0762"/><text fill="#000000" font-family="sans-serif" font-size="13" font-weight="bold" lengthAdjust="spacing" textLength="7.23" x="458.2778" y="236.8135">5</text><text fill="#000000" font-family="sans-serif" font-size="13" lengthAdjust="spacing" textLength="106.9453" x="469.5078" y="236.8135">deleteCategory(id)</text><polygon fill="#181818" points="746.0737,269.3672,756.0737,273.3672,746.0737,277.3672,750.0737,273.3672" style="stroke:#181818;stroke-width:1.0;"/><line style="stroke:#181818;stroke-width:1.0;" x1="626.5776" x2="752.0737" y1="273.3672" y2="273.3672"/><text fill="#000000" font-family="sans-serif" font-size="13" font-weight="bold" lengthAdjust="spacing" textLength="7.23" x="633.5776" y="268.1045">6</text><text fill="#000000" font-family="sans-serif" font-size="13" lengthAdjust="spacing" textLength="65.749" x="644.8076" y="268.1045">findById(id)</text><polygon fill="#181818" points="637.5776,300.6582,627.5776,304.6582,637.5776,308.6582,633.5776,304.6582" style="stroke:#181818;stroke-width:1.0;"/><line style="stroke:#181818;stroke-width:1.0;stroke-dasharray:2.0,2.0;" x1="631.5776" x2="762.0737" y1="304.6582" y2="304.6582"/><text fill="#000000" font-family="sans-serif" font-size="13" font-weight="bold" lengthAdjust="spacing" textLength="7.23" x="643.5776" y="299.3955">7</text><text fill="#000000" font-family="sans-serif" font-size="13" lengthAdjust="spacing" textLength="49.8608" x="654.8076" y="299.3955">category</text><polygon fill="#181818" points="746.0737,331.9492,756.0737,335.9492,746.0737,339.9492,750.0737,335.9492" style="stroke:#181818;stroke-width:1.0;"/><line style="stroke:#181818;stroke-width:1.0;" x1="626.5776" x2="752.0737" y1="335.9492" y2="335.9492"/><text fill="#000000" font-family="sans-serif" font-size="13" font-weight="bold" lengthAdjust="spacing" textLength="7.23" x="633.5776" y="330.6865">8</text><text fill="#000000" font-family="sans-serif" font-size="13" lengthAdjust="spacing" textLength="80.209" x="644.8076" y="330.6865">deleteById(id)</text><polygon fill="#181818" points="637.5776,363.2402,627.5776,367.2402,637.5776,371.2402,633.5776,367.2402" style="stroke:#181818;stroke-width:1.0;"/><line style="stroke:#181818;stroke-width:1.0;stroke-dasharray:2.0,2.0;" x1="631.5776" x2="762.0737" y1="367.2402" y2="367.2402"/><text fill="#000000" font-family="sans-serif" font-size="13" font-weight="bold" lengthAdjust="spacing" textLength="7.23" x="643.5776" y="361.9775">9</text><text fill="#000000" font-family="sans-serif" font-size="13" lengthAdjust="spacing" textLength="23.8481" x="654.8076" y="361.9775">void</text><polygon fill="#181818" points="887.9629,394.5313,897.9629,398.5313,887.9629,402.5313,891.9629,398.5313" style="stroke:#181818;stroke-width:1.0;"/><line style="stroke:#181818;stroke-width:1.0;" x1="626.5776" x2="893.9629" y1="398.5313" y2="398.5313"/><text fill="#000000" font-family="sans-serif" font-size="13" font-weight="bold" lengthAdjust="spacing" textLength="14.46" x="633.5776" y="393.2686">10</text><text fill="#000000" font-family="sans-serif" font-size="13" lengthAdjust="spacing" textLength="96.8018" x="652.0376" y="393.2686">toDTO(category)</text><line style="stroke:#181818;stroke-width:1.0;" x1="995.2119" x2="985.2119" y1="429.8223" y2="425.8223"/><line style="stroke:#181818;stroke-width:1.0;" x1="995.2119" x2="985.2119" y1="429.8223" y2="433.8223"/><line style="stroke:#181818;stroke-width:1.0;stroke-dasharray:2.0,2.0;" x1="909.9629" x2="996.2119" y1="429.8223" y2="429.8223"/><text fill="#000000" font-family="sans-serif" font-size="13" font-weight="bold" lengthAdjust="spacing" textLength="14.46" x="916.9629" y="424.5596">11</text><text fill="#000000" font-family="sans-serif" font-size="13" lengthAdjust="spacing" textLength="44.7891" x="935.4229" y="424.5596">create()</text><rect fill="#E3E3E3" height="51.2422" rx="2.5" ry="2.5" style="stroke:#181818;stroke-width:0.5;" width="146.2891" x="997.2119" y="406.5313"/><text fill="#000000" font-family="sans-serif" font-size="14" lengthAdjust="spacing" textLength="132.2891" x="1004.2119" y="428.6387">deletedCategoryDTO</text><text fill="#000000" font-family="sans-serif" font-size="14" lengthAdjust="spacing" textLength="90.248" x="1025.2324" y="447.2598">:CategoryDTO</text><polygon fill="#181818" points="637.5776,488.0645,627.5776,492.0645,637.5776,496.0645,633.5776,492.0645" style="stroke:#181818;stroke-width:1.0;"/><line style="stroke:#181818;stroke-width:1.0;stroke-dasharray:2.0,2.0;" x1="631.5776" x2="903.9629" y1="492.0645" y2="492.0645"/><text fill="#000000" font-family="sans-serif" font-size="13" font-weight="bold" lengthAdjust="spacing" textLength="14.46" x="643.5776" y="486.8018">12</text><text fill="#000000" font-family="sans-serif" font-size="13" lengthAdjust="spacing" textLength="122.8398" x="662.0376" y="486.8018">deletedCategoryDTO</text><polygon fill="#181818" points="462.2778,519.3555,452.2778,523.3555,462.2778,527.3555,458.2778,523.3555" style="stroke:#181818;stroke-width:1.0;"/><line style="stroke:#181818;stroke-width:1.0;stroke-dasharray:2.0,2.0;" x1="456.2778" x2="620.5776" y1="523.3555" y2="523.3555"/><text fill="#000000" font-family="sans-serif" font-size="13" font-weight="bold" lengthAdjust="spacing" textLength="14.46" x="468.2778" y="518.0928">13</text><text fill="#000000" font-family="sans-serif" font-size="13" lengthAdjust="spacing" textLength="122.8398" x="486.7378" y="518.0928">deletedCategoryDTO</text><polygon fill="#181818" points="286.978,550.6465,276.978,554.6465,286.978,558.6465,282.978,554.6465" style="stroke:#181818;stroke-width:1.0;"/><line style="stroke:#181818;stroke-width:1.0;stroke-dasharray:2.0,2.0;" x1="280.978" x2="445.2778" y1="554.6465" y2="554.6465"/><text fill="#000000" font-family="sans-serif" font-size="13" font-weight="bold" lengthAdjust="spacing" textLength="14.46" x="292.978" y="549.3838">14</text><text fill="#000000" font-family="sans-serif" font-size="13" lengthAdjust="spacing" textLength="122.8398" x="311.438" y="549.3838">deletedCategoryDTO</text><polygon fill="#181818" points="46.6274,599.2285,36.6274,603.2285,46.6274,607.2285,42.6274,603.2285" style="stroke:#181818;stroke-width:1.0;"/><line style="stroke:#181818;stroke-width:1.0;stroke-dasharray:2.0,2.0;" x1="40.6274" x2="269.978" y1="603.2285" y2="603.2285"/><text fill="#000000" font-family="sans-serif" font-size="13" font-weight="bold" lengthAdjust="spacing" textLength="14.46" x="52.6274" y="589.3203">15</text><text fill="#000000" font-family="sans-serif" font-size="13" lengthAdjust="spacing" textLength="155.3589" x="71.0874" y="580.6748">displays operation success</text><text fill="#000000" font-family="sans-serif" font-size="13" lengthAdjust="spacing" textLength="162.6143" x="74.6992" y="597.9658">and deleted category details</text><!--SRC=[hLJBRkCm3BpxAuYUqWBvWHm2T1CV0jHeuAHxAh1WBJOLOajUISx2Vx-q_AYyYLsWM9vYSMP4KiFOirGb6YoWq4fd7qON1CvK5DaXKs9snXCTN9qJ6CeSgbCU0km72lr7gXEyOsufYh1oMbN56nd-dJbj84754WRGGX8noybCbgWStAqswEYaJVsokslIBxk9_4OhPtIUa_6upJ5zca0Uo5naHXvsYDEV4x2KIcqbLrTxP1hldoUG2PPbTstokD_7QJG62ih9aUZXs-Fpgre5NvwvZP_YOxpznT-px80wucqUZtwQyi9Pdc8470airpmoM37oRC5fQDKWwoGyQc3nSFr14ynQCZbXhg7V5LbdGQ13M4Xnxr62heYVzxcw9DipIRHKL09izLP8P-SlNlltOvcstBxXuUeHsJ_rSDo49xD8yxhp8YCXRuPHgWalmcAD0LZiNIhnezw9AvcHb7SBt0YliloiRVGGOGJJzM9VrTKs-HyhksWflbzLkmYD4JGxUj6tELDOjpgtIkl4kBXrk2SF3yq03J5xSVy5SUo5S1VdUkpN-NQN_zfqKZLGlFPOQzP-RsQK0fMnvODL5TAMETOMDFyZePDQyS9b6LdxglpwTVg3x_Z0eSpjhOqE1n7z1G00]--></g></svg>