<svg xmlns="http://www.w3.org/2000/svg" xmlns:xlink="http://www.w3.org/1999/xlink" contentStyleType="text/css" height="519px" preserveAspectRatio="none" style="width:432px;height:519px;background:#FFFFFF;" version="1.1" viewBox="0 0 432 519" width="432px" zoomAndPan="magnify"><defs/><g><!--class CategoryUI--><g id="elem_CategoryUI"><rect codeLine="6" fill="#F1F1F1" height="48" id="CategoryUI" rx="2.5" ry="2.5" style="stroke:#181818;stroke-width:0.5;" width="102.8066" x="7" y="16.5"/><ellipse cx="22" cy="32.5" fill="#ADD1B2" rx="11" ry="11" style="stroke:#181818;stroke-width:1.0;"/><path d="M24.7656,28.375 Q24.9219,28.1563 25.1094,28.0469 Q25.2969,27.9375 25.5156,27.9375 Q25.8906,27.9375 26.125,28.2031 Q26.3594,28.4531 26.3594,29.0625 L26.3594,30.5156 Q26.3594,31.125 26.125,31.3906 Q25.8906,31.6563 25.5156,31.6563 Q25.1719,31.6563 24.9688,31.4531 Q24.7656,31.2656 24.6563,30.75 Q24.6094,30.3906 24.4219,30.2031 Q24.0938,29.8281 23.4844,29.6094 Q22.875,29.3906 22.25,29.3906 Q21.4844,29.3906 20.8438,29.7188 Q20.2188,30.0469 19.7188,30.7969 Q19.2344,31.5469 19.2344,32.5781 L19.2344,33.6719 Q19.2344,34.9063 20.125,35.7344 Q21.0156,36.5469 22.6094,36.5469 Q23.5469,36.5469 24.2031,36.2969 Q24.5938,36.1406 25.0156,35.7031 Q25.2813,35.4375 25.4219,35.3594 Q25.5781,35.2813 25.7813,35.2813 Q26.1094,35.2813 26.3594,35.5469 Q26.625,35.7969 26.625,36.1406 Q26.625,36.4844 26.2813,36.8906 Q25.7813,37.4688 24.9844,37.7969 Q23.9063,38.25 22.6094,38.25 Q21.0938,38.25 19.8906,37.625 Q18.9063,37.125 18.2188,36.0625 Q17.5313,34.9844 17.5313,33.7031 L17.5313,32.5469 Q17.5313,31.2188 18.1406,30.0781 Q18.7656,28.9219 19.8594,28.3125 Q20.9531,27.6875 22.1875,27.6875 Q22.9219,27.6875 23.5625,27.8594 Q24.2188,28.0156 24.7656,28.375 Z " fill="#000000"/><text fill="#000000" font-family="sans-serif" font-size="14" lengthAdjust="spacing" textLength="70.8066" x="36" y="38.2969">CategoryUI</text><line style="stroke:#181818;stroke-width:0.5;" x1="8" x2="108.8066" y1="48.5" y2="48.5"/><line style="stroke:#181818;stroke-width:0.5;" x1="8" x2="108.8066" y1="56.5" y2="56.5"/></g><!--class Category--><g id="elem_Category"><rect codeLine="9" fill="#F1F1F1" height="103.8633" id="Category" rx="2.5" ry="2.5" style="stroke:#181818;stroke-width:0.5;" width="157.9199" x="258.5" y="409"/><ellipse cx="304.8066" cy="425" fill="#ADD1B2" rx="11" ry="11" style="stroke:#181818;stroke-width:1.0;"/><path d="M307.5723,420.875 Q307.7285,420.6563 307.916,420.5469 Q308.1035,420.4375 308.3223,420.4375 Q308.6973,420.4375 308.9316,420.7031 Q309.166,420.9531 309.166,421.5625 L309.166,423.0156 Q309.166,423.625 308.9316,423.8906 Q308.6973,424.1563 308.3223,424.1563 Q307.9785,424.1563 307.7754,423.9531 Q307.5723,423.7656 307.4629,423.25 Q307.416,422.8906 307.2285,422.7031 Q306.9004,422.3281 306.291,422.1094 Q305.6816,421.8906 305.0566,421.8906 Q304.291,421.8906 303.6504,422.2188 Q303.0254,422.5469 302.5254,423.2969 Q302.041,424.0469 302.041,425.0781 L302.041,426.1719 Q302.041,427.4063 302.9316,428.2344 Q303.8223,429.0469 305.416,429.0469 Q306.3535,429.0469 307.0098,428.7969 Q307.4004,428.6406 307.8223,428.2031 Q308.0879,427.9375 308.2285,427.8594 Q308.3848,427.7813 308.5879,427.7813 Q308.916,427.7813 309.166,428.0469 Q309.4316,428.2969 309.4316,428.6406 Q309.4316,428.9844 309.0879,429.3906 Q308.5879,429.9688 307.791,430.2969 Q306.7129,430.75 305.416,430.75 Q303.9004,430.75 302.6973,430.125 Q301.7129,429.625 301.0254,428.5625 Q300.3379,427.4844 300.3379,426.2031 L300.3379,425.0469 Q300.3379,423.7188 300.9473,422.5781 Q301.5723,421.4219 302.666,420.8125 Q303.7598,420.1875 304.9941,420.1875 Q305.7285,420.1875 306.3691,420.3594 Q307.0254,420.5156 307.5723,420.875 Z " fill="#000000"/><text fill="#000000" font-family="sans-serif" font-size="14" lengthAdjust="spacing" textLength="56.8066" x="325.3066" y="430.7969">Category</text><line style="stroke:#181818;stroke-width:0.5;" x1="259.5" x2="415.4199" y1="441" y2="441"/><text fill="#000000" font-family="sans-serif" font-size="14" lengthAdjust="spacing" textLength="63.7998" x="264.5" y="460.1074">-id : String</text><text fill="#000000" font-family="sans-serif" font-size="14" lengthAdjust="spacing" textLength="124.5166" x="264.5" y="478.7285">-designation : String</text><line style="stroke:#181818;stroke-width:0.5;" x1="259.5" x2="415.4199" y1="486.2422" y2="486.2422"/><text fill="#000000" font-family="sans-serif" font-size="14" lengthAdjust="spacing" textLength="145.9199" x="264.5" y="505.3496">+Category(designation)</text></g><!--class CategoryController--><g id="elem_CategoryController"><rect codeLine="15" fill="#F1F1F1" height="66.6211" id="CategoryController" rx="2.5" ry="2.5" style="stroke:#181818;stroke-width:0.5;" width="175.8096" x="249.5" y="7"/><ellipse cx="276.3411" cy="23" fill="#ADD1B2" rx="11" ry="11" style="stroke:#181818;stroke-width:1.0;"/><path d="M279.1067,18.875 Q279.2629,18.6563 279.4504,18.5469 Q279.6379,18.4375 279.8567,18.4375 Q280.2317,18.4375 280.4661,18.7031 Q280.7004,18.9531 280.7004,19.5625 L280.7004,21.0156 Q280.7004,21.625 280.4661,21.8906 Q280.2317,22.1563 279.8567,22.1563 Q279.5129,22.1563 279.3098,21.9531 Q279.1067,21.7656 278.9973,21.25 Q278.9504,20.8906 278.7629,20.7031 Q278.4348,20.3281 277.8254,20.1094 Q277.2161,19.8906 276.5911,19.8906 Q275.8254,19.8906 275.1848,20.2188 Q274.5598,20.5469 274.0598,21.2969 Q273.5754,22.0469 273.5754,23.0781 L273.5754,24.1719 Q273.5754,25.4063 274.4661,26.2344 Q275.3567,27.0469 276.9504,27.0469 Q277.8879,27.0469 278.5442,26.7969 Q278.9348,26.6406 279.3567,26.2031 Q279.6223,25.9375 279.7629,25.8594 Q279.9192,25.7813 280.1223,25.7813 Q280.4504,25.7813 280.7004,26.0469 Q280.9661,26.2969 280.9661,26.6406 Q280.9661,26.9844 280.6223,27.3906 Q280.1223,27.9688 279.3254,28.2969 Q278.2473,28.75 276.9504,28.75 Q275.4348,28.75 274.2317,28.125 Q273.2473,27.625 272.5598,26.5625 Q271.8723,25.4844 271.8723,24.2031 L271.8723,23.0469 Q271.8723,21.7188 272.4817,20.5781 Q273.1067,19.4219 274.2004,18.8125 Q275.2942,18.1875 276.5286,18.1875 Q277.2629,18.1875 277.9036,18.3594 Q278.5598,18.5156 279.1067,18.875 Z " fill="#000000"/><text fill="#000000" font-family="sans-serif" font-size="14" lengthAdjust="spacing" textLength="117.4961" x="292.9724" y="28.7969">CategoryController</text><line style="stroke:#181818;stroke-width:0.5;" x1="250.5" x2="424.3096" y1="39" y2="39"/><line style="stroke:#181818;stroke-width:0.5;" x1="250.5" x2="424.3096" y1="47" y2="47"/><text fill="#000000" font-family="sans-serif" font-size="14" lengthAdjust="spacing" textLength="163.8096" x="255.5" y="66.1074">+deleteCategory(String id)</text></g><!--class CategoryService--><g id="elem_CategoryService"><rect codeLine="19" fill="#F1F1F1" height="66.6211" id="CategoryService" rx="2.5" ry="2.5" style="stroke:#181818;stroke-width:0.5;" width="175.8096" x="249.5" y="135"/><ellipse cx="282.6441" cy="151" fill="#ADD1B2" rx="11" ry="11" style="stroke:#181818;stroke-width:1.0;"/><path d="M285.4098,146.875 Q285.566,146.6563 285.7535,146.5469 Q285.941,146.4375 286.1598,146.4375 Q286.5348,146.4375 286.7691,146.7031 Q287.0035,146.9531 287.0035,147.5625 L287.0035,149.0156 Q287.0035,149.625 286.7691,149.8906 Q286.5348,150.1563 286.1598,150.1563 Q285.816,150.1563 285.6129,149.9531 Q285.4098,149.7656 285.3004,149.25 Q285.2535,148.8906 285.066,148.7031 Q284.7379,148.3281 284.1285,148.1094 Q283.5191,147.8906 282.8941,147.8906 Q282.1285,147.8906 281.4879,148.2188 Q280.8629,148.5469 280.3629,149.2969 Q279.8785,150.0469 279.8785,151.0781 L279.8785,152.1719 Q279.8785,153.4063 280.7691,154.2344 Q281.6598,155.0469 283.2535,155.0469 Q284.191,155.0469 284.8473,154.7969 Q285.2379,154.6406 285.6598,154.2031 Q285.9254,153.9375 286.066,153.8594 Q286.2223,153.7813 286.4254,153.7813 Q286.7535,153.7813 287.0035,154.0469 Q287.2691,154.2969 287.2691,154.6406 Q287.2691,154.9844 286.9254,155.3906 Q286.4254,155.9688 285.6285,156.2969 Q284.5504,156.75 283.2535,156.75 Q281.7379,156.75 280.5348,156.125 Q279.5504,155.625 278.8629,154.5625 Q278.1754,153.4844 278.1754,152.2031 L278.1754,151.0469 Q278.1754,149.7188 278.7848,148.5781 Q279.4098,147.4219 280.5035,146.8125 Q281.5973,146.1875 282.8316,146.1875 Q283.566,146.1875 284.2066,146.3594 Q284.8629,146.5156 285.4098,146.875 Z " fill="#000000"/><text fill="#000000" font-family="sans-serif" font-size="14" lengthAdjust="spacing" textLength="103.4893" x="300.6762" y="156.7969">CategoryService</text><line style="stroke:#181818;stroke-width:0.5;" x1="250.5" x2="424.3096" y1="167" y2="167"/><line style="stroke:#181818;stroke-width:0.5;" x1="250.5" x2="424.3096" y1="175" y2="175"/><text fill="#000000" font-family="sans-serif" font-size="14" lengthAdjust="spacing" textLength="163.8096" x="255.5" y="194.1074">+deleteCategory(String id)</text></g><!--class CategoryRepository--><g id="elem_CategoryRepository"><rect codeLine="23" fill="#F1F1F1" height="66.6211" id="CategoryRepository" rx="2.5" ry="2.5" style="stroke:#181818;stroke-width:0.5;" width="155.7236" x="259.5" y="263"/><ellipse cx="274.5" cy="279" fill="#B4A7E5" rx="11" ry="11" style="stroke:#181818;stroke-width:1.0;"/><path d="M275.4531,275.6406 L275.4531,282.2969 L277.1719,282.2969 Q277.7813,282.2969 278.0469,282.5313 Q278.3125,282.7656 278.3125,283.1563 Q278.3125,283.5313 278.0469,283.7656 Q277.7813,284 277.1719,284 L272.0313,284 Q271.4219,284 271.1563,283.7656 Q270.8906,283.5313 270.8906,283.1406 Q270.8906,282.7656 271.1563,282.5313 Q271.4219,282.2969 272.0313,282.2969 L273.75,282.2969 L273.75,275.6406 L272.0313,275.6406 Q271.4219,275.6406 271.1563,275.4063 Q270.8906,275.1719 270.8906,274.7813 Q270.8906,274.4063 271.1563,274.1719 Q271.4219,273.9375 272.0313,273.9375 L277.1719,273.9375 Q277.7813,273.9375 278.0469,274.1719 Q278.3125,274.4063 278.3125,274.7813 Q278.3125,275.1719 278.0469,275.4063 Q277.7813,275.6406 277.1719,275.6406 L275.4531,275.6406 Z " fill="#000000"/><text fill="#000000" font-family="sans-serif" font-size="14" font-style="italic" lengthAdjust="spacing" textLength="123.7236" x="288.5" y="284.7969">CategoryRepository</text><line style="stroke:#181818;stroke-width:0.5;" x1="260.5" x2="414.2236" y1="295" y2="295"/><line style="stroke:#181818;stroke-width:0.5;" x1="260.5" x2="414.2236" y1="303" y2="303"/><text fill="#000000" font-family="sans-serif" font-size="14" lengthAdjust="spacing" textLength="135.0166" x="265.5" y="322.1074">+deleteById(String id)</text></g><!--link CategoryUI to CategoryController--><g id="link_CategoryUI_CategoryController"><path codeLine="27" d="M110.32,40.5 C149.33,40.5 197.71,40.5 243.48,40.5 " fill="none" id="CategoryUI-to-CategoryController" style="stroke:#181818;stroke-width:1.0;stroke-dasharray:7.0,7.0;"/><polygon fill="#181818" points="249.48,40.5,240.48,36.5,244.48,40.5,240.48,44.5,249.48,40.5" style="stroke:#181818;stroke-width:1.0;"/><text fill="#000000" font-family="sans-serif" font-size="13" lengthAdjust="spacing" textLength="103.3462" x="128.25" y="33.5283">requests to delete</text></g><!--link CategoryController to CategoryService--><g id="link_CategoryController_CategoryService"><path codeLine="28" d="M337.5,74.28 C337.5,92.94 337.5,110.25 337.5,128.89 " fill="none" id="CategoryController-to-CategoryService" style="stroke:#181818;stroke-width:1.0;stroke-dasharray:7.0,7.0;"/><polygon fill="#181818" points="337.5,134.89,341.5,125.89,337.5,129.89,333.5,125.89,337.5,134.89" style="stroke:#181818;stroke-width:1.0;"/></g><!--link CategoryService to CategoryRepository--><g id="link_CategoryService_CategoryRepository"><path codeLine="29" d="M337.5,202.28 C337.5,220.94 337.5,238.25 337.5,256.89 " fill="none" id="CategoryService-to-CategoryRepository" style="stroke:#181818;stroke-width:1.0;stroke-dasharray:7.0,7.0;"/><polygon fill="#181818" points="337.5,262.89,341.5,253.89,337.5,257.89,333.5,253.89,337.5,262.89" style="stroke:#181818;stroke-width:1.0;"/></g><!--link CategoryRepository to Category--><g id="link_CategoryRepository_Category"><path codeLine="30" d="M337.5,330.38 C337.5,352.92 337.5,377.26 337.5,402.92 " fill="none" id="CategoryRepository-to-Category" style="stroke:#181818;stroke-width:1.0;"/><polygon fill="#181818" points="337.5,408.92,341.5,399.92,337.5,403.92,333.5,399.92,337.5,408.92" style="stroke:#181818;stroke-width:1.0;"/><text fill="#000000" font-family="sans-serif" font-size="13" lengthAdjust="spacing" textLength="49.8608" x="338.5" y="375.0283">category</text><text fill="#000000" font-family="sans-serif" font-size="13" lengthAdjust="spacing" textLength="7.23" x="329.942" y="351.75">1</text><text fill="#000000" font-family="sans-serif" font-size="13" lengthAdjust="spacing" textLength="5.0591" x="332.1734" y="397.8366">*</text></g><!--SRC=[ZL7DJiCm3BxdAQoU1bCdkFOm2NRgbOe7CAaNh6L9IRoXWdXt0dHjA3sGK-Blnv_ZU63NOS0ZTAWFQAYHtX84qeBEM59n9CHdRFqhEmDxj357B3kIlYFelEs_7XccBSPu9nBuwIHKQ-yQVYEuKUeRWHqA6H_wnnhUrSUyccgGJWdSGWLDSd5cgBGKsJWKzkutj1xLgunpzTTyvvq4Ros5eSqwcLeI6lK_hgdvWhgXS6PD_vEo4mfxJFGBuO4w7rcc6IyEzttTpjJP7sssI_6hjB2N4qM987xmKGkyJIOVyglvF3bd2gaMSXUt1PJb5ehhObfO1NguAlK9]--></g></svg>