<svg xmlns="http://www.w3.org/2000/svg" xmlns:xlink="http://www.w3.org/1999/xlink" contentStyleType="text/css" height="599.2px" preserveAspectRatio="none" style="width:1229px;height:599px;background:#FFFFFF;" version="1.1" viewBox="0 0 1229 599" width="1229.6px" zoomAndPan="magnify"><defs/><g><rect fill="#FFFFFF" height="443.6469" style="stroke:#181818;stroke-width:0.8000000000000002;" width="8" x="24.502" y="74.8969"/><rect fill="#FFFFFF" height="25.0328" style="stroke:#181818;stroke-width:0.8000000000000002;" width="8" x="212.7824" y="93.5297"/><rect fill="#FFFFFF" height="374.9484" style="stroke:#181818;stroke-width:0.8000000000000002;" width="8" x="212.7824" y="143.5953"/><rect fill="#FFFFFF" height="324.8828" style="stroke:#181818;stroke-width:0.8000000000000002;" width="8" x="384.8383" y="168.6281"/><rect fill="#FFFFFF" height="274.8172" style="stroke:#181818;stroke-width:0.8000000000000002;" width="8" x="556.8941" y="193.6609"/><rect fill="#FFFFFF" height="25.0328" style="stroke:#181818;stroke-width:0.8000000000000002;" width="8" x="670.091" y="318.5531"/><rect fill="#FFFFFF" height="74.8266" style="stroke:#181818;stroke-width:0.8000000000000002;" width="8" x="783.6023" y="218.6938"/><rect fill="#FFFFFF" height="74.8266" style="stroke:#181818;stroke-width:0.8000000000000002;" width="8" x="783.6023" y="368.6188"/><line style="stroke:#181818;stroke-width:0.4000000000000001;stroke-dasharray:5.0,5.0;" x1="28" x2="28" y1="66.8969" y2="532.9438"/><line style="stroke:#181818;stroke-width:0.4000000000000001;stroke-dasharray:5.0,5.0;" x1="216.5039" x2="216.5039" y1="66.8969" y2="532.9438"/><line style="stroke:#181818;stroke-width:0.4000000000000001;stroke-dasharray:5.0,5.0;" x1="388.284" x2="388.284" y1="66.8969" y2="532.9438"/><line style="stroke:#181818;stroke-width:0.4000000000000001;stroke-dasharray:5.0,5.0;" x1="560.3426" x2="560.3426" y1="66.8969" y2="532.9438"/><line style="stroke:#181818;stroke-width:0.4000000000000001;stroke-dasharray:5.0,5.0;" x1="673.4457" x2="673.4457" y1="66.8969" y2="532.9438"/><line style="stroke:#181818;stroke-width:0.4000000000000001;stroke-dasharray:5.0,5.0;" x1="787.5363" x2="787.5363" y1="66.8969" y2="532.9438"/><line style="stroke:#181818;stroke-width:0.4000000000000001;stroke-dasharray:5.0,5.0;" x1="915.8016" x2="915.8016" y1="407.9156" y2="532.9438"/><line style="stroke:#181818;stroke-width:0.4000000000000001;stroke-dasharray:5.0,5.0;" x1="1022.775" x2="1022.775" y1="66.8969" y2="532.9438"/><line style="stroke:#181818;stroke-width:0.4000000000000001;stroke-dasharray:5.0,5.0;" x1="1103.707" x2="1103.707" y1="257.9906" y2="532.9438"/><line style="stroke:#181818;stroke-width:0.4000000000000001;stroke-dasharray:5.0,5.0;" x1="1183.4641" x2="1183.4641" y1="66.8969" y2="532.9438"/><text fill="#000000" font-family="sans-serif" font-size="11.2" lengthAdjust="spacing" textLength="44.2039" x="4" y="64.0859">Manager</text><ellipse cx="28.502" cy="10.8" fill="#E3E3E3" rx="6.4" ry="6.4" style="stroke:#181818;stroke-width:0.4000000000000001;"/><path d="M28.502,17.2 L28.502,38.8 M18.102,23.6 L38.902,23.6 M28.502,38.8 L18.102,50.8 M28.502,38.8 L38.902,50.8 " fill="none" style="stroke:#181818;stroke-width:0.4000000000000001;"/><text fill="#000000" font-family="sans-serif" font-size="11.2" lengthAdjust="spacing" textLength="44.2039" x="4" y="544.2297">Manager</text><ellipse cx="28.502" cy="553.8406" fill="#E3E3E3" rx="6.4" ry="6.4" style="stroke:#181818;stroke-width:0.4000000000000001;"/><path d="M28.502,560.2406 L28.502,581.8406 M18.102,566.6406 L38.902,566.6406 M28.502,581.8406 L18.102,593.8406 M28.502,581.8406 L38.902,593.8406 " fill="none" style="stroke:#181818;stroke-width:0.4000000000000001;"/><rect fill="#E3E3E3" height="26.0969" rx="2" ry="2" style="stroke:#181818;stroke-width:0.4000000000000001;" width="70.957" x="181.3039" y="40"/><text fill="#000000" font-family="sans-serif" font-size="11.2" lengthAdjust="spacing" textLength="59.757" x="186.9039" y="57.6859">:CategoryUI</text><rect fill="#E3E3E3" height="26.0969" rx="2" ry="2" style="stroke:#181818;stroke-width:0.4000000000000001;" width="70.957" x="181.3039" y="532.1438"/><text fill="#000000" font-family="sans-serif" font-size="11.2" lengthAdjust="spacing" textLength="59.757" x="186.9039" y="549.8297">:CategoryUI</text><rect fill="#E3E3E3" height="26.0969" rx="2" ry="2" style="stroke:#181818;stroke-width:0.4000000000000001;" width="108.3086" x="334.684" y="40"/><text fill="#000000" font-family="sans-serif" font-size="11.2" lengthAdjust="spacing" textLength="97.1086" x="340.284" y="57.6859">:CategoryController</text><rect fill="#E3E3E3" height="26.0969" rx="2" ry="2" style="stroke:#181818;stroke-width:0.4000000000000001;" width="108.3086" x="334.684" y="532.1438"/><text fill="#000000" font-family="sans-serif" font-size="11.2" lengthAdjust="spacing" textLength="97.1086" x="340.284" y="549.8297">:CategoryController</text><rect fill="#E3E3E3" height="26.0969" rx="2" ry="2" style="stroke:#181818;stroke-width:0.4000000000000001;" width="97.1031" x="512.3426" y="40"/><text fill="#000000" font-family="sans-serif" font-size="11.2" lengthAdjust="spacing" textLength="85.9031" x="517.9426" y="57.6859">:CategoryService</text><rect fill="#E3E3E3" height="26.0969" rx="2" ry="2" style="stroke:#181818;stroke-width:0.4000000000000001;" width="97.1031" x="512.3426" y="532.1438"/><text fill="#000000" font-family="sans-serif" font-size="11.2" lengthAdjust="spacing" textLength="85.9031" x="517.9426" y="549.8297">:CategoryService</text><rect fill="#E3E3E3" height="26.0969" rx="2" ry="2" style="stroke:#181818;stroke-width:0.4000000000000001;" width="113.2906" x="617.4457" y="40"/><text fill="#000000" font-family="sans-serif" font-size="11.2" lengthAdjust="spacing" textLength="102.0906" x="623.0457" y="57.6859">:CategoryRepository</text><rect fill="#E3E3E3" height="26.0969" rx="2" ry="2" style="stroke:#181818;stroke-width:0.4000000000000001;" width="113.2906" x="617.4457" y="532.1438"/><text fill="#000000" font-family="sans-serif" font-size="11.2" lengthAdjust="spacing" textLength="102.0906" x="623.0457" y="549.8297">:CategoryRepository</text><rect fill="#E3E3E3" height="26.0969" rx="2" ry="2" style="stroke:#181818;stroke-width:0.4000000000000001;" width="97.732" x="738.7363" y="40"/><text fill="#000000" font-family="sans-serif" font-size="11.2" lengthAdjust="spacing" textLength="86.532" x="744.3363" y="57.6859">:CategoryMapper</text><rect fill="#E3E3E3" height="26.0969" rx="2" ry="2" style="stroke:#181818;stroke-width:0.4000000000000001;" width="97.732" x="738.7363" y="532.1438"/><text fill="#000000" font-family="sans-serif" font-size="11.2" lengthAdjust="spacing" textLength="86.532" x="744.3363" y="549.8297">:CategoryMapper</text><rect fill="#E3E3E3" height="40.9938" rx="2" ry="2" style="stroke:#181818;stroke-width:0.4000000000000001;" width="110.1734" x="861.4016" y="532.1438"/><text fill="#000000" font-family="sans-serif" font-size="11.2" lengthAdjust="spacing" textLength="98.9734" x="867.0016" y="549.8297">savedCategoryDTO</text><text fill="#000000" font-family="sans-serif" font-size="11.2" lengthAdjust="spacing" textLength="72.1984" x="880.3891" y="564.7266">:CategoryDTO</text><rect fill="#E3E3E3" height="40.9938" rx="2" ry="2" style="stroke:#181818;stroke-width:0.4000000000000001;" width="86.532" x="979.575" y="25.1031"/><text fill="#000000" font-family="sans-serif" font-size="11.2" lengthAdjust="spacing" textLength="75.332" x="985.175" y="42.7891">savedCategory</text><text fill="#000000" font-family="sans-serif" font-size="11.2" lengthAdjust="spacing" textLength="48.557" x="998.5625" y="57.6859">:Category</text><rect fill="#E3E3E3" height="40.9938" rx="2" ry="2" style="stroke:#181818;stroke-width:0.4000000000000001;" width="86.532" x="979.575" y="532.1438"/><text fill="#000000" font-family="sans-serif" font-size="11.2" lengthAdjust="spacing" textLength="75.332" x="985.175" y="549.8297">savedCategory</text><text fill="#000000" font-family="sans-serif" font-size="11.2" lengthAdjust="spacing" textLength="48.557" x="998.5625" y="564.7266">:Category</text><rect fill="#E3E3E3" height="40.9938" rx="2" ry="2" style="stroke:#181818;stroke-width:0.4000000000000001;" width="59.757" x="1074.107" y="532.1438"/><text fill="#000000" font-family="sans-serif" font-size="11.2" lengthAdjust="spacing" textLength="42.957" x="1082.507" y="549.8297">category</text><text fill="#000000" font-family="sans-serif" font-size="11.2" lengthAdjust="spacing" textLength="48.557" x="1079.707" y="564.7266">:Category</text><rect fill="#E3E3E3" height="40.9938" rx="2" ry="2" style="stroke:#181818;stroke-width:0.4000000000000001;" width="83.3984" x="1141.8641" y="25.1031"/><text fill="#000000" font-family="sans-serif" font-size="11.2" lengthAdjust="spacing" textLength="66.5984" x="1150.2641" y="42.7891">categoryDTO</text><text fill="#000000" font-family="sans-serif" font-size="11.2" lengthAdjust="spacing" textLength="72.1984" x="1147.4641" y="57.6859">:CategoryDTO</text><rect fill="#E3E3E3" height="40.9938" rx="2" ry="2" style="stroke:#181818;stroke-width:0.4000000000000001;" width="83.3984" x="1141.8641" y="532.1438"/><text fill="#000000" font-family="sans-serif" font-size="11.2" lengthAdjust="spacing" textLength="66.5984" x="1150.2641" y="549.8297">categoryDTO</text><text fill="#000000" font-family="sans-serif" font-size="11.2" lengthAdjust="spacing" textLength="72.1984" x="1147.4641" y="564.7266">:CategoryDTO</text><rect fill="#FFFFFF" height="443.6469" style="stroke:#181818;stroke-width:0.8000000000000002;" width="8" x="24.502" y="74.8969"/><rect fill="#FFFFFF" height="25.0328" style="stroke:#181818;stroke-width:0.8000000000000002;" width="8" x="212.7824" y="93.5297"/><rect fill="#FFFFFF" height="374.9484" style="stroke:#181818;stroke-width:0.8000000000000002;" width="8" x="212.7824" y="143.5953"/><rect fill="#FFFFFF" height="324.8828" style="stroke:#181818;stroke-width:0.8000000000000002;" width="8" x="384.8383" y="168.6281"/><rect fill="#FFFFFF" height="274.8172" style="stroke:#181818;stroke-width:0.8000000000000002;" width="8" x="556.8941" y="193.6609"/><rect fill="#FFFFFF" height="25.0328" style="stroke:#181818;stroke-width:0.8000000000000002;" width="8" x="670.091" y="318.5531"/><rect fill="#FFFFFF" height="74.8266" style="stroke:#181818;stroke-width:0.8000000000000002;" width="8" x="783.6023" y="218.6938"/><rect fill="#FFFFFF" height="74.8266" style="stroke:#181818;stroke-width:0.8000000000000002;" width="8" x="783.6023" y="368.6188"/><polygon fill="#181818" points="203.1824,90.3297,211.1824,93.5297,203.1824,96.7297,206.3824,93.5297" style="stroke:#181818;stroke-width:0.8000000000000002;"/><line style="stroke:#181818;stroke-width:0.8000000000000002;" x1="32.502" x2="207.9824" y1="93.5297" y2="93.5297"/><text fill="#000000" font-family="sans-serif" font-size="10.4" font-weight="bold" lengthAdjust="spacing" textLength="5.784" x="38.102" y="89.3195">1</text><text fill="#000000" font-family="sans-serif" font-size="10.4" lengthAdjust="spacing" textLength="138.1605" x="47.0859" y="89.3195">asks to create a new category</text><polygon fill="#181818" points="41.302,115.3625,33.302,118.5625,41.302,121.7625,38.102,118.5625" style="stroke:#181818;stroke-width:0.8000000000000002;"/><line style="stroke:#181818;stroke-width:0.8000000000000002;stroke-dasharray:2.0,2.0;" x1="36.502" x2="215.9824" y1="118.5625" y2="118.5625"/><text fill="#000000" font-family="sans-serif" font-size="10.4" font-weight="bold" lengthAdjust="spacing" textLength="5.784" x="46.102" y="114.3523">2</text><text fill="#000000" font-family="sans-serif" font-size="10.4" lengthAdjust="spacing" textLength="126.034" x="55.0859" y="114.3523">requests data (designation)</text><polygon fill="#181818" points="203.1824,140.3953,211.1824,143.5953,203.1824,146.7953,206.3824,143.5953" style="stroke:#181818;stroke-width:0.8000000000000002;"/><line style="stroke:#181818;stroke-width:0.8000000000000002;" x1="32.502" x2="207.9824" y1="143.5953" y2="143.5953"/><text fill="#000000" font-family="sans-serif" font-size="10.4" font-weight="bold" lengthAdjust="spacing" textLength="5.784" x="38.102" y="139.3852">3</text><text fill="#000000" font-family="sans-serif" font-size="10.4" lengthAdjust="spacing" textLength="156.0965" x="47.0859" y="139.3852">types requested data and submits</text><polygon fill="#181818" points="375.2383,165.4281,383.2383,168.6281,375.2383,171.8281,378.4383,168.6281" style="stroke:#181818;stroke-width:0.8000000000000002;"/><line style="stroke:#181818;stroke-width:0.8000000000000002;" x1="220.7824" x2="380.0383" y1="168.6281" y2="168.6281"/><text fill="#000000" font-family="sans-serif" font-size="10.4" font-weight="bold" lengthAdjust="spacing" textLength="5.784" x="226.3824" y="164.418">4</text><text fill="#000000" font-family="sans-serif" font-size="10.4" lengthAdjust="spacing" textLength="139.8719" x="235.3664" y="164.418">createCategory(categoryDTO)</text><polygon fill="#181818" points="547.2941,190.4609,555.2941,193.6609,547.2941,196.8609,550.4941,193.6609" style="stroke:#181818;stroke-width:0.8000000000000002;"/><line style="stroke:#181818;stroke-width:0.8000000000000002;" x1="392.8383" x2="552.0941" y1="193.6609" y2="193.6609"/><text fill="#000000" font-family="sans-serif" font-size="10.4" font-weight="bold" lengthAdjust="spacing" textLength="5.784" x="398.4383" y="189.4508">5</text><text fill="#000000" font-family="sans-serif" font-size="10.4" lengthAdjust="spacing" textLength="139.8719" x="407.4223" y="189.4508">createCategory(categoryDTO)</text><polygon fill="#181818" points="774.0023,215.4938,782.0023,218.6938,774.0023,221.8938,777.2023,218.6938" style="stroke:#181818;stroke-width:0.8000000000000002;"/><line style="stroke:#181818;stroke-width:0.8000000000000002;" x1="564.8941" x2="778.8023" y1="218.6938" y2="218.6938"/><text fill="#000000" font-family="sans-serif" font-size="10.4" font-weight="bold" lengthAdjust="spacing" textLength="5.784" x="570.4941" y="214.4836">6</text><text fill="#000000" font-family="sans-serif" font-size="10.4" lengthAdjust="spacing" textLength="103.4516" x="579.4781" y="214.4836">toEntity(categoryDTO)</text><line style="stroke:#181818;stroke-width:0.8000000000000002;" x1="1072.507" x2="1064.507" y1="243.7266" y2="240.5266"/><line style="stroke:#181818;stroke-width:0.8000000000000002;" x1="1072.507" x2="1064.507" y1="243.7266" y2="246.9266"/><line style="stroke:#181818;stroke-width:0.8000000000000002;stroke-dasharray:2.0,2.0;" x1="791.6023" x2="1073.307" y1="243.7266" y2="243.7266"/><text fill="#000000" font-family="sans-serif" font-size="10.4" font-weight="bold" lengthAdjust="spacing" textLength="5.784" x="797.2023" y="239.5164">7</text><text fill="#000000" font-family="sans-serif" font-size="10.4" lengthAdjust="spacing" textLength="35.8313" x="806.1863" y="239.5164">create()</text><rect fill="#E3E3E3" height="40.9938" rx="2" ry="2" style="stroke:#181818;stroke-width:0.4000000000000001;" width="59.757" x="1074.107" y="225.0938"/><text fill="#000000" font-family="sans-serif" font-size="11.2" lengthAdjust="spacing" textLength="42.957" x="1082.507" y="242.7797">category</text><text fill="#000000" font-family="sans-serif" font-size="11.2" lengthAdjust="spacing" textLength="48.557" x="1079.707" y="257.6766">:Category</text><polygon fill="#181818" points="573.6941,290.3203,565.6941,293.5203,573.6941,296.7203,570.4941,293.5203" style="stroke:#181818;stroke-width:0.8000000000000002;"/><line style="stroke:#181818;stroke-width:0.8000000000000002;stroke-dasharray:2.0,2.0;" x1="568.8941" x2="786.8023" y1="293.5203" y2="293.5203"/><text fill="#000000" font-family="sans-serif" font-size="10.4" font-weight="bold" lengthAdjust="spacing" textLength="5.784" x="578.4941" y="289.3102">8</text><text fill="#000000" font-family="sans-serif" font-size="10.4" lengthAdjust="spacing" textLength="39.8887" x="587.4781" y="289.3102">category</text><polygon fill="#181818" points="660.491,315.3531,668.491,318.5531,660.491,321.7531,663.691,318.5531" style="stroke:#181818;stroke-width:0.8000000000000002;"/><line style="stroke:#181818;stroke-width:0.8000000000000002;" x1="564.8941" x2="665.291" y1="318.5531" y2="318.5531"/><text fill="#000000" font-family="sans-serif" font-size="10.4" font-weight="bold" lengthAdjust="spacing" textLength="5.784" x="570.4941" y="314.343">9</text><text fill="#000000" font-family="sans-serif" font-size="10.4" lengthAdjust="spacing" textLength="68.7832" x="579.4781" y="314.343">save(category)</text><polygon fill="#181818" points="573.6941,340.3859,565.6941,343.5859,573.6941,346.7859,570.4941,343.5859" style="stroke:#181818;stroke-width:0.8000000000000002;"/><line style="stroke:#181818;stroke-width:0.8000000000000002;stroke-dasharray:2.0,2.0;" x1="568.8941" x2="673.291" y1="343.5859" y2="343.5859"/><text fill="#000000" font-family="sans-serif" font-size="10.4" font-weight="bold" lengthAdjust="spacing" textLength="11.568" x="578.4941" y="339.3758">10</text><text fill="#000000" font-family="sans-serif" font-size="10.4" lengthAdjust="spacing" textLength="39.8887" x="593.2621" y="339.3758">category</text><polygon fill="#181818" points="774.0023,365.4188,782.0023,368.6188,774.0023,371.8188,777.2023,368.6188" style="stroke:#181818;stroke-width:0.8000000000000002;"/><line style="stroke:#181818;stroke-width:0.8000000000000002;" x1="564.8941" x2="778.8023" y1="368.6188" y2="368.6188"/><text fill="#000000" font-family="sans-serif" font-size="10.4" font-weight="bold" lengthAdjust="spacing" textLength="11.568" x="570.4941" y="364.4086">11</text><text fill="#000000" font-family="sans-serif" font-size="10.4" lengthAdjust="spacing" textLength="77.4414" x="585.2621" y="364.4086">toDTO(category)</text><line style="stroke:#181818;stroke-width:0.8000000000000002;" x1="859.8016" x2="851.8016" y1="393.6516" y2="390.4516"/><line style="stroke:#181818;stroke-width:0.8000000000000002;" x1="859.8016" x2="851.8016" y1="393.6516" y2="396.8516"/><line style="stroke:#181818;stroke-width:0.8000000000000002;stroke-dasharray:2.0,2.0;" x1="791.6023" x2="860.6016" y1="393.6516" y2="393.6516"/><text fill="#000000" font-family="sans-serif" font-size="10.4" font-weight="bold" lengthAdjust="spacing" textLength="11.568" x="797.2023" y="389.4414">12</text><text fill="#000000" font-family="sans-serif" font-size="10.4" lengthAdjust="spacing" textLength="35.8313" x="811.9703" y="389.4414">create()</text><rect fill="#E3E3E3" height="40.9938" rx="2" ry="2" style="stroke:#181818;stroke-width:0.4000000000000001;" width="110.1734" x="861.4016" y="375.0188"/><text fill="#000000" font-family="sans-serif" font-size="11.2" lengthAdjust="spacing" textLength="98.9734" x="867.0016" y="392.7047">savedCategoryDTO</text><text fill="#000000" font-family="sans-serif" font-size="11.2" lengthAdjust="spacing" textLength="72.1984" x="880.3891" y="407.6016">:CategoryDTO</text><polygon fill="#181818" points="573.6941,440.2453,565.6941,443.4453,573.6941,446.6453,570.4941,443.4453" style="stroke:#181818;stroke-width:0.8000000000000002;"/><line style="stroke:#181818;stroke-width:0.8000000000000002;" x1="568.8941" x2="786.8023" y1="443.4453" y2="443.4453"/><text fill="#000000" font-family="sans-serif" font-size="10.4" font-weight="bold" lengthAdjust="spacing" textLength="11.568" x="578.4941" y="439.2352">13</text><text fill="#000000" font-family="sans-serif" font-size="10.4" lengthAdjust="spacing" textLength="49.7047" x="593.2621" y="439.2352">savedDTO</text><polygon fill="#181818" points="401.6383,465.2781,393.6383,468.4781,401.6383,471.6781,398.4383,468.4781" style="stroke:#181818;stroke-width:0.8000000000000002;"/><line style="stroke:#181818;stroke-width:0.8000000000000002;stroke-dasharray:2.0,2.0;" x1="396.8383" x2="560.0941" y1="468.4781" y2="468.4781"/><text fill="#000000" font-family="sans-serif" font-size="10.4" font-weight="bold" lengthAdjust="spacing" textLength="11.568" x="406.4383" y="464.268">14</text><text fill="#000000" font-family="sans-serif" font-size="10.4" lengthAdjust="spacing" textLength="49.7047" x="421.2063" y="464.268">savedDTO</text><polygon fill="#181818" points="229.5824,490.3109,221.5824,493.5109,229.5824,496.7109,226.3824,493.5109" style="stroke:#181818;stroke-width:0.8000000000000002;"/><line style="stroke:#181818;stroke-width:0.8000000000000002;stroke-dasharray:2.0,2.0;" x1="224.7824" x2="388.0383" y1="493.5109" y2="493.5109"/><text fill="#000000" font-family="sans-serif" font-size="10.4" font-weight="bold" lengthAdjust="spacing" textLength="11.568" x="234.3824" y="489.3008">15</text><text fill="#000000" font-family="sans-serif" font-size="10.4" lengthAdjust="spacing" textLength="49.7047" x="249.1504" y="489.3008">savedDTO</text><polygon fill="#181818" points="37.302,515.3438,29.302,518.5438,37.302,521.7438,34.102,518.5438" style="stroke:#181818;stroke-width:0.8000000000000002;"/><line style="stroke:#181818;stroke-width:0.8000000000000002;stroke-dasharray:2.0,2.0;" x1="32.502" x2="215.9824" y1="518.5438" y2="518.5438"/><text fill="#000000" font-family="sans-serif" font-size="10.4" font-weight="bold" lengthAdjust="spacing" textLength="11.568" x="42.102" y="514.3336">16</text><text fill="#000000" font-family="sans-serif" font-size="10.4" lengthAdjust="spacing" textLength="124.2871" x="56.8699" y="514.3336">displays operation success</text><!--SRC=[bPJDRgCm58NtF8NLLLAfBv15f2X5eqg34f6qqaYpkJLtg1Mm6Tkauktdsec9KO1ElKhmEH_t5tCIiW4DDQkLLFn3gngPrIqcfhzfW9-Wn8FjAcGQkGLPLh70V42XFeKisH-e32O9j5R9jdv7JR-vLPfb80cX6HYM9UIoWei6f6KFgorOB9NkNbyUtFNhoyJzLachLLMXzhhjCVyveJoWFWkENdP8yxS9MOwDCeAYwxmoJ_Ux2MK6JNDzRRRPxzCy6GeDdB48ukVZxhTSHVykSMpUqcVwCsECN3VBTdDCV-poNqCVdx3CgySZSq7vDeaptL1x4aOdOqzhwWLRaUHac5MCQtJtm2H-ie3qsjvBlVCFt27l4o4o8cZyswAnXXLWWIqADAAKO8MIIoyly8vmUxtj6ZG1WSM50R9WfdslXJNp4Qpzd13c4dt8VH6LPDaRUegVhVwnEvv2D3TE_qaR4FqO3gx2yKHNA3zOBc6LIYli37L03WCvnhuogG_hVZGU7qFuY-LNhZxTkDlnYJftZMCgFRTTH783toSsyluUvxTnD3nF-cPmuxIHqbEje_2-NVIuu67ZvmiU77qw_fFWTlBhMayaT1lwKLR4kP_Aovo7tRlpHzxXZaJRNWZJLD0PfkYRwRUSLfLpD6PisUEiady0]--></g></svg>