<svg xmlns="http://www.w3.org/2000/svg" xmlns:xlink="http://www.w3.org/1999/xlink" contentStyleType="text/css" height="429.6px" preserveAspectRatio="none" style="width:440px;height:429px;background:#FFFFFF;" version="1.1" viewBox="0 0 440 429" width="440px" zoomAndPan="magnify"><defs/><g><!--class CategoryUI--><g id="elem_CategoryUI"><rect codeLine="6" fill="#F1F1F1" height="38.4" id="CategoryUI" rx="2" ry="2" style="stroke:#181818;stroke-width:0.4000000000000001;" width="82.2453" x="5.6" y="13.2"/><ellipse cx="17.6" cy="26" fill="#ADD1B2" rx="8.8" ry="8.8" style="stroke:#181818;stroke-width:0.8000000000000002;"/><path d="M19.8125,22.7 Q19.9375,22.525 20.0875,22.4375 Q20.2375,22.35 20.4125,22.35 Q20.7125,22.35 20.9,22.5625 Q21.0875,22.7625 21.0875,23.25 L21.0875,24.4125 Q21.0875,24.9 20.9,25.1125 Q20.7125,25.325 20.4125,25.325 Q20.1375,25.325 19.975,25.1625 Q19.8125,25.0125 19.725,24.6 Q19.6875,24.3125 19.5375,24.1625 Q19.275,23.8625 18.7875,23.6875 Q18.3,23.5125 17.8,23.5125 Q17.1875,23.5125 16.675,23.775 Q16.175,24.0375 15.775,24.6375 Q15.3875,25.2375 15.3875,26.0625 L15.3875,26.9375 Q15.3875,27.925 16.1,28.5875 Q16.8125,29.2375 18.0875,29.2375 Q18.8375,29.2375 19.3625,29.0375 Q19.675,28.9125 20.0125,28.5625 Q20.225,28.35 20.3375,28.2875 Q20.4625,28.225 20.625,28.225 Q20.8875,28.225 21.0875,28.4375 Q21.3,28.6375 21.3,28.9125 Q21.3,29.1875 21.025,29.5125 Q20.625,29.975 19.9875,30.2375 Q19.125,30.6 18.0875,30.6 Q16.875,30.6 15.9125,30.1 Q15.125,29.7 14.575,28.85 Q14.025,27.9875 14.025,26.9625 L14.025,26.0375 Q14.025,24.975 14.5125,24.0625 Q15.0125,23.1375 15.8875,22.65 Q16.7625,22.15 17.75,22.15 Q18.3375,22.15 18.85,22.2875 Q19.375,22.4125 19.8125,22.7 Z " fill="#000000"/><text fill="#000000" font-family="sans-serif" font-size="11.2" lengthAdjust="spacing" textLength="56.6453" x="28.8" y="30.6375">CategoryUI</text><line style="stroke:#181818;stroke-width:0.4000000000000001;" x1="6.4" x2="87.0453" y1="38.8" y2="38.8"/><line style="stroke:#181818;stroke-width:0.4000000000000001;" x1="6.4" x2="87.0453" y1="45.2" y2="45.2"/></g><!--class Category--><g id="elem_Category"><rect codeLine="9" fill="#F1F1F1" height="83.0906" id="Category" rx="2" ry="2" style="stroke:#181818;stroke-width:0.4000000000000001;" width="126.3359" x="97.2" y="341.6"/><ellipse cx="134.2453" cy="354.4" fill="#ADD1B2" rx="8.8" ry="8.8" style="stroke:#181818;stroke-width:0.8000000000000002;"/><path d="M136.4578,351.1 Q136.5828,350.925 136.7328,350.8375 Q136.8828,350.75 137.0578,350.75 Q137.3578,350.75 137.5453,350.9625 Q137.7328,351.1625 137.7328,351.65 L137.7328,352.8125 Q137.7328,353.3 137.5453,353.5125 Q137.3578,353.725 137.0578,353.725 Q136.7828,353.725 136.6203,353.5625 Q136.4578,353.4125 136.3703,353 Q136.3328,352.7125 136.1828,352.5625 Q135.9203,352.2625 135.4328,352.0875 Q134.9453,351.9125 134.4453,351.9125 Q133.8328,351.9125 133.3203,352.175 Q132.8203,352.4375 132.4203,353.0375 Q132.0328,353.6375 132.0328,354.4625 L132.0328,355.3375 Q132.0328,356.325 132.7453,356.9875 Q133.4578,357.6375 134.7328,357.6375 Q135.4828,357.6375 136.0078,357.4375 Q136.3203,357.3125 136.6578,356.9625 Q136.8703,356.75 136.9828,356.6875 Q137.1078,356.625 137.2703,356.625 Q137.5328,356.625 137.7328,356.8375 Q137.9453,357.0375 137.9453,357.3125 Q137.9453,357.5875 137.6703,357.9125 Q137.2703,358.375 136.6328,358.6375 Q135.7703,359 134.7328,359 Q133.5203,359 132.5578,358.5 Q131.7703,358.1 131.2203,357.25 Q130.6703,356.3875 130.6703,355.3625 L130.6703,354.4375 Q130.6703,353.375 131.1578,352.4625 Q131.6578,351.5375 132.5328,351.05 Q133.4078,350.55 134.3953,350.55 Q134.9828,350.55 135.4953,350.6875 Q136.0203,350.8125 136.4578,351.1 Z " fill="#000000"/><text fill="#000000" font-family="sans-serif" font-size="11.2" lengthAdjust="spacing" textLength="45.4453" x="150.6453" y="359.0375">Category</text><line style="stroke:#181818;stroke-width:0.4000000000000001;" x1="98" x2="222.7359" y1="367.2" y2="367.2"/><text fill="#000000" font-family="sans-serif" font-size="11.2" lengthAdjust="spacing" textLength="51.0398" x="102" y="382.4859">-id : String</text><text fill="#000000" font-family="sans-serif" font-size="11.2" lengthAdjust="spacing" textLength="99.6133" x="102" y="397.3828">-designation : String</text><line style="stroke:#181818;stroke-width:0.4000000000000001;" x1="98" x2="222.7359" y1="403.3938" y2="403.3938"/><text fill="#000000" font-family="sans-serif" font-size="11.2" lengthAdjust="spacing" textLength="116.7359" x="102" y="418.6797">+Category(designation)</text></g><!--class CategoryDTO--><g id="elem_CategoryDTO"><rect codeLine="15" fill="#F1F1F1" height="83.0906" id="CategoryDTO" rx="2" ry="2" style="stroke:#181818;stroke-width:0.4000000000000001;" width="149.9773" x="260" y="341.6"/><ellipse cx="297.0453" cy="354.4" fill="#ADD1B2" rx="8.8" ry="8.8" style="stroke:#181818;stroke-width:0.8000000000000002;"/><path d="M299.2578,351.1 Q299.3828,350.925 299.5328,350.8375 Q299.6828,350.75 299.8578,350.75 Q300.1578,350.75 300.3453,350.9625 Q300.5328,351.1625 300.5328,351.65 L300.5328,352.8125 Q300.5328,353.3 300.3453,353.5125 Q300.1578,353.725 299.8578,353.725 Q299.5828,353.725 299.4203,353.5625 Q299.2578,353.4125 299.1703,353 Q299.1328,352.7125 298.9828,352.5625 Q298.7203,352.2625 298.2328,352.0875 Q297.7453,351.9125 297.2453,351.9125 Q296.6328,351.9125 296.1203,352.175 Q295.6203,352.4375 295.2203,353.0375 Q294.8328,353.6375 294.8328,354.4625 L294.8328,355.3375 Q294.8328,356.325 295.5453,356.9875 Q296.2578,357.6375 297.5328,357.6375 Q298.2828,357.6375 298.8078,357.4375 Q299.1203,357.3125 299.4578,356.9625 Q299.6703,356.75 299.7828,356.6875 Q299.9078,356.625 300.0703,356.625 Q300.3328,356.625 300.5328,356.8375 Q300.7453,357.0375 300.7453,357.3125 Q300.7453,357.5875 300.4703,357.9125 Q300.0703,358.375 299.4328,358.6375 Q298.5703,359 297.5328,359 Q296.3203,359 295.3578,358.5 Q294.5703,358.1 294.0203,357.25 Q293.4703,356.3875 293.4703,355.3625 L293.4703,354.4375 Q293.4703,353.375 293.9578,352.4625 Q294.4578,351.5375 295.3328,351.05 Q296.2078,350.55 297.1953,350.55 Q297.7828,350.55 298.2953,350.6875 Q298.8203,350.8125 299.2578,351.1 Z " fill="#000000"/><text fill="#000000" font-family="sans-serif" font-size="11.2" lengthAdjust="spacing" textLength="69.0867" x="313.4453" y="359.0375">CategoryDTO</text><line style="stroke:#181818;stroke-width:0.4000000000000001;" x1="260.8" x2="409.1773" y1="367.2" y2="367.2"/><text fill="#000000" font-family="sans-serif" font-size="11.2" lengthAdjust="spacing" textLength="51.0398" x="264.8" y="382.4859">-id : String</text><text fill="#000000" font-family="sans-serif" font-size="11.2" lengthAdjust="spacing" textLength="99.6133" x="264.8" y="397.3828">-designation : String</text><line style="stroke:#181818;stroke-width:0.4000000000000001;" x1="260.8" x2="409.1773" y1="403.3938" y2="403.3938"/><text fill="#000000" font-family="sans-serif" font-size="11.2" lengthAdjust="spacing" textLength="140.3773" x="264.8" y="418.6797">+CategoryDTO(designation)</text></g><!--class CategoryController--><g id="elem_CategoryController"><rect codeLine="21" fill="#F1F1F1" height="53.2969" id="CategoryController" rx="2" ry="2" style="stroke:#181818;stroke-width:0.4000000000000001;" width="238.9703" x="116" y="5.6"/><ellipse cx="185.0867" cy="18.4" fill="#ADD1B2" rx="8.8" ry="8.8" style="stroke:#181818;stroke-width:0.8000000000000002;"/><path d="M187.2992,15.1 Q187.4242,14.925 187.5742,14.8375 Q187.7242,14.75 187.8992,14.75 Q188.1992,14.75 188.3867,14.9625 Q188.5742,15.1625 188.5742,15.65 L188.5742,16.8125 Q188.5742,17.3 188.3867,17.5125 Q188.1992,17.725 187.8992,17.725 Q187.6242,17.725 187.4617,17.5625 Q187.2992,17.4125 187.2117,17 Q187.1742,16.7125 187.0242,16.5625 Q186.7617,16.2625 186.2742,16.0875 Q185.7867,15.9125 185.2867,15.9125 Q184.6742,15.9125 184.1617,16.175 Q183.6617,16.4375 183.2617,17.0375 Q182.8742,17.6375 182.8742,18.4625 L182.8742,19.3375 Q182.8742,20.325 183.5867,20.9875 Q184.2992,21.6375 185.5742,21.6375 Q186.3242,21.6375 186.8492,21.4375 Q187.1617,21.3125 187.4992,20.9625 Q187.7117,20.75 187.8242,20.6875 Q187.9492,20.625 188.1117,20.625 Q188.3742,20.625 188.5742,20.8375 Q188.7867,21.0375 188.7867,21.3125 Q188.7867,21.5875 188.5117,21.9125 Q188.1117,22.375 187.4742,22.6375 Q186.6117,23 185.5742,23 Q184.3617,23 183.3992,22.5 Q182.6117,22.1 182.0617,21.25 Q181.5117,20.3875 181.5117,19.3625 L181.5117,18.4375 Q181.5117,17.375 181.9992,16.4625 Q182.4992,15.5375 183.3742,15.05 Q184.2492,14.55 185.2367,14.55 Q185.8242,14.55 186.3367,14.6875 Q186.8617,14.8125 187.2992,15.1 Z " fill="#000000"/><text fill="#000000" font-family="sans-serif" font-size="11.2" lengthAdjust="spacing" textLength="93.9969" x="201.4867" y="23.0375">CategoryController</text><line style="stroke:#181818;stroke-width:0.4000000000000001;" x1="116.8" x2="354.1703" y1="31.2" y2="31.2"/><line style="stroke:#181818;stroke-width:0.4000000000000001;" x1="116.8" x2="354.1703" y1="37.6" y2="37.6"/><text fill="#000000" font-family="sans-serif" font-size="11.2" lengthAdjust="spacing" textLength="229.3703" x="120.8" y="52.8859">+createCategory(CategoryDTO categoryDTO)</text></g><!--class CategoryService--><g id="elem_CategoryService"><rect codeLine="25" fill="#F1F1F1" height="53.2969" id="CategoryService" rx="2" ry="2" style="stroke:#181818;stroke-width:0.4000000000000001;" width="238.9703" x="116" y="108"/><ellipse cx="190.6895" cy="120.8" fill="#ADD1B2" rx="8.8" ry="8.8" style="stroke:#181818;stroke-width:0.8000000000000002;"/><path d="M192.902,117.5 Q193.027,117.325 193.177,117.2375 Q193.327,117.15 193.502,117.15 Q193.802,117.15 193.9895,117.3625 Q194.177,117.5625 194.177,118.05 L194.177,119.2125 Q194.177,119.7 193.9895,119.9125 Q193.802,120.125 193.502,120.125 Q193.227,120.125 193.0645,119.9625 Q192.902,119.8125 192.8145,119.4 Q192.777,119.1125 192.627,118.9625 Q192.3645,118.6625 191.877,118.4875 Q191.3895,118.3125 190.8895,118.3125 Q190.277,118.3125 189.7645,118.575 Q189.2645,118.8375 188.8645,119.4375 Q188.477,120.0375 188.477,120.8625 L188.477,121.7375 Q188.477,122.725 189.1895,123.3875 Q189.902,124.0375 191.177,124.0375 Q191.927,124.0375 192.452,123.8375 Q192.7645,123.7125 193.102,123.3625 Q193.3145,123.15 193.427,123.0875 Q193.552,123.025 193.7145,123.025 Q193.977,123.025 194.177,123.2375 Q194.3895,123.4375 194.3895,123.7125 Q194.3895,123.9875 194.1145,124.3125 Q193.7145,124.775 193.077,125.0375 Q192.2145,125.4 191.177,125.4 Q189.9645,125.4 189.002,124.9 Q188.2145,124.5 187.6645,123.65 Q187.1145,122.7875 187.1145,121.7625 L187.1145,120.8375 Q187.1145,119.775 187.602,118.8625 Q188.102,117.9375 188.977,117.45 Q189.852,116.95 190.8395,116.95 Q191.427,116.95 191.9395,117.0875 Q192.4645,117.2125 192.902,117.5 Z " fill="#000000"/><text fill="#000000" font-family="sans-serif" font-size="11.2" lengthAdjust="spacing" textLength="82.7914" x="207.0895" y="125.4375">CategoryService</text><line style="stroke:#181818;stroke-width:0.4000000000000001;" x1="116.8" x2="354.1703" y1="133.6" y2="133.6"/><line style="stroke:#181818;stroke-width:0.4000000000000001;" x1="116.8" x2="354.1703" y1="140" y2="140"/><text fill="#000000" font-family="sans-serif" font-size="11.2" lengthAdjust="spacing" textLength="229.3703" x="120.8" y="155.2859">+createCategory(CategoryDTO categoryDTO)</text></g><!--class CategoryRepository--><g id="elem_CategoryRepository"><rect codeLine="29" fill="#F1F1F1" height="53.2969" id="CategoryRepository" rx="2" ry="2" style="stroke:#181818;stroke-width:0.4000000000000001;" width="138.7719" x="68" y="217.6"/><ellipse cx="86.3868" cy="230.4" fill="#B4A7E5" rx="8.8" ry="8.8" style="stroke:#181818;stroke-width:0.8000000000000002;"/><path d="M87.1493,227.7125 L87.1493,233.0375 L88.5243,233.0375 Q89.0118,233.0375 89.2243,233.225 Q89.4368,233.4125 89.4368,233.725 Q89.4368,234.025 89.2243,234.2125 Q89.0118,234.4 88.5243,234.4 L84.4118,234.4 Q83.9243,234.4 83.7118,234.2125 Q83.4993,234.025 83.4993,233.7125 Q83.4993,233.4125 83.7118,233.225 Q83.9243,233.0375 84.4118,233.0375 L85.7868,233.0375 L85.7868,227.7125 L84.4118,227.7125 Q83.9243,227.7125 83.7118,227.525 Q83.4993,227.3375 83.4993,227.025 Q83.4993,226.725 83.7118,226.5375 Q83.9243,226.35 84.4118,226.35 L88.5243,226.35 Q89.0118,226.35 89.2243,226.5375 Q89.4368,226.725 89.4368,227.025 Q89.4368,227.3375 89.2243,227.525 Q89.0118,227.7125 88.5243,227.7125 L87.1493,227.7125 Z " fill="#000000"/><text fill="#000000" font-family="sans-serif" font-size="11.2" font-style="italic" lengthAdjust="spacing" textLength="98.9789" x="99.0061" y="235.0375">CategoryRepository</text><line style="stroke:#181818;stroke-width:0.4000000000000001;" x1="68.8" x2="205.9719" y1="243.2" y2="243.2"/><line style="stroke:#181818;stroke-width:0.4000000000000001;" x1="68.8" x2="205.9719" y1="249.6" y2="249.6"/><text fill="#000000" font-family="sans-serif" font-size="11.2" lengthAdjust="spacing" textLength="129.1719" x="72.8" y="264.8859">+save(Category category)</text></g><!--class CategoryMapper--><g id="elem_CategoryMapper"><rect codeLine="33" fill="#F1F1F1" height="68.1938" id="CategoryMapper" rx="2" ry="2" style="stroke:#181818;stroke-width:0.4000000000000001;" width="199.7484" x="234.8" y="210.4"/><ellipse cx="289.5641" cy="223.2" fill="#ADD1B2" rx="8.8" ry="8.8" style="stroke:#181818;stroke-width:0.8000000000000002;"/><path d="M291.7766,219.9 Q291.9016,219.725 292.0516,219.6375 Q292.2016,219.55 292.3766,219.55 Q292.6766,219.55 292.8641,219.7625 Q293.0516,219.9625 293.0516,220.45 L293.0516,221.6125 Q293.0516,222.1 292.8641,222.3125 Q292.6766,222.525 292.3766,222.525 Q292.1016,222.525 291.9391,222.3625 Q291.7766,222.2125 291.6891,221.8 Q291.6516,221.5125 291.5016,221.3625 Q291.2391,221.0625 290.7516,220.8875 Q290.2641,220.7125 289.7641,220.7125 Q289.1516,220.7125 288.6391,220.975 Q288.1391,221.2375 287.7391,221.8375 Q287.3516,222.4375 287.3516,223.2625 L287.3516,224.1375 Q287.3516,225.125 288.0641,225.7875 Q288.7766,226.4375 290.0516,226.4375 Q290.8016,226.4375 291.3266,226.2375 Q291.6391,226.1125 291.9766,225.7625 Q292.1891,225.55 292.3016,225.4875 Q292.4266,225.425 292.5891,225.425 Q292.8516,225.425 293.0516,225.6375 Q293.2641,225.8375 293.2641,226.1125 Q293.2641,226.3875 292.9891,226.7125 Q292.5891,227.175 291.9516,227.4375 Q291.0891,227.8 290.0516,227.8 Q288.8391,227.8 287.8766,227.3 Q287.0891,226.9 286.5391,226.05 Q285.9891,225.1875 285.9891,224.1625 L285.9891,223.2375 Q285.9891,222.175 286.4766,221.2625 Q286.9766,220.3375 287.8516,219.85 Q288.7266,219.35 289.7141,219.35 Q290.3016,219.35 290.8141,219.4875 Q291.3391,219.6125 291.7766,219.9 Z " fill="#000000"/><text fill="#000000" font-family="sans-serif" font-size="11.2" lengthAdjust="spacing" textLength="83.4203" x="305.9641" y="227.8375">CategoryMapper</text><line style="stroke:#181818;stroke-width:0.4000000000000001;" x1="235.6" x2="433.7484" y1="236" y2="236"/><line style="stroke:#181818;stroke-width:0.4000000000000001;" x1="235.6" x2="433.7484" y1="242.4" y2="242.4"/><text fill="#000000" font-family="sans-serif" font-size="11.2" lengthAdjust="spacing" textLength="190.1484" x="239.6" y="257.6859">+toEntity(CategoryDTO categoryDTO)</text><text fill="#000000" font-family="sans-serif" font-size="11.2" lengthAdjust="spacing" textLength="138.4961" x="239.6" y="272.5828">+toDTO(Category category)</text></g><!--link CategoryUI to CategoryController--><g id="link_CategoryUI_CategoryController"><path codeLine="38" d="M88.072,32.4 C99.936,32.4 109.736,32.4 109.736,32.4 C109.736,32.4 107.336,32.4 111.2,32.4 " fill="none" id="CategoryUI-to-CategoryController" style="stroke:#181818;stroke-width:0.8000000000000002;stroke-dasharray:7.0,7.0;"/><polygon fill="#181818" points="116,32.4,108.8,29.2,112,32.4,108.8,35.6,116,32.4" style="stroke:#181818;stroke-width:0.8000000000000002;"/></g><!--link CategoryController to CategoryService--><g id="link_CategoryController_CategoryService"><path codeLine="39" d="M235.6,59.424 C235.6,74.352 235.6,88.2 235.6,103.112 " fill="none" id="CategoryController-to-CategoryService" style="stroke:#181818;stroke-width:0.8000000000000002;stroke-dasharray:7.0,7.0;"/><polygon fill="#181818" points="235.6,107.912,238.8,100.712,235.6,103.912,232.4,100.712,235.6,107.912" style="stroke:#181818;stroke-width:0.8000000000000002;"/></g><!--link CategoryService to CategoryRepository--><g id="link_CategoryService_CategoryRepository"><path codeLine="40" d="M211.784,161.744 C196.424,178.6 179.7523,196.8915 164.3763,213.7715 " fill="none" id="CategoryService-to-CategoryRepository" style="stroke:#181818;stroke-width:0.8000000000000002;stroke-dasharray:7.0,7.0;"/><polygon fill="#181818" points="161.144,217.32,168.3582,214.1521,163.8376,214.3629,163.6268,209.8423,161.144,217.32" style="stroke:#181818;stroke-width:0.8000000000000002;"/></g><!--link CategoryService to CategoryMapper--><g id="link_CategoryService_CategoryMapper"><path codeLine="41" d="M259.616,161.744 C273.032,176.352 286.6408,191.169 300.9928,206.793 " fill="none" id="CategoryService-to-CategoryMapper" style="stroke:#181818;stroke-width:0.8000000000000002;stroke-dasharray:7.0,7.0;"/><polygon fill="#181818" points="304.24,210.328,301.7259,202.8608,301.534,207.3822,297.0126,207.1903,304.24,210.328" style="stroke:#181818;stroke-width:0.8000000000000002;"/></g><!--link CategoryRepository to Category--><g id="link_CategoryRepository_Category"><path codeLine="42" d="M141.616,271.328 C144.968,291.152 148.8393,314.0513 152.6873,336.7953 " fill="none" id="CategoryRepository-to-Category" style="stroke:#181818;stroke-width:0.8000000000000002;"/><polygon fill="#181818" points="153.488,341.528,155.4421,333.8951,152.8207,337.584,149.1318,334.9627,153.488,341.528" style="stroke:#181818;stroke-width:0.8000000000000002;"/><text fill="#000000" font-family="sans-serif" font-size="10.4" lengthAdjust="spacing" textLength="39.8887" x="150" y="314.4227">category</text><text fill="#000000" font-family="sans-serif" font-size="10.4" lengthAdjust="spacing" textLength="5.784" x="136.2871" y="288.6062">1</text><text fill="#000000" font-family="sans-serif" font-size="10.4" lengthAdjust="spacing" textLength="4.0473" x="148.2979" y="332.6602">*</text></g><!--link CategoryMapper to Category--><g id="link_CategoryMapper_Category"><path codeLine="43" d="M292.584,278.416 C268.488,297.368 241.8606,318.3122 216.2846,338.4322 " fill="none" id="CategoryMapper-to-Category" style="stroke:#181818;stroke-width:0.8000000000000002;stroke-dasharray:7.0,7.0;"/><polygon fill="#181818" points="212.512,341.4,220.1494,339.4634,215.6558,338.9268,216.1923,334.4333,212.512,341.4" style="stroke:#181818;stroke-width:0.8000000000000002;"/></g><!--link CategoryMapper to CategoryDTO--><g id="link_CategoryMapper_CategoryDTO"><path codeLine="44" d="M334.8,278.416 C334.8,297.368 334.8,316.48 334.8,336.6 " fill="none" id="CategoryMapper-to-CategoryDTO" style="stroke:#181818;stroke-width:0.8000000000000002;stroke-dasharray:7.0,7.0;"/><polygon fill="#181818" points="334.8,341.4,338,334.2,334.8,337.4,331.6,334.2,334.8,341.4" style="stroke:#181818;stroke-width:0.8000000000000002;"/></g><!--SRC=[fPB1JiCm38RlUGgh9w3g1DST9g71OGU4HE41JEfrqK8I9MQe8DwT3BeqZAf8q5Fg_yzd-rV2LXc77f_0eTnYIpLtci2JP3Ij9X6I8MomiI_AjB167N95AqFSEG9dTRV_oJIfCOHBPgyUdvbMqffQlHAS2_6fm1APMkkxXnMyYVVZQgn1_2fG3SoXZXJJzfM6WceDihBckrIcsoUPv_Gd_Eh-zd_y2FYbnT8QzbPhydsd4gIdAAOHys7aS1vXrUHtIj9VGCem-JN6omVN7JaR50yHbn1mHucI42E3tA1psK9ihmqhdfZWuDldDTuWUmMpnKXwOYJGMURiin77MUMUOUL9szTsOYIeugA0gbf0SLOC3tIU5X57-UJGAIsc8iG7]--></g></svg>