<svg xmlns="http://www.w3.org/2000/svg" xmlns:xlink="http://www.w3.org/1999/xlink" contentStyleType="text/css" height="624px" preserveAspectRatio="none" style="width:1639px;height:624px;background:#FFFFFF;" version="1.1" viewBox="0 0 1639 624" width="1639px" zoomAndPan="magnify"><defs/><g><rect fill="#FFFFFF" height="429.3945" style="stroke:#181818;stroke-width:1.0;" width="10" x="20.8965" y="93.6211"/><rect fill="#FFFFFF" height="406.1035" style="stroke:#181818;stroke-width:1.0;" width="10" x="381.2197" y="116.9121"/><rect fill="#FFFFFF" height="343.5215" style="stroke:#181818;stroke-width:1.0;" width="10" x="580.4014" y="148.2031"/><rect fill="#FFFFFF" height="280.9395" style="stroke:#181818;stroke-width:1.0;" width="10" x="781.0317" y="179.4941"/><rect fill="#FFFFFF" height="93.5332" style="stroke:#181818;stroke-width:1.0;" width="10" x="982.3652" y="335.6094"/><rect fill="#FFFFFF" height="31.291" style="stroke:#181818;stroke-width:1.0;" width="10" x="1191.9473" y="273.0273"/><line style="stroke:#181818;stroke-width:0.5;stroke-dasharray:5.0,5.0;" x1="25" x2="25" y1="83.6211" y2="541.0156"/><line style="stroke:#181818;stroke-width:0.5;stroke-dasharray:5.0,5.0;" x1="385.7476" x2="385.7476" y1="83.6211" y2="541.0156"/><line style="stroke:#181818;stroke-width:0.5;stroke-dasharray:5.0,5.0;" x1="584.5845" x2="584.5845" y1="83.6211" y2="541.0156"/><line style="stroke:#181818;stroke-width:0.5;stroke-dasharray:5.0,5.0;" x1="785.2183" x2="785.2183" y1="83.6211" y2="541.0156"/><line style="stroke:#181818;stroke-width:0.5;stroke-dasharray:5.0,5.0;" x1="987.2139" x2="987.2139" y1="83.6211" y2="541.0156"/><line style="stroke:#181818;stroke-width:0.5;stroke-dasharray:5.0,5.0;" x1="1196.5166" x2="1196.5166" y1="83.6211" y2="541.0156"/><line style="stroke:#181818;stroke-width:0.5;stroke-dasharray:5.0,5.0;" x1="1382.3779" x2="1382.3779" y1="228.6152" y2="541.0156"/><line style="stroke:#181818;stroke-width:0.5;stroke-dasharray:5.0,5.0;" x1="1548.2119" x2="1548.2119" y1="384.7305" y2="541.0156"/><text fill="#000000" font-family="sans-serif" font-size="14" lengthAdjust="spacing" textLength="35.793" x="5" y="80.1074">Client</text><ellipse cx="25.8965" cy="13.5" fill="#E3E3E3" rx="8" ry="8" style="stroke:#181818;stroke-width:0.5;"/><path d="M25.8965,21.5 L25.8965,48.5 M12.8965,29.5 L38.8965,29.5 M25.8965,48.5 L12.8965,63.5 M25.8965,48.5 L38.8965,63.5 " fill="none" style="stroke:#181818;stroke-width:0.5;"/><text fill="#000000" font-family="sans-serif" font-size="14" lengthAdjust="spacing" textLength="35.793" x="5" y="555.123">Client</text><ellipse cx="25.8965" cy="567.1367" fill="#E3E3E3" rx="8" ry="8" style="stroke:#181818;stroke-width:0.5;"/><path d="M25.8965,575.1367 L25.8965,602.1367 M12.8965,583.1367 L38.8965,583.1367 M25.8965,602.1367 L12.8965,617.1367 M25.8965,602.1367 L38.8965,617.1367 " fill="none" style="stroke:#181818;stroke-width:0.5;"/><rect fill="#E3E3E3" height="32.6211" rx="2.5" ry="2.5" style="stroke:#181818;stroke-width:0.5;" width="150.9443" x="310.7476" y="50"/><text fill="#000000" font-family="sans-serif" font-size="14" lengthAdjust="spacing" textLength="136.9443" x="317.7476" y="72.1074">ReservationAttemptUI</text><rect fill="#E3E3E3" height="32.6211" rx="2.5" ry="2.5" style="stroke:#181818;stroke-width:0.5;" width="150.9443" x="310.7476" y="540.0156"/><text fill="#000000" font-family="sans-serif" font-size="14" lengthAdjust="spacing" textLength="136.9443" x="317.7476" y="562.123">ReservationAttemptUI</text><rect fill="#E3E3E3" height="32.6211" rx="2.5" ry="2.5" style="stroke:#181818;stroke-width:0.5;" width="197.6338" x="486.5845" y="50"/><text fill="#000000" font-family="sans-serif" font-size="14" lengthAdjust="spacing" textLength="183.6338" x="493.5845" y="72.1074">ReservationAttemptController</text><rect fill="#E3E3E3" height="32.6211" rx="2.5" ry="2.5" style="stroke:#181818;stroke-width:0.5;" width="197.6338" x="486.5845" y="540.0156"/><text fill="#000000" font-family="sans-serif" font-size="14" lengthAdjust="spacing" textLength="183.6338" x="493.5845" y="562.123">ReservationAttemptController</text><rect fill="#E3E3E3" height="32.6211" rx="2.5" ry="2.5" style="stroke:#181818;stroke-width:0.5;" width="183.627" x="694.2183" y="50"/><text fill="#000000" font-family="sans-serif" font-size="14" lengthAdjust="spacing" textLength="169.627" x="701.2183" y="72.1074">ReservationAttemptService</text><rect fill="#E3E3E3" height="32.6211" rx="2.5" ry="2.5" style="stroke:#181818;stroke-width:0.5;" width="183.627" x="694.2183" y="540.0156"/><text fill="#000000" font-family="sans-serif" font-size="14" lengthAdjust="spacing" textLength="169.627" x="701.2183" y="562.123">ReservationAttemptService</text><rect fill="#E3E3E3" height="51.2422" rx="2.5" ry="2.5" style="stroke:#181818;stroke-width:0.5;" width="188.3027" x="893.2139" y="31.3789"/><text fill="#000000" font-family="sans-serif" font-size="14" lengthAdjust="spacing" textLength="47.4688" x="963.6309" y="53.4863">mapper</text><text fill="#000000" font-family="sans-serif" font-size="14" lengthAdjust="spacing" textLength="174.3027" x="900.2139" y="72.1074">:ReservationAttemptMapper</text><rect fill="#E3E3E3" height="51.2422" rx="2.5" ry="2.5" style="stroke:#181818;stroke-width:0.5;" width="188.3027" x="893.2139" y="540.0156"/><text fill="#000000" font-family="sans-serif" font-size="14" lengthAdjust="spacing" textLength="47.4688" x="963.6309" y="562.123">mapper</text><text fill="#000000" font-family="sans-serif" font-size="14" lengthAdjust="spacing" textLength="174.3027" x="900.2139" y="580.7441">:ReservationAttemptMapper</text><rect fill="#E3E3E3" height="32.6211" rx="2.5" ry="2.5" style="stroke:#181818;stroke-width:0.5;" width="210.8613" x="1091.5166" y="50"/><text fill="#000000" font-family="sans-serif" font-size="14" lengthAdjust="spacing" textLength="196.8613" x="1098.5166" y="72.1074">ReservationAttemptsRepository</text><rect fill="#E3E3E3" height="32.6211" rx="2.5" ry="2.5" style="stroke:#181818;stroke-width:0.5;" width="210.8613" x="1091.5166" y="540.0156"/><text fill="#000000" font-family="sans-serif" font-size="14" lengthAdjust="spacing" textLength="196.8613" x="1098.5166" y="562.123">ReservationAttemptsRepository</text><rect fill="#E3E3E3" height="51.2422" rx="2.5" ry="2.5" style="stroke:#181818;stroke-width:0.5;" width="140.834" x="1312.3779" y="540.0156"/><text fill="#000000" font-family="sans-serif" font-size="14" lengthAdjust="spacing" textLength="117.4961" x="1324.0469" y="562.123">reservationAttempt</text><text fill="#000000" font-family="sans-serif" font-size="14" lengthAdjust="spacing" textLength="126.834" x="1319.3779" y="580.7441">:ReservationAttempt</text><rect fill="#E3E3E3" height="51.2422" rx="2.5" ry="2.5" style="stroke:#181818;stroke-width:0.5;" width="170.3857" x="1463.2119" y="540.0156"/><text fill="#000000" font-family="sans-serif" font-size="14" lengthAdjust="spacing" textLength="147.0479" x="1474.8809" y="562.123">reservationAttemptDTO</text><text fill="#000000" font-family="sans-serif" font-size="14" lengthAdjust="spacing" textLength="156.3857" x="1470.2119" y="580.7441">:ReservationAttemptDTO</text><rect fill="#FFFFFF" height="429.3945" style="stroke:#181818;stroke-width:1.0;" width="10" x="20.8965" y="93.6211"/><rect fill="#FFFFFF" height="406.1035" style="stroke:#181818;stroke-width:1.0;" width="10" x="381.2197" y="116.9121"/><rect fill="#FFFFFF" height="343.5215" style="stroke:#181818;stroke-width:1.0;" width="10" x="580.4014" y="148.2031"/><rect fill="#FFFFFF" height="280.9395" style="stroke:#181818;stroke-width:1.0;" width="10" x="781.0317" y="179.4941"/><rect fill="#FFFFFF" height="93.5332" style="stroke:#181818;stroke-width:1.0;" width="10" x="982.3652" y="335.6094"/><rect fill="#FFFFFF" height="31.291" style="stroke:#181818;stroke-width:1.0;" width="10" x="1191.9473" y="273.0273"/><polygon fill="#181818" points="369.2197,112.9121,379.2197,116.9121,369.2197,120.9121,373.2197,116.9121" style="stroke:#181818;stroke-width:1.0;"/><line style="stroke:#181818;stroke-width:1.0;" x1="30.8965" x2="375.2197" y1="116.9121" y2="116.9121"/><text fill="#000000" font-family="sans-serif" font-size="13" font-weight="bold" lengthAdjust="spacing" textLength="7.23" x="37.8965" y="111.6494">1</text><text fill="#000000" font-family="sans-serif" font-size="13" lengthAdjust="spacing" textLength="320.0933" x="49.1265" y="111.6494">ReservationAttempts to create new ReservationAttempt</text><polygon fill="#181818" points="568.4014,144.2031,578.4014,148.2031,568.4014,152.2031,572.4014,148.2031" style="stroke:#181818;stroke-width:1.0;"/><line style="stroke:#181818;stroke-width:1.0;" x1="391.2197" x2="574.4014" y1="148.2031" y2="148.2031"/><text fill="#000000" font-family="sans-serif" font-size="13" font-weight="bold" lengthAdjust="spacing" textLength="7.23" x="398.2197" y="142.9404">2</text><text fill="#000000" font-family="sans-serif" font-size="13" lengthAdjust="spacing" textLength="158.9517" x="409.4497" y="142.9404">createReservationAttempt()</text><polygon fill="#181818" points="769.0317,175.4941,779.0317,179.4941,769.0317,183.4941,773.0317,179.4941" style="stroke:#181818;stroke-width:1.0;"/><line style="stroke:#181818;stroke-width:1.0;" x1="590.4014" x2="775.0317" y1="179.4941" y2="179.4941"/><text fill="#000000" font-family="sans-serif" font-size="13" font-weight="bold" lengthAdjust="spacing" textLength="7.23" x="597.4014" y="174.2314">3</text><text fill="#000000" font-family="sans-serif" font-size="13" lengthAdjust="spacing" textLength="158.9517" x="608.6313" y="174.2314">createReservationAttempt()</text><line style="stroke:#181818;stroke-width:1.0;" x1="1310.3779" x2="1300.3779" y1="210.7852" y2="206.7852"/><line style="stroke:#181818;stroke-width:1.0;" x1="1310.3779" x2="1300.3779" y1="210.7852" y2="214.7852"/><line style="stroke:#181818;stroke-width:1.0;stroke-dasharray:2.0,2.0;" x1="791.0317" x2="1311.3779" y1="210.7852" y2="210.7852"/><text fill="#000000" font-family="sans-serif" font-size="13" font-weight="bold" lengthAdjust="spacing" textLength="7.23" x="798.0317" y="205.5225">4</text><text fill="#000000" font-family="sans-serif" font-size="13" lengthAdjust="spacing" textLength="44.7891" x="809.2617" y="205.5225">create()</text><rect fill="#E3E3E3" height="51.2422" rx="2.5" ry="2.5" style="stroke:#181818;stroke-width:0.5;" width="140.834" x="1312.3779" y="187.4941"/><text fill="#000000" font-family="sans-serif" font-size="14" lengthAdjust="spacing" textLength="117.4961" x="1324.0469" y="209.6016">reservationAttempt</text><text fill="#000000" font-family="sans-serif" font-size="14" lengthAdjust="spacing" textLength="126.834" x="1319.3779" y="228.2227">:ReservationAttempt</text><polygon fill="#181818" points="1179.9473,269.0273,1189.9473,273.0273,1179.9473,277.0273,1183.9473,273.0273" style="stroke:#181818;stroke-width:1.0;"/><line style="stroke:#181818;stroke-width:1.0;" x1="791.0317" x2="1185.9473" y1="273.0273" y2="273.0273"/><text fill="#000000" font-family="sans-serif" font-size="13" font-weight="bold" lengthAdjust="spacing" textLength="7.23" x="798.0317" y="267.7646">5</text><text fill="#000000" font-family="sans-serif" font-size="13" lengthAdjust="spacing" textLength="150.2808" x="809.2617" y="267.7646">save(ReservationAttempt)</text><polygon fill="#181818" points="802.0317,300.3184,792.0317,304.3184,802.0317,308.3184,798.0317,304.3184" style="stroke:#181818;stroke-width:1.0;"/><line style="stroke:#181818;stroke-width:1.0;stroke-dasharray:2.0,2.0;" x1="796.0317" x2="1195.9473" y1="304.3184" y2="304.3184"/><text fill="#000000" font-family="sans-serif" font-size="13" font-weight="bold" lengthAdjust="spacing" textLength="7.23" x="808.0317" y="299.0557">6</text><text fill="#000000" font-family="sans-serif" font-size="13" lengthAdjust="spacing" textLength="114.1626" x="819.2617" y="299.0557">ReservationAttempt</text><polygon fill="#181818" points="970.3652,331.6094,980.3652,335.6094,970.3652,339.6094,974.3652,335.6094" style="stroke:#181818;stroke-width:1.0;"/><line style="stroke:#181818;stroke-width:1.0;" x1="791.0317" x2="976.3652" y1="335.6094" y2="335.6094"/><text fill="#000000" font-family="sans-serif" font-size="13" font-weight="bold" lengthAdjust="spacing" textLength="7.23" x="798.0317" y="330.3467">7</text><text fill="#000000" font-family="sans-serif" font-size="13" lengthAdjust="spacing" textLength="161.1035" x="809.2617" y="330.3467">toDTO(ReservationAttempt)</text><line style="stroke:#181818;stroke-width:1.0;" x1="1461.2119" x2="1451.2119" y1="366.9004" y2="362.9004"/><line style="stroke:#181818;stroke-width:1.0;" x1="1461.2119" x2="1451.2119" y1="366.9004" y2="370.9004"/><line style="stroke:#181818;stroke-width:1.0;stroke-dasharray:2.0,2.0;" x1="992.3652" x2="1462.2119" y1="366.9004" y2="366.9004"/><text fill="#000000" font-family="sans-serif" font-size="13" font-weight="bold" lengthAdjust="spacing" textLength="7.23" x="999.3652" y="361.6377">8</text><text fill="#000000" font-family="sans-serif" font-size="13" lengthAdjust="spacing" textLength="44.7891" x="1010.5952" y="361.6377">create()</text><rect fill="#E3E3E3" height="51.2422" rx="2.5" ry="2.5" style="stroke:#181818;stroke-width:0.5;" width="170.3857" x="1463.2119" y="343.6094"/><text fill="#000000" font-family="sans-serif" font-size="14" lengthAdjust="spacing" textLength="147.0479" x="1474.8809" y="365.7168">reservationAttemptDTO</text><text fill="#000000" font-family="sans-serif" font-size="14" lengthAdjust="spacing" textLength="156.3857" x="1470.2119" y="384.3379">:ReservationAttemptDTO</text><polygon fill="#181818" points="802.0317,425.1426,792.0317,429.1426,802.0317,433.1426,798.0317,429.1426" style="stroke:#181818;stroke-width:1.0;"/><line style="stroke:#181818;stroke-width:1.0;stroke-dasharray:2.0,2.0;" x1="796.0317" x2="986.3652" y1="429.1426" y2="429.1426"/><text fill="#000000" font-family="sans-serif" font-size="13" font-weight="bold" lengthAdjust="spacing" textLength="7.23" x="808.0317" y="423.8799">9</text><text fill="#000000" font-family="sans-serif" font-size="13" lengthAdjust="spacing" textLength="141.6035" x="819.2617" y="423.8799">ReservationAttemptDTO</text><polygon fill="#181818" points="601.4014,456.4336,591.4014,460.4336,601.4014,464.4336,597.4014,460.4336" style="stroke:#181818;stroke-width:1.0;"/><line style="stroke:#181818;stroke-width:1.0;stroke-dasharray:2.0,2.0;" x1="595.4014" x2="785.0317" y1="460.4336" y2="460.4336"/><text fill="#000000" font-family="sans-serif" font-size="13" font-weight="bold" lengthAdjust="spacing" textLength="14.46" x="607.4014" y="455.1709">10</text><text fill="#000000" font-family="sans-serif" font-size="13" lengthAdjust="spacing" textLength="141.6035" x="625.8613" y="455.1709">ReservationAttemptDTO</text><polygon fill="#181818" points="402.2197,487.7246,392.2197,491.7246,402.2197,495.7246,398.2197,491.7246" style="stroke:#181818;stroke-width:1.0;"/><line style="stroke:#181818;stroke-width:1.0;stroke-dasharray:2.0,2.0;" x1="396.2197" x2="584.4014" y1="491.7246" y2="491.7246"/><text fill="#000000" font-family="sans-serif" font-size="13" font-weight="bold" lengthAdjust="spacing" textLength="14.46" x="408.2197" y="486.4619">11</text><text fill="#000000" font-family="sans-serif" font-size="13" lengthAdjust="spacing" textLength="141.6035" x="426.6797" y="486.4619">ReservationAttemptDTO</text><polygon fill="#181818" points="36.8965,519.0156,26.8965,523.0156,36.8965,527.0156,32.8965,523.0156" style="stroke:#181818;stroke-width:1.0;"/><line style="stroke:#181818;stroke-width:1.0;stroke-dasharray:2.0,2.0;" x1="30.8965" x2="385.2197" y1="523.0156" y2="523.0156"/><text fill="#000000" font-family="sans-serif" font-size="13" font-weight="bold" lengthAdjust="spacing" textLength="14.46" x="42.8965" y="517.7529">12</text><text fill="#000000" font-family="sans-serif" font-size="13" lengthAdjust="spacing" textLength="141.6035" x="61.3564" y="517.7529">ReservationAttemptDTO</text><!--SRC=[bPDDRi8m48NtFeN5YYBb0YmY8M21L0HAeAjAbHkcr2An8zk0k7t73Wb9OvFMA__C-poUUTOdBagcM44BAMJshMG1rAWp4DsSb2mxiIEavfO3LP0P9evvEq1_iuEySd6aNopNG0Wx6odEnISed6T6AZgQvno46L6cwJvT9WILXcUyPCBGKG8Qr8KPBiNC62XAirzLeQkXmBaKHiay1-K4yrtoEYH9SSqpSF6Oobitlc1b2UfTJFl2jJjoklLiknr-XKwWb9fZ0MvEDLjy9CljfYjJFPdtSWVeRm-n5hkD5uVx0IAU4EBwnd4VgdOHYiFEQ1HZL-ZK8zJKI9efi281Lr-obl80hzpQaLUMQvk7v0hHLuzVclY6uVfDMyCna6KR-pTMX-VyG3t3yQ8eZZtFcapgYtvXxJX00x-RXlZPSMqFJ5kp2upx5_Nf3RksbY_tcXizwXBeJI3n6XxCl7ePSer4-_mlytjLV8dViO6ouqrFAzybX5zk3J_SjP0XQjS-vxPu7OjLTWt_gG2ZiRtzE5QTkkg7zIqjVhls2fK_]--></g></svg>