<svg xmlns="http://www.w3.org/2000/svg" xmlns:xlink="http://www.w3.org/1999/xlink" contentStyleType="text/css" height="909px" preserveAspectRatio="none" style="width:497px;height:909px;background:#FFFFFF;" version="1.1" viewBox="0 0 497 909" width="497px" zoomAndPan="magnify"><defs/><g><!--class RequestUI--><g id="elem_RequestUI"><rect codeLine="7" fill="#F1F1F1" height="48" id="RequestUI" rx="2.5" ry="2.5" style="stroke:#181818;stroke-width:0.5;" width="98.1445" x="200" y="21.7627"/><ellipse cx="215" cy="37.7627" fill="#ADD1B2" rx="11" ry="11" style="stroke:#181818;stroke-width:1.0;"/><path d="M217.7656,33.6377 Q217.9219,33.4189 218.1094,33.3096 Q218.2969,33.2002 218.5156,33.2002 Q218.8906,33.2002 219.125,33.4658 Q219.3594,33.7158 219.3594,34.3252 L219.3594,35.7783 Q219.3594,36.3877 219.125,36.6533 Q218.8906,36.9189 218.5156,36.9189 Q218.1719,36.9189 217.9688,36.7158 Q217.7656,36.5283 217.6563,36.0127 Q217.6094,35.6533 217.4219,35.4658 Q217.0938,35.0908 216.4844,34.8721 Q215.875,34.6533 215.25,34.6533 Q214.4844,34.6533 213.8438,34.9814 Q213.2188,35.3096 212.7188,36.0596 Q212.2344,36.8096 212.2344,37.8408 L212.2344,38.9346 Q212.2344,40.1689 213.125,40.9971 Q214.0156,41.8096 215.6094,41.8096 Q216.5469,41.8096 217.2031,41.5596 Q217.5938,41.4033 218.0156,40.9658 Q218.2813,40.7002 218.4219,40.6221 Q218.5781,40.5439 218.7813,40.5439 Q219.1094,40.5439 219.3594,40.8096 Q219.625,41.0596 219.625,41.4033 Q219.625,41.7471 219.2813,42.1533 Q218.7813,42.7314 217.9844,43.0596 Q216.9063,43.5127 215.6094,43.5127 Q214.0938,43.5127 212.8906,42.8877 Q211.9063,42.3877 211.2188,41.3252 Q210.5313,40.2471 210.5313,38.9658 L210.5313,37.8096 Q210.5313,36.4814 211.1406,35.3408 Q211.7656,34.1846 212.8594,33.5752 Q213.9531,32.9502 215.1875,32.9502 Q215.9219,32.9502 216.5625,33.1221 Q217.2188,33.2783 217.7656,33.6377 Z " fill="#000000"/><text fill="#000000" font-family="sans-serif" font-size="14" lengthAdjust="spacing" textLength="66.1445" x="229" y="43.5596">RequestUI</text><line style="stroke:#181818;stroke-width:0.5;" x1="201" x2="297.1445" y1="53.7627" y2="53.7627"/><line style="stroke:#181818;stroke-width:0.5;" x1="201" x2="297.1445" y1="61.7627" y2="61.7627"/></g><!--class RequestController--><g id="elem_RequestController"><rect codeLine="10" fill="#F1F1F1" height="66.6211" id="RequestController" rx="2.5" ry="2.5" style="stroke:#181818;stroke-width:0.5;" width="144.834" x="176.5" y="140.2627"/><ellipse cx="191.5" cy="156.2627" fill="#ADD1B2" rx="11" ry="11" style="stroke:#181818;stroke-width:1.0;"/><path d="M194.2656,152.1377 Q194.4219,151.9189 194.6094,151.8096 Q194.7969,151.7002 195.0156,151.7002 Q195.3906,151.7002 195.625,151.9658 Q195.8594,152.2158 195.8594,152.8252 L195.8594,154.2783 Q195.8594,154.8877 195.625,155.1533 Q195.3906,155.4189 195.0156,155.4189 Q194.6719,155.4189 194.4688,155.2158 Q194.2656,155.0283 194.1563,154.5127 Q194.1094,154.1533 193.9219,153.9658 Q193.5938,153.5908 192.9844,153.3721 Q192.375,153.1533 191.75,153.1533 Q190.9844,153.1533 190.3438,153.4814 Q189.7188,153.8096 189.2188,154.5596 Q188.7344,155.3096 188.7344,156.3408 L188.7344,157.4346 Q188.7344,158.6689 189.625,159.4971 Q190.5156,160.3096 192.1094,160.3096 Q193.0469,160.3096 193.7031,160.0596 Q194.0938,159.9033 194.5156,159.4658 Q194.7813,159.2002 194.9219,159.1221 Q195.0781,159.0439 195.2813,159.0439 Q195.6094,159.0439 195.8594,159.3096 Q196.125,159.5596 196.125,159.9033 Q196.125,160.2471 195.7813,160.6533 Q195.2813,161.2314 194.4844,161.5596 Q193.4063,162.0127 192.1094,162.0127 Q190.5938,162.0127 189.3906,161.3877 Q188.4063,160.8877 187.7188,159.8252 Q187.0313,158.7471 187.0313,157.4658 L187.0313,156.3096 Q187.0313,154.9814 187.6406,153.8408 Q188.2656,152.6846 189.3594,152.0752 Q190.4531,151.4502 191.6875,151.4502 Q192.4219,151.4502 193.0625,151.6221 Q193.7188,151.7783 194.2656,152.1377 Z " fill="#000000"/><text fill="#000000" font-family="sans-serif" font-size="14" lengthAdjust="spacing" textLength="112.834" x="205.5" y="162.0596">RequestController</text><line style="stroke:#181818;stroke-width:0.5;" x1="177.5" x2="320.334" y1="172.2627" y2="172.2627"/><line style="stroke:#181818;stroke-width:0.5;" x1="177.5" x2="320.334" y1="180.2627" y2="180.2627"/><text fill="#000000" font-family="sans-serif" font-size="14" lengthAdjust="spacing" textLength="108.5547" x="182.5" y="199.3701">+createRequest()</text></g><!--class RequestService--><g id="elem_RequestService"><rect codeLine="14" fill="#F1F1F1" height="66.6211" id="RequestService" rx="2.5" ry="2.5" style="stroke:#181818;stroke-width:0.5;" width="130.8271" x="183.5" y="268.2627"/><ellipse cx="198.5" cy="284.2627" fill="#ADD1B2" rx="11" ry="11" style="stroke:#181818;stroke-width:1.0;"/><path d="M201.2656,280.1377 Q201.4219,279.9189 201.6094,279.8096 Q201.7969,279.7002 202.0156,279.7002 Q202.3906,279.7002 202.625,279.9658 Q202.8594,280.2158 202.8594,280.8252 L202.8594,282.2783 Q202.8594,282.8877 202.625,283.1533 Q202.3906,283.4189 202.0156,283.4189 Q201.6719,283.4189 201.4688,283.2158 Q201.2656,283.0283 201.1563,282.5127 Q201.1094,282.1533 200.9219,281.9658 Q200.5938,281.5908 199.9844,281.3721 Q199.375,281.1533 198.75,281.1533 Q197.9844,281.1533 197.3438,281.4814 Q196.7188,281.8096 196.2188,282.5596 Q195.7344,283.3096 195.7344,284.3408 L195.7344,285.4346 Q195.7344,286.6689 196.625,287.4971 Q197.5156,288.3096 199.1094,288.3096 Q200.0469,288.3096 200.7031,288.0596 Q201.0938,287.9033 201.5156,287.4658 Q201.7813,287.2002 201.9219,287.1221 Q202.0781,287.0439 202.2813,287.0439 Q202.6094,287.0439 202.8594,287.3096 Q203.125,287.5596 203.125,287.9033 Q203.125,288.2471 202.7813,288.6533 Q202.2813,289.2314 201.4844,289.5596 Q200.4063,290.0127 199.1094,290.0127 Q197.5938,290.0127 196.3906,289.3877 Q195.4063,288.8877 194.7188,287.8252 Q194.0313,286.7471 194.0313,285.4658 L194.0313,284.3096 Q194.0313,282.9814 194.6406,281.8408 Q195.2656,280.6846 196.3594,280.0752 Q197.4531,279.4502 198.6875,279.4502 Q199.4219,279.4502 200.0625,279.6221 Q200.7188,279.7783 201.2656,280.1377 Z " fill="#000000"/><text fill="#000000" font-family="sans-serif" font-size="14" lengthAdjust="spacing" textLength="98.8271" x="212.5" y="290.0596">RequestService</text><line style="stroke:#181818;stroke-width:0.5;" x1="184.5" x2="313.3271" y1="300.2627" y2="300.2627"/><line style="stroke:#181818;stroke-width:0.5;" x1="184.5" x2="313.3271" y1="308.2627" y2="308.2627"/><text fill="#000000" font-family="sans-serif" font-size="14" lengthAdjust="spacing" textLength="108.5547" x="189.5" y="327.3701">+createRequest()</text></g><!--class RequestRepository--><g id="elem_RequestRepository"><rect codeLine="18" fill="#F1F1F1" height="66.6211" id="RequestRepository" rx="2.5" ry="2.5" style="stroke:#181818;stroke-width:0.5;" width="161.8027" x="50" y="405.2627"/><ellipse cx="69.8335" cy="421.2627" fill="#B4A7E5" rx="11" ry="11" style="stroke:#181818;stroke-width:1.0;"/><path d="M70.7867,417.9033 L70.7867,424.5596 L72.5054,424.5596 Q73.1148,424.5596 73.3804,424.7939 Q73.646,425.0283 73.646,425.4189 Q73.646,425.7939 73.3804,426.0283 Q73.1148,426.2627 72.5054,426.2627 L67.3648,426.2627 Q66.7554,426.2627 66.4898,426.0283 Q66.2242,425.7939 66.2242,425.4033 Q66.2242,425.0283 66.4898,424.7939 Q66.7554,424.5596 67.3648,424.5596 L69.0835,424.5596 L69.0835,417.9033 L67.3648,417.9033 Q66.7554,417.9033 66.4898,417.6689 Q66.2242,417.4346 66.2242,417.0439 Q66.2242,416.6689 66.4898,416.4346 Q66.7554,416.2002 67.3648,416.2002 L72.5054,416.2002 Q73.1148,416.2002 73.3804,416.4346 Q73.646,416.6689 73.646,417.0439 Q73.646,417.4346 73.3804,417.6689 Q73.1148,417.9033 72.5054,417.9033 L70.7867,417.9033 Z " fill="#000000"/><text fill="#000000" font-family="sans-serif" font-size="14" font-style="italic" lengthAdjust="spacing" textLength="119.0615" x="84.9077" y="427.0596">RequestRepository</text><line style="stroke:#181818;stroke-width:0.5;" x1="51" x2="210.8027" y1="437.2627" y2="437.2627"/><line style="stroke:#181818;stroke-width:0.5;" x1="51" x2="210.8027" y1="445.2627" y2="445.2627"/><text fill="#000000" font-family="sans-serif" font-size="14" lengthAdjust="spacing" textLength="149.8027" x="56" y="464.3701">+save(Request request)</text></g><!--class Request--><g id="elem_Request"><rect codeLine="23" fill="#F1F1F1" height="196.9688" id="Request" rx="2.5" ry="2.5" style="stroke:#181818;stroke-width:0.5;" width="205.7441" x="28" y="560.2627"/><ellipse cx="100.5498" cy="576.2627" fill="#ADD1B2" rx="11" ry="11" style="stroke:#181818;stroke-width:1.0;"/><path d="M103.3154,572.1377 Q103.4717,571.9189 103.6592,571.8096 Q103.8467,571.7002 104.0654,571.7002 Q104.4404,571.7002 104.6748,571.9658 Q104.9092,572.2158 104.9092,572.8252 L104.9092,574.2783 Q104.9092,574.8877 104.6748,575.1533 Q104.4404,575.4189 104.0654,575.4189 Q103.7217,575.4189 103.5186,575.2158 Q103.3154,575.0283 103.2061,574.5127 Q103.1592,574.1533 102.9717,573.9658 Q102.6436,573.5908 102.0342,573.3721 Q101.4248,573.1533 100.7998,573.1533 Q100.0342,573.1533 99.3936,573.4814 Q98.7686,573.8096 98.2686,574.5596 Q97.7842,575.3096 97.7842,576.3408 L97.7842,577.4346 Q97.7842,578.6689 98.6748,579.4971 Q99.5654,580.3096 101.1592,580.3096 Q102.0967,580.3096 102.7529,580.0596 Q103.1436,579.9033 103.5654,579.4658 Q103.8311,579.2002 103.9717,579.1221 Q104.1279,579.0439 104.3311,579.0439 Q104.6592,579.0439 104.9092,579.3096 Q105.1748,579.5596 105.1748,579.9033 Q105.1748,580.2471 104.8311,580.6533 Q104.3311,581.2314 103.5342,581.5596 Q102.4561,582.0127 101.1592,582.0127 Q99.6436,582.0127 98.4404,581.3877 Q97.4561,580.8877 96.7686,579.8252 Q96.0811,578.7471 96.0811,577.4658 L96.0811,576.3096 Q96.0811,574.9814 96.6904,573.8408 Q97.3154,572.6846 98.4092,572.0752 Q99.5029,571.4502 100.7373,571.4502 Q101.4717,571.4502 102.1123,571.6221 Q102.7686,571.7783 103.3154,572.1377 Z " fill="#000000"/><text fill="#000000" font-family="sans-serif" font-size="14" lengthAdjust="spacing" textLength="52.1445" x="121.0498" y="582.0596">Request</text><line style="stroke:#181818;stroke-width:0.5;" x1="29" x2="232.7441" y1="592.2627" y2="592.2627"/><text fill="#000000" font-family="sans-serif" font-size="14" lengthAdjust="spacing" textLength="63.7998" x="34" y="611.3701">-id : String</text><text fill="#000000" font-family="sans-serif" font-size="14" lengthAdjust="spacing" textLength="82.4688" x="34" y="629.9912">-email: String</text><text fill="#000000" font-family="sans-serif" font-size="14" lengthAdjust="spacing" textLength="87.9443" x="34" y="648.6123">-phone: String</text><text fill="#000000" font-family="sans-serif" font-size="14" lengthAdjust="spacing" textLength="69.2617" x="34" y="667.2334">-date: Date</text><text fill="#000000" font-family="sans-serif" font-size="14" lengthAdjust="spacing" textLength="141.627" x="34" y="685.8545">-status: RequestStatus</text><text fill="#000000" font-family="sans-serif" font-size="14" lengthAdjust="spacing" textLength="80.917" x="34" y="704.4756">-client: Client</text><text fill="#000000" font-family="sans-serif" font-size="14" lengthAdjust="spacing" textLength="193.7441" x="34" y="723.0967">-advertisement : Advertisement</text><line style="stroke:#181818;stroke-width:0.5;" x1="29" x2="232.7441" y1="730.6104" y2="730.6104"/><text fill="#000000" font-family="sans-serif" font-size="14" lengthAdjust="spacing" textLength="81.3135" x="34" y="749.7178">+Request(...)</text></g><!--class RequestStatus--><g id="elem_RequestStatus"><rect codeLine="34" fill="#F1F1F1" height="66.6211" id="RequestStatus" rx="2.5" ry="2.5" style="stroke:#181818;stroke-width:0.5;" width="127.9648" x="67" y="836.2627"/><ellipse cx="83.8589" cy="852.2627" fill="#EB937F" rx="11" ry="11" style="stroke:#181818;stroke-width:1.0;"/><path d="M82.7183,853.0596 L82.7183,855.5596 L87.0464,855.5596 L87.0464,854.6377 Q87.0464,854.0283 87.2808,853.7627 Q87.5308,853.4971 87.9058,853.4971 Q88.2808,853.4971 88.5151,853.7627 Q88.7495,854.0283 88.7495,854.6377 L88.7495,857.2627 L80.7495,857.2627 Q80.1245,857.2627 79.8589,857.0283 Q79.6089,856.7939 79.6089,856.4033 Q79.6089,856.0283 79.8745,855.7939 Q80.1401,855.5596 80.7495,855.5596 L81.0151,855.5596 L81.0151,848.9033 L80.7495,848.9033 Q80.1245,848.9033 79.8589,848.6689 Q79.6089,848.4346 79.6089,848.0439 Q79.6089,847.6689 79.8589,847.4346 Q80.1245,847.2002 80.7495,847.2002 L88.3745,847.2002 L88.3745,849.7939 Q88.3745,850.4033 88.1401,850.6689 Q87.9214,850.9189 87.5308,850.9189 Q87.1558,850.9189 86.9214,850.6689 Q86.687,850.4033 86.687,849.7939 L86.687,848.9033 L82.7183,848.9033 L82.7183,851.3564 L84.2026,851.3564 Q84.2026,850.7002 84.3276,850.5127 Q84.5933,850.1064 85.062,850.1064 Q85.437,850.1064 85.6714,850.3721 Q85.9058,850.6221 85.9058,851.2314 L85.9058,853.2002 Q85.9058,853.7471 85.7808,853.9346 Q85.5151,854.3252 85.062,854.3252 Q84.5933,854.3252 84.3276,853.9189 Q84.2026,853.7314 84.2026,853.0596 L82.7183,853.0596 Z " fill="#000000"/><text fill="#000000" font-family="sans-serif" font-size="14" lengthAdjust="spacing" textLength="91.834" x="98.272" y="858.0596">RequestStatus</text><line style="stroke:#181818;stroke-width:0.5;" x1="68" x2="193.9648" y1="868.2627" y2="868.2627"/><text fill="#000000" font-family="sans-serif" font-size="14" lengthAdjust="spacing" textLength="115.9648" x="73" y="887.3701">designation: String</text><line style="stroke:#181818;stroke-width:0.5;" x1="68" x2="193.9648" y1="894.8838" y2="894.8838"/></g><!--class RequestMapper--><g id="elem_RequestMapper"><rect codeLine="38" fill="#F1F1F1" height="85.2422" id="RequestMapper" rx="2.5" ry="2.5" style="stroke:#181818;stroke-width:0.5;" width="242.6855" x="247.5" y="396.2627"/><ellipse cx="314.7861" cy="412.2627" fill="#ADD1B2" rx="11" ry="11" style="stroke:#181818;stroke-width:1.0;"/><path d="M317.5518,408.1377 Q317.708,407.9189 317.8955,407.8096 Q318.083,407.7002 318.3018,407.7002 Q318.6768,407.7002 318.9111,407.9658 Q319.1455,408.2158 319.1455,408.8252 L319.1455,410.2783 Q319.1455,410.8877 318.9111,411.1533 Q318.6768,411.4189 318.3018,411.4189 Q317.958,411.4189 317.7549,411.2158 Q317.5518,411.0283 317.4424,410.5127 Q317.3955,410.1533 317.208,409.9658 Q316.8799,409.5908 316.2705,409.3721 Q315.6611,409.1533 315.0361,409.1533 Q314.2705,409.1533 313.6299,409.4814 Q313.0049,409.8096 312.5049,410.5596 Q312.0205,411.3096 312.0205,412.3408 L312.0205,413.4346 Q312.0205,414.6689 312.9111,415.4971 Q313.8018,416.3096 315.3955,416.3096 Q316.333,416.3096 316.9893,416.0596 Q317.3799,415.9033 317.8018,415.4658 Q318.0674,415.2002 318.208,415.1221 Q318.3643,415.0439 318.5674,415.0439 Q318.8955,415.0439 319.1455,415.3096 Q319.4111,415.5596 319.4111,415.9033 Q319.4111,416.2471 319.0674,416.6533 Q318.5674,417.2314 317.7705,417.5596 Q316.6924,418.0127 315.3955,418.0127 Q313.8799,418.0127 312.6768,417.3877 Q311.6924,416.8877 311.0049,415.8252 Q310.3174,414.7471 310.3174,413.4658 L310.3174,412.3096 Q310.3174,410.9814 310.9268,409.8408 Q311.5518,408.6846 312.6455,408.0752 Q313.7393,407.4502 314.9736,407.4502 Q315.708,407.4502 316.3486,407.6221 Q317.0049,407.7783 317.5518,408.1377 Z " fill="#000000"/><text fill="#000000" font-family="sans-serif" font-size="14" lengthAdjust="spacing" textLength="99.6133" x="335.2861" y="418.0596">RequestMapper</text><line style="stroke:#181818;stroke-width:0.5;" x1="248.5" x2="489.1855" y1="428.2627" y2="428.2627"/><line style="stroke:#181818;stroke-width:0.5;" x1="248.5" x2="489.1855" y1="436.2627" y2="436.2627"/><text fill="#000000" font-family="sans-serif" font-size="14" lengthAdjust="spacing" textLength="230.6855" x="253.5" y="455.3701">+toEntity(RequestDTO requestDTO))</text><text fill="#000000" font-family="sans-serif" font-size="14" lengthAdjust="spacing" textLength="166.1201" x="253.5" y="473.9912">+toDTO(Request request))</text></g><!--class RequestDTO--><g id="elem_RequestDTO"><rect codeLine="43" fill="#F1F1F1" height="196.9688" id="RequestDTO" rx="2.5" ry="2.5" style="stroke:#181818;stroke-width:0.5;" width="205.7441" x="269" y="560.2627"/><ellipse cx="326.7739" cy="576.2627" fill="#ADD1B2" rx="11" ry="11" style="stroke:#181818;stroke-width:1.0;"/><path d="M329.5396,572.1377 Q329.6958,571.9189 329.8833,571.8096 Q330.0708,571.7002 330.2896,571.7002 Q330.6646,571.7002 330.8989,571.9658 Q331.1333,572.2158 331.1333,572.8252 L331.1333,574.2783 Q331.1333,574.8877 330.8989,575.1533 Q330.6646,575.4189 330.2896,575.4189 Q329.9458,575.4189 329.7427,575.2158 Q329.5396,575.0283 329.4302,574.5127 Q329.3833,574.1533 329.1958,573.9658 Q328.8677,573.5908 328.2583,573.3721 Q327.6489,573.1533 327.0239,573.1533 Q326.2583,573.1533 325.6177,573.4814 Q324.9927,573.8096 324.4927,574.5596 Q324.0083,575.3096 324.0083,576.3408 L324.0083,577.4346 Q324.0083,578.6689 324.8989,579.4971 Q325.7896,580.3096 327.3833,580.3096 Q328.3208,580.3096 328.9771,580.0596 Q329.3677,579.9033 329.7896,579.4658 Q330.0552,579.2002 330.1958,579.1221 Q330.3521,579.0439 330.5552,579.0439 Q330.8833,579.0439 331.1333,579.3096 Q331.3989,579.5596 331.3989,579.9033 Q331.3989,580.2471 331.0552,580.6533 Q330.5552,581.2314 329.7583,581.5596 Q328.6802,582.0127 327.3833,582.0127 Q325.8677,582.0127 324.6646,581.3877 Q323.6802,580.8877 322.9927,579.8252 Q322.3052,578.7471 322.3052,577.4658 L322.3052,576.3096 Q322.3052,574.9814 322.9146,573.8408 Q323.5396,572.6846 324.6333,572.0752 Q325.7271,571.4502 326.9614,571.4502 Q327.6958,571.4502 328.3364,571.6221 Q328.9927,571.7783 329.5396,572.1377 Z " fill="#000000"/><text fill="#000000" font-family="sans-serif" font-size="14" lengthAdjust="spacing" textLength="81.6963" x="347.2739" y="582.0596">RequestDTO</text><line style="stroke:#181818;stroke-width:0.5;" x1="270" x2="473.7441" y1="592.2627" y2="592.2627"/><text fill="#000000" font-family="sans-serif" font-size="14" lengthAdjust="spacing" textLength="63.7998" x="275" y="611.3701">-id : String</text><text fill="#000000" font-family="sans-serif" font-size="14" lengthAdjust="spacing" textLength="82.4688" x="275" y="629.9912">-email: String</text><text fill="#000000" font-family="sans-serif" font-size="14" lengthAdjust="spacing" textLength="87.9443" x="275" y="648.6123">-phone: String</text><text fill="#000000" font-family="sans-serif" font-size="14" lengthAdjust="spacing" textLength="69.2617" x="275" y="667.2334">-date: Date</text><text fill="#000000" font-family="sans-serif" font-size="14" lengthAdjust="spacing" textLength="141.627" x="275" y="685.8545">-status: RequestStatus</text><text fill="#000000" font-family="sans-serif" font-size="14" lengthAdjust="spacing" textLength="80.917" x="275" y="704.4756">-client: Client</text><text fill="#000000" font-family="sans-serif" font-size="14" lengthAdjust="spacing" textLength="193.7441" x="275" y="723.0967">-advertisement : Advertisement</text><line style="stroke:#181818;stroke-width:0.5;" x1="270" x2="473.7441" y1="730.6104" y2="730.6104"/><text fill="#000000" font-family="sans-serif" font-size="14" lengthAdjust="spacing" textLength="110.8652" x="275" y="749.7178">+RequestDTO(...)</text></g><!--class User--><g id="elem_User"><rect codeLine="54" fill="#F1F1F1" height="66.6211" id="User" rx="2.5" ry="2.5" style="stroke:#181818;stroke-width:0.5;" width="75.8066" x="7" y="12.2627"/><ellipse cx="28.4116" cy="28.2627" fill="#ADD1B2" rx="11" ry="11" style="stroke:#181818;stroke-width:1.0;"/><path d="M31.1772,24.1377 Q31.3335,23.9189 31.521,23.8096 Q31.7085,23.7002 31.9272,23.7002 Q32.3022,23.7002 32.5366,23.9658 Q32.771,24.2158 32.771,24.8252 L32.771,26.2783 Q32.771,26.8877 32.5366,27.1533 Q32.3022,27.4189 31.9272,27.4189 Q31.5835,27.4189 31.3804,27.2158 Q31.1772,27.0283 31.0679,26.5127 Q31.021,26.1533 30.8335,25.9658 Q30.5054,25.5908 29.896,25.3721 Q29.2866,25.1533 28.6616,25.1533 Q27.896,25.1533 27.2554,25.4814 Q26.6304,25.8096 26.1304,26.5596 Q25.646,27.3096 25.646,28.3408 L25.646,29.4346 Q25.646,30.6689 26.5366,31.4971 Q27.4272,32.3096 29.021,32.3096 Q29.9585,32.3096 30.6147,32.0596 Q31.0054,31.9033 31.4272,31.4658 Q31.6929,31.2002 31.8335,31.1221 Q31.9897,31.0439 32.1929,31.0439 Q32.521,31.0439 32.771,31.3096 Q33.0366,31.5596 33.0366,31.9033 Q33.0366,32.2471 32.6929,32.6533 Q32.1929,33.2314 31.396,33.5596 Q30.3179,34.0127 29.021,34.0127 Q27.5054,34.0127 26.3022,33.3877 Q25.3179,32.8877 24.6304,31.8252 Q23.9429,30.7471 23.9429,29.4658 L23.9429,28.3096 Q23.9429,26.9814 24.5522,25.8408 Q25.1772,24.6846 26.271,24.0752 Q27.3647,23.4502 28.5991,23.4502 Q29.3335,23.4502 29.9741,23.6221 Q30.6304,23.7783 31.1772,24.1377 Z " fill="#000000"/><text fill="#000000" font-family="sans-serif" font-size="14" lengthAdjust="spacing" textLength="29.5586" x="43.8364" y="34.0596">User</text><line style="stroke:#181818;stroke-width:0.5;" x1="8" x2="81.8066" y1="44.2627" y2="44.2627"/><text fill="#000000" font-family="sans-serif" font-size="14" lengthAdjust="spacing" textLength="63.8066" x="13" y="63.3701">role: client</text><line style="stroke:#181818;stroke-width:0.5;" x1="8" x2="81.8066" y1="70.8838" y2="70.8838"/></g><!--link User to RequestUI--><g id="link_User_RequestUI"><path codeLine="59" d="M83.37,45.7627 C116.38,45.7627 158.19,45.7627 193.97,45.7627 " fill="none" id="User-to-RequestUI" style="stroke:#181818;stroke-width:1.0;stroke-dasharray:7.0,7.0;"/><polygon fill="#181818" points="199.97,45.7627,190.97,41.7627,194.97,45.7627,190.97,49.7627,199.97,45.7627" style="stroke:#181818;stroke-width:1.0;"/><text fill="#000000" font-family="sans-serif" font-size="13" lengthAdjust="spacing" textLength="80.9263" x="101.5" y="21.791">asks to create</text><text fill="#000000" font-family="sans-serif" font-size="13" lengthAdjust="spacing" textLength="70.8208" x="106.5527" y="39.082">new request</text></g><!--link RequestUI to RequestController--><g id="link_RequestUI_RequestController"><path codeLine="60" d="M249,69.8727 C249,89.4827 249,111.8527 249,133.8327 " fill="none" id="RequestUI-to-RequestController" style="stroke:#181818;stroke-width:1.0;stroke-dasharray:7.0,7.0;"/><polygon fill="#181818" points="249,139.8327,253,130.8327,249,134.8327,245,130.8327,249,139.8327" style="stroke:#181818;stroke-width:1.0;"/></g><!--link RequestController to RequestService--><g id="link_RequestController_RequestService"><path codeLine="61" d="M249,207.5427 C249,226.2027 249,243.5127 249,262.1527 " fill="none" id="RequestController-to-RequestService" style="stroke:#181818;stroke-width:1.0;stroke-dasharray:7.0,7.0;"/><polygon fill="#181818" points="249,268.1527,253,259.1527,249,263.1527,245,259.1527,249,268.1527" style="stroke:#181818;stroke-width:1.0;"/></g><!--link RequestService to RequestRepository--><g id="link_RequestService_RequestRepository"><path codeLine="62" d="M220.44,335.4427 C202.02,356.5127 182.1095,379.2959 163.6595,400.3959 " fill="none" id="RequestService-to-RequestRepository" style="stroke:#181818;stroke-width:1.0;stroke-dasharray:7.0,7.0;"/><polygon fill="#181818" points="159.71,404.9127,168.6455,400.7705,163.0013,401.1487,162.6231,395.5045,159.71,404.9127" style="stroke:#181818;stroke-width:1.0;"/></g><!--link RequestService to RequestMapper--><g id="link_RequestService_RequestMapper"><path codeLine="63" d="M278.05,335.4427 C294.28,353.7027 310.6838,372.1582 328.0438,391.6882 " fill="none" id="RequestService-to-RequestMapper" style="stroke:#181818;stroke-width:1.0;stroke-dasharray:7.0,7.0;"/><polygon fill="#181818" points="332.03,396.1727,329.0404,386.7886,328.7082,392.4356,323.0611,392.1035,332.03,396.1727" style="stroke:#181818;stroke-width:1.0;"/></g><!--link RequestMapper to Request--><g id="link_RequestMapper_Request"><path codeLine="64" d="M323.67,481.2827 C298.32,504.5027 270.0347,530.4203 238.7847,559.0403 " fill="none" id="RequestMapper-to-Request" style="stroke:#181818;stroke-width:1.0;stroke-dasharray:7.0,7.0;"/><polygon fill="#181818" points="234.36,563.0927,243.6987,559.964,238.0473,559.7157,238.2955,554.0643,234.36,563.0927" style="stroke:#181818;stroke-width:1.0;"/></g><!--link RequestMapper to RequestDTO--><g id="link_RequestMapper_RequestDTO"><path codeLine="65" d="M369.57,481.2827 C369.88,503.6427 370.1875,526.2433 370.5675,553.8933 " fill="none" id="RequestMapper-to-RequestDTO" style="stroke:#181818;stroke-width:1.0;stroke-dasharray:7.0,7.0;"/><polygon fill="#181818" points="370.65,559.8927,374.5259,550.8386,370.5813,554.8932,366.5267,550.9485,370.65,559.8927" style="stroke:#181818;stroke-width:1.0;"/></g><!--link RequestRepository to Request--><g id="link_RequestRepository_Request"><path codeLine="66" d="M131,472.4027 C131,495.8027 131,522.6327 131,554.1827 " fill="none" id="RequestRepository-to-Request" style="stroke:#181818;stroke-width:1.0;"/><polygon fill="#181818" points="131,560.1827,135,551.1827,131,555.1827,127,551.1827,131,560.1827" style="stroke:#181818;stroke-width:1.0;"/><text fill="#000000" font-family="sans-serif" font-size="13" lengthAdjust="spacing" textLength="43.3608" x="132" y="526.291">request</text><text fill="#000000" font-family="sans-serif" font-size="13" lengthAdjust="spacing" textLength="7.23" x="123.4146" y="493.9969">1</text><text fill="#000000" font-family="sans-serif" font-size="13" lengthAdjust="spacing" textLength="5.0591" x="125.8207" y="549.025">*</text></g><!--link Request to RequestStatus--><g id="link_Request_RequestStatus"><path codeLine="67" d="M131,757.5327 C131,785.7927 131,808.7127 131,829.9727 " fill="none" id="Request-to-RequestStatus" style="stroke:#181818;stroke-width:1.0;"/><polygon fill="#181818" points="131,835.9727,135,826.9727,131,830.9727,127,826.9727,131,835.9727" style="stroke:#181818;stroke-width:1.0;"/><text fill="#000000" font-family="sans-serif" font-size="13" lengthAdjust="spacing" textLength="20.96" x="132" y="802.291">has</text><text fill="#000000" font-family="sans-serif" font-size="13" lengthAdjust="spacing" textLength="5.0591" x="125.8353" y="779.1148">*</text><text fill="#000000" font-family="sans-serif" font-size="13" lengthAdjust="spacing" textLength="7.23" x="123.3581" y="825.0033">1</text></g><!--SRC=[rLF1JkCm4BtxAqQvG5arMguv827Wm66r4brkN8PaIAswTjOpBSeY_Xt7TT8q0UwRGv9vxutjUPxXZRODUjn2W-K6Qrf9QmWybOAsDgHu4F0QA_UgRGqlQ7ZC66r9seQWSQRjWX5N6cI-5l7wUITqNpgxqly8VYgb8WKFz7T7B8_tyARU9-2Di-ATCUG32U7v0QKd54hy-MAMiYA_roKTz9_AjHNoBnWq2NwWnh4MvzjX5yOzdISwc16_CVbqiwHVWgwWW5KeqjO9eIrgCy6QjRCqmQfml09kmpi1B2WxBePwOfYuqcYoKi1D_2OGgprvqKpRW8LZN8_ZL4zlG9xdiGook-tf3gcKYbZN5aKxEnnqQl4lR9hHZOYxiwAbxVsw_VExjopyBXQ3B4GpJ-SNsAN_PxPsXVNE7cfvv6XGwDrmYiFo7Na6o-KoP1aiWy7OhUIumrHCoAz6qr00yeQ3RQc7dwobrzutTTJbnwpZkAZv08rqQKRKP6H6YkD8V2Cwz84wxOeH_pKJ35FpuSiki-355MGNsJ1WnRJYo4RLPJRfu0BMo1y0]--></g></svg>