<svg xmlns="http://www.w3.org/2000/svg" xmlns:xlink="http://www.w3.org/1999/xlink" contentStyleType="text/css" height="624px" preserveAspectRatio="none" style="width:1046px;height:624px;background:#FFFFFF;" version="1.1" viewBox="0 0 1046 624" width="1046px" zoomAndPan="magnify"><defs/><g><rect fill="#FFFFFF" height="429.3945" style="stroke:#181818;stroke-width:1.0;" width="10" x="20.8965" y="93.6211"/><rect fill="#FFFFFF" height="406.1035" style="stroke:#181818;stroke-width:1.0;" width="10" x="239.6162" y="116.9121"/><rect fill="#FFFFFF" height="343.5215" style="stroke:#181818;stroke-width:1.0;" width="10" x="373.0552" y="148.2031"/><rect fill="#FFFFFF" height="280.9395" style="stroke:#181818;stroke-width:1.0;" width="10" x="506.4941" y="179.4941"/><rect fill="#FFFFFF" height="93.5332" style="stroke:#181818;stroke-width:1.0;" width="10" x="637.0259" y="335.6094"/><rect fill="#FFFFFF" height="31.291" style="stroke:#181818;stroke-width:1.0;" width="10" x="775.8081" y="273.0273"/><line style="stroke:#181818;stroke-width:0.5;stroke-dasharray:5.0,5.0;" x1="25" x2="25" y1="83.6211" y2="541.0156"/><line style="stroke:#181818;stroke-width:0.5;stroke-dasharray:5.0,5.0;" x1="244.5439" x2="244.5439" y1="83.6211" y2="541.0156"/><line style="stroke:#181818;stroke-width:0.5;stroke-dasharray:5.0,5.0;" x1="377.6382" x2="377.6382" y1="83.6211" y2="541.0156"/><line style="stroke:#181818;stroke-width:0.5;stroke-dasharray:5.0,5.0;" x1="511.0806" x2="511.0806" y1="83.6211" y2="541.0156"/><line style="stroke:#181818;stroke-width:0.5;stroke-dasharray:5.0,5.0;" x1="641.2744" x2="641.2744" y1="83.6211" y2="541.0156"/><line style="stroke:#181818;stroke-width:0.5;stroke-dasharray:5.0,5.0;" x1="780.7773" x2="780.7773" y1="83.6211" y2="541.0156"/><line style="stroke:#181818;stroke-width:0.5;stroke-dasharray:5.0,5.0;" x1="895.8389" x2="895.8389" y1="228.6152" y2="541.0156"/><line style="stroke:#181818;stroke-width:0.5;stroke-dasharray:5.0,5.0;" x1="989.873" x2="989.873" y1="384.7305" y2="541.0156"/><text fill="#000000" font-family="sans-serif" font-size="14" lengthAdjust="spacing" textLength="35.793" x="5" y="80.1074">Client</text><ellipse cx="25.8965" cy="13.5" fill="#E3E3E3" rx="8" ry="8" style="stroke:#181818;stroke-width:0.5;"/><path d="M25.8965,21.5 L25.8965,48.5 M12.8965,29.5 L38.8965,29.5 M25.8965,48.5 L12.8965,63.5 M25.8965,48.5 L38.8965,63.5 " fill="none" style="stroke:#181818;stroke-width:0.5;"/><text fill="#000000" font-family="sans-serif" font-size="14" lengthAdjust="spacing" textLength="35.793" x="5" y="555.123">Client</text><ellipse cx="25.8965" cy="567.1367" fill="#E3E3E3" rx="8" ry="8" style="stroke:#181818;stroke-width:0.5;"/><path d="M25.8965,575.1367 L25.8965,602.1367 M12.8965,583.1367 L38.8965,583.1367 M25.8965,602.1367 L12.8965,617.1367 M25.8965,602.1367 L38.8965,617.1367 " fill="none" style="stroke:#181818;stroke-width:0.5;"/><rect fill="#E3E3E3" height="32.6211" rx="2.5" ry="2.5" style="stroke:#181818;stroke-width:0.5;" width="80.1445" x="204.5439" y="50"/><text fill="#000000" font-family="sans-serif" font-size="14" lengthAdjust="spacing" textLength="66.1445" x="211.5439" y="72.1074">RequestUI</text><rect fill="#E3E3E3" height="32.6211" rx="2.5" ry="2.5" style="stroke:#181818;stroke-width:0.5;" width="80.1445" x="204.5439" y="540.0156"/><text fill="#000000" font-family="sans-serif" font-size="14" lengthAdjust="spacing" textLength="66.1445" x="211.5439" y="562.123">RequestUI</text><rect fill="#E3E3E3" height="32.6211" rx="2.5" ry="2.5" style="stroke:#181818;stroke-width:0.5;" width="126.834" x="314.6382" y="50"/><text fill="#000000" font-family="sans-serif" font-size="14" lengthAdjust="spacing" textLength="112.834" x="321.6382" y="72.1074">RequestController</text><rect fill="#E3E3E3" height="32.6211" rx="2.5" ry="2.5" style="stroke:#181818;stroke-width:0.5;" width="126.834" x="314.6382" y="540.0156"/><text fill="#000000" font-family="sans-serif" font-size="14" lengthAdjust="spacing" textLength="112.834" x="321.6382" y="562.123">RequestController</text><rect fill="#E3E3E3" height="32.6211" rx="2.5" ry="2.5" style="stroke:#181818;stroke-width:0.5;" width="112.8271" x="455.0806" y="50"/><text fill="#000000" font-family="sans-serif" font-size="14" lengthAdjust="spacing" textLength="98.8271" x="462.0806" y="72.1074">RequestService</text><rect fill="#E3E3E3" height="32.6211" rx="2.5" ry="2.5" style="stroke:#181818;stroke-width:0.5;" width="112.8271" x="455.0806" y="540.0156"/><text fill="#000000" font-family="sans-serif" font-size="14" lengthAdjust="spacing" textLength="98.8271" x="462.0806" y="562.123">RequestService</text><rect fill="#E3E3E3" height="51.2422" rx="2.5" ry="2.5" style="stroke:#181818;stroke-width:0.5;" width="117.5029" x="583.2744" y="31.3789"/><text fill="#000000" font-family="sans-serif" font-size="14" lengthAdjust="spacing" textLength="47.4688" x="618.2915" y="53.4863">mapper</text><text fill="#000000" font-family="sans-serif" font-size="14" lengthAdjust="spacing" textLength="103.5029" x="590.2744" y="72.1074">:RequestMapper</text><rect fill="#E3E3E3" height="51.2422" rx="2.5" ry="2.5" style="stroke:#181818;stroke-width:0.5;" width="117.5029" x="583.2744" y="540.0156"/><text fill="#000000" font-family="sans-serif" font-size="14" lengthAdjust="spacing" textLength="47.4688" x="618.2915" y="562.123">mapper</text><text fill="#000000" font-family="sans-serif" font-size="14" lengthAdjust="spacing" textLength="103.5029" x="590.2744" y="580.7441">:RequestMapper</text><rect fill="#E3E3E3" height="32.6211" rx="2.5" ry="2.5" style="stroke:#181818;stroke-width:0.5;" width="140.0615" x="710.7773" y="50"/><text fill="#000000" font-family="sans-serif" font-size="14" lengthAdjust="spacing" textLength="126.0615" x="717.7773" y="72.1074">RequestsRepository</text><rect fill="#E3E3E3" height="32.6211" rx="2.5" ry="2.5" style="stroke:#181818;stroke-width:0.5;" width="140.0615" x="710.7773" y="540.0156"/><text fill="#000000" font-family="sans-serif" font-size="14" lengthAdjust="spacing" textLength="126.0615" x="717.7773" y="562.123">RequestsRepository</text><rect fill="#E3E3E3" height="51.2422" rx="2.5" ry="2.5" style="stroke:#181818;stroke-width:0.5;" width="70.0342" x="860.8389" y="540.0156"/><text fill="#000000" font-family="sans-serif" font-size="14" lengthAdjust="spacing" textLength="46.6963" x="872.5078" y="562.123">request</text><text fill="#000000" font-family="sans-serif" font-size="14" lengthAdjust="spacing" textLength="56.0342" x="867.8389" y="580.7441">:Request</text><rect fill="#E3E3E3" height="51.2422" rx="2.5" ry="2.5" style="stroke:#181818;stroke-width:0.5;" width="99.5859" x="940.873" y="540.0156"/><text fill="#000000" font-family="sans-serif" font-size="14" lengthAdjust="spacing" textLength="76.248" x="952.542" y="562.123">requestDTO</text><text fill="#000000" font-family="sans-serif" font-size="14" lengthAdjust="spacing" textLength="85.5859" x="947.873" y="580.7441">:RequestDTO</text><rect fill="#FFFFFF" height="429.3945" style="stroke:#181818;stroke-width:1.0;" width="10" x="20.8965" y="93.6211"/><rect fill="#FFFFFF" height="406.1035" style="stroke:#181818;stroke-width:1.0;" width="10" x="239.6162" y="116.9121"/><rect fill="#FFFFFF" height="343.5215" style="stroke:#181818;stroke-width:1.0;" width="10" x="373.0552" y="148.2031"/><rect fill="#FFFFFF" height="280.9395" style="stroke:#181818;stroke-width:1.0;" width="10" x="506.4941" y="179.4941"/><rect fill="#FFFFFF" height="93.5332" style="stroke:#181818;stroke-width:1.0;" width="10" x="637.0259" y="335.6094"/><rect fill="#FFFFFF" height="31.291" style="stroke:#181818;stroke-width:1.0;" width="10" x="775.8081" y="273.0273"/><polygon fill="#181818" points="227.6162,112.9121,237.6162,116.9121,227.6162,120.9121,231.6162,116.9121" style="stroke:#181818;stroke-width:1.0;"/><line style="stroke:#181818;stroke-width:1.0;" x1="30.8965" x2="233.6162" y1="116.9121" y2="116.9121"/><text fill="#000000" font-family="sans-serif" font-size="13" font-weight="bold" lengthAdjust="spacing" textLength="7.23" x="37.8965" y="111.6494">1</text><text fill="#000000" font-family="sans-serif" font-size="13" lengthAdjust="spacing" textLength="178.4897" x="49.1265" y="111.6494">requests to create new request</text><polygon fill="#181818" points="361.0552,144.2031,371.0552,148.2031,361.0552,152.2031,365.0552,148.2031" style="stroke:#181818;stroke-width:1.0;"/><line style="stroke:#181818;stroke-width:1.0;" x1="249.6162" x2="367.0552" y1="148.2031" y2="148.2031"/><text fill="#000000" font-family="sans-serif" font-size="13" font-weight="bold" lengthAdjust="spacing" textLength="7.23" x="256.6162" y="142.9404">2</text><text fill="#000000" font-family="sans-serif" font-size="13" lengthAdjust="spacing" textLength="93.209" x="267.8462" y="142.9404">createRequest()</text><polygon fill="#181818" points="494.4941,175.4941,504.4941,179.4941,494.4941,183.4941,498.4941,179.4941" style="stroke:#181818;stroke-width:1.0;"/><line style="stroke:#181818;stroke-width:1.0;" x1="383.0552" x2="500.4941" y1="179.4941" y2="179.4941"/><text fill="#000000" font-family="sans-serif" font-size="13" font-weight="bold" lengthAdjust="spacing" textLength="7.23" x="390.0552" y="174.2314">3</text><text fill="#000000" font-family="sans-serif" font-size="13" lengthAdjust="spacing" textLength="93.209" x="401.2852" y="174.2314">createRequest()</text><line style="stroke:#181818;stroke-width:1.0;" x1="858.8389" x2="848.8389" y1="210.7852" y2="206.7852"/><line style="stroke:#181818;stroke-width:1.0;" x1="858.8389" x2="848.8389" y1="210.7852" y2="214.7852"/><line style="stroke:#181818;stroke-width:1.0;stroke-dasharray:2.0,2.0;" x1="516.4941" x2="859.8389" y1="210.7852" y2="210.7852"/><text fill="#000000" font-family="sans-serif" font-size="13" font-weight="bold" lengthAdjust="spacing" textLength="7.23" x="523.4941" y="205.5225">4</text><text fill="#000000" font-family="sans-serif" font-size="13" lengthAdjust="spacing" textLength="44.7891" x="534.7241" y="205.5225">create()</text><rect fill="#E3E3E3" height="51.2422" rx="2.5" ry="2.5" style="stroke:#181818;stroke-width:0.5;" width="70.0342" x="860.8389" y="187.4941"/><text fill="#000000" font-family="sans-serif" font-size="14" lengthAdjust="spacing" textLength="46.6963" x="872.5078" y="209.6016">request</text><text fill="#000000" font-family="sans-serif" font-size="14" lengthAdjust="spacing" textLength="56.0342" x="867.8389" y="228.2227">:Request</text><polygon fill="#181818" points="763.8081,269.0273,773.8081,273.0273,763.8081,277.0273,767.8081,273.0273" style="stroke:#181818;stroke-width:1.0;"/><line style="stroke:#181818;stroke-width:1.0;" x1="516.4941" x2="769.8081" y1="273.0273" y2="273.0273"/><text fill="#000000" font-family="sans-serif" font-size="13" font-weight="bold" lengthAdjust="spacing" textLength="7.23" x="523.4941" y="267.7646">5</text><text fill="#000000" font-family="sans-serif" font-size="13" lengthAdjust="spacing" textLength="79.479" x="534.7241" y="267.7646">save(request)</text><polygon fill="#181818" points="527.4941,300.3184,517.4941,304.3184,527.4941,308.3184,523.4941,304.3184" style="stroke:#181818;stroke-width:1.0;"/><line style="stroke:#181818;stroke-width:1.0;stroke-dasharray:2.0,2.0;" x1="521.4941" x2="779.8081" y1="304.3184" y2="304.3184"/><text fill="#000000" font-family="sans-serif" font-size="13" font-weight="bold" lengthAdjust="spacing" textLength="7.23" x="533.4941" y="299.0557">6</text><text fill="#000000" font-family="sans-serif" font-size="13" lengthAdjust="spacing" textLength="43.3608" x="544.7241" y="299.0557">request</text><polygon fill="#181818" points="625.0259,331.6094,635.0259,335.6094,625.0259,339.6094,629.0259,335.6094" style="stroke:#181818;stroke-width:1.0;"/><line style="stroke:#181818;stroke-width:1.0;" x1="516.4941" x2="631.0259" y1="335.6094" y2="335.6094"/><text fill="#000000" font-family="sans-serif" font-size="13" font-weight="bold" lengthAdjust="spacing" textLength="7.23" x="523.4941" y="330.3467">7</text><text fill="#000000" font-family="sans-serif" font-size="13" lengthAdjust="spacing" textLength="90.3018" x="534.7241" y="330.3467">toDTO(request)</text><line style="stroke:#181818;stroke-width:1.0;" x1="938.873" x2="928.873" y1="366.9004" y2="362.9004"/><line style="stroke:#181818;stroke-width:1.0;" x1="938.873" x2="928.873" y1="366.9004" y2="370.9004"/><line style="stroke:#181818;stroke-width:1.0;stroke-dasharray:2.0,2.0;" x1="647.0259" x2="939.873" y1="366.9004" y2="366.9004"/><text fill="#000000" font-family="sans-serif" font-size="13" font-weight="bold" lengthAdjust="spacing" textLength="7.23" x="654.0259" y="361.6377">8</text><text fill="#000000" font-family="sans-serif" font-size="13" lengthAdjust="spacing" textLength="44.7891" x="665.2559" y="361.6377">create()</text><rect fill="#E3E3E3" height="51.2422" rx="2.5" ry="2.5" style="stroke:#181818;stroke-width:0.5;" width="99.5859" x="940.873" y="343.6094"/><text fill="#000000" font-family="sans-serif" font-size="14" lengthAdjust="spacing" textLength="76.248" x="952.542" y="365.7168">requestDTO</text><text fill="#000000" font-family="sans-serif" font-size="14" lengthAdjust="spacing" textLength="85.5859" x="947.873" y="384.3379">:RequestDTO</text><polygon fill="#181818" points="527.4941,425.1426,517.4941,429.1426,527.4941,433.1426,523.4941,429.1426" style="stroke:#181818;stroke-width:1.0;"/><line style="stroke:#181818;stroke-width:1.0;stroke-dasharray:2.0,2.0;" x1="521.4941" x2="641.0259" y1="429.1426" y2="429.1426"/><text fill="#000000" font-family="sans-serif" font-size="13" font-weight="bold" lengthAdjust="spacing" textLength="7.23" x="533.4941" y="423.8799">9</text><text fill="#000000" font-family="sans-serif" font-size="13" lengthAdjust="spacing" textLength="70.8018" x="544.7241" y="423.8799">requestDTO</text><polygon fill="#181818" points="394.0552,456.4336,384.0552,460.4336,394.0552,464.4336,390.0552,460.4336" style="stroke:#181818;stroke-width:1.0;"/><line style="stroke:#181818;stroke-width:1.0;stroke-dasharray:2.0,2.0;" x1="388.0552" x2="510.4941" y1="460.4336" y2="460.4336"/><text fill="#000000" font-family="sans-serif" font-size="13" font-weight="bold" lengthAdjust="spacing" textLength="14.46" x="400.0552" y="455.1709">10</text><text fill="#000000" font-family="sans-serif" font-size="13" lengthAdjust="spacing" textLength="70.8018" x="418.5151" y="455.1709">requestDTO</text><polygon fill="#181818" points="260.6162,487.7246,250.6162,491.7246,260.6162,495.7246,256.6162,491.7246" style="stroke:#181818;stroke-width:1.0;"/><line style="stroke:#181818;stroke-width:1.0;stroke-dasharray:2.0,2.0;" x1="254.6162" x2="377.0552" y1="491.7246" y2="491.7246"/><text fill="#000000" font-family="sans-serif" font-size="13" font-weight="bold" lengthAdjust="spacing" textLength="14.46" x="266.6162" y="486.4619">11</text><text fill="#000000" font-family="sans-serif" font-size="13" lengthAdjust="spacing" textLength="70.8018" x="285.0762" y="486.4619">requestDTO</text><polygon fill="#181818" points="36.8965,519.0156,26.8965,523.0156,36.8965,527.0156,32.8965,523.0156" style="stroke:#181818;stroke-width:1.0;"/><line style="stroke:#181818;stroke-width:1.0;stroke-dasharray:2.0,2.0;" x1="30.8965" x2="243.6162" y1="523.0156" y2="523.0156"/><text fill="#000000" font-family="sans-serif" font-size="13" font-weight="bold" lengthAdjust="spacing" textLength="14.46" x="42.8965" y="517.7529">12</text><text fill="#000000" font-family="sans-serif" font-size="13" lengthAdjust="spacing" textLength="70.8018" x="61.3564" y="517.7529">requestDTO</text><!--SRC=[ZPB1Ri8m38RlUOg84qFY1JXKGi2XqX2eXPqcJLdn8A9DkYG5yVPBqgPDkvGjfxhv_SN-RNcbh2I25BZWZ6SNmGl0IbI0P7jJaknApf2gHmvOGAO8E-U-G5x8YTyfE-Claaj0Y5IAiwhu1A6_CyK5dgno2anDC97uc6uIf3CLpMX9cCAJ1BuhaEeOr_Tny7R5cH8ypq5OrUgGl0PrAOWRpS2Az4jlVL51oXB4EriqwgsDhNYxtEz7AfC9b5nItSd3IfVhZsIpt_MrejPsR2jj_WQbwyEkK-l0Jz0XGjO-UYCAQjSGriTyuNcaVS8BfvPOSPm9C4e6z_PLe-yGiOqj8pO4uw5cr7bD6TENLjGcMg-nTsoY1XX_dm1w43iB73WMCfz7aQjwDdF80SkS4xJ4Pc0e38pSb7I1ajnWsj1_8rkW6skeIWURTstx9e-Kw8YZDTOzQ9ZYUkB_gB5fEbHYm_AjrCodRlRJ1esP5VpR_h5nkkqAm3n8RolgjHgizaXYkvDcbKrAQcqS97a9UllzICj_0000]--></g></svg>