<svg xmlns="http://www.w3.org/2000/svg" xmlns:xlink="http://www.w3.org/1999/xlink" contentStyleType="text/css" height="941px" preserveAspectRatio="none" style="width:736px;height:941px;background:#FFFFFF;" version="1.1" viewBox="0 0 736 941" width="736px" zoomAndPan="magnify"><defs/><g><!--class ReservationAttemptUI--><g id="elem_ReservationAttemptUI"><rect codeLine="7" fill="#F1F1F1" height="48" id="ReservationAttemptUI" rx="2.5" ry="2.5" style="stroke:#181818;stroke-width:0.5;" width="168.9443" x="263" y="35"/><ellipse cx="278" cy="51" fill="#ADD1B2" rx="11" ry="11" style="stroke:#181818;stroke-width:1.0;"/><path d="M280.7656,46.875 Q280.9219,46.6563 281.1094,46.5469 Q281.2969,46.4375 281.5156,46.4375 Q281.8906,46.4375 282.125,46.7031 Q282.3594,46.9531 282.3594,47.5625 L282.3594,49.0156 Q282.3594,49.625 282.125,49.8906 Q281.8906,50.1563 281.5156,50.1563 Q281.1719,50.1563 280.9688,49.9531 Q280.7656,49.7656 280.6563,49.25 Q280.6094,48.8906 280.4219,48.7031 Q280.0938,48.3281 279.4844,48.1094 Q278.875,47.8906 278.25,47.8906 Q277.4844,47.8906 276.8438,48.2188 Q276.2188,48.5469 275.7188,49.2969 Q275.2344,50.0469 275.2344,51.0781 L275.2344,52.1719 Q275.2344,53.4063 276.125,54.2344 Q277.0156,55.0469 278.6094,55.0469 Q279.5469,55.0469 280.2031,54.7969 Q280.5938,54.6406 281.0156,54.2031 Q281.2813,53.9375 281.4219,53.8594 Q281.5781,53.7813 281.7813,53.7813 Q282.1094,53.7813 282.3594,54.0469 Q282.625,54.2969 282.625,54.6406 Q282.625,54.9844 282.2813,55.3906 Q281.7813,55.9688 280.9844,56.2969 Q279.9063,56.75 278.6094,56.75 Q277.0938,56.75 275.8906,56.125 Q274.9063,55.625 274.2188,54.5625 Q273.5313,53.4844 273.5313,52.2031 L273.5313,51.0469 Q273.5313,49.7188 274.1406,48.5781 Q274.7656,47.4219 275.8594,46.8125 Q276.9531,46.1875 278.1875,46.1875 Q278.9219,46.1875 279.5625,46.3594 Q280.2188,46.5156 280.7656,46.875 Z " fill="#000000"/><text fill="#000000" font-family="sans-serif" font-size="14" lengthAdjust="spacing" textLength="136.9443" x="292" y="56.7969">ReservationAttemptUI</text><line style="stroke:#181818;stroke-width:0.5;" x1="264" x2="430.9443" y1="67" y2="67"/><line style="stroke:#181818;stroke-width:0.5;" x1="264" x2="430.9443" y1="75" y2="75"/></g><!--class ReservationAttemptController--><g id="elem_ReservationAttemptController"><rect codeLine="10" fill="#F1F1F1" height="66.6211" id="ReservationAttemptController" rx="2.5" ry="2.5" style="stroke:#181818;stroke-width:0.5;" width="215.6338" x="239.5" y="172"/><ellipse cx="254.5" cy="188" fill="#ADD1B2" rx="11" ry="11" style="stroke:#181818;stroke-width:1.0;"/><path d="M257.2656,183.875 Q257.4219,183.6563 257.6094,183.5469 Q257.7969,183.4375 258.0156,183.4375 Q258.3906,183.4375 258.625,183.7031 Q258.8594,183.9531 258.8594,184.5625 L258.8594,186.0156 Q258.8594,186.625 258.625,186.8906 Q258.3906,187.1563 258.0156,187.1563 Q257.6719,187.1563 257.4688,186.9531 Q257.2656,186.7656 257.1563,186.25 Q257.1094,185.8906 256.9219,185.7031 Q256.5938,185.3281 255.9844,185.1094 Q255.375,184.8906 254.75,184.8906 Q253.9844,184.8906 253.3438,185.2188 Q252.7188,185.5469 252.2188,186.2969 Q251.7344,187.0469 251.7344,188.0781 L251.7344,189.1719 Q251.7344,190.4063 252.625,191.2344 Q253.5156,192.0469 255.1094,192.0469 Q256.0469,192.0469 256.7031,191.7969 Q257.0938,191.6406 257.5156,191.2031 Q257.7813,190.9375 257.9219,190.8594 Q258.0781,190.7813 258.2813,190.7813 Q258.6094,190.7813 258.8594,191.0469 Q259.125,191.2969 259.125,191.6406 Q259.125,191.9844 258.7813,192.3906 Q258.2813,192.9688 257.4844,193.2969 Q256.4063,193.75 255.1094,193.75 Q253.5938,193.75 252.3906,193.125 Q251.4063,192.625 250.7188,191.5625 Q250.0313,190.4844 250.0313,189.2031 L250.0313,188.0469 Q250.0313,186.7188 250.6406,185.5781 Q251.2656,184.4219 252.3594,183.8125 Q253.4531,183.1875 254.6875,183.1875 Q255.4219,183.1875 256.0625,183.3594 Q256.7188,183.5156 257.2656,183.875 Z " fill="#000000"/><text fill="#000000" font-family="sans-serif" font-size="14" lengthAdjust="spacing" textLength="183.6338" x="268.5" y="193.7969">ReservationAttemptController</text><line style="stroke:#181818;stroke-width:0.5;" x1="240.5" x2="454.1338" y1="204" y2="204"/><line style="stroke:#181818;stroke-width:0.5;" x1="240.5" x2="454.1338" y1="212" y2="212"/><text fill="#000000" font-family="sans-serif" font-size="14" lengthAdjust="spacing" textLength="108.5547" x="245.5" y="231.1074">+createRequest()</text></g><!--class ReservationAttemptService--><g id="elem_ReservationAttemptService"><rect codeLine="14" fill="#F1F1F1" height="66.6211" id="ReservationAttemptService" rx="2.5" ry="2.5" style="stroke:#181818;stroke-width:0.5;" width="201.627" x="246.5" y="300"/><ellipse cx="261.5" cy="316" fill="#ADD1B2" rx="11" ry="11" style="stroke:#181818;stroke-width:1.0;"/><path d="M264.2656,311.875 Q264.4219,311.6563 264.6094,311.5469 Q264.7969,311.4375 265.0156,311.4375 Q265.3906,311.4375 265.625,311.7031 Q265.8594,311.9531 265.8594,312.5625 L265.8594,314.0156 Q265.8594,314.625 265.625,314.8906 Q265.3906,315.1563 265.0156,315.1563 Q264.6719,315.1563 264.4688,314.9531 Q264.2656,314.7656 264.1563,314.25 Q264.1094,313.8906 263.9219,313.7031 Q263.5938,313.3281 262.9844,313.1094 Q262.375,312.8906 261.75,312.8906 Q260.9844,312.8906 260.3438,313.2188 Q259.7188,313.5469 259.2188,314.2969 Q258.7344,315.0469 258.7344,316.0781 L258.7344,317.1719 Q258.7344,318.4063 259.625,319.2344 Q260.5156,320.0469 262.1094,320.0469 Q263.0469,320.0469 263.7031,319.7969 Q264.0938,319.6406 264.5156,319.2031 Q264.7813,318.9375 264.9219,318.8594 Q265.0781,318.7813 265.2813,318.7813 Q265.6094,318.7813 265.8594,319.0469 Q266.125,319.2969 266.125,319.6406 Q266.125,319.9844 265.7813,320.3906 Q265.2813,320.9688 264.4844,321.2969 Q263.4063,321.75 262.1094,321.75 Q260.5938,321.75 259.3906,321.125 Q258.4063,320.625 257.7188,319.5625 Q257.0313,318.4844 257.0313,317.2031 L257.0313,316.0469 Q257.0313,314.7188 257.6406,313.5781 Q258.2656,312.4219 259.3594,311.8125 Q260.4531,311.1875 261.6875,311.1875 Q262.4219,311.1875 263.0625,311.3594 Q263.7188,311.5156 264.2656,311.875 Z " fill="#000000"/><text fill="#000000" font-family="sans-serif" font-size="14" lengthAdjust="spacing" textLength="169.627" x="275.5" y="321.7969">ReservationAttemptService</text><line style="stroke:#181818;stroke-width:0.5;" x1="247.5" x2="447.127" y1="332" y2="332"/><line style="stroke:#181818;stroke-width:0.5;" x1="247.5" x2="447.127" y1="340" y2="340"/><text fill="#000000" font-family="sans-serif" font-size="14" lengthAdjust="spacing" textLength="108.5547" x="252.5" y="359.1074">+createRequest()</text></g><!--class ReservationAttemptRepository--><g id="elem_ReservationAttemptRepository"><rect codeLine="18" fill="#F1F1F1" height="66.6211" id="ReservationAttemptRepository" rx="2.5" ry="2.5" style="stroke:#181818;stroke-width:0.5;" width="303.4023" x="7" y="437"/><ellipse cx="59.5205" cy="453" fill="#B4A7E5" rx="11" ry="11" style="stroke:#181818;stroke-width:1.0;"/><path d="M60.4736,449.6406 L60.4736,456.2969 L62.1924,456.2969 Q62.8018,456.2969 63.0674,456.5313 Q63.333,456.7656 63.333,457.1563 Q63.333,457.5313 63.0674,457.7656 Q62.8018,458 62.1924,458 L57.0518,458 Q56.4424,458 56.1768,457.7656 Q55.9111,457.5313 55.9111,457.1406 Q55.9111,456.7656 56.1768,456.5313 Q56.4424,456.2969 57.0518,456.2969 L58.7705,456.2969 L58.7705,449.6406 L57.0518,449.6406 Q56.4424,449.6406 56.1768,449.4063 Q55.9111,449.1719 55.9111,448.7813 Q55.9111,448.4063 56.1768,448.1719 Q56.4424,447.9375 57.0518,447.9375 L62.1924,447.9375 Q62.8018,447.9375 63.0674,448.1719 Q63.333,448.4063 63.333,448.7813 Q63.333,449.1719 63.0674,449.4063 Q62.8018,449.6406 62.1924,449.6406 L60.4736,449.6406 Z " fill="#000000"/><text fill="#000000" font-family="sans-serif" font-size="14" font-style="italic" lengthAdjust="spacing" textLength="189.8613" x="80.0205" y="458.7969">ReservationAttemptRepository</text><line style="stroke:#181818;stroke-width:0.5;" x1="8" x2="309.4023" y1="469" y2="469"/><line style="stroke:#181818;stroke-width:0.5;" x1="8" x2="309.4023" y1="477" y2="477"/><text fill="#000000" font-family="sans-serif" font-size="14" lengthAdjust="spacing" textLength="291.4023" x="13" y="496.1074">+save(ReservationAttempt reservationAttempt)</text></g><!--class ReservationAttempt--><g id="elem_ReservationAttempt"><rect codeLine="23" fill="#F1F1F1" height="159.7266" id="ReservationAttempt" rx="2.5" ry="2.5" style="stroke:#181818;stroke-width:0.5;" width="224.4268" x="136.5" y="610.5"/><ellipse cx="182.9912" cy="626.5" fill="#ADD1B2" rx="11" ry="11" style="stroke:#181818;stroke-width:1.0;"/><path d="M185.7568,622.375 Q185.9131,622.1563 186.1006,622.0469 Q186.2881,621.9375 186.5068,621.9375 Q186.8818,621.9375 187.1162,622.2031 Q187.3506,622.4531 187.3506,623.0625 L187.3506,624.5156 Q187.3506,625.125 187.1162,625.3906 Q186.8818,625.6563 186.5068,625.6563 Q186.1631,625.6563 185.96,625.4531 Q185.7568,625.2656 185.6475,624.75 Q185.6006,624.3906 185.4131,624.2031 Q185.085,623.8281 184.4756,623.6094 Q183.8662,623.3906 183.2412,623.3906 Q182.4756,623.3906 181.835,623.7188 Q181.21,624.0469 180.71,624.7969 Q180.2256,625.5469 180.2256,626.5781 L180.2256,627.6719 Q180.2256,628.9063 181.1162,629.7344 Q182.0068,630.5469 183.6006,630.5469 Q184.5381,630.5469 185.1943,630.2969 Q185.585,630.1406 186.0068,629.7031 Q186.2725,629.4375 186.4131,629.3594 Q186.5693,629.2813 186.7725,629.2813 Q187.1006,629.2813 187.3506,629.5469 Q187.6162,629.7969 187.6162,630.1406 Q187.6162,630.4844 187.2725,630.8906 Q186.7725,631.4688 185.9756,631.7969 Q184.8975,632.25 183.6006,632.25 Q182.085,632.25 180.8818,631.625 Q179.8975,631.125 179.21,630.0625 Q178.5225,628.9844 178.5225,627.7031 L178.5225,626.5469 Q178.5225,625.2188 179.1318,624.0781 Q179.7568,622.9219 180.8506,622.3125 Q181.9443,621.6875 183.1787,621.6875 Q183.9131,621.6875 184.5537,621.8594 Q185.21,622.0156 185.7568,622.375 Z " fill="#000000"/><text fill="#000000" font-family="sans-serif" font-size="14" lengthAdjust="spacing" textLength="122.9443" x="203.4912" y="632.2969">ReservationAttempt</text><line style="stroke:#181818;stroke-width:0.5;" x1="137.5" x2="359.9268" y1="642.5" y2="642.5"/><text fill="#000000" font-family="sans-serif" font-size="14" lengthAdjust="spacing" textLength="63.7998" x="142.5" y="661.6074">-id : String</text><text fill="#000000" font-family="sans-serif" font-size="14" lengthAdjust="spacing" textLength="69.2617" x="142.5" y="680.2285">-date: Date</text><text fill="#000000" font-family="sans-serif" font-size="14" lengthAdjust="spacing" textLength="212.4268" x="142.5" y="698.8496">-status: ReservationAttemptStatus</text><text fill="#000000" font-family="sans-serif" font-size="14" lengthAdjust="spacing" textLength="80.917" x="142.5" y="717.4707">-client: Client</text><text fill="#000000" font-family="sans-serif" font-size="14" lengthAdjust="spacing" textLength="193.7441" x="142.5" y="736.0918">-advertisement : Advertisement</text><line style="stroke:#181818;stroke-width:0.5;" x1="137.5" x2="359.9268" y1="743.6055" y2="743.6055"/><text fill="#000000" font-family="sans-serif" font-size="14" lengthAdjust="spacing" textLength="152.1133" x="142.5" y="762.7129">+ReservationAttempt(...)</text></g><!--class ReservationAttemptStatus--><g id="elem_ReservationAttemptStatus"><rect codeLine="32" fill="#F1F1F1" height="66.6211" id="ReservationAttemptStatus" rx="2.5" ry="2.5" style="stroke:#181818;stroke-width:0.5;" width="194.6338" x="151" y="868"/><ellipse cx="166" cy="884" fill="#EB937F" rx="11" ry="11" style="stroke:#181818;stroke-width:1.0;"/><path d="M164.8594,884.7969 L164.8594,887.2969 L169.1875,887.2969 L169.1875,886.375 Q169.1875,885.7656 169.4219,885.5 Q169.6719,885.2344 170.0469,885.2344 Q170.4219,885.2344 170.6563,885.5 Q170.8906,885.7656 170.8906,886.375 L170.8906,889 L162.8906,889 Q162.2656,889 162,888.7656 Q161.75,888.5313 161.75,888.1406 Q161.75,887.7656 162.0156,887.5313 Q162.2813,887.2969 162.8906,887.2969 L163.1563,887.2969 L163.1563,880.6406 L162.8906,880.6406 Q162.2656,880.6406 162,880.4063 Q161.75,880.1719 161.75,879.7813 Q161.75,879.4063 162,879.1719 Q162.2656,878.9375 162.8906,878.9375 L170.5156,878.9375 L170.5156,881.5313 Q170.5156,882.1406 170.2813,882.4063 Q170.0625,882.6563 169.6719,882.6563 Q169.2969,882.6563 169.0625,882.4063 Q168.8281,882.1406 168.8281,881.5313 L168.8281,880.6406 L164.8594,880.6406 L164.8594,883.0938 L166.3438,883.0938 Q166.3438,882.4375 166.4688,882.25 Q166.7344,881.8438 167.2031,881.8438 Q167.5781,881.8438 167.8125,882.1094 Q168.0469,882.3594 168.0469,882.9688 L168.0469,884.9375 Q168.0469,885.4844 167.9219,885.6719 Q167.6563,886.0625 167.2031,886.0625 Q166.7344,886.0625 166.4688,885.6563 Q166.3438,885.4688 166.3438,884.7969 L164.8594,884.7969 Z " fill="#000000"/><text fill="#000000" font-family="sans-serif" font-size="14" lengthAdjust="spacing" textLength="162.6338" x="180" y="889.7969">ReservationAttemptStatus</text><line style="stroke:#181818;stroke-width:0.5;" x1="152" x2="344.6338" y1="900" y2="900"/><text fill="#000000" font-family="sans-serif" font-size="14" lengthAdjust="spacing" textLength="115.9648" x="157" y="919.1074">designation: String</text><line style="stroke:#181818;stroke-width:0.5;" x1="152" x2="344.6338" y1="926.6211" y2="926.6211"/></g><!--class ReservationAttemptMapper--><g id="elem_ReservationAttemptMapper"><rect codeLine="36" fill="#F1F1F1" height="85.2422" id="ReservationAttemptMapper" rx="2.5" ry="2.5" style="stroke:#181818;stroke-width:0.5;" width="384.2852" x="345.5" y="428"/><ellipse cx="448.186" cy="444" fill="#ADD1B2" rx="11" ry="11" style="stroke:#181818;stroke-width:1.0;"/><path d="M450.9517,439.875 Q451.1079,439.6563 451.2954,439.5469 Q451.4829,439.4375 451.7017,439.4375 Q452.0767,439.4375 452.311,439.7031 Q452.5454,439.9531 452.5454,440.5625 L452.5454,442.0156 Q452.5454,442.625 452.311,442.8906 Q452.0767,443.1563 451.7017,443.1563 Q451.3579,443.1563 451.1548,442.9531 Q450.9517,442.7656 450.8423,442.25 Q450.7954,441.8906 450.6079,441.7031 Q450.2798,441.3281 449.6704,441.1094 Q449.061,440.8906 448.436,440.8906 Q447.6704,440.8906 447.0298,441.2188 Q446.4048,441.5469 445.9048,442.2969 Q445.4204,443.0469 445.4204,444.0781 L445.4204,445.1719 Q445.4204,446.4063 446.311,447.2344 Q447.2017,448.0469 448.7954,448.0469 Q449.7329,448.0469 450.3892,447.7969 Q450.7798,447.6406 451.2017,447.2031 Q451.4673,446.9375 451.6079,446.8594 Q451.7642,446.7813 451.9673,446.7813 Q452.2954,446.7813 452.5454,447.0469 Q452.811,447.2969 452.811,447.6406 Q452.811,447.9844 452.4673,448.3906 Q451.9673,448.9688 451.1704,449.2969 Q450.0923,449.75 448.7954,449.75 Q447.2798,449.75 446.0767,449.125 Q445.0923,448.625 444.4048,447.5625 Q443.7173,446.4844 443.7173,445.2031 L443.7173,444.0469 Q443.7173,442.7188 444.3267,441.5781 Q444.9517,440.4219 446.0454,439.8125 Q447.1392,439.1875 448.3735,439.1875 Q449.1079,439.1875 449.7485,439.3594 Q450.4048,439.5156 450.9517,439.875 Z " fill="#000000"/><text fill="#000000" font-family="sans-serif" font-size="14" lengthAdjust="spacing" textLength="170.4131" x="468.686" y="449.7969">ReservationAttemptMapper</text><line style="stroke:#181818;stroke-width:0.5;" x1="346.5" x2="728.7852" y1="460" y2="460"/><line style="stroke:#181818;stroke-width:0.5;" x1="346.5" x2="728.7852" y1="468" y2="468"/><text fill="#000000" font-family="sans-serif" font-size="14" lengthAdjust="spacing" textLength="372.2852" x="351.5" y="487.1074">+toEntity(ReservationAttemptDTO reservationAttemptDTO))</text><text fill="#000000" font-family="sans-serif" font-size="14" lengthAdjust="spacing" textLength="307.7197" x="351.5" y="505.7285">+toDTO(ReservationAttempt reservationAttempt))</text></g><!--class ReservationAttemptDTO--><g id="elem_ReservationAttemptDTO"><rect codeLine="41" fill="#F1F1F1" height="196.9688" id="ReservationAttemptDTO" rx="2.5" ry="2.5" style="stroke:#181818;stroke-width:0.5;" width="224.4268" x="425.5" y="592"/><ellipse cx="458.4688" cy="608" fill="#ADD1B2" rx="11" ry="11" style="stroke:#181818;stroke-width:1.0;"/><path d="M461.2344,603.875 Q461.3907,603.6563 461.5782,603.5469 Q461.7657,603.4375 461.9844,603.4375 Q462.3594,603.4375 462.5938,603.7031 Q462.8282,603.9531 462.8282,604.5625 L462.8282,606.0156 Q462.8282,606.625 462.5938,606.8906 Q462.3594,607.1563 461.9844,607.1563 Q461.6407,607.1563 461.4375,606.9531 Q461.2344,606.7656 461.125,606.25 Q461.0782,605.8906 460.8907,605.7031 Q460.5625,605.3281 459.9532,605.1094 Q459.3438,604.8906 458.7188,604.8906 Q457.9532,604.8906 457.3125,605.2188 Q456.6875,605.5469 456.1875,606.2969 Q455.7032,607.0469 455.7032,608.0781 L455.7032,609.1719 Q455.7032,610.4063 456.5938,611.2344 Q457.4844,612.0469 459.0782,612.0469 Q460.0157,612.0469 460.6719,611.7969 Q461.0625,611.6406 461.4844,611.2031 Q461.75,610.9375 461.8907,610.8594 Q462.0469,610.7813 462.25,610.7813 Q462.5782,610.7813 462.8282,611.0469 Q463.0938,611.2969 463.0938,611.6406 Q463.0938,611.9844 462.75,612.3906 Q462.25,612.9688 461.4532,613.2969 Q460.375,613.75 459.0782,613.75 Q457.5625,613.75 456.3594,613.125 Q455.375,612.625 454.6875,611.5625 Q454,610.4844 454,609.2031 L454,608.0469 Q454,606.7188 454.6094,605.5781 Q455.2344,604.4219 456.3282,603.8125 Q457.4219,603.1875 458.6563,603.1875 Q459.3907,603.1875 460.0313,603.3594 Q460.6875,603.5156 461.2344,603.875 Z " fill="#000000"/><text fill="#000000" font-family="sans-serif" font-size="14" lengthAdjust="spacing" textLength="152.4961" x="476.4619" y="613.7969">ReservationAttemptDTO</text><line style="stroke:#181818;stroke-width:0.5;" x1="426.5" x2="648.9268" y1="624" y2="624"/><text fill="#000000" font-family="sans-serif" font-size="14" lengthAdjust="spacing" textLength="63.7998" x="431.5" y="643.1074">-id : String</text><text fill="#000000" font-family="sans-serif" font-size="14" lengthAdjust="spacing" textLength="82.4688" x="431.5" y="661.7285">-email: String</text><text fill="#000000" font-family="sans-serif" font-size="14" lengthAdjust="spacing" textLength="87.9443" x="431.5" y="680.3496">-phone: String</text><text fill="#000000" font-family="sans-serif" font-size="14" lengthAdjust="spacing" textLength="69.2617" x="431.5" y="698.9707">-date: Date</text><text fill="#000000" font-family="sans-serif" font-size="14" lengthAdjust="spacing" textLength="212.4268" x="431.5" y="717.5918">-status: ReservationAttemptStatus</text><text fill="#000000" font-family="sans-serif" font-size="14" lengthAdjust="spacing" textLength="80.917" x="431.5" y="736.2129">-client: Client</text><text fill="#000000" font-family="sans-serif" font-size="14" lengthAdjust="spacing" textLength="193.7441" x="431.5" y="754.834">-advertisement : Advertisement</text><line style="stroke:#181818;stroke-width:0.5;" x1="426.5" x2="648.9268" y1="762.3477" y2="762.3477"/><text fill="#000000" font-family="sans-serif" font-size="14" lengthAdjust="spacing" textLength="181.665" x="431.5" y="781.4551">+ReservationAttemptDTO(...)</text></g><!--class User--><g id="elem_User"><rect codeLine="52" fill="#F1F1F1" height="103.8633" id="User" rx="2.5" ry="2.5" style="stroke:#181818;stroke-width:0.5;" width="99.9443" x="46.5" y="7"/><ellipse cx="78.7736" cy="23" fill="#ADD1B2" rx="11" ry="11" style="stroke:#181818;stroke-width:1.0;"/><path d="M81.5392,18.875 Q81.6955,18.6563 81.883,18.5469 Q82.0705,18.4375 82.2892,18.4375 Q82.6642,18.4375 82.8986,18.7031 Q83.133,18.9531 83.133,19.5625 L83.133,21.0156 Q83.133,21.625 82.8986,21.8906 Q82.6642,22.1563 82.2892,22.1563 Q81.9455,22.1563 81.7423,21.9531 Q81.5392,21.7656 81.4298,21.25 Q81.383,20.8906 81.1955,20.7031 Q80.8673,20.3281 80.258,20.1094 Q79.6486,19.8906 79.0236,19.8906 Q78.258,19.8906 77.6173,20.2188 Q76.9923,20.5469 76.4923,21.2969 Q76.008,22.0469 76.008,23.0781 L76.008,24.1719 Q76.008,25.4063 76.8986,26.2344 Q77.7892,27.0469 79.383,27.0469 Q80.3205,27.0469 80.9767,26.7969 Q81.3673,26.6406 81.7892,26.2031 Q82.0548,25.9375 82.1955,25.8594 Q82.3517,25.7813 82.5548,25.7813 Q82.883,25.7813 83.133,26.0469 Q83.3986,26.2969 83.3986,26.6406 Q83.3986,26.9844 83.0548,27.3906 Q82.5548,27.9688 81.758,28.2969 Q80.6798,28.75 79.383,28.75 Q77.8673,28.75 76.6642,28.125 Q75.6798,27.625 74.9923,26.5625 Q74.3048,25.4844 74.3048,24.2031 L74.3048,23.0469 Q74.3048,21.7188 74.9142,20.5781 Q75.5392,19.4219 76.633,18.8125 Q77.7267,18.1875 78.9611,18.1875 Q79.6955,18.1875 80.3361,18.3594 Q80.9923,18.5156 81.5392,18.875 Z " fill="#000000"/><text fill="#000000" font-family="sans-serif" font-size="14" lengthAdjust="spacing" textLength="29.5586" x="96.6122" y="28.7969">User</text><line style="stroke:#181818;stroke-width:0.5;" x1="47.5" x2="145.4443" y1="39" y2="39"/><text fill="#000000" font-family="sans-serif" font-size="14" lengthAdjust="spacing" textLength="82.4688" x="52.5" y="58.1074">-email: String</text><text fill="#000000" font-family="sans-serif" font-size="14" lengthAdjust="spacing" textLength="87.9443" x="52.5" y="76.7285">-phone: String</text><text fill="#000000" font-family="sans-serif" font-size="14" lengthAdjust="spacing" textLength="72.3584" x="52.5" y="95.3496">-role: String</text><line style="stroke:#181818;stroke-width:0.5;" x1="47.5" x2="145.4443" y1="102.8633" y2="102.8633"/></g><!--link User to ReservationAttemptUI--><g id="link_User_ReservationAttemptUI"><path codeLine="59" d="M146.69,59 C179.88,59 218.22,59 256.8,59 " fill="none" id="User-to-ReservationAttemptUI" style="stroke:#181818;stroke-width:1.0;stroke-dasharray:7.0,7.0;"/><polygon fill="#181818" points="262.8,59,253.8,55,257.8,59,253.8,63,262.8,59" style="stroke:#181818;stroke-width:1.0;"/><text fill="#000000" font-family="sans-serif" font-size="13" lengthAdjust="spacing" textLength="80.9263" x="164.75" y="35.0283">asks to create</text><text fill="#000000" font-family="sans-serif" font-size="13" lengthAdjust="spacing" textLength="70.8208" x="169.8027" y="52.3193">new request</text></g><!--link ReservationAttemptUI to ReservationAttemptController--><g id="link_ReservationAttemptUI_ReservationAttemptController"><path codeLine="60" d="M347.5,83.22 C347.5,107.23 347.5,138.93 347.5,165.92 " fill="none" id="ReservationAttemptUI-to-ReservationAttemptController" style="stroke:#181818;stroke-width:1.0;stroke-dasharray:7.0,7.0;"/><polygon fill="#181818" points="347.5,171.92,351.5,162.92,347.5,166.92,343.5,162.92,347.5,171.92" style="stroke:#181818;stroke-width:1.0;"/></g><!--link ReservationAttemptController to ReservationAttemptService--><g id="link_ReservationAttemptController_ReservationAttemptService"><path codeLine="61" d="M347.5,239.28 C347.5,257.94 347.5,275.25 347.5,293.89 " fill="none" id="ReservationAttemptController-to-ReservationAttemptService" style="stroke:#181818;stroke-width:1.0;stroke-dasharray:7.0,7.0;"/><polygon fill="#181818" points="347.5,299.89,351.5,290.89,347.5,294.89,343.5,290.89,347.5,299.89" style="stroke:#181818;stroke-width:1.0;"/></g><!--link ReservationAttemptService to ReservationAttemptRepository--><g id="link_ReservationAttemptService_ReservationAttemptRepository"><path codeLine="62" d="M301.75,367.18 C272.14,388.33 238.6321,412.2621 209.0421,433.4021 " fill="none" id="ReservationAttemptService-to-ReservationAttemptRepository" style="stroke:#181818;stroke-width:1.0;stroke-dasharray:7.0,7.0;"/><polygon fill="#181818" points="204.16,436.89,213.8084,434.9129,208.2284,433.9834,209.1578,428.4034,204.16,436.89" style="stroke:#181818;stroke-width:1.0;"/></g><!--link ReservationAttemptService to ReservationAttemptMapper--><g id="link_ReservationAttemptService_ReservationAttemptMapper"><path codeLine="63" d="M393.49,367.18 C419.19,385.44 446.5887,404.905 474.0787,424.435 " fill="none" id="ReservationAttemptService-to-ReservationAttemptMapper" style="stroke:#181818;stroke-width:1.0;stroke-dasharray:7.0,7.0;"/><polygon fill="#181818" points="478.97,427.91,473.9497,419.4367,474.8939,425.0142,469.3164,425.9584,478.97,427.91" style="stroke:#181818;stroke-width:1.0;"/></g><!--link ReservationAttemptMapper to ReservationAttempt--><g id="link_ReservationAttemptMapper_ReservationAttempt"><path codeLine="64" d="M482.46,513.02 C446.02,540.5 401.8601,573.8169 358.1501,606.7869 " fill="none" id="ReservationAttemptMapper-to-ReservationAttempt" style="stroke:#181818;stroke-width:1.0;stroke-dasharray:7.0,7.0;"/><polygon fill="#181818" points="353.36,610.4,362.9539,608.1737,357.3518,607.3891,358.1364,601.7869,353.36,610.4" style="stroke:#181818;stroke-width:1.0;"/></g><!--link ReservationAttemptMapper to ReservationAttemptDTO--><g id="link_ReservationAttemptMapper_ReservationAttemptDTO"><path codeLine="65" d="M537.5,513.02 C537.5,535.38 537.5,557.98 537.5,585.63 " fill="none" id="ReservationAttemptMapper-to-ReservationAttemptDTO" style="stroke:#181818;stroke-width:1.0;stroke-dasharray:7.0,7.0;"/><polygon fill="#181818" points="537.5,591.63,541.5,582.63,537.5,586.63,533.5,582.63,537.5,591.63" style="stroke:#181818;stroke-width:1.0;"/></g><!--link ReservationAttemptRepository to ReservationAttempt--><g id="link_ReservationAttemptRepository_ReservationAttempt"><path codeLine="66" d="M171.97,504.14 C183.55,532.17 198.4208,568.1939 213.5608,604.8739 " fill="none" id="ReservationAttemptRepository-to-ReservationAttempt" style="stroke:#181818;stroke-width:1.0;"/><polygon fill="#181818" points="215.85,610.42,216.1136,600.5747,213.9423,605.7982,208.7188,603.627,215.85,610.42" style="stroke:#181818;stroke-width:1.0;"/><text fill="#000000" font-family="sans-serif" font-size="13" lengthAdjust="spacing" textLength="43.3608" x="196.5" y="558.0283">request</text><text fill="#000000" font-family="sans-serif" font-size="13" lengthAdjust="spacing" textLength="7.23" x="166.7306" y="525.7342">1</text><text fill="#000000" font-family="sans-serif" font-size="13" lengthAdjust="spacing" textLength="5.0591" x="207.5927" y="599.3084">*</text></g><!--link ReservationAttempt to ReservationAttemptStatus--><g id="link_ReservationAttempt_ReservationAttemptStatus"><path codeLine="67" d="M248.5,770.51 C248.5,804.27 248.5,835.8 248.5,861.82 " fill="none" id="ReservationAttempt-to-ReservationAttemptStatus" style="stroke:#181818;stroke-width:1.0;"/><polygon fill="#181818" points="248.5,867.82,252.5,858.82,248.5,862.82,244.5,858.82,248.5,867.82" style="stroke:#181818;stroke-width:1.0;"/><text fill="#000000" font-family="sans-serif" font-size="13" lengthAdjust="spacing" textLength="20.96" x="249.5" y="834.0283">has</text><text fill="#000000" font-family="sans-serif" font-size="13" lengthAdjust="spacing" textLength="5.0591" x="243.2694" y="792.1689">*</text><text fill="#000000" font-family="sans-serif" font-size="13" lengthAdjust="spacing" textLength="7.23" x="240.8696" y="856.6101">1</text></g><!--SRC=[pLGxRzim4DxvAmWjjLjOQ5OD0OAaGuQYWDriNQxIHIPCaIhlx40j-jzxebL5Y2aXsU91nZs-UtsyeuDnBGHeT0lb0MhSSMTH1omPN6rHqUX0UwZyat6rVWHBKuir3hbhKRVUThqmiPKMY6wOW_bvPBmllTkPtwW_AwMYIM-HC9o0ZNVYXatB3_VwZ_exRx_rZeEt5eFuQVbzqcL0ODpYhoCIhzPBw9t8fiGpD8aqZZ4yWlXSehVOUZBiGpVc9ZZXwj9JPlXI5QFF5ZO4t6XJwKBlP6Ak7ZILb5ZeE_aE2cBW8nMfzg9bS2kjGSU5let_WnAg4mOsX8te9DFDL1vwkeoxolCyre_ksCpc7Ngea4pjeddiP86Ihz2s4pBPVt5ik4iCzUxxjyHSHRjUZs2HNad7uZlfKyqpWWqO-qBNxht3zyTSFu__v9sRVQ1nsg_lH3OEfsH-q9lDHj9PA2KNz2LuwdKgXi-lqvjTQA032Kt3vlrm3f-4dBX_AWd9ax6Uhu1QF15fz705rFnzIEEUz__DqFChLxFFFurwgx-mhHRFLdQL2KlNElkOfOvGiS15n4JiLJP_0Wgz1_e7]--></g></svg>