<svg xmlns="http://www.w3.org/2000/svg" xmlns:xlink="http://www.w3.org/1999/xlink" contentStyleType="text/css" height="431px" preserveAspectRatio="none" style="width:406px;height:431px;background:#FFFFFF;" version="1.1" viewBox="0 0 406 431" width="406px" zoomAndPan="magnify"><title>System Sequence Diagram (SSD) - Create Advertisement</title><defs/><g><text fill="#000000" font-family="sans-serif" font-size="14" font-weight="bold" lengthAdjust="spacing" textLength="378.9092" x="10" y="30.1074">System Sequence Diagram (SSD) - Create Advertisement</text><rect fill="#FFFFFF" height="197.0371" style="stroke:#181818;stroke-width:1.0;" width="10" x="28.8345" y="133.2422"/><rect fill="#FFFFFF" height="31.291" style="stroke:#181818;stroke-width:1.0;" width="10" x="346.5713" y="156.5332"/><rect fill="#FFFFFF" height="48.582" style="stroke:#181818;stroke-width:1.0;" width="10" x="346.5713" y="219.1152"/><rect fill="#FFFFFF" height="31.291" style="stroke:#181818;stroke-width:1.0;" width="10" x="346.5713" y="298.9883"/><line style="stroke:#181818;stroke-width:0.5;stroke-dasharray:5.0,5.0;" x1="33.0552" x2="33.0552" y1="123.2422" y2="348.2793"/><line style="stroke:#181818;stroke-width:0.5;stroke-dasharray:5.0,5.0;" x1="351.2886" x2="351.2886" y1="123.2422" y2="348.2793"/><text fill="#000000" font-family="sans-serif" font-size="14" lengthAdjust="spacing" textLength="29.5586" x="16.0552" y="119.7285">User</text><ellipse cx="33.8345" cy="53.1211" fill="#E3E3E3" rx="8" ry="8" style="stroke:#181818;stroke-width:0.5;"/><path d="M33.8345,61.1211 L33.8345,88.1211 M20.8345,69.1211 L46.8345,69.1211 M33.8345,88.1211 L20.8345,103.1211 M33.8345,88.1211 L46.8345,103.1211 " fill="none" style="stroke:#181818;stroke-width:0.5;"/><text fill="#000000" font-family="sans-serif" font-size="14" lengthAdjust="spacing" textLength="29.5586" x="16.0552" y="362.3867">User</text><ellipse cx="33.8345" cy="374.4004" fill="#E3E3E3" rx="8" ry="8" style="stroke:#181818;stroke-width:0.5;"/><path d="M33.8345,382.4004 L33.8345,409.4004 M20.8345,390.4004 L46.8345,390.4004 M33.8345,409.4004 L20.8345,424.4004 M33.8345,409.4004 L46.8345,424.4004 " fill="none" style="stroke:#181818;stroke-width:0.5;"/><rect fill="#E3E3E3" height="32.6211" rx="2.5" ry="2.5" style="stroke:#181818;stroke-width:0.5;" width="64.5654" x="319.2886" y="89.6211"/><text fill="#000000" font-family="sans-serif" font-size="14" lengthAdjust="spacing" textLength="50.5654" x="326.2886" y="111.7285">:System</text><rect fill="#E3E3E3" height="32.6211" rx="2.5" ry="2.5" style="stroke:#181818;stroke-width:0.5;" width="64.5654" x="319.2886" y="347.2793"/><text fill="#000000" font-family="sans-serif" font-size="14" lengthAdjust="spacing" textLength="50.5654" x="326.2886" y="369.3867">:System</text><rect fill="#FFFFFF" height="197.0371" style="stroke:#181818;stroke-width:1.0;" width="10" x="28.8345" y="133.2422"/><rect fill="#FFFFFF" height="31.291" style="stroke:#181818;stroke-width:1.0;" width="10" x="346.5713" y="156.5332"/><rect fill="#FFFFFF" height="48.582" style="stroke:#181818;stroke-width:1.0;" width="10" x="346.5713" y="219.1152"/><rect fill="#FFFFFF" height="31.291" style="stroke:#181818;stroke-width:1.0;" width="10" x="346.5713" y="298.9883"/><polygon fill="#181818" points="334.5713,152.5332,344.5713,156.5332,334.5713,160.5332,338.5713,156.5332" style="stroke:#181818;stroke-width:1.0;"/><line style="stroke:#181818;stroke-width:1.0;" x1="38.8345" x2="340.5713" y1="156.5332" y2="156.5332"/><text fill="#000000" font-family="sans-serif" font-size="13" font-weight="bold" lengthAdjust="spacing" textLength="7.23" x="45.8345" y="151.2705">1</text><text fill="#000000" font-family="sans-serif" font-size="13" lengthAdjust="spacing" textLength="227.6206" x="57.0645" y="151.2705">requests to create a new advertisement</text><polygon fill="#181818" points="49.8345,183.8242,39.8345,187.8242,49.8345,191.8242,45.8345,187.8242" style="stroke:#181818;stroke-width:1.0;"/><line style="stroke:#181818;stroke-width:1.0;stroke-dasharray:2.0,2.0;" x1="43.8345" x2="350.5713" y1="187.8242" y2="187.8242"/><text fill="#000000" font-family="sans-serif" font-size="13" font-weight="bold" lengthAdjust="spacing" textLength="7.23" x="55.8345" y="182.5615">2</text><text fill="#000000" font-family="sans-serif" font-size="13" lengthAdjust="spacing" textLength="252.9097" x="67.0645" y="182.5615">shows categories list and asks to select one</text><polygon fill="#181818" points="334.5713,215.1152,344.5713,219.1152,334.5713,223.1152,338.5713,219.1152" style="stroke:#181818;stroke-width:1.0;"/><line style="stroke:#181818;stroke-width:1.0;" x1="38.8345" x2="340.5713" y1="219.1152" y2="219.1152"/><text fill="#000000" font-family="sans-serif" font-size="13" font-weight="bold" lengthAdjust="spacing" textLength="7.23" x="45.8345" y="213.8525">3</text><text fill="#000000" font-family="sans-serif" font-size="13" lengthAdjust="spacing" textLength="104.7744" x="57.0645" y="213.8525">selects a category</text><polygon fill="#181818" points="49.8345,263.6973,39.8345,267.6973,49.8345,271.6973,45.8345,267.6973" style="stroke:#181818;stroke-width:1.0;"/><line style="stroke:#181818;stroke-width:1.0;stroke-dasharray:2.0,2.0;" x1="43.8345" x2="350.5713" y1="267.6973" y2="267.6973"/><text fill="#000000" font-family="sans-serif" font-size="13" font-weight="bold" lengthAdjust="spacing" textLength="7.23" x="55.8345" y="253.7891">4</text><text fill="#000000" font-family="sans-serif" font-size="13" lengthAdjust="spacing" textLength="242.0869" x="67.0645" y="245.1436">requests advertisement data (designation,</text><text fill="#000000" font-family="sans-serif" font-size="13" lengthAdjust="spacing" textLength="182.0825" x="67.0645" y="262.4346">finalDate, address, item values)</text><polygon fill="#181818" points="334.5713,294.9883,344.5713,298.9883,334.5713,302.9883,338.5713,298.9883" style="stroke:#181818;stroke-width:1.0;"/><line style="stroke:#181818;stroke-width:1.0;" x1="38.8345" x2="340.5713" y1="298.9883" y2="298.9883"/><text fill="#000000" font-family="sans-serif" font-size="13" font-weight="bold" lengthAdjust="spacing" textLength="7.23" x="45.8345" y="293.7256">5</text><text fill="#000000" font-family="sans-serif" font-size="13" lengthAdjust="spacing" textLength="277.5068" x="57.0645" y="293.7256">types requested data and click on Submit button</text><polygon fill="#181818" points="44.8345,326.2793,34.8345,330.2793,44.8345,334.2793,40.8345,330.2793" style="stroke:#181818;stroke-width:1.0;"/><line style="stroke:#181818;stroke-width:1.0;stroke-dasharray:2.0,2.0;" x1="38.8345" x2="350.5713" y1="330.2793" y2="330.2793"/><text fill="#000000" font-family="sans-serif" font-size="13" font-weight="bold" lengthAdjust="spacing" textLength="7.23" x="50.8345" y="325.0166">6</text><text fill="#000000" font-family="sans-serif" font-size="13" lengthAdjust="spacing" textLength="155.3589" x="62.0645" y="325.0166">displays operation success</text><!--SRC=[dL9BRkCm3Dtx50zPjK1oWIm6A9eR6BFhXf5ObuWikIATmBSVsaw354Ld4Qu8w_7zO3r97gXIZxxa4ZvgwHbMHsxqzZ9GE577hKs9KJaOvIxT0_I3Ohb8xl1EIRbfJCoXxQJ6FLh-73a7na6ec-5FRNjunWwlbSaOB_7CrKIvvsnDGwELFFP7hhu7AnMRlyfr0rBCI-EQ9a46oeRDVXLPNjTrkPBppBp06_ZC6tP_lYpjFOQRKbDOGLXz439VGD_Su3etoYyDtCsLTEVyYyxU2oaNHV23hbHXHH8rK8vkyxHeAYSl4YNpZIhohoe_xA_dwfwl8jEZLcz5V0kEI4PuYgpIPJ8fUOkt_2wPqi6vjuwEbLMta9dlJCb9dX-AOjFW1LrjS5oLvwf2ad3oXj2EnruCnz7yptWqPnGT4asACd1T4a7743p3_rpVVPfv_W40]--></g></svg>