<svg xmlns="http://www.w3.org/2000/svg" xmlns:xlink="http://www.w3.org/1999/xlink" contentStyleType="text/css" height="493px" preserveAspectRatio="none" style="width:406px;height:493px;background:#FFFFFF;" version="1.1" viewBox="0 0 406 493" width="406px" zoomAndPan="magnify"><title>System Sequence Diagram (SSD) - Create Advertisement</title><defs/><g><text fill="#000000" font-family="sans-serif" font-size="14" font-weight="bold" lengthAdjust="spacing" textLength="378.9092" x="10" y="30.1074">System Sequence Diagram (SSD) - Create Advertisement</text><rect fill="#FFFFFF" height="259.6191" style="stroke:#181818;stroke-width:1.0;" width="10" x="28.8345" y="133.2422"/><rect fill="#FFFFFF" height="31.291" style="stroke:#181818;stroke-width:1.0;" width="10" x="346.5713" y="156.5332"/><rect fill="#FFFFFF" height="31.291" style="stroke:#181818;stroke-width:1.0;" width="10" x="346.5713" y="219.1152"/><rect fill="#FFFFFF" height="48.582" style="stroke:#181818;stroke-width:1.0;" width="10" x="346.5713" y="281.6973"/><rect fill="#FFFFFF" height="31.291" style="stroke:#181818;stroke-width:1.0;" width="10" x="346.5713" y="361.5703"/><line style="stroke:#181818;stroke-width:0.5;stroke-dasharray:5.0,5.0;" x1="33.0552" x2="33.0552" y1="123.2422" y2="410.8613"/><line style="stroke:#181818;stroke-width:0.5;stroke-dasharray:5.0,5.0;" x1="351.2886" x2="351.2886" y1="123.2422" y2="410.8613"/><text fill="#000000" font-family="sans-serif" font-size="14" lengthAdjust="spacing" textLength="29.5586" x="16.0552" y="119.7285">User</text><ellipse cx="33.8345" cy="53.1211" fill="#E3E3E3" rx="8" ry="8" style="stroke:#181818;stroke-width:0.5;"/><path d="M33.8345,61.1211 L33.8345,88.1211 M20.8345,69.1211 L46.8345,69.1211 M33.8345,88.1211 L20.8345,103.1211 M33.8345,88.1211 L46.8345,103.1211 " fill="none" style="stroke:#181818;stroke-width:0.5;"/><text fill="#000000" font-family="sans-serif" font-size="14" lengthAdjust="spacing" textLength="29.5586" x="16.0552" y="424.9688">User</text><ellipse cx="33.8345" cy="436.9824" fill="#E3E3E3" rx="8" ry="8" style="stroke:#181818;stroke-width:0.5;"/><path d="M33.8345,444.9824 L33.8345,471.9824 M20.8345,452.9824 L46.8345,452.9824 M33.8345,471.9824 L20.8345,486.9824 M33.8345,471.9824 L46.8345,486.9824 " fill="none" style="stroke:#181818;stroke-width:0.5;"/><rect fill="#E3E3E3" height="32.6211" rx="2.5" ry="2.5" style="stroke:#181818;stroke-width:0.5;" width="64.5654" x="319.2886" y="89.6211"/><text fill="#000000" font-family="sans-serif" font-size="14" lengthAdjust="spacing" textLength="50.5654" x="326.2886" y="111.7285">:System</text><rect fill="#E3E3E3" height="32.6211" rx="2.5" ry="2.5" style="stroke:#181818;stroke-width:0.5;" width="64.5654" x="319.2886" y="409.8613"/><text fill="#000000" font-family="sans-serif" font-size="14" lengthAdjust="spacing" textLength="50.5654" x="326.2886" y="431.9688">:System</text><rect fill="#FFFFFF" height="259.6191" style="stroke:#181818;stroke-width:1.0;" width="10" x="28.8345" y="133.2422"/><rect fill="#FFFFFF" height="31.291" style="stroke:#181818;stroke-width:1.0;" width="10" x="346.5713" y="156.5332"/><rect fill="#FFFFFF" height="31.291" style="stroke:#181818;stroke-width:1.0;" width="10" x="346.5713" y="219.1152"/><rect fill="#FFFFFF" height="48.582" style="stroke:#181818;stroke-width:1.0;" width="10" x="346.5713" y="281.6973"/><rect fill="#FFFFFF" height="31.291" style="stroke:#181818;stroke-width:1.0;" width="10" x="346.5713" y="361.5703"/><polygon fill="#181818" points="334.5713,152.5332,344.5713,156.5332,334.5713,160.5332,338.5713,156.5332" style="stroke:#181818;stroke-width:1.0;"/><line style="stroke:#181818;stroke-width:1.0;" x1="38.8345" x2="340.5713" y1="156.5332" y2="156.5332"/><text fill="#000000" font-family="sans-serif" font-size="13" font-weight="bold" lengthAdjust="spacing" textLength="7.23" x="45.8345" y="151.2705">1</text><text fill="#000000" font-family="sans-serif" font-size="13" lengthAdjust="spacing" textLength="227.6206" x="57.0645" y="151.2705">requests to create a new advertisement</text><polygon fill="#181818" points="49.8345,183.8242,39.8345,187.8242,49.8345,191.8242,45.8345,187.8242" style="stroke:#181818;stroke-width:1.0;"/><line style="stroke:#181818;stroke-width:1.0;stroke-dasharray:2.0,2.0;" x1="43.8345" x2="350.5713" y1="187.8242" y2="187.8242"/><text fill="#000000" font-family="sans-serif" font-size="13" font-weight="bold" lengthAdjust="spacing" textLength="7.23" x="55.8345" y="182.5615">2</text><text fill="#000000" font-family="sans-serif" font-size="13" lengthAdjust="spacing" textLength="252.9097" x="67.0645" y="182.5615">shows categories list and asks to select one</text><polygon fill="#181818" points="334.5713,215.1152,344.5713,219.1152,334.5713,223.1152,338.5713,219.1152" style="stroke:#181818;stroke-width:1.0;"/><line style="stroke:#181818;stroke-width:1.0;" x1="38.8345" x2="340.5713" y1="219.1152" y2="219.1152"/><text fill="#000000" font-family="sans-serif" font-size="13" font-weight="bold" lengthAdjust="spacing" textLength="7.23" x="45.8345" y="213.8525">3</text><text fill="#000000" font-family="sans-serif" font-size="13" lengthAdjust="spacing" textLength="104.7744" x="57.0645" y="213.8525">selects a category</text><polygon fill="#181818" points="49.8345,246.4063,39.8345,250.4063,49.8345,254.4063,45.8345,250.4063" style="stroke:#181818;stroke-width:1.0;"/><line style="stroke:#181818;stroke-width:1.0;stroke-dasharray:2.0,2.0;" x1="43.8345" x2="350.5713" y1="250.4063" y2="250.4063"/><text fill="#000000" font-family="sans-serif" font-size="13" font-weight="bold" lengthAdjust="spacing" textLength="7.23" x="55.8345" y="245.1436">4</text><text fill="#000000" font-family="sans-serif" font-size="13" lengthAdjust="spacing" textLength="270.9624" x="67.0645" y="245.1436">shows municipalities list and asks to select one</text><polygon fill="#181818" points="334.5713,277.6973,344.5713,281.6973,334.5713,285.6973,338.5713,281.6973" style="stroke:#181818;stroke-width:1.0;"/><line style="stroke:#181818;stroke-width:1.0;" x1="38.8345" x2="340.5713" y1="281.6973" y2="281.6973"/><text fill="#000000" font-family="sans-serif" font-size="13" font-weight="bold" lengthAdjust="spacing" textLength="7.23" x="45.8345" y="276.4346">5</text><text fill="#000000" font-family="sans-serif" font-size="13" lengthAdjust="spacing" textLength="122.8271" x="57.0645" y="276.4346">selects a municipality</text><polygon fill="#181818" points="49.8345,326.2793,39.8345,330.2793,49.8345,334.2793,45.8345,330.2793" style="stroke:#181818;stroke-width:1.0;"/><line style="stroke:#181818;stroke-width:1.0;stroke-dasharray:2.0,2.0;" x1="43.8345" x2="350.5713" y1="330.2793" y2="330.2793"/><text fill="#000000" font-family="sans-serif" font-size="13" font-weight="bold" lengthAdjust="spacing" textLength="7.23" x="55.8345" y="316.3711">6</text><text fill="#000000" font-family="sans-serif" font-size="13" lengthAdjust="spacing" textLength="242.0869" x="67.0645" y="307.7256">requests advertisement data (designation,</text><text fill="#000000" font-family="sans-serif" font-size="13" lengthAdjust="spacing" textLength="182.0825" x="67.0645" y="325.0166">finalDate, address, item values)</text><polygon fill="#181818" points="334.5713,357.5703,344.5713,361.5703,334.5713,365.5703,338.5713,361.5703" style="stroke:#181818;stroke-width:1.0;"/><line style="stroke:#181818;stroke-width:1.0;" x1="38.8345" x2="340.5713" y1="361.5703" y2="361.5703"/><text fill="#000000" font-family="sans-serif" font-size="13" font-weight="bold" lengthAdjust="spacing" textLength="7.23" x="45.8345" y="356.3076">7</text><text fill="#000000" font-family="sans-serif" font-size="13" lengthAdjust="spacing" textLength="277.5068" x="57.0645" y="356.3076">types requested data and click on Submit button</text><polygon fill="#181818" points="44.8345,388.8613,34.8345,392.8613,44.8345,396.8613,40.8345,392.8613" style="stroke:#181818;stroke-width:1.0;"/><line style="stroke:#181818;stroke-width:1.0;stroke-dasharray:2.0,2.0;" x1="38.8345" x2="350.5713" y1="392.8613" y2="392.8613"/><text fill="#000000" font-family="sans-serif" font-size="13" font-weight="bold" lengthAdjust="spacing" textLength="7.23" x="50.8345" y="387.5986">8</text><text fill="#000000" font-family="sans-serif" font-size="13" lengthAdjust="spacing" textLength="155.3589" x="62.0645" y="387.5986">displays operation success</text><!--SRC=[jPB1Rjim38RlVeeVERL0yW8v32YQDp1ssuMHM9U8B7aYdS1lFzfEWXH3Dw33U28ayly_KjAJv84gzUXBBk6zbfvXTUH6xpS3XHDrtDgK69M3KUxIOu6-KomNoHtUA2atZObvQJkfSO-MVuwS0-CWrCtbJsrxUCOEhvN962_npDL4kUTiJKEZbJpsHwwU1oiLc-_ATGDIp4dZdYP11ig6pNurMMxNTEcIywoyb3Vmc3FiljsGzZw6Gwafh22i78JC5z076bpZBddpm4DSHNUkl_ZiVI7beWZUq9Kgh4YY1ihHCK-BftBoHQ9alaj5_jJbD_orNPtvQZBz6se_vcMbIUp_uZuOVOvyE_yB-lqDFxmP8XdXAR9Abycav2r-v3V9b0xkiVNgM5br2vdrpfHSvFbBOzaq-BAk61nNvtbj8Kau-RRGZiTU3CVH_5D_zOcYw91eKfI1wp8HT0p1P_WJzSFHhFCB]--></g></svg>