<svg xmlns="http://www.w3.org/2000/svg" xmlns:xlink="http://www.w3.org/1999/xlink" contentStyleType="text/css" height="586.8px" preserveAspectRatio="none" style="width:375px;height:586px;background:#FFFFFF;" version="1.1" viewBox="0 0 375 586" width="375.6px" zoomAndPan="magnify"><defs/><g><!--class AdvertisementUI--><g id="elem_AdvertisementUI"><rect codeLine="7" fill="#F1F1F1" height="28.8" id="AdvertisementUI" rx="1.5" ry="1.5" style="stroke:#181818;stroke-width:0.3;" width="81.2895" x="18.3" y="91.8"/><ellipse cx="27.3" cy="101.4" fill="#ADD1B2" rx="6.6" ry="6.6" style="stroke:#181818;stroke-width:0.6;"/><path d="M28.9594,98.925 Q29.0531,98.7938 29.1656,98.7281 Q29.2781,98.6625 29.4094,98.6625 Q29.6344,98.6625 29.775,98.8219 Q29.9156,98.9719 29.9156,99.3375 L29.9156,100.2094 Q29.9156,100.575 29.775,100.7344 Q29.6344,100.8938 29.4094,100.8938 Q29.2031,100.8938 29.0812,100.7719 Q28.9594,100.6594 28.8937,100.35 Q28.8656,100.1344 28.7531,100.0219 Q28.5563,99.7969 28.1906,99.6656 Q27.825,99.5344 27.45,99.5344 Q26.9906,99.5344 26.6063,99.7313 Q26.2313,99.9281 25.9313,100.3781 Q25.6406,100.8281 25.6406,101.4469 L25.6406,102.1031 Q25.6406,102.8438 26.175,103.3406 Q26.7094,103.8281 27.6656,103.8281 Q28.2281,103.8281 28.6219,103.6781 Q28.8563,103.5844 29.1094,103.3219 Q29.2687,103.1625 29.3531,103.1156 Q29.4469,103.0688 29.5687,103.0688 Q29.7656,103.0688 29.9156,103.2281 Q30.075,103.3781 30.075,103.5844 Q30.075,103.7906 29.8688,104.0344 Q29.5687,104.3813 29.0906,104.5781 Q28.4437,104.85 27.6656,104.85 Q26.7562,104.85 26.0344,104.475 Q25.4437,104.175 25.0313,103.5375 Q24.6188,102.8906 24.6188,102.1219 L24.6188,101.4281 Q24.6188,100.6313 24.9844,99.9469 Q25.3594,99.2531 26.0156,98.8875 Q26.6719,98.5125 27.4125,98.5125 Q27.8531,98.5125 28.2375,98.6156 Q28.6312,98.7094 28.9594,98.925 Z " fill="#000000"/><text fill="#000000" font-family="sans-serif" font-size="8.4" lengthAdjust="spacing" textLength="62.0895" x="35.7" y="104.8781">AdvertisementUI</text><line style="stroke:#181818;stroke-width:0.3;" x1="18.9" x2="98.9895" y1="111" y2="111"/><line style="stroke:#181818;stroke-width:0.3;" x1="18.9" x2="98.9895" y1="115.8" y2="115.8"/></g><!--class AdvertisementController--><g id="elem_AdvertisementController"><rect codeLine="10" fill="#F1F1F1" height="39.9727" id="AdvertisementController" rx="1.5" ry="1.5" style="stroke:#181818;stroke-width:0.3;" width="109.3031" x="4.2" y="157.2"/><ellipse cx="13.2" cy="166.8" fill="#ADD1B2" rx="6.6" ry="6.6" style="stroke:#181818;stroke-width:0.6;"/><path d="M14.8594,164.325 Q14.9531,164.1938 15.0656,164.1281 Q15.1781,164.0625 15.3094,164.0625 Q15.5344,164.0625 15.675,164.2219 Q15.8156,164.3719 15.8156,164.7375 L15.8156,165.6094 Q15.8156,165.975 15.675,166.1344 Q15.5344,166.2938 15.3094,166.2938 Q15.1031,166.2938 14.9813,166.1719 Q14.8594,166.0594 14.7938,165.75 Q14.7656,165.5344 14.6531,165.4219 Q14.4562,165.1969 14.0906,165.0656 Q13.725,164.9344 13.35,164.9344 Q12.8906,164.9344 12.5063,165.1313 Q12.1313,165.3281 11.8312,165.7781 Q11.5406,166.2281 11.5406,166.8469 L11.5406,167.5031 Q11.5406,168.2438 12.075,168.7406 Q12.6094,169.2281 13.5656,169.2281 Q14.1281,169.2281 14.5219,169.0781 Q14.7563,168.9844 15.0094,168.7219 Q15.1688,168.5625 15.2531,168.5156 Q15.3469,168.4688 15.4688,168.4688 Q15.6656,168.4688 15.8156,168.6281 Q15.975,168.7781 15.975,168.9844 Q15.975,169.1906 15.7687,169.4344 Q15.4688,169.7813 14.9906,169.9781 Q14.3438,170.25 13.5656,170.25 Q12.6563,170.25 11.9344,169.875 Q11.3438,169.575 10.9313,168.9375 Q10.5187,168.2906 10.5187,167.5219 L10.5187,166.8281 Q10.5187,166.0313 10.8844,165.3469 Q11.2594,164.6531 11.9156,164.2875 Q12.5719,163.9125 13.3125,163.9125 Q13.7531,163.9125 14.1375,164.0156 Q14.5313,164.1094 14.8594,164.325 Z " fill="#000000"/><text fill="#000000" font-family="sans-serif" font-size="8.4" lengthAdjust="spacing" textLength="90.1031" x="21.6" y="170.2781">AdvertisementController</text><line style="stroke:#181818;stroke-width:0.3;" x1="4.8" x2="112.9031" y1="176.4" y2="176.4"/><line style="stroke:#181818;stroke-width:0.3;" x1="4.8" x2="112.9031" y1="181.2" y2="181.2"/><text fill="#000000" font-family="sans-serif" font-size="8.4" lengthAdjust="spacing" textLength="80.0666" x="7.8" y="192.6645">+getAdvertisements()</text></g><!--class AdvertisementService--><g id="elem_AdvertisementService"><rect codeLine="14" fill="#F1F1F1" height="39.9727" id="AdvertisementService" rx="1.5" ry="1.5" style="stroke:#181818;stroke-width:0.3;" width="100.899" x="134.4" y="157.2"/><ellipse cx="143.4" cy="166.8" fill="#ADD1B2" rx="6.6" ry="6.6" style="stroke:#181818;stroke-width:0.6;"/><path d="M145.0594,164.325 Q145.1531,164.1938 145.2656,164.1281 Q145.3781,164.0625 145.5094,164.0625 Q145.7344,164.0625 145.875,164.2219 Q146.0156,164.3719 146.0156,164.7375 L146.0156,165.6094 Q146.0156,165.975 145.875,166.1344 Q145.7344,166.2938 145.5094,166.2938 Q145.3031,166.2938 145.1813,166.1719 Q145.0594,166.0594 144.9938,165.75 Q144.9656,165.5344 144.8531,165.4219 Q144.6563,165.1969 144.2906,165.0656 Q143.925,164.9344 143.55,164.9344 Q143.0906,164.9344 142.7062,165.1313 Q142.3312,165.3281 142.0313,165.7781 Q141.7406,166.2281 141.7406,166.8469 L141.7406,167.5031 Q141.7406,168.2438 142.275,168.7406 Q142.8094,169.2281 143.7656,169.2281 Q144.3281,169.2281 144.7219,169.0781 Q144.9562,168.9844 145.2094,168.7219 Q145.3688,168.5625 145.4531,168.5156 Q145.5469,168.4688 145.6688,168.4688 Q145.8656,168.4688 146.0156,168.6281 Q146.175,168.7781 146.175,168.9844 Q146.175,169.1906 145.9688,169.4344 Q145.6688,169.7813 145.1906,169.9781 Q144.5438,170.25 143.7656,170.25 Q142.8563,170.25 142.1344,169.875 Q141.5438,169.575 141.1313,168.9375 Q140.7188,168.2906 140.7188,167.5219 L140.7188,166.8281 Q140.7188,166.0313 141.0844,165.3469 Q141.4594,164.6531 142.1156,164.2875 Q142.7719,163.9125 143.5125,163.9125 Q143.9531,163.9125 144.3375,164.0156 Q144.7313,164.1094 145.0594,164.325 Z " fill="#000000"/><text fill="#000000" font-family="sans-serif" font-size="8.4" lengthAdjust="spacing" textLength="81.699" x="151.8" y="170.2781">AdvertisementService</text><line style="stroke:#181818;stroke-width:0.3;" x1="135" x2="234.699" y1="176.4" y2="176.4"/><line style="stroke:#181818;stroke-width:0.3;" x1="135" x2="234.699" y1="181.2" y2="181.2"/><text fill="#000000" font-family="sans-serif" font-size="8.4" lengthAdjust="spacing" textLength="80.0666" x="138" y="192.6645">+getAdvertisements()</text></g><!--class AdvertisementRepository--><g id="elem_AdvertisementRepository"><rect codeLine="18" fill="#F1F1F1" height="39.9727" id="AdvertisementRepository" rx="1.5" ry="1.5" style="stroke:#181818;stroke-width:0.3;" width="113.0396" x="180" y="239.4"/><ellipse cx="189" cy="249" fill="#B4A7E5" rx="6.6" ry="6.6" style="stroke:#181818;stroke-width:0.6;"/><path d="M189.5719,246.9844 L189.5719,250.9781 L190.6031,250.9781 Q190.9688,250.9781 191.1281,251.1187 Q191.2875,251.2594 191.2875,251.4937 Q191.2875,251.7188 191.1281,251.8594 Q190.9688,252 190.6031,252 L187.5187,252 Q187.1531,252 186.9938,251.8594 Q186.8344,251.7188 186.8344,251.4844 Q186.8344,251.2594 186.9938,251.1187 Q187.1531,250.9781 187.5187,250.9781 L188.55,250.9781 L188.55,246.9844 L187.5187,246.9844 Q187.1531,246.9844 186.9938,246.8438 Q186.8344,246.7031 186.8344,246.4688 Q186.8344,246.2437 186.9938,246.1031 Q187.1531,245.9625 187.5187,245.9625 L190.6031,245.9625 Q190.9688,245.9625 191.1281,246.1031 Q191.2875,246.2437 191.2875,246.4688 Q191.2875,246.7031 191.1281,246.8438 Q190.9688,246.9844 190.6031,246.9844 L189.5719,246.9844 Z " fill="#000000"/><text fill="#000000" font-family="sans-serif" font-size="8.4" font-style="italic" lengthAdjust="spacing" textLength="93.8396" x="197.4" y="252.4781">AdvertisementRepository</text><line style="stroke:#181818;stroke-width:0.3;" x1="180.6" x2="292.4396" y1="258.6" y2="258.6"/><line style="stroke:#181818;stroke-width:0.3;" x1="180.6" x2="292.4396" y1="263.4" y2="263.4"/><text fill="#000000" font-family="sans-serif" font-size="8.4" lengthAdjust="spacing" textLength="33.3785" x="183.6" y="274.8645">+findAll()</text></g><!--class User--><g id="elem_User"><rect codeLine="22" fill="#F1F1F1" height="39.9727" id="User" rx="1.5" ry="1.5" style="stroke:#181818;stroke-width:0.3;" width="61.8246" x="27.9" y="4.2"/><ellipse cx="48.1003" cy="13.8" fill="#ADD1B2" rx="6.6" ry="6.6" style="stroke:#181818;stroke-width:0.6;"/><path d="M49.7596,11.325 Q49.8534,11.1938 49.9659,11.1281 Q50.0784,11.0625 50.2096,11.0625 Q50.4346,11.0625 50.5753,11.2219 Q50.7159,11.3719 50.7159,11.7375 L50.7159,12.6094 Q50.7159,12.975 50.5753,13.1344 Q50.4346,13.2938 50.2096,13.2938 Q50.0034,13.2938 49.8815,13.1719 Q49.7596,13.0594 49.694,12.75 Q49.6659,12.5344 49.5534,12.4219 Q49.3565,12.1969 48.9909,12.0656 Q48.6253,11.9344 48.2503,11.9344 Q47.7909,11.9344 47.4065,12.1313 Q47.0315,12.3281 46.7315,12.7781 Q46.4409,13.2281 46.4409,13.8469 L46.4409,14.5031 Q46.4409,15.2437 46.9753,15.7406 Q47.5096,16.2281 48.4659,16.2281 Q49.0284,16.2281 49.4221,16.0781 Q49.6565,15.9844 49.9096,15.7219 Q50.069,15.5625 50.1534,15.5156 Q50.2471,15.4688 50.369,15.4688 Q50.5659,15.4688 50.7159,15.6281 Q50.8753,15.7781 50.8753,15.9844 Q50.8753,16.1906 50.669,16.4344 Q50.369,16.7813 49.8909,16.9781 Q49.244,17.25 48.4659,17.25 Q47.5565,17.25 46.8346,16.875 Q46.244,16.575 45.8315,15.9375 Q45.419,15.2906 45.419,14.5219 L45.419,13.8281 Q45.419,13.0313 45.7846,12.3469 Q46.1596,11.6531 46.8159,11.2875 Q47.4721,10.9125 48.2128,10.9125 Q48.6534,10.9125 49.0378,11.0156 Q49.4315,11.1094 49.7596,11.325 Z " fill="#000000"/><text fill="#000000" font-family="sans-serif" font-size="8.4" lengthAdjust="spacing" textLength="17.7352" x="58.9892" y="17.2781">User</text><line style="stroke:#181818;stroke-width:0.3;" x1="28.5" x2="89.1246" y1="23.4" y2="23.4"/><text fill="#000000" font-family="sans-serif" font-size="8.4" lengthAdjust="spacing" textLength="54.6246" x="31.5" y="34.8645">-role: manager</text><line style="stroke:#181818;stroke-width:0.3;" x1="28.5" x2="89.1246" y1="39.3727" y2="39.3727"/></g><!--class Item--><g id="elem_Item"><rect codeLine="26" fill="#F1F1F1" height="107.0086" id="Item" rx="1.5" ry="1.5" style="stroke:#181818;stroke-width:0.3;" width="79.5762" x="291.9" y="475.8"/><ellipse cx="320.9698" cy="485.4" fill="#ADD1B2" rx="6.6" ry="6.6" style="stroke:#181818;stroke-width:0.6;"/><path d="M322.6292,482.925 Q322.7229,482.7938 322.8354,482.7281 Q322.9479,482.6625 323.0792,482.6625 Q323.3042,482.6625 323.4448,482.8219 Q323.5854,482.9719 323.5854,483.3375 L323.5854,484.2094 Q323.5854,484.575 323.4448,484.7344 Q323.3042,484.8937 323.0792,484.8937 Q322.8729,484.8937 322.7511,484.7719 Q322.6292,484.6594 322.5636,484.35 Q322.5354,484.1344 322.4229,484.0219 Q322.2261,483.7969 321.8604,483.6656 Q321.4948,483.5344 321.1198,483.5344 Q320.6604,483.5344 320.2761,483.7313 Q319.9011,483.9281 319.6011,484.3781 Q319.3104,484.8281 319.3104,485.4469 L319.3104,486.1031 Q319.3104,486.8438 319.8448,487.3406 Q320.3792,487.8281 321.3354,487.8281 Q321.8979,487.8281 322.2917,487.6781 Q322.5261,487.5844 322.7792,487.3219 Q322.9386,487.1625 323.0229,487.1156 Q323.1167,487.0687 323.2386,487.0687 Q323.4354,487.0687 323.5854,487.2281 Q323.7448,487.3781 323.7448,487.5844 Q323.7448,487.7906 323.5386,488.0344 Q323.2386,488.3812 322.7604,488.5781 Q322.1136,488.85 321.3354,488.85 Q320.4261,488.85 319.7042,488.475 Q319.1136,488.175 318.7011,487.5375 Q318.2886,486.8906 318.2886,486.1219 L318.2886,485.4281 Q318.2886,484.6312 318.6542,483.9469 Q319.0292,483.2531 319.6854,482.8875 Q320.3417,482.5125 321.0823,482.5125 Q321.5229,482.5125 321.9073,482.6156 Q322.3011,482.7094 322.6292,482.925 Z " fill="#000000"/><text fill="#000000" font-family="sans-serif" font-size="8.4" lengthAdjust="spacing" textLength="16.3365" x="333.2698" y="488.8781">Item</text><line style="stroke:#181818;stroke-width:0.3;" x1="292.5" x2="370.8762" y1="495" y2="495"/><text fill="#000000" font-family="sans-serif" font-size="8.4" lengthAdjust="spacing" textLength="35.9461" x="295.5" y="506.4645">-id: String</text><text fill="#000000" font-family="sans-serif" font-size="8.4" lengthAdjust="spacing" textLength="72.3762" x="295.5" y="517.6371">-designation: String</text><text fill="#000000" font-family="sans-serif" font-size="8.4" lengthAdjust="spacing" textLength="63.0328" x="295.5" y="528.8098">-condition: String</text><text fill="#000000" font-family="sans-serif" font-size="8.4" lengthAdjust="spacing" textLength="62.0936" x="295.5" y="539.9824">-initialDate: Date</text><text fill="#000000" font-family="sans-serif" font-size="8.4" lengthAdjust="spacing" textLength="58.3611" x="295.5" y="551.1551">-finalDate: Date</text><text fill="#000000" font-family="sans-serif" font-size="8.4" lengthAdjust="spacing" textLength="59.2922" x="295.5" y="562.3277">-address: String</text><line style="stroke:#181818;stroke-width:0.3;" x1="292.5" x2="370.8762" y1="566.8359" y2="566.8359"/><text fill="#000000" font-family="sans-serif" font-size="8.4" lengthAdjust="spacing" textLength="33.8379" x="295.5" y="578.3004">+Item(...)</text></g><!--class Advertisement--><g id="elem_Advertisement"><rect codeLine="36" fill="#F1F1F1" height="95.8359" id="Advertisement" rx="1.5" ry="1.5" style="stroke:#181818;stroke-width:0.3;" width="79.5762" x="186.9" y="332.4"/><ellipse cx="198.909" cy="342" fill="#ADD1B2" rx="6.6" ry="6.6" style="stroke:#181818;stroke-width:0.6;"/><path d="M200.5684,339.525 Q200.6621,339.3938 200.7746,339.3281 Q200.8871,339.2625 201.0184,339.2625 Q201.2434,339.2625 201.384,339.4219 Q201.5246,339.5719 201.5246,339.9375 L201.5246,340.8094 Q201.5246,341.175 201.384,341.3344 Q201.2434,341.4938 201.0184,341.4938 Q200.8121,341.4938 200.6903,341.3719 Q200.5684,341.2594 200.5028,340.95 Q200.4746,340.7344 200.3621,340.6219 Q200.1653,340.3969 199.7996,340.2656 Q199.434,340.1344 199.059,340.1344 Q198.5996,340.1344 198.2153,340.3313 Q197.8403,340.5281 197.5403,340.9781 Q197.2496,341.4281 197.2496,342.0469 L197.2496,342.7031 Q197.2496,343.4437 197.784,343.9406 Q198.3184,344.4281 199.2746,344.4281 Q199.8371,344.4281 200.2309,344.2781 Q200.4653,344.1844 200.7184,343.9219 Q200.8778,343.7625 200.9621,343.7156 Q201.0559,343.6688 201.1778,343.6688 Q201.3746,343.6688 201.5246,343.8281 Q201.684,343.9781 201.684,344.1844 Q201.684,344.3906 201.4778,344.6344 Q201.1778,344.9813 200.6996,345.1781 Q200.0528,345.45 199.2746,345.45 Q198.3653,345.45 197.6434,345.075 Q197.0528,344.775 196.6403,344.1375 Q196.2278,343.4906 196.2278,342.7219 L196.2278,342.0281 Q196.2278,341.2313 196.5934,340.5469 Q196.9684,339.8531 197.6246,339.4875 Q198.2809,339.1125 199.0215,339.1125 Q199.4621,339.1125 199.8465,339.2156 Q200.2403,339.3094 200.5684,339.525 Z " fill="#000000"/><text fill="#000000" font-family="sans-serif" font-size="8.4" lengthAdjust="spacing" textLength="53.6895" x="207.9777" y="345.4781">Advertisement</text><line style="stroke:#181818;stroke-width:0.3;" x1="187.5" x2="265.8762" y1="351.6" y2="351.6"/><text fill="#000000" font-family="sans-serif" font-size="8.4" lengthAdjust="spacing" textLength="38.2799" x="190.5" y="363.0645">-id : String</text><text fill="#000000" font-family="sans-serif" font-size="8.4" lengthAdjust="spacing" textLength="72.3762" x="190.5" y="374.2371">-designation: String</text><text fill="#000000" font-family="sans-serif" font-size="8.4" lengthAdjust="spacing" textLength="62.0936" x="190.5" y="385.4098">-initialDate: Date</text><text fill="#000000" font-family="sans-serif" font-size="8.4" lengthAdjust="spacing" textLength="58.3611" x="190.5" y="396.5824">-finalDate: Date</text><text fill="#000000" font-family="sans-serif" font-size="8.4" lengthAdjust="spacing" textLength="59.2922" x="190.5" y="407.7551">-address: String</text><line style="stroke:#181818;stroke-width:0.3;" x1="187.5" x2="265.8762" y1="412.2633" y2="412.2633"/><text fill="#000000" font-family="sans-serif" font-size="8.4" lengthAdjust="spacing" textLength="71.1908" x="190.5" y="423.7277">+Advertisement(...)</text></g><!--class AdvertisementStatus--><g id="elem_AdvertisementStatus"><rect codeLine="45" fill="#F1F1F1" height="39.9727" id="AdvertisementStatus" rx="1.5" ry="1.5" style="stroke:#181818;stroke-width:0.3;" width="96.7031" x="174.3" y="509.1"/><ellipse cx="183.3" cy="518.7" fill="#EB937F" rx="6.6" ry="6.6" style="stroke:#181818;stroke-width:0.6;"/><path d="M182.6156,519.1781 L182.6156,520.6781 L185.2125,520.6781 L185.2125,520.125 Q185.2125,519.7594 185.3531,519.6 Q185.5031,519.4406 185.7281,519.4406 Q185.9531,519.4406 186.0938,519.6 Q186.2344,519.7594 186.2344,520.125 L186.2344,521.7 L181.4344,521.7 Q181.0594,521.7 180.9,521.5594 Q180.75,521.4187 180.75,521.1844 Q180.75,520.9594 180.9094,520.8188 Q181.0688,520.6781 181.4344,520.6781 L181.5938,520.6781 L181.5938,516.6844 L181.4344,516.6844 Q181.0594,516.6844 180.9,516.5437 Q180.75,516.4031 180.75,516.1687 Q180.75,515.9438 180.9,515.8031 Q181.0594,515.6625 181.4344,515.6625 L186.0094,515.6625 L186.0094,517.2188 Q186.0094,517.5844 185.8688,517.7438 Q185.7375,517.8938 185.5031,517.8938 Q185.2781,517.8938 185.1375,517.7438 Q184.9969,517.5844 184.9969,517.2188 L184.9969,516.6844 L182.6156,516.6844 L182.6156,518.1563 L183.5063,518.1563 Q183.5063,517.7625 183.5812,517.65 Q183.7406,517.4063 184.0219,517.4063 Q184.2469,517.4063 184.3875,517.5656 Q184.5281,517.7156 184.5281,518.0813 L184.5281,519.2625 Q184.5281,519.5906 184.4531,519.7031 Q184.2938,519.9375 184.0219,519.9375 Q183.7406,519.9375 183.5812,519.6938 Q183.5063,519.5813 183.5063,519.1781 L182.6156,519.1781 Z " fill="#000000"/><text fill="#000000" font-family="sans-serif" font-size="8.4" lengthAdjust="spacing" textLength="77.5031" x="191.7" y="522.1781">AdvertisementStatus</text><line style="stroke:#181818;stroke-width:0.3;" x1="174.9" x2="270.4031" y1="528.3" y2="528.3"/><text fill="#000000" font-family="sans-serif" font-size="8.4" lengthAdjust="spacing" textLength="69.5789" x="177.9" y="539.7645">designation: String</text><line style="stroke:#181818;stroke-width:0.3;" x1="174.9" x2="270.4031" y1="544.2727" y2="544.2727"/></g><!--class Category--><g id="elem_Category"><rect codeLine="49" fill="#F1F1F1" height="51.1453" id="Category" rx="1.5" ry="1.5" style="stroke:#181818;stroke-width:0.3;" width="79.5762" x="291.9" y="354.9"/><ellipse cx="312.7315" cy="364.5" fill="#ADD1B2" rx="6.6" ry="6.6" style="stroke:#181818;stroke-width:0.6;"/><path d="M314.3909,362.025 Q314.4846,361.8938 314.5971,361.8281 Q314.7096,361.7625 314.8409,361.7625 Q315.0659,361.7625 315.2065,361.9219 Q315.3471,362.0719 315.3471,362.4375 L315.3471,363.3094 Q315.3471,363.675 315.2065,363.8344 Q315.0659,363.9938 314.8409,363.9938 Q314.6346,363.9938 314.5127,363.8719 Q314.3909,363.7594 314.3252,363.45 Q314.2971,363.2344 314.1846,363.1219 Q313.9877,362.8969 313.6221,362.7656 Q313.2565,362.6344 312.8815,362.6344 Q312.4221,362.6344 312.0377,362.8313 Q311.6627,363.0281 311.3627,363.4781 Q311.0721,363.9281 311.0721,364.5469 L311.0721,365.2031 Q311.0721,365.9437 311.6065,366.4406 Q312.1409,366.9281 313.0971,366.9281 Q313.6596,366.9281 314.0534,366.7781 Q314.2877,366.6844 314.5409,366.4219 Q314.7002,366.2625 314.7846,366.2156 Q314.8784,366.1688 315.0002,366.1688 Q315.1971,366.1688 315.3471,366.3281 Q315.5065,366.4781 315.5065,366.6844 Q315.5065,366.8906 315.3002,367.1344 Q315.0002,367.4813 314.5221,367.6781 Q313.8752,367.95 313.0971,367.95 Q312.1877,367.95 311.4659,367.575 Q310.8752,367.275 310.4627,366.6375 Q310.0502,365.9906 310.0502,365.2219 L310.0502,364.5281 Q310.0502,363.7313 310.4159,363.0469 Q310.7909,362.3531 311.4471,361.9875 Q312.1034,361.6125 312.844,361.6125 Q313.2846,361.6125 313.669,361.7156 Q314.0627,361.8094 314.3909,362.025 Z " fill="#000000"/><text fill="#000000" font-family="sans-serif" font-size="8.4" lengthAdjust="spacing" textLength="34.084" x="323.7607" y="367.9781">Category</text><line style="stroke:#181818;stroke-width:0.3;" x1="292.5" x2="370.8762" y1="374.1" y2="374.1"/><text fill="#000000" font-family="sans-serif" font-size="8.4" lengthAdjust="spacing" textLength="72.3762" x="295.5" y="385.5645">-designation: String</text><line style="stroke:#181818;stroke-width:0.3;" x1="292.5" x2="370.8762" y1="390.0727" y2="390.0727"/><text fill="#000000" font-family="sans-serif" font-size="8.4" lengthAdjust="spacing" textLength="51.5854" x="295.5" y="401.5371">+Category(...)</text></g><!--class AdvertisementMapper--><g id="elem_AdvertisementMapper"><rect codeLine="54" fill="#F1F1F1" height="51.1453" id="AdvertisementMapper" rx="1.5" ry="1.5" style="stroke:#181818;stroke-width:0.3;" width="101.3707" x="57.3" y="234"/><ellipse cx="66.3" cy="243.6" fill="#ADD1B2" rx="6.6" ry="6.6" style="stroke:#181818;stroke-width:0.6;"/><path d="M67.9594,241.125 Q68.0531,240.9937 68.1656,240.9281 Q68.2781,240.8625 68.4094,240.8625 Q68.6344,240.8625 68.775,241.0219 Q68.9156,241.1719 68.9156,241.5375 L68.9156,242.4094 Q68.9156,242.775 68.775,242.9344 Q68.6344,243.0938 68.4094,243.0938 Q68.2031,243.0938 68.0813,242.9719 Q67.9594,242.8594 67.8938,242.55 Q67.8656,242.3344 67.7531,242.2219 Q67.5562,241.9969 67.1906,241.8656 Q66.825,241.7344 66.45,241.7344 Q65.9906,241.7344 65.6063,241.9312 Q65.2313,242.1281 64.9312,242.5781 Q64.6406,243.0281 64.6406,243.6469 L64.6406,244.3031 Q64.6406,245.0438 65.175,245.5406 Q65.7094,246.0281 66.6656,246.0281 Q67.2281,246.0281 67.6219,245.8781 Q67.8563,245.7844 68.1094,245.5219 Q68.2688,245.3625 68.3531,245.3156 Q68.4469,245.2687 68.5688,245.2687 Q68.7656,245.2687 68.9156,245.4281 Q69.075,245.5781 69.075,245.7844 Q69.075,245.9906 68.8687,246.2344 Q68.5688,246.5812 68.0906,246.7781 Q67.4438,247.05 66.6656,247.05 Q65.7563,247.05 65.0344,246.675 Q64.4438,246.375 64.0313,245.7375 Q63.6188,245.0906 63.6188,244.3219 L63.6188,243.6281 Q63.6188,242.8312 63.9844,242.1469 Q64.3594,241.4531 65.0156,241.0875 Q65.6719,240.7125 66.4125,240.7125 Q66.8531,240.7125 67.2375,240.8156 Q67.6313,240.9094 67.9594,241.125 Z " fill="#000000"/><text fill="#000000" font-family="sans-serif" font-size="8.4" lengthAdjust="spacing" textLength="82.1707" x="74.7" y="247.0781">AdvertisementMapper</text><line style="stroke:#181818;stroke-width:0.3;" x1="57.9" x2="158.0707" y1="253.2" y2="253.2"/><line style="stroke:#181818;stroke-width:0.3;" x1="57.9" x2="158.0707" y1="258" y2="258"/><text fill="#000000" font-family="sans-serif" font-size="8.4" lengthAdjust="spacing" textLength="38.5137" x="60.9" y="269.4645">+toEntity()</text><text fill="#000000" font-family="sans-serif" font-size="8.4" lengthAdjust="spacing" textLength="35.2365" x="60.9" y="280.6371">+toDTO()</text></g><!--class AdvertisementDTO--><g id="elem_AdvertisementDTO"><rect codeLine="59" fill="#F1F1F1" height="95.8359" id="AdvertisementDTO" rx="1.5" ry="1.5" style="stroke:#181818;stroke-width:0.3;" width="96.1219" x="60" y="332.4"/><ellipse cx="71.4756" cy="342" fill="#ADD1B2" rx="6.6" ry="6.6" style="stroke:#181818;stroke-width:0.6;"/><path d="M73.135,339.525 Q73.2287,339.3938 73.3412,339.3281 Q73.4537,339.2625 73.585,339.2625 Q73.81,339.2625 73.9506,339.4219 Q74.0912,339.5719 74.0912,339.9375 L74.0912,340.8094 Q74.0912,341.175 73.9506,341.3344 Q73.81,341.4938 73.585,341.4938 Q73.3787,341.4938 73.2569,341.3719 Q73.135,341.2594 73.0694,340.95 Q73.0412,340.7344 72.9287,340.6219 Q72.7319,340.3969 72.3662,340.2656 Q72.0006,340.1344 71.6256,340.1344 Q71.1662,340.1344 70.7819,340.3313 Q70.4069,340.5281 70.1069,340.9781 Q69.8162,341.4281 69.8162,342.0469 L69.8162,342.7031 Q69.8162,343.4437 70.3506,343.9406 Q70.885,344.4281 71.8412,344.4281 Q72.4037,344.4281 72.7975,344.2781 Q73.0319,344.1844 73.285,343.9219 Q73.4444,343.7625 73.5287,343.7156 Q73.6225,343.6688 73.7444,343.6688 Q73.9412,343.6688 74.0912,343.8281 Q74.2506,343.9781 74.2506,344.1844 Q74.2506,344.3906 74.0444,344.6344 Q73.7444,344.9813 73.2662,345.1781 Q72.6194,345.45 71.8412,345.45 Q70.9319,345.45 70.21,345.075 Q69.6194,344.775 69.2069,344.1375 Q68.7944,343.4906 68.7944,342.7219 L68.7944,342.0281 Q68.7944,341.2313 69.16,340.5469 Q69.535,339.8531 70.1912,339.4875 Q70.8475,339.1125 71.5881,339.1125 Q72.0287,339.1125 72.4131,339.2156 Q72.8069,339.3094 73.135,339.525 Z " fill="#000000"/><text fill="#000000" font-family="sans-serif" font-size="8.4" lengthAdjust="spacing" textLength="71.4205" x="80.4258" y="345.4781">AdvertisementDTO</text><line style="stroke:#181818;stroke-width:0.3;" x1="60.6" x2="155.5219" y1="351.6" y2="351.6"/><text fill="#000000" font-family="sans-serif" font-size="8.4" lengthAdjust="spacing" textLength="35.9461" x="63.6" y="363.0645">-id: String</text><text fill="#000000" font-family="sans-serif" font-size="8.4" lengthAdjust="spacing" textLength="72.3762" x="63.6" y="374.2371">-designation: String</text><text fill="#000000" font-family="sans-serif" font-size="8.4" lengthAdjust="spacing" textLength="62.0936" x="63.6" y="385.4098">-initialDate: Date</text><text fill="#000000" font-family="sans-serif" font-size="8.4" lengthAdjust="spacing" textLength="58.3611" x="63.6" y="396.5824">-finalDate: Date</text><text fill="#000000" font-family="sans-serif" font-size="8.4" lengthAdjust="spacing" textLength="59.2922" x="63.6" y="407.7551">-address: String</text><line style="stroke:#181818;stroke-width:0.3;" x1="60.6" x2="155.5219" y1="412.2633" y2="412.2633"/><text fill="#000000" font-family="sans-serif" font-size="8.4" lengthAdjust="spacing" textLength="88.9219" x="63.6" y="423.7277">+AdvertisementDTO(...)</text></g><!--link User to AdvertisementUI--><g id="link_User_AdvertisementUI"><path codeLine="69" d="M58.8,44.436 C58.8,58.992 58.8,74.916 58.8,87.954 " fill="none" id="User-to-AdvertisementUI" style="stroke:#181818;stroke-width:0.6;stroke-dasharray:7.0,7.0;"/><polygon fill="#181818" points="58.8,91.554,61.2,86.154,58.8,88.554,56.4,86.154,58.8,91.554" style="stroke:#181818;stroke-width:0.6;"/><text fill="#000000" font-family="sans-serif" font-size="7.8" lengthAdjust="spacing" textLength="148.2724" x="59.4" y="71.417">requests to list all available advertisements</text></g><!--link AdvertisementUI to AdvertisementController--><g id="link_AdvertisementUI_AdvertisementController"><path codeLine="70" d="M58.8,120.612 C58.8,131.034 58.8,141.876 58.8,153.498 " fill="none" id="AdvertisementUI-to-AdvertisementController" style="stroke:#181818;stroke-width:0.6;stroke-dasharray:7.0,7.0;"/><polygon fill="#181818" points="58.8,157.098,61.2,151.698,58.8,154.098,56.4,151.698,58.8,157.098" style="stroke:#181818;stroke-width:0.6;"/></g><!--link AdvertisementController to AdvertisementService--><g id="link_AdvertisementController_AdvertisementService"><path codeLine="71" d="M113.4,177.3 C120.168,177.3 124.728,177.3 130.728,177.3 " fill="none" id="AdvertisementController-to-AdvertisementService" style="stroke:#181818;stroke-width:0.6;stroke-dasharray:7.0,7.0;"/><polygon fill="#181818" points="134.328,177.3,128.928,174.9,131.328,177.3,128.928,179.7,134.328,177.3" style="stroke:#181818;stroke-width:0.6;"/></g><!--link AdvertisementService to AdvertisementRepository--><g id="link_AdvertisementService_AdvertisementRepository"><path codeLine="72" d="M197.292,197.508 C205.344,210.15 213.8429,223.4943 221.9129,236.1543 " fill="none" id="AdvertisementService-to-AdvertisementRepository" style="stroke:#181818;stroke-width:0.6;stroke-dasharray:7.0,7.0;"/><polygon fill="#181818" points="223.848,239.19,222.9692,233.3464,222.2354,236.6603,218.9216,235.9265,223.848,239.19" style="stroke:#181818;stroke-width:0.6;"/></g><!--link AdvertisementService to AdvertisementMapper--><g id="link_AdvertisementService_AdvertisementMapper"><path codeLine="73" d="M166.206,197.508 C155.82,208.464 145.2471,219.6158 134.1351,231.3338 " fill="none" id="AdvertisementService-to-AdvertisementMapper" style="stroke:#181818;stroke-width:0.6;stroke-dasharray:7.0,7.0;"/><polygon fill="#181818" points="131.658,233.946,137.1152,231.6791,133.7223,231.7691,133.6322,228.3762,131.658,233.946" style="stroke:#181818;stroke-width:0.6;"/></g><!--link AdvertisementMapper to Advertisement--><g id="link_AdvertisementMapper_Advertisement"><path codeLine="74" d="M132.906,285.192 C148.488,300.894 166.3763,318.9186 184.1963,336.8766 " fill="none" id="AdvertisementMapper-to-Advertisement" style="stroke:#181818;stroke-width:0.6;stroke-dasharray:7.0,7.0;"/><polygon fill="#181818" points="186.732,339.432,184.632,333.9084,184.6189,337.3025,181.2248,337.2894,186.732,339.432" style="stroke:#181818;stroke-width:0.6;"/></g><!--link AdvertisementMapper to AdvertisementDTO--><g id="link_AdvertisementMapper_AdvertisementDTO"><path codeLine="75" d="M108,285.192 C108,298.836 108,312.564 108,328.656 " fill="none" id="AdvertisementMapper-to-AdvertisementDTO" style="stroke:#181818;stroke-width:0.6;stroke-dasharray:7.0,7.0;"/><polygon fill="#181818" points="108,332.256,110.4,326.856,108,329.256,105.6,326.856,108,332.256" style="stroke:#181818;stroke-width:0.6;"/></g><!--link AdvertisementRepository to Advertisement--><g id="link_AdvertisementRepository_Advertisement"><path codeLine="76" d="M234.816,279.864 C233.67,294.144 232.3623,310.4636 230.8923,328.7576 " fill="none" id="AdvertisementRepository-to-Advertisement" style="stroke:#181818;stroke-width:0.6;"/><polygon fill="#181818" points="230.604,332.346,233.4288,327.1556,230.8443,329.3556,228.6442,326.7711,230.604,332.346" style="stroke:#181818;stroke-width:0.6;"/><text fill="#000000" font-family="sans-serif" font-size="7.8" lengthAdjust="spacing" textLength="48.9899" x="232.8" y="312.017">advertisement</text><text fill="#000000" font-family="sans-serif" font-size="7.8" lengthAdjust="spacing" textLength="4.338" x="229.9974" y="292.5318">1</text><text fill="#000000" font-family="sans-serif" font-size="7.8" lengthAdjust="spacing" textLength="3.0354" x="227.8284" y="325.6785">*</text></g><!--link Advertisement to Item--><g id="link_Advertisement_Item"><path codeLine="77" d="M260.598,428.514 C271.272,443.514 281.0405,457.249 291.9725,472.609 " fill="none" id="Advertisement-to-Item" style="stroke:#181818;stroke-width:0.6;"/><polygon fill="#181818" points="294.06,475.542,292.8841,469.7509,292.3204,473.0978,288.9735,472.5342,294.06,475.542" style="stroke:#181818;stroke-width:0.6;"/><text fill="#000000" font-family="sans-serif" font-size="7.8" lengthAdjust="spacing" textLength="39.895" x="279.6" y="455.417">contains an</text></g><!--link Category to Item--><g id="link_Category_Item"><path codeLine="78" d="M331.8,406.038 C331.8,425.076 331.8,448.356 331.8,472.092 " fill="none" id="Category-to-Item" style="stroke:#181818;stroke-width:0.6;"/><polygon fill="#181818" points="331.8,475.692,334.2,470.292,331.8,472.692,329.4,470.292,331.8,475.692" style="stroke:#181818;stroke-width:0.6;"/><text fill="#000000" font-family="sans-serif" font-size="7.8" lengthAdjust="spacing" textLength="35.995" x="332.4" y="455.417">belongs to</text></g><!--link Advertisement to AdvertisementStatus--><g id="link_Advertisement_AdvertisementStatus"><path codeLine="79" d="M225.054,428.532 C224.682,438.672 224.4,446.4 224.4,446.4 C224.4,446.4 223.645,480.9909 223.111,505.3149 " fill="none" id="Advertisement-to-AdvertisementStatus" style="stroke:#181818;stroke-width:0.6;"/><polygon fill="#181818" points="223.032,508.914,225.5499,503.568,223.0978,505.9147,220.7511,503.4626,223.032,508.914" style="stroke:#181818;stroke-width:0.6;"/><text fill="#000000" font-family="sans-serif" font-size="7.8" lengthAdjust="spacing" textLength="12.576" x="225" y="455.417">has</text></g><!--SRC=[hLHDRzf04BtlhnXnQLg4rLvzY8II7ZX4bKBp0mPxS5PPTfsTWSgj-jyxTi7OnavH5GwMc3SVRzzyy8lr9KRSGOdP2nQqbieHHCe4VU78SEl0pvY77zONi4N7NSHPJrAL16LmLVsdWsKEcPSYqMxsGgii-BNzIV3P6DD0iCmF5CKoxSZBqmf-cT-Zq5tm4eDp5DK5z3U7WgJdmZSV9uBN50ysetz5MYyKjwYEFVIHoi1MGgpQ15lhywLptO9FVAAs02LAAUpGgwAn2MdTLaAxOve5s3o5jMhZYwCX9xQ5Hx713n1LBhSZTklLYkuUHIlMtwDT6OvOCSyZCVTop1jEDqcIJCdNuGjN4tuFOZqMBKFo-zsWluAovoFDCKhjk-wqP77kvFG3vgthMyeyO5bs9bB2LozMAfsBa-7- -xV9iLJiVqRXtPMjEPuU-G4MYmKyaiDCAsCD1wvjfXdm9BczMDbKxyNhdbXOtwlNW0NGES03MeSRFIVOspKpZB_8UTvrCtK3XY773JUZQtzHuBpHLmRyxRCPw_s5xtLUghcPkZApBpDL_1PcdsQ3HKpxMlOpD37DVKdhSo5eFGDwqyvy1z-G2xwe6pQIOsotKdX6rglz1m00]--></g></svg>