<svg xmlns="http://www.w3.org/2000/svg" xmlns:xlink="http://www.w3.org/1999/xlink" contentStyleType="text/css" height="509.4px" preserveAspectRatio="none" style="width:1050px;height:509px;background:#FFFFFF;" version="1.1" viewBox="0 0 1050 509" width="1050.6px" zoomAndPan="magnify"><defs/><g><rect fill="#FFFFFF" height="392.7352" style="stroke:#181818;stroke-width:0.6;" width="6" x="18.3765" y="56.1727"/><rect fill="#FFFFFF" height="384.1605" style="stroke:#181818;stroke-width:0.6;" width="6" x="190.7868" y="70.1473"/><rect fill="#FFFFFF" height="359.9859" style="stroke:#181818;stroke-width:0.6;" width="6" x="303.7553" y="88.9219"/><rect fill="#FFFFFF" height="303.6621" style="stroke:#181818;stroke-width:0.6;" width="6" x="416.7237" y="107.6965"/><rect fill="#FFFFFF" height="264.1148" style="stroke:#181818;stroke-width:0.6;" width="6" x="530.1542" y="190.193"/><rect fill="#FFFFFF" height="21.7746" style="stroke:#181818;stroke-width:0.6;" width="6" x="533.1542" y="292.4895"/><rect fill="#FFFFFF" height="44.9473" style="stroke:#181818;stroke-width:0.6;" width="6" x="713.1284" y="126.4711"/><rect fill="#FFFFFF" height="18" style="stroke:#181818;stroke-width:0.6;" width="6" x="810.6302" y="250.9148"/><rect fill="#FFFFFF" height="18" style="stroke:#181818;stroke-width:0.6;" width="6" x="989.9801" y="351.6094"/><rect fill="none" height="149.0438" style="stroke:#000000;stroke-width:0.8999999999999999;" width="566.3587" x="480.702" y="225.3656"/><line style="stroke:#181818;stroke-width:0.3;stroke-dasharray:5.0,5.0;" x1="21" x2="21" y1="50.1727" y2="459.7078"/><line style="stroke:#181818;stroke-width:0.3;stroke-dasharray:5.0,5.0;" x1="193.3752" x2="193.3752" y1="50.1727" y2="459.7078"/><line style="stroke:#181818;stroke-width:0.3;stroke-dasharray:5.0,5.0;" x1="306.7368" x2="306.7368" y1="50.1727" y2="459.7078"/><line style="stroke:#181818;stroke-width:0.3;stroke-dasharray:5.0,5.0;" x1="419.7073" x2="419.7073" y1="50.1727" y2="459.7078"/><line style="stroke:#181818;stroke-width:0.3;stroke-dasharray:5.0,5.0;" x1="532.902" x2="532.902" y1="50.1727" y2="459.7078"/><line style="stroke:#181818;stroke-width:0.3;stroke-dasharray:5.0,5.0;" x1="715.7417" x2="715.7417" y1="50.1727" y2="459.7078"/><line style="stroke:#181818;stroke-width:0.3;stroke-dasharray:5.0,5.0;" x1="813.1151" x2="813.1151" y1="150.3574" y2="459.7078"/><line style="stroke:#181818;stroke-width:0.3;stroke-dasharray:5.0,5.0;" x1="897.5452" x2="897.5452" y1="324.9621" y2="459.7078"/><line style="stroke:#181818;stroke-width:0.3;stroke-dasharray:5.0,5.0;" x1="992.8995" x2="992.8995" y1="214.0793" y2="459.7078"/><text fill="#000000" font-family="sans-serif" font-size="8.4" lengthAdjust="spacing" textLength="33.1529" x="3" y="48.0645">Manager</text><ellipse cx="21.3765" cy="8.1" fill="#E3E3E3" rx="4.8" ry="4.8" style="stroke:#181818;stroke-width:0.3;"/><path d="M21.3765,12.9 L21.3765,29.1 M13.5765,17.7 L29.1765,17.7 M21.3765,29.1 L13.5765,38.1 M21.3765,29.1 L29.1765,38.1 " fill="none" style="stroke:#181818;stroke-width:0.3;"/><text fill="#000000" font-family="sans-serif" font-size="8.4" lengthAdjust="spacing" textLength="33.1529" x="3" y="468.1723">Manager</text><ellipse cx="21.3765" cy="475.3805" fill="#E3E3E3" rx="4.8" ry="4.8" style="stroke:#181818;stroke-width:0.3;"/><path d="M21.3765,480.1805 L21.3765,496.3805 M13.5765,484.9805 L29.1765,484.9805 M21.3765,496.3805 L13.5765,505.3805 M21.3765,496.3805 L29.1765,505.3805 " fill="none" style="stroke:#181818;stroke-width:0.3;"/><rect fill="#E3E3E3" height="19.5727" rx="1.5" ry="1.5" style="stroke:#181818;stroke-width:0.3;" width="72.8232" x="157.3752" y="30"/><text fill="#000000" font-family="sans-serif" font-size="8.4" lengthAdjust="spacing" textLength="64.4232" x="161.5752" y="43.2645">:AdvertisementUI</text><rect fill="#E3E3E3" height="19.5727" rx="1.5" ry="1.5" style="stroke:#181818;stroke-width:0.3;" width="72.8232" x="157.3752" y="459.1078"/><text fill="#000000" font-family="sans-serif" font-size="8.4" lengthAdjust="spacing" textLength="64.4232" x="161.5752" y="472.3723">:AdvertisementUI</text><rect fill="#E3E3E3" height="19.5727" rx="1.5" ry="1.5" style="stroke:#181818;stroke-width:0.3;" width="100.8369" x="256.3368" y="30"/><text fill="#000000" font-family="sans-serif" font-size="8.4" lengthAdjust="spacing" textLength="92.4369" x="260.5368" y="43.2645">:AdvertisementController</text><rect fill="#E3E3E3" height="19.5727" rx="1.5" ry="1.5" style="stroke:#181818;stroke-width:0.3;" width="100.8369" x="256.3368" y="459.1078"/><text fill="#000000" font-family="sans-serif" font-size="8.4" lengthAdjust="spacing" textLength="92.4369" x="260.5368" y="472.3723">:AdvertisementController</text><rect fill="#E3E3E3" height="19.5727" rx="1.5" ry="1.5" style="stroke:#181818;stroke-width:0.3;" width="92.4328" x="373.5073" y="30"/><text fill="#000000" font-family="sans-serif" font-size="8.4" lengthAdjust="spacing" textLength="84.0328" x="377.7073" y="43.2645">:AdvertisementService</text><rect fill="#E3E3E3" height="19.5727" rx="1.5" ry="1.5" style="stroke:#181818;stroke-width:0.3;" width="92.4328" x="373.5073" y="459.1078"/><text fill="#000000" font-family="sans-serif" font-size="8.4" lengthAdjust="spacing" textLength="84.0328" x="377.7073" y="472.3723">:AdvertisementService</text><rect fill="#E3E3E3" height="30.7453" rx="1.5" ry="1.5" style="stroke:#181818;stroke-width:0.3;" width="92.9045" x="486.702" y="18.8273"/><text fill="#000000" font-family="sans-serif" font-size="8.4" lengthAdjust="spacing" textLength="28.4813" x="518.9136" y="32.0918">mapper</text><text fill="#000000" font-family="sans-serif" font-size="8.4" lengthAdjust="spacing" textLength="84.5045" x="490.902" y="43.2645">:AdvertisementMapper</text><rect fill="#E3E3E3" height="30.7453" rx="1.5" ry="1.5" style="stroke:#181818;stroke-width:0.3;" width="92.9045" x="486.702" y="459.1078"/><text fill="#000000" font-family="sans-serif" font-size="8.4" lengthAdjust="spacing" textLength="28.4813" x="518.9136" y="472.3723">mapper</text><text fill="#000000" font-family="sans-serif" font-size="8.4" lengthAdjust="spacing" textLength="84.5045" x="490.902" y="483.5449">:AdvertisementMapper</text><rect fill="#E3E3E3" height="19.5727" rx="1.5" ry="1.5" style="stroke:#181818;stroke-width:0.3;" width="108.7734" x="661.7417" y="30"/><text fill="#000000" font-family="sans-serif" font-size="8.4" lengthAdjust="spacing" textLength="100.3734" x="665.9417" y="43.2645">:AdvertisementsRepository</text><rect fill="#E3E3E3" height="19.5727" rx="1.5" ry="1.5" style="stroke:#181818;stroke-width:0.3;" width="108.7734" x="661.7417" y="459.1078"/><text fill="#000000" font-family="sans-serif" font-size="8.4" lengthAdjust="spacing" textLength="100.3734" x="665.9417" y="472.3723">:AdvertisementsRepository</text><rect fill="#E3E3E3" height="19.5727" rx="1.5" ry="1.5" style="stroke:#181818;stroke-width:0.3;" width="74.2301" x="776.5151" y="459.1078"/><text fill="#000000" font-family="sans-serif" font-size="8.4" lengthAdjust="spacing" textLength="65.8301" x="780.7151" y="472.3723">advertisementList</text><rect fill="#E3E3E3" height="30.7453" rx="1.5" ry="1.5" style="stroke:#181818;stroke-width:0.3;" width="82.1543" x="856.7452" y="459.1078"/><text fill="#000000" font-family="sans-serif" font-size="8.4" lengthAdjust="spacing" textLength="70.4895" x="862.5776" y="472.3723">advertisementDTO</text><text fill="#000000" font-family="sans-serif" font-size="8.4" lengthAdjust="spacing" textLength="73.7543" x="860.9452" y="483.5449">:AdvertisementDTO</text><rect fill="#E3E3E3" height="19.5727" rx="1.5" ry="1.5" style="stroke:#181818;stroke-width:0.3;" width="96.1611" x="944.8995" y="459.1078"/><text fill="#000000" font-family="sans-serif" font-size="8.4" lengthAdjust="spacing" textLength="87.7611" x="949.0995" y="472.3723">advertisementsDTOList</text><rect fill="#FFFFFF" height="392.7352" style="stroke:#181818;stroke-width:0.6;" width="6" x="18.3765" y="56.1727"/><rect fill="#FFFFFF" height="384.1605" style="stroke:#181818;stroke-width:0.6;" width="6" x="190.7868" y="70.1473"/><rect fill="#FFFFFF" height="359.9859" style="stroke:#181818;stroke-width:0.6;" width="6" x="303.7553" y="88.9219"/><rect fill="#FFFFFF" height="303.6621" style="stroke:#181818;stroke-width:0.6;" width="6" x="416.7237" y="107.6965"/><rect fill="#FFFFFF" height="264.1148" style="stroke:#181818;stroke-width:0.6;" width="6" x="530.1542" y="190.193"/><rect fill="#FFFFFF" height="21.7746" style="stroke:#181818;stroke-width:0.6;" width="6" x="533.1542" y="292.4895"/><rect fill="#FFFFFF" height="44.9473" style="stroke:#181818;stroke-width:0.6;" width="6" x="713.1284" y="126.4711"/><rect fill="#FFFFFF" height="18" style="stroke:#181818;stroke-width:0.6;" width="6" x="810.6302" y="250.9148"/><rect fill="#FFFFFF" height="18" style="stroke:#181818;stroke-width:0.6;" width="6" x="989.9801" y="351.6094"/><polygon fill="#181818" points="183.5868,67.7473,189.5868,70.1473,183.5868,72.5473,185.9868,70.1473" style="stroke:#181818;stroke-width:0.6;"/><line style="stroke:#181818;stroke-width:0.6;" x1="24.3765" x2="187.1868" y1="70.1473" y2="70.1473"/><text fill="#000000" font-family="sans-serif" font-size="7.8" font-weight="bold" lengthAdjust="spacing" textLength="4.338" x="28.5765" y="66.9896">1</text><text fill="#000000" font-family="sans-serif" font-size="7.8" lengthAdjust="spacing" textLength="148.2724" x="35.3145" y="66.9896">requests to list all available advertisements</text><polygon fill="#181818" points="296.5553,86.5219,302.5553,88.9219,296.5553,91.3219,298.9553,88.9219" style="stroke:#181818;stroke-width:0.6;"/><line style="stroke:#181818;stroke-width:0.6;" x1="196.7868" x2="300.1553" y1="88.9219" y2="88.9219"/><text fill="#000000" font-family="sans-serif" font-size="7.8" font-weight="bold" lengthAdjust="spacing" textLength="4.338" x="200.9868" y="85.7643">2</text><text fill="#000000" font-family="sans-serif" font-size="7.8" lengthAdjust="spacing" textLength="81.9305" x="207.7248" y="85.7643">getAdvertisementsList()</text><polygon fill="#181818" points="409.5237,105.2965,415.5237,107.6965,409.5237,110.0965,411.9237,107.6965" style="stroke:#181818;stroke-width:0.6;"/><line style="stroke:#181818;stroke-width:0.6;" x1="309.7553" x2="413.1237" y1="107.6965" y2="107.6965"/><text fill="#000000" font-family="sans-serif" font-size="7.8" font-weight="bold" lengthAdjust="spacing" textLength="4.338" x="313.9553" y="104.5389">3</text><text fill="#000000" font-family="sans-serif" font-size="7.8" lengthAdjust="spacing" textLength="81.9305" x="320.6933" y="104.5389">getAdvertisementsList()</text><polygon fill="#181818" points="705.9284,124.0711,711.9284,126.4711,705.9284,128.8711,708.3284,126.4711" style="stroke:#181818;stroke-width:0.6;"/><line style="stroke:#181818;stroke-width:0.6;" x1="422.7237" x2="709.5284" y1="126.4711" y2="126.4711"/><text fill="#000000" font-family="sans-serif" font-size="7.8" font-weight="bold" lengthAdjust="spacing" textLength="4.338" x="426.9237" y="123.3135">4</text><text fill="#000000" font-family="sans-serif" font-size="7.8" lengthAdjust="spacing" textLength="26.4393" x="433.6617" y="123.3135">findAll()</text><line style="stroke:#181818;stroke-width:0.6;" x1="775.3151" x2="769.3151" y1="145.2457" y2="142.8457"/><line style="stroke:#181818;stroke-width:0.6;" x1="775.3151" x2="769.3151" y1="145.2457" y2="147.6457"/><line style="stroke:#181818;stroke-width:0.6;stroke-dasharray:2.0,2.0;" x1="719.1284" x2="775.9151" y1="145.2457" y2="145.2457"/><text fill="#000000" font-family="sans-serif" font-size="7.8" font-weight="bold" lengthAdjust="spacing" textLength="4.338" x="723.3284" y="142.0881">5</text><text fill="#000000" font-family="sans-serif" font-size="7.8" lengthAdjust="spacing" textLength="29.4709" x="730.0664" y="142.0881">returns()</text><rect fill="#E3E3E3" height="19.5727" rx="1.5" ry="1.5" style="stroke:#181818;stroke-width:0.3;" width="74.2301" x="776.5151" y="131.2711"/><text fill="#000000" font-family="sans-serif" font-size="8.4" lengthAdjust="spacing" textLength="65.8301" x="780.7151" y="144.5355">advertisementList</text><polygon fill="#181818" points="429.3237,169.0184,423.3237,171.4184,429.3237,173.8184,426.9237,171.4184" style="stroke:#181818;stroke-width:0.6;"/><line style="stroke:#181818;stroke-width:0.6;stroke-dasharray:2.0,2.0;" x1="425.7237" x2="715.5284" y1="171.4184" y2="171.4184"/><text fill="#000000" font-family="sans-serif" font-size="7.8" font-weight="bold" lengthAdjust="spacing" textLength="4.338" x="432.9237" y="168.2607">6</text><text fill="#000000" font-family="sans-serif" font-size="7.8" lengthAdjust="spacing" textLength="61.1279" x="439.6617" y="168.2607">advertisementList</text><polygon fill="#181818" points="522.9542,187.793,528.9542,190.193,522.9542,192.593,525.3542,190.193" style="stroke:#181818;stroke-width:0.6;"/><line style="stroke:#181818;stroke-width:0.6;stroke-dasharray:2.0,2.0;" x1="422.7237" x2="526.5542" y1="190.193" y2="190.193"/><text fill="#000000" font-family="sans-serif" font-size="7.8" font-weight="bold" lengthAdjust="spacing" textLength="4.338" x="426.9237" y="187.0354">7</text><text fill="#000000" font-family="sans-serif" font-size="7.8" lengthAdjust="spacing" textLength="89.2925" x="433.6617" y="187.0354">toDTO(advertisementList)</text><polygon fill="#181818" points="937.6995,206.5676,943.6995,208.9676,937.6995,211.3676,940.0995,208.9676" style="stroke:#181818;stroke-width:0.6;"/><line style="stroke:#181818;stroke-width:0.6;stroke-dasharray:2.0,2.0;" x1="536.1542" x2="941.2995" y1="208.9676" y2="208.9676"/><text fill="#000000" font-family="sans-serif" font-size="7.8" font-weight="bold" lengthAdjust="spacing" textLength="4.338" x="540.3542" y="205.81">8</text><text fill="#000000" font-family="sans-serif" font-size="7.8" lengthAdjust="spacing" textLength="26.8734" x="547.0922" y="205.81">create()</text><rect fill="#E3E3E3" height="19.5727" rx="1.5" ry="1.5" style="stroke:#181818;stroke-width:0.3;" width="96.1611" x="944.8995" y="194.993"/><text fill="#000000" font-family="sans-serif" font-size="8.4" lengthAdjust="spacing" textLength="87.7611" x="949.0995" y="208.2574">advertisementsDTOList</text><path d="M480.702,225.3656 L524.1627,225.3656 L524.1627,230.9402 L518.1627,236.9402 L480.702,236.9402 L480.702,225.3656 " fill="#EEEEEE" style="stroke:#000000;stroke-width:0.8999999999999999;"/><rect fill="none" height="149.0438" style="stroke:#000000;stroke-width:0.8999999999999999;" width="566.3587" x="480.702" y="225.3656"/><text fill="#000000" font-family="sans-serif" font-size="7.8" font-weight="bold" lengthAdjust="spacing" textLength="16.4607" x="489.702" y="234.3826">loop</text><text fill="#000000" font-family="sans-serif" font-size="6.6" font-weight="bold" lengthAdjust="spacing" textLength="113.6921" x="533.1627" y="233.6877">[for each advertisement in AD_LIST]</text><polygon fill="#181818" points="803.4302,248.5148,809.4302,250.9148,803.4302,253.3148,805.8302,250.9148" style="stroke:#181818;stroke-width:0.6;"/><line style="stroke:#181818;stroke-width:0.6;" x1="536.1542" x2="807.0302" y1="250.9148" y2="250.9148"/><text fill="#000000" font-family="sans-serif" font-size="7.8" font-weight="bold" lengthAdjust="spacing" textLength="4.338" x="540.3542" y="247.7572">9</text><text fill="#000000" font-family="sans-serif" font-size="7.8" lengthAdjust="spacing" textLength="75.6501" x="547.0922" y="247.7572">advertisement = get(i)</text><line style="stroke:#181818;stroke-width:0.6;" x1="536.1542" x2="564.3542" y1="284.6895" y2="284.6895"/><line style="stroke:#181818;stroke-width:0.6;" x1="564.3542" x2="564.3542" y1="284.6895" y2="292.4895"/><line style="stroke:#181818;stroke-width:0.6;" x1="539.7542" x2="564.3542" y1="292.4895" y2="292.4895"/><polygon fill="#181818" points="545.7542,290.0895,539.7542,292.4895,545.7542,294.8895,543.3542,292.4895" style="stroke:#181818;stroke-width:0.6;"/><text fill="#000000" font-family="sans-serif" font-size="7.8" font-weight="bold" lengthAdjust="spacing" textLength="8.676" x="543.3542" y="281.5318">10</text><text fill="#000000" font-family="sans-serif" font-size="7.8" lengthAdjust="spacing" textLength="151.4982" x="554.4302" y="281.5318">advertisementDTO = toDTO(advertisement)</text><line style="stroke:#181818;stroke-width:0.6;" x1="855.5452" x2="849.5452" y1="314.2641" y2="311.8641"/><line style="stroke:#181818;stroke-width:0.6;" x1="855.5452" x2="849.5452" y1="314.2641" y2="316.6641"/><line style="stroke:#181818;stroke-width:0.6;stroke-dasharray:2.0,2.0;" x1="536.1542" x2="856.1452" y1="314.2641" y2="314.2641"/><text fill="#000000" font-family="sans-serif" font-size="7.8" font-weight="bold" lengthAdjust="spacing" textLength="8.676" x="540.3542" y="311.1064">11</text><text fill="#000000" font-family="sans-serif" font-size="7.8" lengthAdjust="spacing" textLength="33.3747" x="551.4302" y="311.1064">create(...)</text><rect fill="#E3E3E3" height="30.7453" rx="1.5" ry="1.5" style="stroke:#181818;stroke-width:0.3;" width="82.1543" x="856.7452" y="300.2895"/><text fill="#000000" font-family="sans-serif" font-size="8.4" lengthAdjust="spacing" textLength="70.4895" x="862.5776" y="313.5539">advertisementDTO</text><text fill="#000000" font-family="sans-serif" font-size="8.4" lengthAdjust="spacing" textLength="73.7543" x="860.9452" y="324.7266">:AdvertisementDTO</text><polygon fill="#181818" points="982.7801,349.2094,988.7801,351.6094,982.7801,354.0094,985.1801,351.6094" style="stroke:#181818;stroke-width:0.6;"/><line style="stroke:#181818;stroke-width:0.6;" x1="536.1542" x2="986.3801" y1="351.6094" y2="351.6094"/><text fill="#000000" font-family="sans-serif" font-size="7.8" font-weight="bold" lengthAdjust="spacing" textLength="8.676" x="540.3542" y="348.4518">12</text><text fill="#000000" font-family="sans-serif" font-size="7.8" lengthAdjust="spacing" textLength="83.6634" x="551.4302" y="348.4518">add(advertisementDTO)</text><polygon fill="#181818" points="429.3237,390.184,423.3237,392.584,429.3237,394.984,426.9237,392.584" style="stroke:#181818;stroke-width:0.6;"/><line style="stroke:#181818;stroke-width:0.6;stroke-dasharray:2.0,2.0;" x1="425.7237" x2="529.5542" y1="392.584" y2="392.584"/><text fill="#000000" font-family="sans-serif" font-size="7.8" font-weight="bold" lengthAdjust="spacing" textLength="8.676" x="432.9237" y="389.4264">13</text><text fill="#000000" font-family="sans-serif" font-size="7.8" lengthAdjust="spacing" textLength="81.4925" x="443.9997" y="389.4264">advertisementsDTOList</text><polygon fill="#181818" points="316.3553,408.9586,310.3553,411.3586,316.3553,413.7586,313.9553,411.3586" style="stroke:#181818;stroke-width:0.6;"/><line style="stroke:#181818;stroke-width:0.6;stroke-dasharray:2.0,2.0;" x1="312.7553" x2="419.1237" y1="411.3586" y2="411.3586"/><text fill="#000000" font-family="sans-serif" font-size="7.8" font-weight="bold" lengthAdjust="spacing" textLength="8.676" x="319.9553" y="408.201">14</text><text fill="#000000" font-family="sans-serif" font-size="7.8" lengthAdjust="spacing" textLength="81.4925" x="331.0313" y="408.201">advertisementsDTOList</text><polygon fill="#181818" points="203.3868,427.7332,197.3868,430.1332,203.3868,432.5332,200.9868,430.1332" style="stroke:#181818;stroke-width:0.6;"/><line style="stroke:#181818;stroke-width:0.6;stroke-dasharray:2.0,2.0;" x1="199.7868" x2="303.1553" y1="430.1332" y2="430.1332"/><text fill="#000000" font-family="sans-serif" font-size="7.8" font-weight="bold" lengthAdjust="spacing" textLength="8.676" x="206.9868" y="426.9756">15</text><text fill="#000000" font-family="sans-serif" font-size="7.8" lengthAdjust="spacing" textLength="81.4925" x="218.0628" y="426.9756">advertisementsDTOList</text><polygon fill="#181818" points="27.9765,446.5078,21.9765,448.9078,27.9765,451.3078,25.5765,448.9078" style="stroke:#181818;stroke-width:0.6;"/><line style="stroke:#181818;stroke-width:0.6;stroke-dasharray:2.0,2.0;" x1="24.3765" x2="190.1868" y1="448.9078" y2="448.9078"/><text fill="#000000" font-family="sans-serif" font-size="7.8" font-weight="bold" lengthAdjust="spacing" textLength="8.676" x="31.5765" y="445.7502">16</text><text fill="#000000" font-family="sans-serif" font-size="7.8" lengthAdjust="spacing" textLength="81.4925" x="42.6524" y="445.7502">advertisementsDTOList</text><!--SRC=[ZPJTRk8m48NlynGZhcWbU02a8g6s5v50HOJkrKehDnd0gcDdROUgRxzZGz8u2MPpbPyvdsVESMm-kQoOPYMKIghyf5M9O7MDYMc_L2p_P4VCxBT0q9XR9e-YMs1Eh51VN1xXm8J1966rLR8kFr3JVMwLXic6IMBe2J03xzdhBY6fvJclcBGmMQoACzApmHAbVKylPMciw5b9gvKGL-RpVhUEbMUeppn7NqlB_mfhIrPLg7_BKBFnRxraizfkuqsR7LRAS1hssojMBtzshzktKCAwYZKtjYbTfza-KlgoV-itHw-yk5-N9DvpVcOMBqudG9UxWzcIJ8K5XVYtHcCDM0M2kW0c1B0puu9zKCO1qdZv3p7rpnwPEg0pdf17jA4TRhhfGrlS0dnGxMjtUGAHN2p_GGfeFihWaxiyYOZN30XwuB9O2T731AWci7v10vdDbiicgiV7XKPRQsb6Y1r1CzCWzu6em6WZbua8UDc8XBIAmfuEm3TykkxVxhShoK73m8dhI3HZhf74lH65KXKSw9-cZa-X5BXiDtD_m6QvriE-BV3aef_oU4IZxD2yEykt3lR_76fWnDH8EoEcXiOk1slyc3gVpnzYWzo1tmWD5gmeflrL8pECKc9ztHUWB6vjjB7VOPJHxlVhyN9VqMdH7mhXwTASV76EEz5SPJRS7uFQpdh-IEiyE_q_]--></g></svg>