<svg xmlns="http://www.w3.org/2000/svg" xmlns:xlink="http://www.w3.org/1999/xlink" contentStyleType="text/css" height="763px" preserveAspectRatio="none" style="width:1303px;height:763px;background:#FFFFFF;" version="1.1" viewBox="0 0 1303 763" width="1303px" zoomAndPan="magnify"><defs/><g><rect fill="#FFFFFF" height="568.9473" style="stroke:#181818;stroke-width:1.0;" width="10" x="29.0586" y="93.6211"/><rect fill="#FFFFFF" height="545.6563" style="stroke:#181818;stroke-width:1.0;" width="10" x="223.1875" y="116.9121"/><rect fill="#FFFFFF" height="483.0742" style="stroke:#181818;stroke-width:1.0;" width="10" x="407.1792" y="148.2031"/><rect fill="#FFFFFF" height="420.4922" style="stroke:#181818;stroke-width:1.0;" width="10" x="591.1709" y="179.4941"/><rect fill="#FFFFFF" height="295.3281" style="stroke:#181818;stroke-width:1.0;" width="10" x="765.7617" y="273.3672"/><rect fill="#FFFFFF" height="31.291" style="stroke:#181818;stroke-width:1.0;" width="10" x="934.8789" y="210.7852"/><rect fill="#FFFFFF" height="31.291" style="stroke:#181818;stroke-width:1.0;" width="10" x="1054.5786" y="392.2402"/><rect fill="#FFFFFF" height="30" style="stroke:#181818;stroke-width:1.0;" width="10" x="1239.1025" y="304.6582"/><rect fill="none" height="188.7461" style="stroke:#000000;stroke-width:1.5;" width="579.3062" x="718.3584" y="349.6582"/><line style="stroke:#181818;stroke-width:0.5;stroke-dasharray:5.0,5.0;" x1="34" x2="34" y1="83.6211" y2="680.5684"/><line style="stroke:#181818;stroke-width:0.5;stroke-dasharray:5.0,5.0;" x1="227.5186" x2="227.5186" y1="83.6211" y2="680.5684"/><line style="stroke:#181818;stroke-width:0.5;stroke-dasharray:5.0,5.0;" x1="412.1655" x2="412.1655" y1="83.6211" y2="680.5684"/><line style="stroke:#181818;stroke-width:0.5;stroke-dasharray:5.0,5.0;" x1="596.1606" x2="596.1606" y1="83.6211" y2="680.5684"/><line style="stroke:#181818;stroke-width:0.5;stroke-dasharray:5.0,5.0;" x1="770.3584" x2="770.3584" y1="83.6211" y2="680.5684"/><line style="stroke:#181818;stroke-width:0.5;stroke-dasharray:5.0,5.0;" x1="939.2515" x2="939.2515" y1="83.6211" y2="680.5684"/><line style="stroke:#181818;stroke-width:0.5;stroke-dasharray:5.0,5.0;" x1="1059.5063" x2="1059.5063" y1="83.6211" y2="680.5684"/><line style="stroke:#181818;stroke-width:0.5;stroke-dasharray:5.0,5.0;" x1="1156.6509" x2="1156.6509" y1="83.6211" y2="680.5684"/><line style="stroke:#181818;stroke-width:0.5;stroke-dasharray:5.0,5.0;" x1="1243.5405" x2="1243.5405" y1="83.6211" y2="680.5684"/><text fill="#000000" font-family="sans-serif" font-size="14" lengthAdjust="spacing" textLength="52.1172" x="5" y="80.1074">AllUsers</text><ellipse cx="34.0586" cy="13.5" fill="#E3E3E3" rx="8" ry="8" style="stroke:#181818;stroke-width:0.5;"/><path d="M34.0586,21.5 L34.0586,48.5 M21.0586,29.5 L47.0586,29.5 M34.0586,48.5 L21.0586,63.5 M34.0586,48.5 L47.0586,63.5 " fill="none" style="stroke:#181818;stroke-width:0.5;"/><text fill="#000000" font-family="sans-serif" font-size="14" lengthAdjust="spacing" textLength="52.1172" x="5" y="694.6758">AllUsers</text><ellipse cx="34.0586" cy="706.6895" fill="#E3E3E3" rx="8" ry="8" style="stroke:#181818;stroke-width:0.5;"/><path d="M34.0586,714.6895 L34.0586,741.6895 M21.0586,722.6895 L47.0586,722.6895 M34.0586,741.6895 L21.0586,756.6895 M34.0586,741.6895 L47.0586,756.6895 " fill="none" style="stroke:#181818;stroke-width:0.5;"/><rect fill="#E3E3E3" height="32.6211" rx="2.5" ry="2.5" style="stroke:#181818;stroke-width:0.5;" width="51.3379" x="202.5186" y="50"/><text fill="#000000" font-family="sans-serif" font-size="14" lengthAdjust="spacing" textLength="37.3379" x="209.5186" y="72.1074">:TipUI</text><rect fill="#E3E3E3" height="32.6211" rx="2.5" ry="2.5" style="stroke:#181818;stroke-width:0.5;" width="51.3379" x="202.5186" y="679.5684"/><text fill="#000000" font-family="sans-serif" font-size="14" lengthAdjust="spacing" textLength="37.3379" x="209.5186" y="701.6758">:TipUI</text><rect fill="#E3E3E3" height="32.6211" rx="2.5" ry="2.5" style="stroke:#181818;stroke-width:0.5;" width="98.0273" x="363.1655" y="50"/><text fill="#000000" font-family="sans-serif" font-size="14" lengthAdjust="spacing" textLength="84.0273" x="370.1655" y="72.1074">:TipController</text><rect fill="#E3E3E3" height="32.6211" rx="2.5" ry="2.5" style="stroke:#181818;stroke-width:0.5;" width="98.0273" x="363.1655" y="679.5684"/><text fill="#000000" font-family="sans-serif" font-size="14" lengthAdjust="spacing" textLength="84.0273" x="370.1655" y="701.6758">:TipController</text><rect fill="#E3E3E3" height="32.6211" rx="2.5" ry="2.5" style="stroke:#181818;stroke-width:0.5;" width="84.0205" x="554.1606" y="50"/><text fill="#000000" font-family="sans-serif" font-size="14" lengthAdjust="spacing" textLength="70.0205" x="561.1606" y="72.1074">:TipService</text><rect fill="#E3E3E3" height="32.6211" rx="2.5" ry="2.5" style="stroke:#181818;stroke-width:0.5;" width="84.0205" x="554.1606" y="679.5684"/><text fill="#000000" font-family="sans-serif" font-size="14" lengthAdjust="spacing" textLength="70.0205" x="561.1606" y="701.6758">:TipService</text><rect fill="#E3E3E3" height="51.2422" rx="2.5" ry="2.5" style="stroke:#181818;stroke-width:0.5;" width="84.8066" x="728.3584" y="31.3789"/><text fill="#000000" font-family="sans-serif" font-size="14" lengthAdjust="spacing" textLength="47.4688" x="747.0273" y="53.4863">mapper</text><text fill="#000000" font-family="sans-serif" font-size="14" lengthAdjust="spacing" textLength="70.8066" x="735.3584" y="72.1074">:TipMapper</text><rect fill="#E3E3E3" height="51.2422" rx="2.5" ry="2.5" style="stroke:#181818;stroke-width:0.5;" width="84.8066" x="728.3584" y="679.5684"/><text fill="#000000" font-family="sans-serif" font-size="14" lengthAdjust="spacing" textLength="47.4688" x="747.0273" y="701.6758">mapper</text><text fill="#000000" font-family="sans-serif" font-size="14" lengthAdjust="spacing" textLength="70.8066" x="735.3584" y="720.2969">:TipMapper</text><rect fill="#E3E3E3" height="32.6211" rx="2.5" ry="2.5" style="stroke:#181818;stroke-width:0.5;" width="111.2549" x="884.2515" y="50"/><text fill="#000000" font-family="sans-serif" font-size="14" lengthAdjust="spacing" textLength="97.2549" x="891.2515" y="72.1074">:TipsRepository</text><rect fill="#E3E3E3" height="32.6211" rx="2.5" ry="2.5" style="stroke:#181818;stroke-width:0.5;" width="111.2549" x="884.2515" y="679.5684"/><text fill="#000000" font-family="sans-serif" font-size="14" lengthAdjust="spacing" textLength="97.2549" x="891.2515" y="701.6758">:TipsRepository</text><rect fill="#E3E3E3" height="32.6211" rx="2.5" ry="2.5" style="stroke:#181818;stroke-width:0.5;" width="108.1445" x="1005.5063" y="50"/><text fill="#000000" font-family="sans-serif" font-size="14" lengthAdjust="spacing" textLength="94.1445" x="1012.5063" y="72.1074">favoriteTipsList</text><rect fill="#E3E3E3" height="32.6211" rx="2.5" ry="2.5" style="stroke:#181818;stroke-width:0.5;" width="108.1445" x="1005.5063" y="679.5684"/><text fill="#000000" font-family="sans-serif" font-size="14" lengthAdjust="spacing" textLength="94.1445" x="1012.5063" y="701.6758">favoriteTipsList</text><rect fill="#E3E3E3" height="51.2422" rx="2.5" ry="2.5" style="stroke:#181818;stroke-width:0.5;" width="66.8896" x="1123.6509" y="31.3789"/><text fill="#000000" font-family="sans-serif" font-size="14" lengthAdjust="spacing" textLength="44.3379" x="1134.9268" y="53.4863">tipDTO</text><text fill="#000000" font-family="sans-serif" font-size="14" lengthAdjust="spacing" textLength="52.8896" x="1130.6509" y="72.1074">:TipDTO</text><rect fill="#E3E3E3" height="51.2422" rx="2.5" ry="2.5" style="stroke:#181818;stroke-width:0.5;" width="66.8896" x="1123.6509" y="679.5684"/><text fill="#000000" font-family="sans-serif" font-size="14" lengthAdjust="spacing" textLength="44.3379" x="1134.9268" y="701.6758">tipDTO</text><text fill="#000000" font-family="sans-serif" font-size="14" lengthAdjust="spacing" textLength="52.8896" x="1130.6509" y="720.2969">:TipDTO</text><rect fill="#E3E3E3" height="32.6211" rx="2.5" ry="2.5" style="stroke:#181818;stroke-width:0.5;" width="87.124" x="1200.5405" y="50"/><text fill="#000000" font-family="sans-serif" font-size="14" lengthAdjust="spacing" textLength="73.124" x="1207.5405" y="72.1074">tipsDTOList</text><rect fill="#E3E3E3" height="32.6211" rx="2.5" ry="2.5" style="stroke:#181818;stroke-width:0.5;" width="87.124" x="1200.5405" y="679.5684"/><text fill="#000000" font-family="sans-serif" font-size="14" lengthAdjust="spacing" textLength="73.124" x="1207.5405" y="701.6758">tipsDTOList</text><rect fill="#FFFFFF" height="568.9473" style="stroke:#181818;stroke-width:1.0;" width="10" x="29.0586" y="93.6211"/><rect fill="#FFFFFF" height="545.6563" style="stroke:#181818;stroke-width:1.0;" width="10" x="223.1875" y="116.9121"/><rect fill="#FFFFFF" height="483.0742" style="stroke:#181818;stroke-width:1.0;" width="10" x="407.1792" y="148.2031"/><rect fill="#FFFFFF" height="420.4922" style="stroke:#181818;stroke-width:1.0;" width="10" x="591.1709" y="179.4941"/><rect fill="#FFFFFF" height="295.3281" style="stroke:#181818;stroke-width:1.0;" width="10" x="765.7617" y="273.3672"/><rect fill="#FFFFFF" height="31.291" style="stroke:#181818;stroke-width:1.0;" width="10" x="934.8789" y="210.7852"/><rect fill="#FFFFFF" height="31.291" style="stroke:#181818;stroke-width:1.0;" width="10" x="1054.5786" y="392.2402"/><rect fill="#FFFFFF" height="30" style="stroke:#181818;stroke-width:1.0;" width="10" x="1239.1025" y="304.6582"/><polygon fill="#181818" points="211.1875,112.9121,221.1875,116.9121,211.1875,120.9121,215.1875,116.9121" style="stroke:#181818;stroke-width:1.0;"/><line style="stroke:#181818;stroke-width:1.0;" x1="39.0586" x2="217.1875" y1="116.9121" y2="116.9121"/><text fill="#000000" font-family="sans-serif" font-size="13" font-weight="bold" lengthAdjust="spacing" textLength="7.23" x="46.0586" y="111.6494">1</text><text fill="#000000" font-family="sans-serif" font-size="13" lengthAdjust="spacing" textLength="153.8989" x="57.2886" y="111.6494">requests to list favorite tips</text><polygon fill="#181818" points="395.1792,144.2031,405.1792,148.2031,395.1792,152.2031,399.1792,148.2031" style="stroke:#181818;stroke-width:1.0;"/><line style="stroke:#181818;stroke-width:1.0;" x1="233.1875" x2="401.1792" y1="148.2031" y2="148.2031"/><text fill="#000000" font-family="sans-serif" font-size="13" font-weight="bold" lengthAdjust="spacing" textLength="7.23" x="240.1875" y="142.9404">2</text><text fill="#000000" font-family="sans-serif" font-size="13" lengthAdjust="spacing" textLength="143.7617" x="251.4175" y="142.9404">GetFavoritedTipsAsync()</text><polygon fill="#181818" points="579.1709,175.4941,589.1709,179.4941,579.1709,183.4941,583.1709,179.4941" style="stroke:#181818;stroke-width:1.0;"/><line style="stroke:#181818;stroke-width:1.0;" x1="417.1792" x2="585.1709" y1="179.4941" y2="179.4941"/><text fill="#000000" font-family="sans-serif" font-size="13" font-weight="bold" lengthAdjust="spacing" textLength="7.23" x="424.1792" y="174.2314">3</text><text fill="#000000" font-family="sans-serif" font-size="13" lengthAdjust="spacing" textLength="143.7617" x="435.4092" y="174.2314">GetFavoritedTipsAsync()</text><polygon fill="#181818" points="922.8789,206.7852,932.8789,210.7852,922.8789,214.7852,926.8789,210.7852" style="stroke:#181818;stroke-width:1.0;"/><line style="stroke:#181818;stroke-width:1.0;" x1="601.1709" x2="928.8789" y1="210.7852" y2="210.7852"/><text fill="#000000" font-family="sans-serif" font-size="13" font-weight="bold" lengthAdjust="spacing" textLength="7.23" x="608.1709" y="205.5225">4</text><text fill="#000000" font-family="sans-serif" font-size="13" lengthAdjust="spacing" textLength="83.0781" x="619.4009" y="205.5225">findFavorites()</text><line style="stroke:#181818;stroke-width:1.0;" x1="602.1709" x2="612.1709" y1="242.0762" y2="238.0762"/><line style="stroke:#181818;stroke-width:1.0;" x1="602.1709" x2="612.1709" y1="242.0762" y2="246.0762"/><line style="stroke:#181818;stroke-width:1.0;stroke-dasharray:2.0,2.0;" x1="601.1709" x2="938.8789" y1="242.0762" y2="242.0762"/><text fill="#000000" font-family="sans-serif" font-size="13" font-weight="bold" lengthAdjust="spacing" textLength="7.23" x="618.1709" y="236.8135">5</text><text fill="#000000" font-family="sans-serif" font-size="13" lengthAdjust="spacing" textLength="131.4917" x="629.4009" y="236.8135">returns favoriteTipsList</text><polygon fill="#181818" points="753.7617,269.3672,763.7617,273.3672,753.7617,277.3672,757.7617,273.3672" style="stroke:#181818;stroke-width:1.0;"/><line style="stroke:#181818;stroke-width:1.0;" x1="601.1709" x2="759.7617" y1="273.3672" y2="273.3672"/><text fill="#000000" font-family="sans-serif" font-size="13" font-weight="bold" lengthAdjust="spacing" textLength="7.23" x="608.1709" y="268.1045">6</text><text fill="#000000" font-family="sans-serif" font-size="13" lengthAdjust="spacing" textLength="134.3608" x="619.4009" y="268.1045">toDTO(favoriteTipsList)</text><polygon fill="#181818" points="1227.1025,300.6582,1237.1025,304.6582,1227.1025,308.6582,1231.1025,304.6582" style="stroke:#181818;stroke-width:1.0;"/><line style="stroke:#181818;stroke-width:1.0;" x1="775.7617" x2="1233.1025" y1="304.6582" y2="304.6582"/><text fill="#000000" font-family="sans-serif" font-size="13" font-weight="bold" lengthAdjust="spacing" textLength="7.23" x="782.7617" y="299.3955">7</text><text fill="#000000" font-family="sans-serif" font-size="13" lengthAdjust="spacing" textLength="44.7891" x="793.9917" y="299.3955">create()</text><path d="M718.3584,349.6582 L790.793,349.6582 L790.793,358.9492 L780.793,368.9492 L718.3584,368.9492 L718.3584,349.6582 " fill="#EEEEEE" style="stroke:#000000;stroke-width:1.5;"/><rect fill="none" height="188.7461" style="stroke:#000000;stroke-width:1.5;" width="579.3062" x="718.3584" y="349.6582"/><text fill="#000000" font-family="sans-serif" font-size="13" font-weight="bold" lengthAdjust="spacing" textLength="27.4346" x="733.3584" y="364.6865">loop</text><text fill="#000000" font-family="sans-serif" font-size="11" font-weight="bold" lengthAdjust="spacing" textLength="165.0161" x="805.793" y="363.5283">[for each tip in FAVE_TIP_LIST]</text><polygon fill="#181818" points="1042.5786,388.2402,1052.5786,392.2402,1042.5786,396.2402,1046.5786,392.2402" style="stroke:#181818;stroke-width:1.0;"/><line style="stroke:#181818;stroke-width:1.0;" x1="775.7617" x2="1048.5786" y1="392.2402" y2="392.2402"/><text fill="#000000" font-family="sans-serif" font-size="13" font-weight="bold" lengthAdjust="spacing" textLength="7.23" x="782.7617" y="386.9775">8</text><text fill="#000000" font-family="sans-serif" font-size="13" lengthAdjust="spacing" textLength="29.6182" x="793.9917" y="386.9775">get(i)</text><line style="stroke:#181818;stroke-width:1.0;" x1="776.7617" x2="786.7617" y1="423.5313" y2="419.5313"/><line style="stroke:#181818;stroke-width:1.0;" x1="776.7617" x2="786.7617" y1="423.5313" y2="427.5313"/><line style="stroke:#181818;stroke-width:1.0;stroke-dasharray:2.0,2.0;" x1="775.7617" x2="1058.5786" y1="423.5313" y2="423.5313"/><text fill="#000000" font-family="sans-serif" font-size="13" font-weight="bold" lengthAdjust="spacing" textLength="7.23" x="792.7617" y="418.2686">9</text><text fill="#000000" font-family="sans-serif" font-size="13" lengthAdjust="spacing" textLength="13.73" x="803.9917" y="418.2686">tip</text><line style="stroke:#181818;stroke-width:1.0;" x1="775.7617" x2="817.7617" y1="454.8223" y2="454.8223"/><line style="stroke:#181818;stroke-width:1.0;" x1="817.7617" x2="817.7617" y1="454.8223" y2="467.8223"/><line style="stroke:#181818;stroke-width:1.0;" x1="776.7617" x2="817.7617" y1="467.8223" y2="467.8223"/><polygon fill="#181818" points="786.7617,463.8223,776.7617,467.8223,786.7617,471.8223,782.7617,467.8223" style="stroke:#181818;stroke-width:1.0;"/><text fill="#000000" font-family="sans-serif" font-size="13" font-weight="bold" lengthAdjust="spacing" textLength="14.46" x="782.7617" y="449.5596">10</text><text fill="#000000" font-family="sans-serif" font-size="13" lengthAdjust="spacing" textLength="116.6572" x="801.2217" y="449.5596">tipDTO = toDTO(tip)</text><line style="stroke:#181818;stroke-width:1.0;" x1="1155.0957" x2="1145.0957" y1="499.1133" y2="495.1133"/><line style="stroke:#181818;stroke-width:1.0;" x1="1155.0957" x2="1145.0957" y1="499.1133" y2="503.1133"/><line style="stroke:#181818;stroke-width:1.0;stroke-dasharray:2.0,2.0;" x1="775.7617" x2="1156.0957" y1="499.1133" y2="499.1133"/><text fill="#000000" font-family="sans-serif" font-size="13" font-weight="bold" lengthAdjust="spacing" textLength="14.46" x="782.7617" y="493.8506">11</text><text fill="#000000" font-family="sans-serif" font-size="13" lengthAdjust="spacing" textLength="55.6245" x="801.2217" y="493.8506">create(...)</text><polygon fill="#181818" points="1232.1025,526.4043,1242.1025,530.4043,1232.1025,534.4043,1236.1025,530.4043" style="stroke:#181818;stroke-width:1.0;"/><line style="stroke:#181818;stroke-width:1.0;" x1="775.7617" x2="1238.1025" y1="530.4043" y2="530.4043"/><text fill="#000000" font-family="sans-serif" font-size="13" font-weight="bold" lengthAdjust="spacing" textLength="14.46" x="782.7617" y="525.1416">12</text><text fill="#000000" font-family="sans-serif" font-size="13" lengthAdjust="spacing" textLength="71.519" x="801.2217" y="525.1416">add(tipDTO)</text><polygon fill="#181818" points="612.1709,564.6953,602.1709,568.6953,612.1709,572.6953,608.1709,568.6953" style="stroke:#181818;stroke-width:1.0;"/><line style="stroke:#181818;stroke-width:1.0;stroke-dasharray:2.0,2.0;" x1="606.1709" x2="769.7617" y1="568.6953" y2="568.6953"/><text fill="#000000" font-family="sans-serif" font-size="13" font-weight="bold" lengthAdjust="spacing" textLength="14.46" x="618.1709" y="563.4326">13</text><text fill="#000000" font-family="sans-serif" font-size="13" lengthAdjust="spacing" textLength="67.9009" x="636.6309" y="563.4326">tipsDTOList</text><polygon fill="#181818" points="428.1792,595.9863,418.1792,599.9863,428.1792,603.9863,424.1792,599.9863" style="stroke:#181818;stroke-width:1.0;"/><line style="stroke:#181818;stroke-width:1.0;stroke-dasharray:2.0,2.0;" x1="422.1792" x2="595.1709" y1="599.9863" y2="599.9863"/><text fill="#000000" font-family="sans-serif" font-size="13" font-weight="bold" lengthAdjust="spacing" textLength="14.46" x="434.1792" y="594.7236">14</text><text fill="#000000" font-family="sans-serif" font-size="13" lengthAdjust="spacing" textLength="67.9009" x="452.6392" y="594.7236">tipsDTOList</text><polygon fill="#181818" points="244.1875,627.2773,234.1875,631.2773,244.1875,635.2773,240.1875,631.2773" style="stroke:#181818;stroke-width:1.0;"/><line style="stroke:#181818;stroke-width:1.0;stroke-dasharray:2.0,2.0;" x1="238.1875" x2="411.1792" y1="631.2773" y2="631.2773"/><text fill="#000000" font-family="sans-serif" font-size="13" font-weight="bold" lengthAdjust="spacing" textLength="14.46" x="250.1875" y="626.0146">15</text><text fill="#000000" font-family="sans-serif" font-size="13" lengthAdjust="spacing" textLength="67.9009" x="268.6475" y="626.0146">tipsDTOList</text><polygon fill="#181818" points="45.0586,658.5684,35.0586,662.5684,45.0586,666.5684,41.0586,662.5684" style="stroke:#181818;stroke-width:1.0;"/><line style="stroke:#181818;stroke-width:1.0;stroke-dasharray:2.0,2.0;" x1="39.0586" x2="227.1875" y1="662.5684" y2="662.5684"/><text fill="#000000" font-family="sans-serif" font-size="13" font-weight="bold" lengthAdjust="spacing" textLength="14.46" x="51.0586" y="657.3057">16</text><text fill="#000000" font-family="sans-serif" font-size="13" lengthAdjust="spacing" textLength="67.9009" x="69.5186" y="657.3057">tipsDTOList</text><!--SRC=[ZPJDRk8m58NtUGgB5IpW0IfD9TIXeqXKHIHqDLBbIIvWDR5Tsw7YxUVQpfz3YCZAYS_vV7EkRVt5kAIAbgGKN6Hd9KeWHbKGwNP6qkoBdY0nrmA8WinGVYhw0dsckVXX_4IEjD0GHRGoWbVbFr0upenGPBOkYeC6fMU4Qd98Dli8lOPbJ59koEmfPV8G-yduTkf5SAD4KO1oafTqlxqL9Q0kB0Edm0K-GaL9fGJrbrlbcnixuTjwjnihHkz12ismzglJfV7kSx_PlOVA8xq8nGnOmvPfuwIlwu_DfzLluoGDzOR9t-cxBm87Jkw_kQ3OXHhmwKG47piYosUCX3nXyjyLQ8C6GGfSYpIBMu9s-WuHUu23n1PX8qF87p2ljIstHQ_rbMVpHIjk2IxYzhDz7059Dje7I07DjIEOieyZ8R795gb7nlC6gmUqWDZsOwXeOSlbSrki0bCfhicmNpVk76vNYCPgzli6qKPWz-P3y9qSwjqMJDOaPDe-8ipw4PmfGCkzH7lQwCuFz2M1fX12aYEUIjIUhOmmFjYrmrow8WCTbda2CsSJZPhcXZJNiYvP9gVw4u8dAku3CG_og-uPlYxkscmbjRvjnMgrMamj5FQFvldS4y9LWEVZ6w0xMmyqTsmd-RtP7VO7CE71z4UykN36x3rhTqFO6yQQaYRbmDQps6kf_ug6_m00]--></g></svg>