<svg xmlns="http://www.w3.org/2000/svg" xmlns:xlink="http://www.w3.org/1999/xlink" contentStyleType="text/css" height="683px" preserveAspectRatio="none" style="width:394px;height:683px;background:#FFFFFF;" version="1.1" viewBox="0 0 394 683" width="394px" zoomAndPan="magnify"><defs/><g><!--class TipUI--><g id="elem_TipUI"><rect codeLine="7" fill="#F1F1F1" height="48" id="TipUI" rx="2.5" ry="2.5" style="stroke:#181818;stroke-width:0.5;" width="65.4482" x="41.5" y="134"/><ellipse cx="56.5" cy="150" fill="#ADD1B2" rx="11" ry="11" style="stroke:#181818;stroke-width:1.0;"/><path d="M59.2656,145.875 Q59.4219,145.6563 59.6094,145.5469 Q59.7969,145.4375 60.0156,145.4375 Q60.3906,145.4375 60.625,145.7031 Q60.8594,145.9531 60.8594,146.5625 L60.8594,148.0156 Q60.8594,148.625 60.625,148.8906 Q60.3906,149.1563 60.0156,149.1563 Q59.6719,149.1563 59.4688,148.9531 Q59.2656,148.7656 59.1563,148.25 Q59.1094,147.8906 58.9219,147.7031 Q58.5938,147.3281 57.9844,147.1094 Q57.375,146.8906 56.75,146.8906 Q55.9844,146.8906 55.3438,147.2188 Q54.7188,147.5469 54.2188,148.2969 Q53.7344,149.0469 53.7344,150.0781 L53.7344,151.1719 Q53.7344,152.4063 54.625,153.2344 Q55.5156,154.0469 57.1094,154.0469 Q58.0469,154.0469 58.7031,153.7969 Q59.0938,153.6406 59.5156,153.2031 Q59.7813,152.9375 59.9219,152.8594 Q60.0781,152.7813 60.2813,152.7813 Q60.6094,152.7813 60.8594,153.0469 Q61.125,153.2969 61.125,153.6406 Q61.125,153.9844 60.7813,154.3906 Q60.2813,154.9688 59.4844,155.2969 Q58.4063,155.75 57.1094,155.75 Q55.5938,155.75 54.3906,155.125 Q53.4063,154.625 52.7188,153.5625 Q52.0313,152.4844 52.0313,151.2031 L52.0313,150.0469 Q52.0313,148.7188 52.6406,147.5781 Q53.2656,146.4219 54.3594,145.8125 Q55.4531,145.1875 56.6875,145.1875 Q57.4219,145.1875 58.0625,145.3594 Q58.7188,145.5156 59.2656,145.875 Z " fill="#000000"/><text fill="#000000" font-family="sans-serif" font-size="14" lengthAdjust="spacing" textLength="33.4482" x="70.5" y="155.7969">TipUI</text><line style="stroke:#181818;stroke-width:0.5;" x1="42.5" x2="105.9482" y1="166" y2="166"/><line style="stroke:#181818;stroke-width:0.5;" x1="42.5" x2="105.9482" y1="174" y2="174"/></g><!--class TipController--><g id="elem_TipController"><rect codeLine="10" fill="#F1F1F1" height="66.6211" id="TipController" rx="2.5" ry="2.5" style="stroke:#181818;stroke-width:0.5;" width="133.7686" x="7" y="243"/><ellipse cx="31.7339" cy="259" fill="#ADD1B2" rx="11" ry="11" style="stroke:#181818;stroke-width:1.0;"/><path d="M34.4995,254.875 Q34.6558,254.6563 34.8433,254.5469 Q35.0308,254.4375 35.2495,254.4375 Q35.6245,254.4375 35.8589,254.7031 Q36.0933,254.9531 36.0933,255.5625 L36.0933,257.0156 Q36.0933,257.625 35.8589,257.8906 Q35.6245,258.1563 35.2495,258.1563 Q34.9058,258.1563 34.7026,257.9531 Q34.4995,257.7656 34.3901,257.25 Q34.3433,256.8906 34.1558,256.7031 Q33.8276,256.3281 33.2183,256.1094 Q32.6089,255.8906 31.9839,255.8906 Q31.2183,255.8906 30.5776,256.2188 Q29.9526,256.5469 29.4526,257.2969 Q28.9683,258.0469 28.9683,259.0781 L28.9683,260.1719 Q28.9683,261.4063 29.8589,262.2344 Q30.7495,263.0469 32.3433,263.0469 Q33.2808,263.0469 33.937,262.7969 Q34.3276,262.6406 34.7495,262.2031 Q35.0151,261.9375 35.1558,261.8594 Q35.312,261.7813 35.5151,261.7813 Q35.8433,261.7813 36.0933,262.0469 Q36.3589,262.2969 36.3589,262.6406 Q36.3589,262.9844 36.0151,263.3906 Q35.5151,263.9688 34.7183,264.2969 Q33.6401,264.75 32.3433,264.75 Q30.8276,264.75 29.6245,264.125 Q28.6401,263.625 27.9526,262.5625 Q27.2651,261.4844 27.2651,260.2031 L27.2651,259.0469 Q27.2651,257.7188 27.8745,256.5781 Q28.4995,255.4219 29.5933,254.8125 Q30.687,254.1875 31.9214,254.1875 Q32.6558,254.1875 33.2964,254.3594 Q33.9526,254.5156 34.4995,254.875 Z " fill="#000000"/><text fill="#000000" font-family="sans-serif" font-size="14" lengthAdjust="spacing" textLength="80.1377" x="47.897" y="264.7969">TipController</text><line style="stroke:#181818;stroke-width:0.5;" x1="8" x2="139.7686" y1="275" y2="275"/><line style="stroke:#181818;stroke-width:0.5;" x1="8" x2="139.7686" y1="283" y2="283"/><text fill="#000000" font-family="sans-serif" font-size="14" lengthAdjust="spacing" textLength="121.7686" x="13" y="302.1074">+getFavoritedTips()</text></g><!--class TipService--><g id="elem_TipService"><rect codeLine="14" fill="#F1F1F1" height="66.6211" id="TipService" rx="2.5" ry="2.5" style="stroke:#181818;stroke-width:0.5;" width="133.7686" x="176" y="243"/><ellipse cx="207.037" cy="259" fill="#ADD1B2" rx="11" ry="11" style="stroke:#181818;stroke-width:1.0;"/><path d="M209.8026,254.875 Q209.9588,254.6563 210.1463,254.5469 Q210.3338,254.4375 210.5526,254.4375 Q210.9276,254.4375 211.162,254.7031 Q211.3963,254.9531 211.3963,255.5625 L211.3963,257.0156 Q211.3963,257.625 211.162,257.8906 Q210.9276,258.1563 210.5526,258.1563 Q210.2088,258.1563 210.0057,257.9531 Q209.8026,257.7656 209.6932,257.25 Q209.6463,256.8906 209.4588,256.7031 Q209.1307,256.3281 208.5213,256.1094 Q207.912,255.8906 207.287,255.8906 Q206.5213,255.8906 205.8807,256.2188 Q205.2557,256.5469 204.7557,257.2969 Q204.2713,258.0469 204.2713,259.0781 L204.2713,260.1719 Q204.2713,261.4063 205.162,262.2344 Q206.0526,263.0469 207.6463,263.0469 Q208.5838,263.0469 209.2401,262.7969 Q209.6307,262.6406 210.0526,262.2031 Q210.3182,261.9375 210.4588,261.8594 Q210.6151,261.7813 210.8182,261.7813 Q211.1463,261.7813 211.3963,262.0469 Q211.662,262.2969 211.662,262.6406 Q211.662,262.9844 211.3182,263.3906 Q210.8182,263.9688 210.0213,264.2969 Q208.9432,264.75 207.6463,264.75 Q206.1307,264.75 204.9276,264.125 Q203.9432,263.625 203.2557,262.5625 Q202.5682,261.4844 202.5682,260.2031 L202.5682,259.0469 Q202.5682,257.7188 203.1776,256.5781 Q203.8026,255.4219 204.8963,254.8125 Q205.9901,254.1875 207.2245,254.1875 Q207.9588,254.1875 208.5995,254.3594 Q209.2557,254.5156 209.8026,254.875 Z " fill="#000000"/><text fill="#000000" font-family="sans-serif" font-size="14" lengthAdjust="spacing" textLength="66.1309" x="224.6007" y="264.7969">TipService</text><line style="stroke:#181818;stroke-width:0.5;" x1="177" x2="308.7686" y1="275" y2="275"/><line style="stroke:#181818;stroke-width:0.5;" x1="177" x2="308.7686" y1="283" y2="283"/><text fill="#000000" font-family="sans-serif" font-size="14" lengthAdjust="spacing" textLength="121.7686" x="182" y="302.1074">+getFavoritedTips()</text></g><!--class TipRepository--><g id="elem_TipRepository"><rect codeLine="18" fill="#F1F1F1" height="66.6211" id="TipRepository" rx="2.5" ry="2.5" style="stroke:#181818;stroke-width:0.5;" width="118.3652" x="100" y="380"/><ellipse cx="115" cy="396" fill="#B4A7E5" rx="11" ry="11" style="stroke:#181818;stroke-width:1.0;"/><path d="M115.9531,392.6406 L115.9531,399.2969 L117.6719,399.2969 Q118.2813,399.2969 118.5469,399.5313 Q118.8125,399.7656 118.8125,400.1563 Q118.8125,400.5313 118.5469,400.7656 Q118.2813,401 117.6719,401 L112.5313,401 Q111.9219,401 111.6563,400.7656 Q111.3906,400.5313 111.3906,400.1406 Q111.3906,399.7656 111.6563,399.5313 Q111.9219,399.2969 112.5313,399.2969 L114.25,399.2969 L114.25,392.6406 L112.5313,392.6406 Q111.9219,392.6406 111.6563,392.4063 Q111.3906,392.1719 111.3906,391.7813 Q111.3906,391.4063 111.6563,391.1719 Q111.9219,390.9375 112.5313,390.9375 L117.6719,390.9375 Q118.2813,390.9375 118.5469,391.1719 Q118.8125,391.4063 118.8125,391.7813 Q118.8125,392.1719 118.5469,392.4063 Q118.2813,392.6406 117.6719,392.6406 L115.9531,392.6406 Z " fill="#000000"/><text fill="#000000" font-family="sans-serif" font-size="14" font-style="italic" lengthAdjust="spacing" textLength="86.3652" x="129" y="401.7969">TipRepository</text><line style="stroke:#181818;stroke-width:0.5;" x1="101" x2="217.3652" y1="412" y2="412"/><line style="stroke:#181818;stroke-width:0.5;" x1="101" x2="217.3652" y1="420" y2="420"/><text fill="#000000" font-family="sans-serif" font-size="14" lengthAdjust="spacing" textLength="97.6445" x="106" y="439.1074">+findFavorites()</text></g><!--class AllUsers--><g id="elem_AllUsers"><rect codeLine="22" fill="#F1F1F1" height="48" id="AllUsers" rx="2.5" ry="2.5" style="stroke:#181818;stroke-width:0.5;" width="84.1172" x="32" y="7"/><ellipse cx="47" cy="23" fill="#ADD1B2" rx="11" ry="11" style="stroke:#181818;stroke-width:1.0;"/><path d="M49.7656,18.875 Q49.9219,18.6563 50.1094,18.5469 Q50.2969,18.4375 50.5156,18.4375 Q50.8906,18.4375 51.125,18.7031 Q51.3594,18.9531 51.3594,19.5625 L51.3594,21.0156 Q51.3594,21.625 51.125,21.8906 Q50.8906,22.1563 50.5156,22.1563 Q50.1719,22.1563 49.9688,21.9531 Q49.7656,21.7656 49.6563,21.25 Q49.6094,20.8906 49.4219,20.7031 Q49.0938,20.3281 48.4844,20.1094 Q47.875,19.8906 47.25,19.8906 Q46.4844,19.8906 45.8438,20.2188 Q45.2188,20.5469 44.7188,21.2969 Q44.2344,22.0469 44.2344,23.0781 L44.2344,24.1719 Q44.2344,25.4063 45.125,26.2344 Q46.0156,27.0469 47.6094,27.0469 Q48.5469,27.0469 49.2031,26.7969 Q49.5938,26.6406 50.0156,26.2031 Q50.2813,25.9375 50.4219,25.8594 Q50.5781,25.7813 50.7813,25.7813 Q51.1094,25.7813 51.3594,26.0469 Q51.625,26.2969 51.625,26.6406 Q51.625,26.9844 51.2813,27.3906 Q50.7813,27.9688 49.9844,28.2969 Q48.9063,28.75 47.6094,28.75 Q46.0938,28.75 44.8906,28.125 Q43.9063,27.625 43.2188,26.5625 Q42.5313,25.4844 42.5313,24.2031 L42.5313,23.0469 Q42.5313,21.7188 43.1406,20.5781 Q43.7656,19.4219 44.8594,18.8125 Q45.9531,18.1875 47.1875,18.1875 Q47.9219,18.1875 48.5625,18.3594 Q49.2188,18.5156 49.7656,18.875 Z " fill="#000000"/><text fill="#000000" font-family="sans-serif" font-size="14" lengthAdjust="spacing" textLength="52.1172" x="61" y="28.7969">AllUsers</text><line style="stroke:#181818;stroke-width:0.5;" x1="33" x2="115.1172" y1="39" y2="39"/><line style="stroke:#181818;stroke-width:0.5;" x1="33" x2="115.1172" y1="47" y2="47"/></g><!--class Tip--><g id="elem_Tip"><rect codeLine="25" fill="#F1F1F1" height="141.1055" id="Tip" rx="2.5" ry="2.5" style="stroke:#181818;stroke-width:0.5;" width="128.7168" x="94.5" y="535"/><ellipse cx="144.8843" cy="551" fill="#ADD1B2" rx="11" ry="11" style="stroke:#181818;stroke-width:1.0;"/><path d="M147.6499,546.875 Q147.8062,546.6563 147.9937,546.5469 Q148.1812,546.4375 148.3999,546.4375 Q148.7749,546.4375 149.0093,546.7031 Q149.2437,546.9531 149.2437,547.5625 L149.2437,549.0156 Q149.2437,549.625 149.0093,549.8906 Q148.7749,550.1563 148.3999,550.1563 Q148.0562,550.1563 147.853,549.9531 Q147.6499,549.7656 147.5405,549.25 Q147.4937,548.8906 147.3062,548.7031 Q146.978,548.3281 146.3687,548.1094 Q145.7593,547.8906 145.1343,547.8906 Q144.3687,547.8906 143.728,548.2188 Q143.103,548.5469 142.603,549.2969 Q142.1187,550.0469 142.1187,551.0781 L142.1187,552.1719 Q142.1187,553.4063 143.0093,554.2344 Q143.8999,555.0469 145.4937,555.0469 Q146.4312,555.0469 147.0874,554.7969 Q147.478,554.6406 147.8999,554.2031 Q148.1655,553.9375 148.3062,553.8594 Q148.4624,553.7813 148.6655,553.7813 Q148.9937,553.7813 149.2437,554.0469 Q149.5093,554.2969 149.5093,554.6406 Q149.5093,554.9844 149.1655,555.3906 Q148.6655,555.9688 147.8687,556.2969 Q146.7905,556.75 145.4937,556.75 Q143.978,556.75 142.7749,556.125 Q141.7905,555.625 141.103,554.5625 Q140.4155,553.4844 140.4155,552.2031 L140.4155,551.0469 Q140.4155,549.7188 141.0249,548.5781 Q141.6499,547.4219 142.7437,546.8125 Q143.8374,546.1875 145.0718,546.1875 Q145.8062,546.1875 146.4468,546.3594 Q147.103,546.5156 147.6499,546.875 Z " fill="#000000"/><text fill="#000000" font-family="sans-serif" font-size="14" lengthAdjust="spacing" textLength="19.4482" x="165.3843" y="556.7969">Tip</text><line style="stroke:#181818;stroke-width:0.5;" x1="95.5" x2="222.2168" y1="567" y2="567"/><text fill="#000000" font-family="sans-serif" font-size="14" lengthAdjust="spacing" textLength="59.9102" x="100.5" y="586.1074">-id: String</text><text fill="#000000" font-family="sans-serif" font-size="14" lengthAdjust="spacing" textLength="70.7998" x="100.5" y="604.7285">-title: String</text><text fill="#000000" font-family="sans-serif" font-size="14" lengthAdjust="spacing" textLength="116.7168" x="100.5" y="623.3496">-description: String</text><text fill="#000000" font-family="sans-serif" font-size="14" lengthAdjust="spacing" textLength="85.5928" x="100.5" y="641.9707">-likeCount: int</text><text fill="#000000" font-family="sans-serif" font-size="14" lengthAdjust="spacing" textLength="110.4961" x="100.5" y="660.5918">-favoriteCount: int</text><line style="stroke:#181818;stroke-width:0.5;" x1="95.5" x2="222.2168" y1="668.1055" y2="668.1055"/></g><!--class TipMapper--><g id="elem_TipMapper"><rect codeLine="34" fill="#F1F1F1" height="85.2422" id="TipMapper" rx="2.5" ry="2.5" style="stroke:#181818;stroke-width:0.5;" width="98.917" x="253.5" y="371"/><ellipse cx="268.5" cy="387" fill="#ADD1B2" rx="11" ry="11" style="stroke:#181818;stroke-width:1.0;"/><path d="M271.2656,382.875 Q271.4219,382.6563 271.6094,382.5469 Q271.7969,382.4375 272.0156,382.4375 Q272.3906,382.4375 272.625,382.7031 Q272.8594,382.9531 272.8594,383.5625 L272.8594,385.0156 Q272.8594,385.625 272.625,385.8906 Q272.3906,386.1563 272.0156,386.1563 Q271.6719,386.1563 271.4688,385.9531 Q271.2656,385.7656 271.1563,385.25 Q271.1094,384.8906 270.9219,384.7031 Q270.5938,384.3281 269.9844,384.1094 Q269.375,383.8906 268.75,383.8906 Q267.9844,383.8906 267.3438,384.2188 Q266.7188,384.5469 266.2188,385.2969 Q265.7344,386.0469 265.7344,387.0781 L265.7344,388.1719 Q265.7344,389.4063 266.625,390.2344 Q267.5156,391.0469 269.1094,391.0469 Q270.0469,391.0469 270.7031,390.7969 Q271.0938,390.6406 271.5156,390.2031 Q271.7813,389.9375 271.9219,389.8594 Q272.0781,389.7813 272.2813,389.7813 Q272.6094,389.7813 272.8594,390.0469 Q273.125,390.2969 273.125,390.6406 Q273.125,390.9844 272.7813,391.3906 Q272.2813,391.9688 271.4844,392.2969 Q270.4063,392.75 269.1094,392.75 Q267.5938,392.75 266.3906,392.125 Q265.4063,391.625 264.7188,390.5625 Q264.0313,389.4844 264.0313,388.2031 L264.0313,387.0469 Q264.0313,385.7188 264.6406,384.5781 Q265.2656,383.4219 266.3594,382.8125 Q267.4531,382.1875 268.6875,382.1875 Q269.4219,382.1875 270.0625,382.3594 Q270.7188,382.5156 271.2656,382.875 Z " fill="#000000"/><text fill="#000000" font-family="sans-serif" font-size="14" lengthAdjust="spacing" textLength="66.917" x="282.5" y="392.7969">TipMapper</text><line style="stroke:#181818;stroke-width:0.5;" x1="254.5" x2="351.417" y1="403" y2="403"/><line style="stroke:#181818;stroke-width:0.5;" x1="254.5" x2="351.417" y1="411" y2="411"/><text fill="#000000" font-family="sans-serif" font-size="14" lengthAdjust="spacing" textLength="64.1895" x="259.5" y="430.1074">+toEntity()</text><text fill="#000000" font-family="sans-serif" font-size="14" lengthAdjust="spacing" textLength="58.7275" x="259.5" y="448.7285">+toDTO()</text></g><!--class TipDTO--><g id="elem_TipDTO"><rect codeLine="39" fill="#F1F1F1" height="141.1055" id="TipDTO" rx="2.5" ry="2.5" style="stroke:#181818;stroke-width:0.5;" width="128.7168" x="258.5" y="535"/><ellipse cx="294.9726" cy="551" fill="#ADD1B2" rx="11" ry="11" style="stroke:#181818;stroke-width:1.0;"/><path d="M297.7382,546.875 Q297.8944,546.6563 298.0819,546.5469 Q298.2694,546.4375 298.4882,546.4375 Q298.8632,546.4375 299.0976,546.7031 Q299.3319,546.9531 299.3319,547.5625 L299.3319,549.0156 Q299.3319,549.625 299.0976,549.8906 Q298.8632,550.1563 298.4882,550.1563 Q298.1444,550.1563 297.9413,549.9531 Q297.7382,549.7656 297.6288,549.25 Q297.5819,548.8906 297.3944,548.7031 Q297.0663,548.3281 296.4569,548.1094 Q295.8476,547.8906 295.2226,547.8906 Q294.4569,547.8906 293.8163,548.2188 Q293.1913,548.5469 292.6913,549.2969 Q292.2069,550.0469 292.2069,551.0781 L292.2069,552.1719 Q292.2069,553.4063 293.0976,554.2344 Q293.9882,555.0469 295.5819,555.0469 Q296.5194,555.0469 297.1757,554.7969 Q297.5663,554.6406 297.9882,554.2031 Q298.2538,553.9375 298.3944,553.8594 Q298.5507,553.7813 298.7538,553.7813 Q299.0819,553.7813 299.3319,554.0469 Q299.5976,554.2969 299.5976,554.6406 Q299.5976,554.9844 299.2538,555.3906 Q298.7538,555.9688 297.9569,556.2969 Q296.8788,556.75 295.5819,556.75 Q294.0663,556.75 292.8632,556.125 Q291.8788,555.625 291.1913,554.5625 Q290.5038,553.4844 290.5038,552.2031 L290.5038,551.0469 Q290.5038,549.7188 291.1132,548.5781 Q291.7382,547.4219 292.8319,546.8125 Q293.9257,546.1875 295.1601,546.1875 Q295.8944,546.1875 296.5351,546.3594 Q297.1913,546.5156 297.7382,546.875 Z " fill="#000000"/><text fill="#000000" font-family="sans-serif" font-size="14" lengthAdjust="spacing" textLength="49" x="313.7442" y="556.7969">TipDTO</text><line style="stroke:#181818;stroke-width:0.5;" x1="259.5" x2="386.2168" y1="567" y2="567"/><text fill="#000000" font-family="sans-serif" font-size="14" lengthAdjust="spacing" textLength="59.9102" x="264.5" y="586.1074">-id: String</text><text fill="#000000" font-family="sans-serif" font-size="14" lengthAdjust="spacing" textLength="70.7998" x="264.5" y="604.7285">-title: String</text><text fill="#000000" font-family="sans-serif" font-size="14" lengthAdjust="spacing" textLength="116.7168" x="264.5" y="623.3496">-description: String</text><text fill="#000000" font-family="sans-serif" font-size="14" lengthAdjust="spacing" textLength="85.5928" x="264.5" y="641.9707">-likeCount: int</text><text fill="#000000" font-family="sans-serif" font-size="14" lengthAdjust="spacing" textLength="110.4961" x="264.5" y="660.5918">-favoriteCount: int</text><line style="stroke:#181818;stroke-width:0.5;" x1="259.5" x2="386.2168" y1="668.1055" y2="668.1055"/></g><!--link AllUsers to TipUI--><g id="link_AllUsers_TipUI"><path codeLine="48" d="M74,55.22 C74,77.67 74,105.5 74,127.91 " fill="none" id="AllUsers-to-TipUI" style="stroke:#181818;stroke-width:1.0;stroke-dasharray:7.0,7.0;"/><polygon fill="#181818" points="74,133.91,78,124.91,74,128.91,70,124.91,74,133.91" style="stroke:#181818;stroke-width:1.0;"/><text fill="#000000" font-family="sans-serif" font-size="13" lengthAdjust="spacing" textLength="153.8989" x="75" y="100.0283">requests to list favorite tips</text></g><!--link TipUI to TipController--><g id="link_TipUI_TipController"><path codeLine="49" d="M74,182.02 C74,199.39 74,217.46 74,236.83 " fill="none" id="TipUI-to-TipController" style="stroke:#181818;stroke-width:1.0;stroke-dasharray:7.0,7.0;"/><polygon fill="#181818" points="74,242.83,78,233.83,74,237.83,70,233.83,74,242.83" style="stroke:#181818;stroke-width:1.0;"/></g><!--link TipController to TipService--><g id="link_TipController_TipService"><path codeLine="50" d="M141.19,276.5 C151.17,276.5 159.87,276.5 169.84,276.5 " fill="none" id="TipController-to-TipService" style="stroke:#181818;stroke-width:1.0;stroke-dasharray:7.0,7.0;"/><polygon fill="#181818" points="175.84,276.5,166.84,272.5,170.84,276.5,166.84,280.5,175.84,276.5" style="stroke:#181818;stroke-width:1.0;"/></g><!--link TipService to TipRepository--><g id="link_TipService_TipRepository"><path codeLine="51" d="M222.67,310.18 C209.56,331.25 195.74,353.4558 182.61,374.5558 " fill="none" id="TipService-to-TipRepository" style="stroke:#181818;stroke-width:1.0;stroke-dasharray:7.0,7.0;"/><polygon fill="#181818" points="179.44,379.65,187.5912,374.122,182.0817,375.4048,180.7989,369.8953,179.44,379.65" style="stroke:#181818;stroke-width:1.0;"/></g><!--link TipService to TipMapper--><g id="link_TipService_TipMapper"><path codeLine="52" d="M257.52,310.18 C265.64,328.44 273.4032,345.8971 282.0832,365.4271 " fill="none" id="TipService-to-TipMapper" style="stroke:#181818;stroke-width:1.0;stroke-dasharray:7.0,7.0;"/><polygon fill="#181818" points="284.52,370.91,284.52,361.0611,282.4893,366.3409,277.2095,364.3102,284.52,370.91" style="stroke:#181818;stroke-width:1.0;"/></g><!--link TipMapper to Tip--><g id="link_TipMapper_Tip"><path codeLine="53" d="M271.4,456.2 C253.93,479.25 235.3937,503.6979 215.3737,530.1179 " fill="none" id="TipMapper-to-Tip" style="stroke:#181818;stroke-width:1.0;stroke-dasharray:7.0,7.0;"/><polygon fill="#181818" points="211.75,534.9,220.3736,530.1426,214.7698,530.9149,213.9975,525.311,211.75,534.9" style="stroke:#181818;stroke-width:1.0;"/></g><!--link TipMapper to TipDTO--><g id="link_TipMapper_TipDTO"><path codeLine="54" d="M307.39,456.2 C309.82,479.25 312.2621,502.5129 315.0421,528.9329 " fill="none" id="TipMapper-to-TipDTO" style="stroke:#181818;stroke-width:1.0;stroke-dasharray:7.0,7.0;"/><polygon fill="#181818" points="315.67,534.9,318.7062,525.5308,315.1468,529.9275,310.7502,526.368,315.67,534.9" style="stroke:#181818;stroke-width:1.0;"/></g><!--link TipRepository to Tip--><g id="link_TipRepository_Tip"><path codeLine="55" d="M159,447.16 C159,471.25 159,498.9 159,528.91 " fill="none" id="TipRepository-to-Tip" style="stroke:#181818;stroke-width:1.0;"/><polygon fill="#181818" points="159,534.91,163,525.91,159,529.91,155,525.91,159,534.91" style="stroke:#181818;stroke-width:1.0;"/><text fill="#000000" font-family="sans-serif" font-size="13" lengthAdjust="spacing" textLength="13.73" x="160" y="501.0283">tip</text><text fill="#000000" font-family="sans-serif" font-size="13" lengthAdjust="spacing" textLength="7.23" x="151.3645" y="468.7577">1</text><text fill="#000000" font-family="sans-serif" font-size="13" lengthAdjust="spacing" textLength="5.0591" x="153.7598" y="523.7917">*</text></g><!--SRC=[nLBBJiCm4BpxAwnUU2aLN7EeX0f8FI2aflq0asp2ggvjlDkYWFhlR5ktJGCIHtBBp8vtF1vQe0iccgKEfboO1WfkBUW89HlNM51q7A0tK_aFT8skZQKkOz41jm5qyBRT_dIuqXgYU-Q8hok6IUbTWP-WRvLIEqhFCCmd-ajjEi3OEuxUMeX2QFbkT0FyPDO-8aCb4tHvTQOe8AwnX3_6qJ74siYSO5C8df1zR8-g6brra9rjkBTsJX2fvpC9CurLhWkvesiImCWMUbW5L4OCZDxr68iB6FkLuroBnGJMoKY7s7HJUpOXT09Y_-XaQoks3y33xAKNao3_uFb2Prccfs1DAUUO9JZsjCNKCTVXS9IQa4lvtbT0J783sK9yF5KS1bBxiIGuDKMTzsPFfrgeJaEIyFJwlv3xQDKfv8J_H2HGTTwbmTr0hZRIW-l1hYBvrhMyspS0]--></g></svg>